<?xml version="1.0" encoding="UTF-8"?>
<svg id="_レイヤー_2" data-name="レイヤー 2" xmlns="http://www.w3.org/2000/svg" viewBox="0 0 233.8274914 432.0431567">
  <defs>
    <style>
      .cls-1 {
        stroke-width: 0px;
      }

      .cls-2 {
        fill: #fff;
        stroke-linecap: round;
      }

      .cls-2, .cls-3 {
        stroke-linejoin: round;
      }

      .cls-2, .cls-3, .cls-4 {
        stroke-width: 3px;
      }

      .cls-2, .cls-4 {
        stroke: #040000;
      }

      .cls-3 {
        fill: #eaaa1e;
        stroke: #000;
      }

      .cls-4 {
        fill: none;
        stroke-miterlimit: 10;
      }
    </style>
  </defs>
  <g id="location">
    <g>
      <polyline class="cls-4" points="12.4479663 18.5051879 12.4479663 133.7073841 12.4479663 408.71875"/>
      <circle class="cls-2" cx="12.4479663" cy="187.6456508" r="10.9479663"/>
      <circle class="cls-2" cx="12.4479663" cy="129.6582659" r="10.9479663"/>
      <circle class="cls-2" cx="12.4479663" cy="71.670881" r="10.9479663"/>
      <circle class="cls-2" cx="12.4479663" cy="245.6330357" r="10.9479663"/>
      <circle class="cls-2" cx="12.4479663" cy="303.6204205" r="10.9479663"/>
      <g>
        <path class="cls-1" d="m54.274757,65.9550781l.3359375-.4404297c.1894531-.2099609.3154297-.4414062.4833984-.4414062.2519531,0,1.5957031,1.0292969,1.5957031,1.34375-.1259766.1679688-.4404297.3359375-.8603516.4199219v2.4150391c.0410156,2.3935547.0839844,3.1914062.1679688,4.6816406-.1894531.2314453-.8613281.5458984-1.3027344.5458984-.2304688,0-.3144531-.2099609-.3144531-.4199219.0419922-.2304688.0419922-.3564453.0839844-.734375v-.5878906h-5.8574219v2.4980469c.0410156,2.4990234.0839844,3.3173828.1679688,4.8710938-.1679688.3154297-.7558594.671875-1.2597656.671875-.2734375,0-.4833984-.2099609-.4833984-.4199219.1044922-1.6376953.1679688-2.4560547.2099609-4.9335938v-2.6875h-5.8574219v.5039062c.0410156.5039062.0410156.671875.0839844.9023438-.0839844.2519531-.6308594.5673828-1.1972656.5673828-.1894531,0-.3359375-.2099609-.3359375-.4199219.0839844-1.0292969.1054688-1.5332031.1464844-3.0869141v-1.7636719c0-1.4277344-.0839844-3.1494141-.2724609-4.3037109l1.7216797.8183594h5.7109375v-.2304688c0-1.4277344-.0839844-3.1494141-.2734375-4.3046875,2.3515625.671875,2.3515625.8818359,1.9951172,1.1337891l-.3564453.2314453v3.1699219h5.6679688Zm-12.890625,6.1523438h5.8574219v-5.5429688h-5.8574219v5.5429688Zm7.2226562,0h5.8574219v-5.5429688h-5.8574219v5.5429688Z"/>
        <path class="cls-1" d="m76.2200695,71.4140625c.2304688-.3779297.4199219-.7558594.5878906-.7558594.2519531,0,1.6171875,1.4912109,1.6171875,1.8056641-.0634766.2314453-.2314453.3359375-.5039062.3359375h-8.0625c.9023438,2.3515625,3.1699219,4.8925781,8.4824219,6.5722656l-.0214844.2519531c-.7138672.0839844-1.1757812.3359375-1.34375,1.1337891-5.1015625-2.0576172-6.8447266-5.3125-7.5585938-7.9580078h-.3984375c-.9238281,3.6953125-3.2548828,6.2363281-9.0917969,7.9580078l-.1679688-.3994141c4.9550781-1.7636719,7.0332031-4.1572266,7.9160156-7.5585938h-4.4511719c-1.0917969.0214844-2.0996094.1259766-3.1503906.2939453l-.5244141-1.0917969c.671875.1054688,1.34375.1474609,2.0576172.1679688h.9453125v-3.2119141c0-1.4277344-.0839844-3.1494141-.2734375-4.3046875l1.8261719.7978516h4.1787109c0-1.1962891-.0205078-2.4775391-.0205078-3.8417969,2.1201172.5458984,2.1201172.7558594,1.7636719,1.0078125l-.3359375.2519531-.0214844,2.5820312h4.03125l.3359375-.4199219c.1894531-.2099609.3144531-.4404297.4824219-.4404297.2519531,0,1.5546875.9863281,1.5546875,1.3017578-.1474609.1679688-.4628906.3359375-.8613281.4199219v5.8574219h.5878906l.4199219-.7558594Zm-12.3876953.7558594h3.9677734c.3994141-1.7636719.4628906-3.7792969.4628906-6.109375h-4.4306641v6.109375Zm10.0576172,0v-6.109375h-4.2421875c-.0205078,2.3095703-.125,4.3457031-.4824219,6.109375h4.7246094Z"/>
        <path class="cls-1" d="m83.8665539,69.9023438c.1894531-.2939453.3144531-.5878906.4824219-.5878906.2519531,0,1.6796875,1.3017578,1.6796875,1.6171875-.125.1464844-.3984375.3144531-.9648438.3779297v5.6474609c1.40625,1.6796875,2.9179688,1.9316406,6.3613281,1.9316406,2.3730469,0,5.5429688,0,7.9365234-.0839844v.2939453c-.5458984.1054688-.9033203.5039062-.9873047,1.1552734h-6.9277344c-3.6542969,0-5.25-.4833984-6.6777344-2.8974609-.8183594.9238281-2.1201172,2.2041016-2.9179688,2.8759766.0419922.2734375-.0625.4199219-.2304688.5253906l-.9453125-1.7636719c.7773438-.3574219,2.015625-1.0292969,3.1494141-1.7011719v-6.1728516h-.9873047c-.6289062.0214844-1.1757812.1259766-1.7636719.2939453l-.5039062-1.0917969c.671875.1054688,1.34375.1474609,2.015625.1679688h.9453125l.3359375-.5878906Zm-2.1835938-7.6630859c4.8291016,1.7421875,3.7792969,5.0810547,2.2675781,3.9892578-.2734375-1.28125-1.4697266-2.8974609-2.4775391-3.8212891l.2099609-.1679688Zm14.1308594,4.7871094c.1884766-.2519531.3144531-.5039062.4824219-.5039062.2519531,0,1.5117188,1.0917969,1.5117188,1.40625-.1259766.1679688-.4199219.3359375-.8183594.4199219v3.8632812c.0410156,2.5195312.0839844,3.359375.1679688,4.9345703-.1894531.2724609-.8613281.5878906-1.3027344.5878906-.1679688,0-.2519531-.2099609-.2519531-.4199219.0429688-.1054688.0429688-.1679688.0839844-.3574219v-.3984375h-6.4453125v.8398438c0,.1464844-.5039062.4824219-1.0498047.4824219-.2314453,0-.4199219-.2099609-.4199219-.4199219.1044922-1.3857422.1474609-2.078125.1884766-4.1572266v-2.2880859c0-1.4277344-.0839844-3.1494141-.2724609-4.3046875l1.6591797.7978516h1.6367188c.1269531-.6083984.2314453-1.34375.2734375-1.9521484h-1.6582031c-1.0507812.0205078-2.0585938.1259766-3.0664062.2939453l-.5244141-1.0917969c.9238281.1044922,1.8476562.1464844,2.7919922.1679688h4.5146484c.4833984-1.0917969.9238281-2.5615234,1.0078125-3.5908203,2.3310547.671875,2.3310547.8818359,1.9521484,1.0292969l-.3769531.1464844c-.5039062.7138672-1.2597656,1.6376953-2.015625,2.4150391h2.7714844l.4199219-.609375c.2304688-.3144531.3984375-.6298828.5664062-.6298828.2519531,0,1.6796875,1.2177734,1.6796875,1.5332031-.0419922.2304688-.2099609.3359375-.5039062.3359375h-6.0048828c-.2724609.6298828-.6298828,1.3642578-.9658203,1.9521484h3.6328125l.3359375-.4824219Zm-7.0976562-5.4804688c3.6542969,1.3017578,2.3515625,4.1152344,1.0507812,3.0029297-.0214844-.9658203-.6513672-2.1416016-1.28125-2.8769531l.2304688-.1259766Zm6.9707031,6.5507812h-6.4453125v2.1416016h6.4453125v-2.1416016Zm-6.4453125,2.7714844v2.1416016h6.4453125v-2.1416016h-6.4453125Zm0,5.1025391h6.4453125v-2.3310547h-6.4453125v2.3310547Z"/>
        <path class="cls-1" d="m107.5960461,71.3515625c.2099609-.2939453.3779297-.5878906.5458984-.5878906.2519531,0,1.4902344,1.1337891,1.4902344,1.4482422-.0625.2314453-.2519531.3359375-.5244141.3359375h-2.6669922v4.8291016c1.0078125-.2519531,2.0996094-.5458984,3.2128906-.8398438l.0839844.3154297c-1.7216797.7558594-4.03125,1.7841797-7.1171875,3.0019531-.0634766.2314453-.2734375.4199219-.4414062.4833984l-.6933594-1.7636719c.3154297-.0634766.7353516-.1474609,1.2597656-.2734375v-3.6953125c0-1.2597656-.0625-2.7714844-.2304688-3.7998047,2.015625.6083984,2.015625.8183594,1.7011719,1.0078125l-.3154297.1884766v6.0263672l1.3017578-.3154297v-9.0488281h-1.2597656v.5878906c0,.1044922-.3984375.4199219-1.0292969.4199219-.2089844,0-.3359375-.2099609-.3359375-.4199219.0634766-.671875.0839844-1.0078125.1269531-2.015625v-1.2392578c0-1.2382812-.0634766-2.7714844-.2314453-3.7792969l1.7216797.7773438h3.0234375l.2939453-.3994141c.1679688-.1884766.2939453-.3984375.4619141-.3984375.2519531,0,1.5117188.9238281,1.5117188,1.2382812-.1464844.1679688-.4619141.3359375-.8398438.4199219v1.7216797c.0419922,1.7216797.0625,2.3095703.1259766,3.3388672-.1679688.2099609-.7763672.4824219-1.1757812.4824219h-.1884766v-.734375h-.9667969v3.2753906h.7773438l.3779297-.5878906Zm-3.6533203-7.7480469v4.4306641h3.4648438v-4.4306641h-3.4648438Zm12.9960938,9.1542969c.1679688-.2304688.2734375-.4619141.4414062-.4619141.2519531,0,1.3857422.9873047,1.3857422,1.3017578-.1474609.1474609-.3154297.2734375-.7353516.3359375v2.1210938c.0429688,2.1201172.0634766,2.8339844.1474609,4.1357422-.1474609.2099609-.6513672.5253906-1.2597656.5253906-.1884766,0-.2724609-.2099609-.2724609-.4199219.0410156-.1679688.0410156-.2519531.0839844-.5039062v-.4833984h-4.9765625v1.0292969c0,.1044922-.3984375.4199219-1.0498047.4199219-.2099609,0-.4199219-.2099609-.4199219-.4199219.1044922-1.5957031.1679688-2.4150391.2099609-4.8291016v-2.6455078c-.7558594.4199219-1.5537109.7763672-2.4140625,1.1123047l-.2109375-.3144531c2.3515625-1.1337891,4.3261719-2.7089844,5.8378906-4.5566406-.671875-.9023438-1.21875-1.9101562-1.6796875-3.0019531-.8398438,1.2177734-1.7851562,2.2460938-2.8349609,3.0019531l-.2939453-.2519531c.7558594-.7978516,1.4902344-1.8681641,2.1210938-3.1074219.6503906-1.2177734,1.3007812-3.2539062,1.40625-4.4091797,2.2050781.7773438,2.2050781.9873047,1.8056641,1.1337891l-.3994141.1259766c-.1679688.4833984-.3769531.9453125-.5878906,1.3857422h3.1074219l.3994141-.4199219c.2099609-.2099609.3779297-.4404297.5458984-.4404297.2519531,0,1.34375,1.0498047,1.34375,1.3642578-.1679688.1894531-.3574219.2519531-.8398438.2734375-.671875,1.5957031-1.5742188,3.0859375-2.75,4.4296875,1.40625,1.2392578,3.2119141,2.2050781,5.4589844,2.8349609l-.0634766.2304688c-.5039062.1474609-.9238281.4833984-1.0498047,1.1337891-2.1621094-.8603516-3.7792969-2.015625-5.0390625-3.4433594-1.0078125,1.0292969-2.2050781,1.9736328-3.5898438,2.7714844l1.2167969.5039062h4.6826172l.2724609-.4619141Zm-.2089844,1.0917969h-4.9765625v4.8505859h4.9765625v-4.8505859Zm-3.7792969-9.2802734c-.1894531.3779297-.4199219.7353516-.6308594,1.0712891.5253906,1.0078125,1.1552734,1.9521484,1.953125,2.7714844.8818359-1.1972656,1.5742188-2.4990234,2.0996094-3.8427734h-3.421875Z"/>
      </g>
      <circle class="cls-3" cx="12.4479663" cy="13.6834961" r="10.9479663"/>
      <circle class="cls-2" cx="12.4479663" cy="361.6078054" r="10.9479663"/>
      <g>
        <path class="cls-1" d="m54.3177258,129.0615234c.2304688-.3144531.4199219-.6298828.5878906-.6298828.2519531,0,1.7207031,1.2177734,1.7207031,1.5332031-.0625.2304688-.2724609.3359375-.5449219.3359375h-6.9296875c1.6386719,2.75,4.9345703,5.0595703,7.9785156,6.1933594l-.0205078.2314453c-.5673828.0419922-.9873047.4199219-1.1962891,1.0498047-2.9609375-1.5537109-5.8164062-4.2207031-7.2441406-7.4746094h-.0214844v3.0859375c.0429688,2.5195312.0839844,3.359375.1679688,4.9345703-.1679688.2939453-.734375.5878906-1.2382812.5878906-.2734375,0-.4824219-.2099609-.4824219-.4199219.1044922-1.5957031.1679688-2.3935547.2089844-4.8085938v-2.6240234c-1.8476562,2.8974609-4.6816406,5.3330078-8.1875,6.9287109l-.2109375-.3154297c3.0664062-1.8261719,5.6904297-4.5351562,7.2226562-7.3691406h-3.0439453c-1.0917969.0205078-2.0996094.1259766-3.1494141.2939453l-.5253906-1.0712891c.9238281.1054688,1.8476562.1474609,2.7929688.1679688h5.1015625c0-1.3017578-.0839844-2.8759766-.2519531-3.9257812,2.3105469.6298828,2.3105469.8398438,1.953125,1.0917969l-.3574219.2304688v2.6035156h5.2285156l.4414062-.6298828Zm.7128906-4.9130859c.2109375-.2519531.3789062-.5244141.546875-.5244141.2519531,0,1.5117188,1.3642578,1.5117188,1.6796875-.1679688.1464844-.3789062.1884766-.7773438.2304688-.6933594.7773438-1.9316406,1.9111328-2.8339844,2.5410156l-.2519531-.1679688c.4199219-.6933594,1.0283203-1.7851562,1.40625-2.6455078h-12.9335938c0,1.40625-.5039062,2.3720703-1.0498047,2.7919922-.4833984.3994141-1.1962891.4833984-1.4697266,0-.1679688-.3984375.0625-.8603516.5039062-1.1542969.7558594-.5253906,1.4697266-1.9316406,1.4277344-3.4013672h.3359375c.1259766.3984375.1894531.7978516.2304688,1.1542969h8.734375c.2519531-.3359375.5039062-.7138672.7558594-1.1123047.7353516-1.1757812,1.5117188-2.7929688,1.8271484-3.9052734,2.3095703.9023438,2.3095703,1.1123047,1.8896484,1.2382812l-.3984375.1054688c-.8193359,1.1542969-2.1630859,2.5820312-3.4648438,3.6738281h3.6328125l.3769531-.5039062Zm-13.3740234-4.0517578c4.1992188,1.7001953,3.0439453,4.8291016,1.7001953,3.7158203-.125-1.2177734-1.0917969-2.6875-1.9521484-3.5478516l.2519531-.1679688Zm4.6396484-.3779297c3.90625,2.0576172,2.4785156,5.0810547,1.21875,3.8632812-.0214844-1.2392578-.7558594-2.7929688-1.4492188-3.7167969l.2304688-.1464844Z"/>
        <path class="cls-1" d="m61.8587414,135.0458984c.0419922.5664062.0419922.7558594.0839844,1.0078125-.0839844.2724609-.5253906.5878906-1.0917969.5878906-.2304688,0-.4619141-.2099609-.4619141-.4199219.1259766-1.8056641.1884766-2.7294922.2314453-5.4589844v-5.7949219c0-1.4277344-.0839844-3.1494141-.2734375-4.3046875l1.6171875.7978516h5.4794922l.3154297-.4199219c.1884766-.2099609.3144531-.4199219.4824219-.4199219.2519531,0,1.5117188.9873047,1.5117188,1.3017578-.1259766.1679688-.4824219.3359375-.8818359.4199219v8.1679688c.0419922,2.5195312.0839844,3.359375.1679688,4.9335938-.1884766.2314453-.7978516.5878906-1.2177734.5878906-.1679688,0-.2519531-.2099609-.2519531-.4199219.0419922-.1884766.0419922-.2939453.0839844-.6083984v-.5253906h-5.7949219v.5673828Zm2.2255859-12.9550781h-2.2255859v5.4804688h2.2255859v-5.4804688Zm-2.2255859,6.0888672v5.6689453h2.2255859v-5.6689453h-2.2255859Zm5.7949219-6.0888672h-2.3935547v5.4804688h2.3935547v-5.4804688Zm-2.3935547,11.7578125h2.3935547v-5.6689453h-2.3935547v5.6689453Zm7.2226562-11.421875c-.7978516.0214844-1.5751953.1259766-2.3515625.2939453l-.5244141-1.0917969c.9238281.1054688,1.8476562.1474609,2.7919922.1679688h3.4013672l.4414062-.6503906c.2519531-.3154297.4404297-.6513672.6083984-.6513672.2519531,0,1.7431641,1.28125,1.7431641,1.5957031-.0634766.2314453-.2734375.3359375-.5253906.3359375h-2.9814453v14.2568359c0,1.1123047-.2519531,1.9316406-2.1835938,2.1201172-.0419922-.4199219-.1679688-.7978516-.4619141-1.0078125-.3359375-.2519531-.8818359-.4404297-1.8896484-.5664062v-.3154297s2.2675781.1679688,2.7294922.1679688c.3984375,0,.5039062-.1259766.5039062-.4619141v-14.1933594h-1.3017578Z"/>
        <path class="cls-1" d="m96.1702649,127.3613281c.3154297-.4414062.5673828-.8818359.7353516-.8818359.2519531,0,2.3085938,1.8056641,2.3085938,2.1201172-.0625.2519531-.2929688.3359375-.6083984.3359375h-14.1728516c-1.0917969.0214844-2.0996094.1259766-3.1484375.2939453l-.5878906-1.1757812c.9238281.1054688,1.8476562.1474609,2.7919922.1679688h12.09375l.5878906-.8603516Z"/>
        <path class="cls-1" d="m105.5169445,122.5742188c-1.0917969.0205078-2.0996094.1259766-3.1484375.2939453l-.5673828-1.0498047c.9238281.1044922,1.8476562.1464844,2.7919922.1679688h12.4296875l.5039062-.7138672c.2734375-.3574219.4833984-.7138672.6513672-.7138672.2519531,0,1.9521484,1.3857422,1.9521484,1.7001953-.0625.2099609-.2724609.3154297-.5449219.3154297h-7.7060547v14.0878906c0,1.1337891-.2724609,1.9736328-2.4775391,2.1835938-.0625-.4404297-.2304688-.8183594-.5664062-1.0283203-.4199219-.2734375-1.0917969-.4619141-2.2890625-.609375v-.3144531s2.8339844.1884766,3.4013672.1884766c.4404297,0,.5878906-.1259766.5878906-.5039062v-14.0039062h-5.0185547Z"/>
        <path class="cls-1" d="m127.2522961,137.5654297c.0419922.3779297.0205078.5039062.0634766.6503906-.0634766.2939453-.5673828.671875-1.1347656.671875-.2724609,0-.5039062-.2099609-.5039062-.4199219.1269531-1.8056641.1894531-2.7294922.2314453-5.4589844v-8.2089844c0-1.4277344-.0839844-3.1494141-.2724609-4.3046875l1.7421875.8193359h9.3007812l.3574219-.4833984c.1894531-.2304688.3359375-.4824219.5039062-.4824219.2519531,0,1.7011719,1.1337891,1.7011719,1.4482422-.1679688.1894531-.5253906.3779297-.9667969.4619141v10.9394531c.0429688,2.5195312.0839844,3.359375.1679688,4.9335938-.2089844.2734375-.8398438.6513672-1.34375.6513672-.2089844,0-.2929688-.2099609-.2929688-.4199219.0410156-.2099609.0410156-.3154297.0839844-.6513672v-.5458984h-9.6376953v.3994141Zm9.6376953-15.6425781h-9.6376953v4.3886719h9.6376953v-4.3886719Zm0,4.9970703h-9.6376953v4.4511719h9.6376953v-4.4511719Zm-9.6376953,9.6376953h9.6376953v-4.5566406h-9.6376953v4.5566406Z"/>
        <path class="cls-1" d="m161.8157727,119.4667969l.3574219.4199219c-2.4355469,1.9736328-4.6191406,4.9970703-4.6191406,9.40625s2.1835938,7.4326172,4.6191406,9.40625l-.3574219.4199219c-2.8339844-1.8056641-5.6484375-4.7666016-5.6484375-9.8261719,0-5.0605469,2.8144531-8.0205078,5.6484375-9.8261719Z"/>
        <path class="cls-1" d="m167.384132,120.5791016c2.2246094.6298828,2.2246094.8398438,1.8681641,1.0917969l-.3564453.2314453v6.046875c-.0214844,4.0732422-.6933594,8.2724609-3.90625,10.9599609l-.2929688-.2519531c2.4355469-2.8349609,2.9179688-6.7607422,2.9179688-10.7080078v-3.6328125c0-1.1962891-.0625-2.7294922-.2304688-3.7373047Zm6.171875,5.0605469c0-1.3857422-.0839844-3.1494141-.2724609-4.3046875,2.2880859.6513672,2.2880859.8613281,1.9111328,1.1132812l-.3574219.2304688v8.5664062c.0419922,2.5195312.0839844,3.359375.1679688,4.9345703-.1679688.2724609-.7138672.5878906-1.2177734.5878906-.2314453,0-.4199219-.2099609-.4199219-.4199219.1044922-1.5537109.1474609-2.3310547.1884766-4.6826172v-6.0253906Zm6.3623047-.7978516c0-1.3857422-.0839844-3.1494141-.2724609-4.3046875,2.3085938.6513672,2.3085938.8613281,1.9521484,1.1132812l-.3359375.2304688v11.421875c.0419922,2.5195312.0839844,3.359375.1679688,4.9345703-.1679688.2939453-.7353516.6503906-1.2392578.6503906-.2724609,0-.5039062-.2099609-.5039062-.4199219.1269531-1.8056641.1894531-2.7294922.2314453-5.4589844v-8.1669922Z"/>
        <path class="cls-1" d="m189.2649914,136.5361328c.0429688.5878906.0429688.7978516.0839844,1.0712891-.0839844.2724609-.5878906.6083984-1.1542969.6083984-.2519531,0-.4824219-.2099609-.4824219-.4199219.125-1.8056641.1884766-2.7294922.2304688-5.4589844v-5.6689453c0-1.4277344-.0839844-3.1494141-.2734375-4.3037109l1.7226562.8183594h11.0429688l.7988281-.9863281c1.8476562,1.3857422,1.8476562,1.5957031,1.3007812,1.8056641l-.5244141.1884766v8.3144531c.0419922,2.5195312.0839844,3.359375.1679688,4.9345703-.2099609.2304688-.8603516.5664062-1.34375.5664062-.1474609,0-.2314453-.2099609-.2314453-.4199219.0429688-.3144531.0429688-.4824219.0839844-.9658203v-.6923828h-11.421875v.6083984Zm0-1.2177734h11.421875v-11.5058594h-11.421875v11.5058594Z"/>
        <path class="cls-1" d="m221.5188977,126.0175781c.1679688-.2314453.2734375-.4833984.4414062-.4833984.2519531,0,1.6376953,1.1337891,1.6376953,1.4492188-.1259766.1679688-.4404297.3564453-.8603516.4199219v7.1386719c0,1.0498047-.2519531,1.7636719-2.2050781,1.9316406-.0839844-.3994141-.2099609-.7353516-.4619141-.9453125-.3154297-.2304688-.8818359-.4404297-1.8476562-.5458984v-.3144531s2.1630859.1464844,2.6669922.1464844c.3984375,0,.5244141-.1259766.5244141-.4199219v-7.2646484h-4.7451172v5.984375c.0419922,2.5195312.0839844,3.359375.1679688,4.9335938-.1679688.3154297-.7978516.6933594-1.28125.6933594-.2724609,0-.5039062-.2099609-.5039062-.4199219.1269531-1.8056641.1894531-2.7294922.2314453-5.4589844v-5.7324219h-4.6826172v3.9267578c.0429688,2.5195312.0839844,3.359375.1679688,4.9335938-.1679688.2519531-.6923828.5673828-1.2597656.5673828-.2304688,0-.3984375-.2099609-.3984375-.4199219.0839844-1.3017578.1259766-1.953125.1679688-3.9267578v-2.1835938c0-1.4277344-.0839844-3.1494141-.2734375-4.3037109l1.7011719.7763672h4.5771484v-3.1074219h-4.9345703c-1.0917969.0214844-2.0996094.1259766-3.1484375.2939453l-.546875-1.0917969c.9238281.1054688,1.8476562.1474609,2.7929688.1679688h5.8369141c0-1.0703125-.0634766-2.3515625-.1884766-3.2333984,2.2675781.6513672,2.2675781.8613281,1.9101562,1.1132812l-.3359375.2304688v1.8896484h5.6054688l.4628906-.6503906c.2519531-.3359375.4609375-.671875.6289062-.671875.2519531,0,1.8476562,1.3017578,1.8476562,1.6162109-.0625.2314453-.2724609.3359375-.5449219.3359375h-8.2939453c.9033203.4199219.9033203.6298828.5878906.8613281l-.2939453.2099609v2.0361328h4.5566406l.2929688-.4824219Z"/>
        <path class="cls-1" d="m228.1790539,119.4667969c2.8339844,1.8056641,5.6484375,4.765625,5.6484375,9.8261719,0,5.0595703-2.8144531,8.0205078-5.6484375,9.8261719l-.3574219-.4199219c2.4355469-1.9736328,4.6191406-4.9970703,4.6191406-9.40625s-2.1835938-7.4326172-4.6191406-9.40625l.3574219-.4199219Z"/>
      </g>
      <g>
        <path class="cls-1" d="m57.2044445,182.2148438l.3359375-.4404297c.1894531-.2099609.3154297-.4404297.4833984-.4404297.2519531,0,1.5957031,1.0283203,1.5957031,1.34375-.1259766.1679688-.4404297.3359375-.8603516.4199219v2.4140625c.0410156,2.3935547.0839844,3.1914062.1679688,4.6816406-.1894531.2314453-.8613281.546875-1.3027344.546875-.2304688,0-.3144531-.2109375-.3144531-.4199219.0419922-.2314453.0419922-.3574219.0839844-.7353516v-.5878906h-5.8574219v2.4990234c.0410156,2.4980469.0839844,3.3164062.1679688,4.8710938-.1679688.3144531-.7558594.671875-1.2597656.671875-.2734375,0-.4833984-.2109375-.4833984-.4199219.1044922-1.6386719.1679688-2.4570312.2099609-4.9345703v-2.6875h-5.8574219v.5039062c.0410156.5039062.0410156.671875.0839844.9033203-.0839844.2519531-.6308594.5664062-1.1972656.5664062-.1894531,0-.3359375-.2099609-.3359375-.4199219.0839844-1.0292969.1054688-1.5332031.1464844-3.0859375v-1.7636719c0-1.4277344-.0839844-3.1503906-.2724609-4.3046875l1.7216797.8183594h5.7109375v-.2304688c0-1.4277344-.0839844-3.1494141-.2734375-4.3046875,2.3515625.671875,2.3515625.8828125,1.9951172,1.1347656l-.3564453.2304688v3.1699219h5.6679688Zm-12.890625,6.1523438h5.8574219v-5.5429688h-5.8574219v5.5429688Zm7.2226562,0h5.8574219v-5.5429688h-5.8574219v5.5429688Z"/>
        <path class="cls-1" d="m79.9896008,188.4511719c-.7138672,6.7607422-8.9238281,6.8242188-9.3847656,6.8867188-.671875.0625-1.0507812.0625-1.0712891-.0839844-.0419922-.1259766.5458984-.1894531.8193359-.2304688,2.3300781-.3789062,7.7265625-1.9746094,8.1464844-6.8662109.4404297-4.8916016-3.0449219-6.8662109-5.984375-7.0341797-.2734375-.0205078-.5458984-.0205078-.8183594,0,.3359375.6933594,1.2382812,2.8984375-.2949219,6.5097656-1.7001953,4.0097656-4.15625,5.8994141-5.0175781,5.7949219-.8818359-.1054688-2.3730469-1.7636719-2.5410156-4.3671875-.3564453-5.2705078,4.0107422-8.0419922,7.0341797-8.5253906,3.3798828-.5449219,9.8056641,1.1132812,9.1123047,7.9160156Zm-8.6503906-7.3066406c-2.5820312.2939453-5.1230469,1.9941406-6.109375,4.9970703-1.1347656,3.4638672.6289062,5.3330078,1.0488281,5.5429688.3994141.2099609.9238281-.2099609.9238281-.2099609,2.4355469-1.7851562,3.8007812-5.2285156,4.0742188-6.1933594.2724609-.9873047.4199219-2.9609375.0625-4.1367188Z"/>
        <path class="cls-1" d="m88.5813977,182.1523438c.2089844-.2939453.3769531-.5878906.5449219-.5878906.2519531,0,1.4912109,1.1337891,1.4912109,1.4492188-.0634766.2304688-.2314453.3359375-.5039062.3359375h-2.4150391v1.34375c3.4863281,1.8886719,2.3310547,4.3457031,1.1552734,3.3378906-.1044922-.8613281-.6513672-1.953125-1.1552734-2.7929688v6.2148438c.0429688,2.5195312.0839844,3.359375.1679688,4.9345703-.1679688.3154297-.7128906.6083984-1.1757812.6083984-.2519531,0-.4824219-.2089844-.4824219-.4199219.1259766-1.8046875.1894531-2.7285156.2304688-5.4589844v-3.8203125c-.6503906,1.7841797-1.5117188,3.4003906-2.6445312,4.828125l-.2734375-.2724609c1.3652344-2.4150391,2.1835938-5.4589844,2.625-8.5029297h-.7773438c-.4619141.0205078-.8398438.125-1.2597656.2929688l-.5253906-1.0917969c.6308594.1054688,1.2597656.1474609,1.9316406.1679688h.9238281v-.6923828c0-1.4277344-.0839844-3.1494141-.2724609-4.3037109,2.2675781.6503906,2.2675781.8603516,1.8896484,1.1123047l-.3574219.2314453v3.6523438h.5039062l.3789062-.5664062Zm11.3583984-1.2597656c.2099609-.2734375.3779297-.5664062.5458984-.5664062.2519531,0,1.6171875,1.1123047,1.6171875,1.4277344-.0429688.2304688-.2519531.3359375-.5253906.3359375h-3.8007812c1.0917969,1.2167969,2.8769531,2.0361328,4.4726562,2.4355469v.2304688c-.4619141.1054688-.8398438.4619141-.9863281,1.0703125-.7988281-.3564453-1.5546875-.8183594-2.2265625-1.4277344l-.1464844.0429688v.9023438c.0419922.9023438.0419922,1.2177734.0839844,1.7011719-.0839844.2519531-.734375.5244141-1.1337891.5244141h-.1884766v-.5878906h-3.90625v.4404297c0,.1054688-.5449219.3789062-1.0283203.3789062-.1679688,0-.2939453-.2109375-.2939453-.4199219.0625-.6308594.0839844-.9667969.1259766-1.9316406v-1.1972656c-.8398438.7138672-1.7431641,1.34375-2.7509766,1.8476562l-.1679688-.3144531c1.4277344-.9873047,2.6035156-2.2675781,3.4648438-3.6953125h-.9863281c-.6308594.0205078-1.1757812.125-1.7636719.2929688l-.546875-1.0917969c.8193359.1054688,1.6386719.1474609,2.4785156.1679688h1.1757812c.2519531-.5039062.4609375-1.0488281.6503906-1.5742188-1.2382812.1054688-2.4775391.1679688-3.6953125.1679688l-.0839844-.4199219c1.5957031-.1464844,3.3808594-.4414062,4.9970703-.7773438,1.3642578-.2724609,2.6875-.7128906,3.7158203-1.2802734,1.3232422,1.5751953,1.3232422,1.7841797.8193359,1.7216797l-.4833984-.0839844c-1.0283203.1894531-2.3085938.3779297-3.6953125.5253906-.2304688.6083984-.5039062,1.1757812-.8183594,1.7207031h4.6816406l.3994141-.5664062Zm-8.4404297,10.7285156c.0419922,2.4570312.0839844,3.2753906.1679688,4.8085938-.1679688.2519531-.6933594.5664062-1.2177734.5664062-.1884766,0-.3359375-.2089844-.3359375-.4199219.0839844-.9443359.1044922-1.4277344.1474609-2.8554688v-1.6582031c0-1.4277344-.0839844-3.1494141-.2734375-4.3046875l1.6376953.7773438h8.2939453l.2724609-.4199219c.1474609-.2099609.2519531-.4199219.4199219-.4199219.2519531,0,1.6162109,1.0078125,1.6162109,1.3222656-.125.1474609-.4609375.3154297-.8603516.3789062v5.7734375c0,1.0078125-.1884766,1.6376953-1.8271484,1.8261719-.0410156-.3769531-.125-.734375-.3359375-.9023438-.2724609-.2099609-.6289062-.3574219-1.3642578-.4619141v-.3359375s1.5117188.1044922,1.8896484.1044922c.3144531,0,.3984375-.1044922.3984375-.3564453v-5.8789062h-8.6289062v2.4560547Zm5.7949219-1.6162109c.1679688-.2099609.2734375-.4199219.4414062-.4199219.2519531,0,1.2597656.9238281,1.2597656,1.2392578-.1054688.125-.3574219.2519531-.6933594.3144531v1.0078125c.0419922,1.0078125.0419922,1.34375.1054688,1.9101562-.1054688.2519531-.671875.5673828-1.0712891.5673828h-.1474609v-.8398438h-2.9599609v.8398438c0,.1044922-.4833984.3779297-.9443359.3779297-.1474609,0-.2519531-.2099609-.2519531-.4199219.0625-.4199219.0625-.6503906.1044922-1.3017578v-.8603516c0-.8613281-.0419922-1.953125-.1679688-2.6875l1.34375.671875h2.7080078l.2734375-.3994141Zm-3.4433594-6.2568359h3.6533203l.4619141-.4824219c-.2734375-.3574219-.5253906-.7558594-.7558594-1.1757812h-2.75c-.3359375.5039062-.7353516.9648438-1.1552734,1.40625l.5458984.2519531Zm-.1054688,2.625h3.90625v-2.015625h-3.90625v2.015625Zm.4833984,6.78125h2.9599609v-2.1416016h-2.9599609v2.1416016Z"/>
      </g>
      <g>
        <path class="cls-1" d="m43.9515149,236.8388672c2.2255859.6298828,2.2255859.8398438,1.8681641,1.0917969l-.3564453.2314453v6.046875c-.0205078,4.0722656-.6923828,8.2714844-3.9052734,10.9589844l-.2939453-.2519531c2.4355469-2.8339844,2.9189453-6.7597656,2.9189453-10.7070312v-3.6328125c0-1.1972656-.0634766-2.7294922-.2314453-3.7373047Zm6.1728516,5.0595703c0-1.3847656-.0839844-3.1484375-.2734375-4.3037109,2.2890625.6513672,2.2890625.8603516,1.9111328,1.1123047l-.3564453.2314453v8.5664062c.0410156,2.5195312.0839844,3.359375.1679688,4.9345703-.1679688.2724609-.7148438.5878906-1.21875.5878906-.2304688,0-.4199219-.2109375-.4199219-.4199219.1054688-1.5546875.1474609-2.3310547.1894531-4.6826172v-6.0263672Zm6.3613281-.796875c0-1.3867188-.0839844-3.1503906-.2724609-4.3046875,2.3095703.6503906,2.3095703.8613281,1.9521484,1.1132812l-.3359375.2304688v11.421875c.0429688,2.5195312.0839844,3.359375.1679688,4.9335938-.1679688.2949219-.734375.6513672-1.2382812.6513672-.2734375,0-.5039062-.2099609-.5039062-.4199219.1259766-1.8056641.1894531-2.7294922.2304688-5.4589844v-8.1669922Z"/>
        <path class="cls-1" d="m65.8333508,252.7958984c.0419922.5878906.0419922.7978516.0839844,1.0712891-.0839844.2724609-.5878906.6083984-1.1542969.6083984-.2519531,0-.4833984-.2099609-.4833984-.4199219.1259766-1.8056641.1884766-2.7294922.2314453-5.4589844v-5.6689453c0-1.4277344-.0839844-3.1494141-.2734375-4.3046875l1.7216797.8193359h11.0439453l.7978516-.9873047c1.8476562,1.3867188,1.8476562,1.5957031,1.3017578,1.8066406l-.5253906.1884766v8.3144531c.0429688,2.5195312.0839844,3.359375.1679688,4.9345703-.2089844.2304688-.8603516.5664062-1.34375.5664062-.1464844,0-.2304688-.2099609-.2304688-.4199219.0419922-.3144531.0419922-.4824219.0839844-.9658203v-.6923828h-11.421875v.6083984Zm0-1.2177734h11.421875v-11.5058594h-11.421875v11.5058594Z"/>
        <path class="cls-1" d="m98.024757,238.3710938c.2519531-.3359375.4609375-.6923828.6289062-.6923828.2519531,0,1.8691406,1.34375,1.8691406,1.6591797-.0625.2304688-.2734375.3359375-.5458984.3359375h-6.7392578v13.1220703h5.6474609l.4833984-.671875c.2519531-.3359375.4609375-.6923828.6289062-.6923828.2519531,0,1.8691406,1.34375,1.8691406,1.6582031-.0625.2304688-.2304688.3359375-.5253906.3359375h-14.4658203c-1.0917969.0214844-2.0996094.1259766-3.1494141.2939453l-.5458984-1.0917969c.9238281.1044922,1.8476562.1474609,2.7919922.1679688h5.8583984v-13.1220703h-3.5693359c-1.0917969.0205078-2.0996094.125-3.1494141.2929688l-.5458984-1.0917969c.9238281.1054688,1.8476562.1474609,2.7929688.1679688h10.1826172l.4833984-.671875Z"/>
        <path class="cls-1" d="m120.2415539,247.9248047c.2314453-.2939453.4199219-.6083984.5878906-.6083984.2519531,0,1.6386719,1.1757812,1.6386719,1.4902344-.0634766.2304688-.2519531.3144531-.546875.3144531h-7.0546875c1.9111328,1.9951172,5.2705078,3.6328125,8.0419922,4.3671875l-.0205078.2314453c-.5039062.0634766-.9667969.4833984-1.1132812,1.0917969-2.8339844-1.0917969-5.7529297-3.1494141-7.453125-5.6904297h-.1474609v1.890625c.0419922,1.8681641.0634766,2.4980469.1259766,3.6318359-.1259766.2099609-.5664062.5039062-1.2382812.5039062-.2314453,0-.3789062-.2099609-.3789062-.4199219.0839844-1.0712891.1054688-1.6162109.1474609-3.2333984v-1.8261719c-2.0361328,2.1621094-5.0595703,3.9257812-8.3349609,5.0800781l-.1894531-.3564453c2.8554688-1.3017578,5.5009766-3.2548828,7.2441406-5.2705078h-3.2128906c-1.0917969.0214844-2.0996094.1269531-3.1494141.2949219l-.5673828-1.0712891c.9238281.1044922,1.8476562.1474609,2.7929688.1679688h5.4169922v-2.0576172h-2.5400391c-1.0917969.0214844-2.0996094.1259766-3.1503906.2939453l-.5449219-1.0917969c.9238281.1044922,1.8476562.1474609,2.7919922.1679688h3.4433594v-1.9316406h-3.5273438c-1.0917969.0205078-2.0996094.1259766-3.1494141.2939453l-.5458984-1.0917969c.9238281.1054688,1.8476562.1464844,2.7919922.1679688h2.3730469c-.1259766-.9238281-.7978516-2.0371094-1.4492188-2.75h-1.5527344c-.9667969.0205078-1.9111328.125-2.8554688.2929688l-.5673828-1.0703125c.9238281.1054688,1.8476562.1464844,2.7919922.1679688h4.1787109c0-1.34375-.0839844-2.9609375-.2519531-4.0527344,2.1201172.6308594,2.1201172.8398438,1.8056641,1.0507812l-.2939453.2089844v2.7929688h2.0576172c0-1.34375-.0839844-2.9609375-.2519531-4.0527344,2.1416016.6308594,2.1416016.8398438,1.8056641,1.0712891l-.3154297.2099609v2.7714844h.7353516c.7978516-1.1132812,1.5957031-2.6455078,1.9111328-3.7578125,2.0566406.8398438,2.0566406,1.0488281,1.6367188,1.1542969l-.3984375.1054688c-.6298828.796875-1.6171875,1.7421875-2.5615234,2.4980469h2.8759766l.3994141-.5878906c.2314453-.2939453.3994141-.5878906.5673828-.5878906.2519531,0,1.6582031,1.1542969,1.6582031,1.4697266-.0625.2314453-.2734375.3154297-.5458984.3154297h-4.8505859c1.0507812.2304688,1.0507812.4404297.6513672.5878906l-.3779297.125c-.4824219.6308594-1.2177734,1.3867188-1.9101562,2.0371094h3.4003906l.3994141-.5664062c.2099609-.2734375.3779297-.5673828.5458984-.5673828.2519531,0,1.5957031,1.1123047,1.5957031,1.4277344-.0419922.2314453-.2304688.3359375-.5253906.3359375h-6.9072266v1.9316406h3.8632812l.3779297-.5244141c.2099609-.2734375.3779297-.546875.5458984-.546875.2519531,0,1.5117188,1.0507812,1.5117188,1.3652344-.0634766.2304688-.2519531.3359375-.5458984.3359375h-5.7529297v2.0576172h5.6474609l.4199219-.5878906Zm-13.0800781-11.4853516c3.8417969,1.3652344,2.8134766,4.0947266,1.6171875,3.1503906-.1894531-1.0078125-1.0507812-2.2890625-1.8691406-2.9824219l.2519531-.1679688Zm4.5566406,6.8242188h3.2324219c.5253906-.8183594,1.0712891-1.8896484,1.4492188-2.75h-6.3408203c1.8681641.9443359,2.0576172,2.2460938,1.6591797,2.75Z"/>
        <path class="cls-1" d="m127.993507,248.1767578l-.3359375.1884766c-.4619141,1.953125-1.1757812,3.9472656-2.078125,5.2705078l-.3359375-.1884766c.1884766-.4833984.3564453-1.0507812.5244141-1.6386719.3359375-1.34375.5673828-3.2753906.5244141-4.4511719l1.1552734.3359375c.9033203.0839844.9033203.2949219.5458984.4833984Zm3.0449219-3.5908203c-.2519531-.6083984-.546875-1.1962891-.7988281-1.6582031l.2314453-.1054688c3.4638672,2.1835938,2.2255859,4.8300781,1.0712891,3.7167969-.0429688-.4619141-.1679688-1.0078125-.3359375-1.5332031-.4414062.1054688-.9238281.2314453-1.4277344.3574219v4.3251953c.0410156,2.5195312.0839844,3.359375.1679688,4.9345703-.1679688.2089844-.609375.5449219-1.21875.5449219-.1884766,0-.4199219-.2089844-.4199219-.4199219.1269531-1.8046875.1894531-2.7285156.2314453-5.4589844v-3.6523438c-.671875.1464844-1.4072266.2929688-2.2255859.4609375-.0839844.2734375-.2939453.3789062-.4824219.4199219l-.4833984-1.5527344c.4404297,0,1.0917969-.0429688,1.9111328-.0839844.4824219-.7988281,1.0078125-1.7011719,1.4902344-2.625.6298828-1.2382812,1.3017578-2.8134766,1.5537109-3.96875,2.0791016.9873047,2.0791016,1.1972656,1.6796875,1.28125l-.3779297.0839844c-.8818359,1.5117188-2.3300781,3.5693359-3.7792969,5.1855469.9658203-.0625,2.078125-.1464844,3.2128906-.2519531Zm-2.7509766-8.8388672c2.2041016.8193359,2.2041016,1.0283203,1.8476562,1.1757812l-.3564453.1259766c-.6308594,1.0703125-1.4277344,2.1835938-2.2050781,3.0234375,1.5957031,1.3222656.7978516,2.8554688-.2099609,2.1210938-.1679688-.9667969-1.0917969-2.2050781-1.8476562-2.9189453l.2099609-.1679688c.5664062.1884766,1.0292969.4199219,1.4277344.6513672.5458984-1.21875,1.0078125-2.8984375,1.1337891-4.0107422Zm2.3515625,11.5263672c3.0439453,2.3515625,1.6796875,4.9140625.6298828,3.7587891,0-1.1757812-.4824219-2.6875-.8818359-3.6533203l.2519531-.1054688Zm3.4638672,1.6171875c.2519531,1.953125-.2519531,3.5488281-.7763672,4.2207031-.3564453.4609375-1.0712891.671875-1.3642578.2724609-.2314453-.3564453-.0429688-.8193359.3144531-1.1757812.5664062-.5878906,1.34375-2.0576172,1.4697266-3.359375l.3564453.0419922Zm2.3945312-10.6445312l-.3789062.125c-.8808594,1.7226562-2.140625,3.1914062-3.421875,4.0947266l-.2939453-.2314453c.2519531-.2929688.5039062-.6289062.7558594-1.0283203.7558594-1.1552734,1.4482422-3.0029297,1.6162109-4.1787109l1.1552734.5878906c.9443359.2949219.9443359.5039062.5673828.6308594Zm3.8203125,5.8789062c-.4609375-.7353516-.9863281-1.4277344-1.4902344-1.9316406l.2099609-.1679688c4.5351562,2.0566406,3.4853516,5.2480469,2.1416016,4.1777344-.1054688-.5253906-.3144531-1.0703125-.6298828-1.6376953-1.5117188.3154297-3.4853516.7353516-6.046875,1.1962891-.1259766.2519531-.3154297.3789062-.5244141.4199219l-.546875-1.7421875c.4414062,0,1.0917969-.0214844,1.8691406-.0625.0839844-.2109375.1679688-.4414062.2519531-.671875.4824219-1.3027344.9658203-3.0029297,1.0498047-4.1787109,2.2470703.5244141,2.2470703.7353516,1.8896484.9033203l-.3574219.1679688c-.5244141,1.1123047-1.3642578,2.5400391-2.2246094,3.7578125,1.2802734-.0625,2.8125-.1259766,4.4082031-.2304688Zm-5.3320312,3.8632812c1.9726562.6289062,1.9726562.8398438,1.6582031,1.0488281l-.2939453.2109375v3.9042969c0,.2734375.0634766.3359375.6298828.3359375h1.4277344c.6503906,0,1.1542969,0,1.34375-.0205078.1679688-.0205078.2304688-.0634766.3144531-.2519531.1474609-.3154297.3154297-1.3857422.5253906-2.4990234h.2734375l.0625,2.5830078c.3984375.1474609.4619141.3154297.4619141.5673828,0,.5664062-.5244141.8398438-3.0234375.8398438h-1.6376953c-1.3652344,0-1.5742188-.3154297-1.5742188-1.2392578v-2.6875c0-.8818359-.0429688-2.015625-.1679688-2.7919922Zm1.34375-1.4492188c4.3242188,1.3222656,3.4638672,4.3457031,2.140625,3.4433594-.2519531-1.1337891-1.40625-2.5195312-2.3515625-3.2333984l.2109375-.2099609Zm7.7675781-5.4589844l-.0410156.2304688c-.4833984.1269531-.9667969.546875-1.1132812,1.0507812-1.6582031-1.2597656-2.8554688-3.0664062-3.4013672-5.1445312h-.9658203c-.5878906.0214844-1.0917969.1259766-1.6376953.2939453l-.5673828-1.0712891c.6308594.1054688,1.2597656.1474609,1.890625.1679688h.8603516l.5878906-.9023438,1.6376953,1.1542969c-.2099609.2314453-.6933594.3789062-1.2597656.3994141.6503906,1.4912109,2.1835938,2.9599609,4.0097656,3.8212891Zm-3.2958984,7.0966797c4.3466797,2.6455078,3.1074219,5.9423828,1.7841797,4.703125-.1464844-1.4912109-1.1542969-3.4013672-2.0361328-4.5556641l.2519531-.1474609Z"/>
        <path class="cls-1" d="m146.3274914,245.3417969l-.1474609-.3144531c2.2880859-1.3222656,4.8710938-3.6533203,6.6552734-5.9414062.8398438-1.0917969,1.4912109-2.3310547,1.7226562-3.4863281l2.5820312.7988281c-.0625.2519531-.3144531.3359375-.8183594.3769531,1.7841797,2.6464844,5.1230469,4.9140625,8.6708984,6.3828125l-.0419922.3154297c-.5664062.1044922-1.0498047.5673828-1.1757812,1.0917969-3.3378906-1.7216797-6.4042969-4.4716797-7.8320312-7.5380859-1.8681641,3.0449219-5.7949219,6.5097656-9.6152344,8.3144531Zm4.8496094,8.609375c.0419922.3564453.0214844.4824219.0625.6083984-.0625.2519531-.6503906.5673828-1.2167969.5673828-.2314453,0-.3574219-.2109375-.3574219-.4199219.0625-.7988281.0839844-1.1972656.1259766-2.3945312v-1.4277344c0-1.4277344-.0839844-3.1484375-.2724609-4.3037109l1.7636719.7978516h8.5029297l.3154297-.4414062c.1884766-.2089844.3144531-.4404297.4824219-.4404297.2519531,0,1.6171875,1.0283203,1.6171875,1.34375-.1474609.1679688-.4628906.3359375-.8398438.4199219v2.0996094c.0410156,2.0791016.0625,2.7714844.1464844,4.0517578-.1679688.2519531-.8818359.546875-1.3222656.546875-.2109375,0-.2949219-.2109375-.2949219-.4199219.0429688-.1474609.0429688-.2314453.0839844-.4833984v-.4619141h-8.796875v.3574219Zm2.7714844-9.8691406c-.9658203.0214844-1.8476562.1269531-2.7714844.2949219l-.5458984-1.0712891c.9238281.1044922,1.8476562.1474609,2.7919922.1679688h4.3886719l.4199219-.6083984c.2304688-.2949219.3984375-.609375.5664062-.609375.2519531,0,1.6796875,1.1972656,1.6796875,1.5117188-.0625.2099609-.2519531.3144531-.5449219.3144531h-5.984375Zm-2.7714844,8.8818359h8.796875v-4.9755859h-8.796875v4.9755859Z"/>
        <path class="cls-1" d="m168.1673352,248.7011719c0,.2519531-.1269531.5039062-.3154297.6308594l-.8193359-1.7011719c.609375-.2939453,1.9951172-1.1972656,3.4863281-2.1621094.0205078-.5253906.0205078-1.0507812.0205078-1.5751953v-3.2119141c0-1.0917969-.0634766-2.3945312-.2099609-3.296875l1.7421875.8818359h4.9345703c0-.7763672-.0419922-1.7636719-.1474609-2.4355469,2.1835938.6298828,2.1835938.8398438,1.8271484,1.0712891l-.3359375.2304688v1.1337891h4.7871094l.4199219-.6298828c.2314453-.3144531.3994141-.6298828.5673828-.6298828.2519531,0,1.6796875,1.2177734,1.6796875,1.5322266-.0634766.2109375-.2519531.3154297-.5253906.3154297h-13.4589844v5.0185547c0,3.7363281-.3984375,8.2929688-4.1992188,11.2949219l-.2724609-.2519531c2.2470703-2.4980469,2.9394531-5.5634766,3.1279297-8.734375-.6289062.6933594-1.40625,1.5751953-2.3085938,2.5195312Zm-.3789062-8.9433594c3.3388672,2.4765625,1.9746094,5.2910156.8613281,4.09375.0214844-1.3017578-.5664062-2.9394531-1.1337891-3.96875l.2724609-.125Zm15.6425781,4.6191406c.1679688-.2519531.2939453-.5039062.4619141-.5039062.2519531,0,1.5751953,1.1123047,1.5751953,1.4277344-.1269531.1679688-.4628906.3359375-.8613281.4199219v7.6630859c0,.9443359-.2304688,1.5537109-1.9316406,1.7001953-.0625-.3359375-.1679688-.6289062-.3779297-.796875-.2939453-.1894531-.7353516-.3154297-1.5322266-.4199219v-.3359375s1.7207031.125,2.140625.125c.3574219,0,.4414062-.1044922.4414062-.4199219v-7.7675781h-4.09375c-.1054688.5878906-.2314453,1.1542969-.3994141,1.7001953,4.9130859,1.8896484,4.0517578,4.8916016,2.6875,3.9267578-.3994141-1.1552734-1.7001953-2.625-2.7919922-3.5908203-.5878906,1.6591797-1.7011719,3.1074219-3.7587891,4.2626953l-.2724609-.3359375c2.2041016-1.6171875,2.9804688-3.6328125,3.2539062-5.9628906h-3.5488281v4.1357422c.0429688,2.5195312.0839844,3.359375.1679688,4.9345703-.1679688.2519531-.6503906.5664062-1.1962891.5664062-.1884766,0-.3779297-.2099609-.3779297-.4199219.1054688-1.34375.1464844-2.015625.1894531-4.0527344v-2.2460938c0-1.4277344-.0839844-3.1494141-.2734375-4.3046875l1.5957031.7773438h3.5058594c.0839844-.8613281.1054688-1.7851562.1269531-2.7294922h-1.9316406c-1.0917969.0205078-2.0996094.1259766-3.1503906.2939453l-.5244141-1.0703125c.9238281.1044922,1.8476562.1464844,2.7919922.1679688h7.6640625l.4199219-.609375c.2304688-.2939453.3984375-.609375.5664062-.609375.2519531,0,1.6796875,1.1757812,1.6796875,1.4912109-.0625.2314453-.2519531.3359375-.5244141.3359375h-5.6689453c-.0214844.9658203-.0625,1.8681641-.1464844,2.7294922h3.7998047l.2939453-.4824219Z"/>
        <path class="cls-1" d="m190.3636242,237.8466797v11.8417969c.0419922,2.5195312.0839844,3.359375.1679688,4.9345703-.1679688.2089844-.5673828.5878906-1.1962891.5878906-.1894531,0-.4199219-.2109375-.4199219-.4199219.125-1.8066406.1884766-2.7304688.2304688-5.4589844v-8.5664062c0-1.4277344-.0839844-3.1503906-.2734375-4.3046875l1.7636719.7773438h2.1630859l.3779297-.4199219c.2099609-.2109375.3574219-.4414062.5253906-.4414062.2519531,0,1.4902344,1.28125,1.4902344,1.5957031-.1259766.1894531-.4199219.2304688-.9023438.2519531-.5673828,1.1757812-1.7011719,3.4648438-2.5195312,4.640625,1.8476562,1.5322266,2.5400391,3.1914062,2.5400391,4.7236328.0205078,1.8896484-.6298828,2.7919922-2.4560547,2.8759766,0-.4199219-.0634766-.8808594-.1894531-1.0488281-.1464844-.1474609-.5039062-.2734375-.9453125-.3154297v-.3154297h1.28125c.2304688,0,.3574219-.0205078.5253906-.125.2929688-.1894531.4609375-.609375.4609375-1.34375,0-1.4492188-.4404297-2.9189453-1.7001953-4.3886719.4833984-1.2382812,1.1337891-3.5273438,1.5751953-5.0810547h-2.4990234Zm14.2353516,7.1806641c.2304688-.3144531.3984375-.6298828.5664062-.6298828.2519531,0,1.6386719,1.1962891,1.6386719,1.5117188-.0429688.2314453-.2314453.3359375-.5039062.3359375h-3.8847656v6.8232422c0,.2734375.0625.3574219.5664062.3574219h1.1972656c.5458984,0,.9658203,0,1.1542969-.0214844.1679688,0,.2109375-.0410156.3154297-.2304688.1259766-.3144531.3359375-1.5537109.5458984-2.7089844h.2519531l.0625,2.7929688c.3789062.1679688.4833984.3359375.4833984.5878906,0,.5664062-.5244141.8398438-2.8349609.8398438h-1.46875c-1.3027344,0-1.5117188-.3359375-1.5117188-1.3017578v-7.1386719h-2.1835938c-.2734375,4.8076172-1.6796875,7.3271484-6.4667969,8.9023438l-.1269531-.3359375c4.0527344-1.9316406,5.0185547-4.3251953,5.1865234-8.5664062h-.9873047c-.5878906.0205078-1.1328125.1259766-1.6796875.2939453l-.5449219-1.0703125c.9238281.1044922,1.8476562.1464844,2.7919922.1679688h7.0341797l.3984375-.609375Zm.3779297-6.8242188c.2099609-.2724609.3779297-.5449219.5458984-.5449219.2519531,0,1.5117188,1.40625,1.5117188,1.7207031-.1464844.1679688-.3574219.2109375-.734375.2314453-.4833984.4833984-1.3232422,1.1552734-1.9111328,1.5322266l-.2724609-.125c.1679688-.4199219.3769531-1.1132812.5449219-1.6796875h-8.4394531c-.0214844.9443359-.3154297,1.6582031-.671875,2.015625-.3994141.3769531-1.0917969.4609375-1.34375-.0214844-.1894531-.4199219.0410156-.8818359.4404297-1.1542969.5244141-.4414062,1.0078125-1.5957031.9238281-2.625h.3564453c.1269531.4199219.2109375.8183594.2519531,1.1757812h3.296875c0-.9238281-.0419922-2.078125-.1679688-2.8769531,2.1835938.6513672,2.1835938.8613281,1.8261719,1.0917969l-.3564453.2314453v1.5537109h3.8212891l.3779297-.5253906Zm-6.2783203,4.6621094c-.9648438.0205078-1.8886719.125-2.8125.2929688l-.546875-1.0703125c.9238281.1054688,1.8476562.1464844,2.7929688.1679688h4.6191406l.3779297-.5664062c.2099609-.2949219.3779297-.5878906.5458984-.5878906.2519531,0,1.5957031,1.1123047,1.5957031,1.4277344-.0625.2304688-.2519531.3359375-.5253906.3359375h-6.046875Z"/>
      </g>
      <g>
        <path class="cls-1" d="m53.6243664,301.75c.2519531-.3144531.4414062-.6503906.609375-.6503906.2519531,0,1.7841797,1.2802734,1.7841797,1.5957031-.0419922.2304688-.2314453.3359375-.5458984.3359375h-6.3203125c1.8271484,3.2539062,5.1660156,6.0673828,8.2519531,7.3486328l-.0625.2099609c-.5253906.0839844-1.0292969.4824219-1.21875,1.1542969-3.0234375-1.7216797-5.8359375-4.8076172-7.4111328-8.7128906h-.0839844v4.6611328c.0419922,2.5195312.0839844,3.359375.1679688,4.9335938-.1679688.3154297-.7353516.671875-1.2597656.671875-.2724609,0-.5039062-.2099609-.5039062-.4199219.1259766-1.8056641.1884766-2.7294922.2314453-5.4589844v-3.4433594c-1.890625,3.2333984-4.8300781,6.0048828-8.4199219,7.8945312l-.2099609-.3144531c3.1914062-2.1210938,5.9208984-5.3330078,7.4951172-8.5244141h-2.5820312c-1.0917969.0205078-2.0996094.1259766-3.1494141.2939453l-.5673828-1.0917969c.9238281.1044922,1.8476562.1464844,2.7929688.1679688h4.640625v-3.8007812h-4.7666016c-1.0917969.0214844-2.0996094.1259766-3.1494141.2939453l-.5458984-1.0498047c.9238281.1054688,1.8476562.1474609,2.7919922.1679688h5.6699219c0-1.3222656-.0839844-2.9814453-.2519531-4.0732422,2.3085938.671875,2.3085938.8818359,1.9521484,1.1337891l-.3359375.2314453v2.7080078h5.5634766l.4628906-.6503906c.2519531-.3154297.4404297-.6513672.6083984-.6513672.2519531,0,1.8056641,1.2597656,1.8056641,1.5751953-.0625.2304688-.2519531.3144531-.5458984.3144531h-7.8945312v3.8007812h4.5351562l.4619141-.6513672Z"/>
        <path class="cls-1" d="m75.4427258,297.4042969l.4414062-.6513672c.2304688-.3144531.4199219-.6503906.5878906-.6503906.2519531,0,1.7421875,1.2802734,1.7421875,1.5957031-.0625.2304688-.2519531.3359375-.5244141.3359375h-14.3613281v3.1494141c0,3.4853516-.2314453,8.5449219-3.4228516,12.1142578l-.2519531-.2304688c2.0791016-3.6533203,2.3730469-8,2.3730469-11.8837891v-2.2470703c0-.7558594-.0419922-1.6796875-.1464844-2.3300781l1.7001953.7978516h5.2490234c0-1.1337891-.0625-2.5195312-.2099609-3.4648438,2.2675781.6513672,2.2675781.8613281,1.8896484,1.0917969l-.3574219.2314453v2.1416016h5.2910156Zm-.4824219,12.1777344c-.8818359-1.5332031-2.0576172-3.0654297-3.0859375-4.1572266l.2724609-.1894531c6.8662109,4.3046875,5.8583984,8.9863281,4.0947266,7.5585938-.1679688-.8603516-.546875-1.8261719-1.0507812-2.7714844-2.6875.5878906-6.2558594,1.28125-11.0429688,2.1210938-.1474609.2519531-.3574219.3984375-.546875.4404297l-.7558594-1.8896484c.8193359-.0419922,1.9951172-.1259766,3.4433594-.2519531.6933594-2.078125,1.34375-4.5556641,1.890625-6.9072266.3144531-1.34375.5664062-2.9609375.5878906-4.1152344,2.5195312.5039062,2.5195312.7138672,2.140625.9023438l-.3564453.1894531c-.7558594,2.8554688-2.1630859,6.7392578-3.7373047,9.8681641,2.3095703-.1894531,5.1445312-.4833984,8.1464844-.7978516Z"/>
        <path class="cls-1" d="m96.1702649,301.75c.3154297-.4404297.5673828-.8818359.7353516-.8818359.2519531,0,2.3085938,1.8056641,2.3085938,2.1210938-.0625.2519531-.2929688.3359375-.6083984.3359375h-14.1728516c-1.0917969.0205078-2.0996094.1259766-3.1484375.2939453l-.5878906-1.1757812c.9238281.1044922,1.8476562.1464844,2.7919922.1679688h12.09375l.5878906-.8613281Z"/>
        <path class="cls-1" d="m105.5169445,296.9628906c-1.0917969.0214844-2.0996094.1259766-3.1484375.2939453l-.5673828-1.0498047c.9238281.1054688,1.8476562.1474609,2.7919922.1679688h12.4296875l.5039062-.7138672c.2734375-.3564453.4833984-.7138672.6513672-.7138672.2519531,0,1.9521484,1.3857422,1.9521484,1.7011719-.0625.2099609-.2724609.3144531-.5449219.3144531h-7.7060547v14.0888672c0,1.1337891-.2724609,1.9736328-2.4775391,2.1835938-.0625-.4414062-.2304688-.8193359-.5664062-1.0292969-.4199219-.2724609-1.0917969-.4619141-2.2890625-.6083984v-.3154297s2.8339844.1894531,3.4013672.1894531c.4404297,0,.5878906-.1259766.5878906-.5039062v-14.0048828h-5.0185547Z"/>
        <path class="cls-1" d="m127.2522961,311.9541016c.0419922.3779297.0205078.5039062.0634766.6513672-.0634766.2939453-.5673828.671875-1.1347656.671875-.2724609,0-.5039062-.2099609-.5039062-.4199219.1269531-1.8056641.1894531-2.7294922.2314453-5.4589844v-8.2099609c0-1.4277344-.0839844-3.1494141-.2724609-4.3037109l1.7421875.8183594h9.3007812l.3574219-.4824219c.1894531-.2314453.3359375-.4833984.5039062-.4833984.2519531,0,1.7011719,1.1337891,1.7011719,1.4492188-.1679688.1884766-.5253906.3779297-.9667969.4619141v10.9384766c.0429688,2.5195312.0839844,3.359375.1679688,4.9345703-.2089844.2724609-.8398438.6503906-1.34375.6503906-.2089844,0-.2929688-.2099609-.2929688-.4199219.0410156-.2099609.0410156-.3144531.0839844-.6503906v-.5458984h-9.6376953v.3984375Zm9.6376953-15.6416016h-9.6376953v4.3876953h9.6376953v-4.3876953Zm0,4.9970703h-9.6376953v4.4511719h9.6376953v-4.4511719Zm-9.6376953,9.6367188h9.6376953v-4.5556641h-9.6376953v4.5556641Z"/>
      </g>
      <g>
        <path class="cls-1" d="m57.8665539,359.8808594l.5039062-.7138672c.2724609-.3574219.4824219-.7138672.6503906-.7138672.2519531,0,1.8691406,1.3857422,1.8691406,1.7001953-.0634766.2099609-.2519531.3154297-.5253906.3154297h-8.0410156v5.2910156c.0410156,2.5195312.0839844,3.359375.1679688,4.9345703-.1679688.3359375-.7558594.671875-1.3027344.671875-.2724609,0-.5039062-.2109375-.5039062-.4199219.1269531-1.8066406.1894531-2.7304688.2314453-5.4599609v-5.0175781h-4.9130859c-1.0917969.0205078-2.0996094.1259766-3.1494141.2939453l-.5458984-1.0498047c.9238281.1044922,1.8476562.1464844,2.7929688.1679688h5.8154297v-3.4228516c0-1.4277344-.0839844-3.1494141-.2724609-4.3037109,2.4140625.671875,2.4140625.8818359,2.0361328,1.1542969l-.3564453.2519531v6.3203125h5.5429688Z"/>
        <path class="cls-1" d="m79.0550305,366.9980469c.2939453-.3779297.5244141-.7763672.6923828-.7763672.2519531,0,2.0791016,1.5117188,2.0791016,1.8261719-.0419922.2314453-.2724609.3359375-.5458984.3359375h-14.1513672c-1.0917969.0214844-2.0996094.1269531-3.1494141.2949219l-.5664062-1.0927734c.9238281.1054688,1.8476562.1474609,2.7919922.1679688h12.3037109l.5458984-.7558594Zm-1.8896484-11.6523438c.2734375-.3574219.5039062-.7353516.671875-.7353516.2519531,0,2.015625,1.4492188,2.015625,1.7636719-.0625.2314453-.2939453.3359375-.5664062.3359375h-10.3095703c-1.0917969.0214844-2.0996094.1259766-3.1494141.2939453l-.5458984-1.0917969c.9238281.1054688,1.8476562.1474609,2.7919922.1679688h8.5878906l.5039062-.734375Z"/>
        <path class="cls-1" d="m89.7044445,363.9541016c-.4414062,2.8554688-1.6796875,5.5214844-4.8925781,7.4746094l-.2734375-.2734375c3.4648438-2.8339844,4.0947266-6.5087891,4.0947266-10.7705078v-3.6328125c0-1.2177734-.0634766-2.7080078-.2314453-3.7158203l1.8066406.7763672h7.453125l.2939453-.4404297c.1679688-.2099609.2939453-.4414062.4619141-.4414062.2519531,0,1.6376953,1.0498047,1.6376953,1.3652344-.1259766.1679688-.4619141.3564453-.8603516.4199219v14.6132812c0,1.1337891-.2519531,1.8691406-2.2890625,2.078125-.0839844-.4404297-.2304688-.8183594-.5253906-1.0283203-.3564453-.2314453-.9648438-.4199219-1.9941406-.5673828v-.3359375s2.4355469.1894531,2.9394531.1894531c.4414062,0,.5253906-.1464844.5253906-.5039062v-5.2070312h-8.1464844Zm.2304688-3.5908203c0,1.0078125-.0419922,2.015625-.1464844,3.0029297h8.0625v-4.2207031h-7.9160156v1.2177734Zm7.9160156-5.9208984h-7.9160156v4.0732422h7.9160156v-4.0732422Z"/>
        <path class="cls-1" d="m108.4993664,369.6650391c.0419922.4199219.0214844.5664062.0625.734375-.0625.2734375-.5244141.6308594-1.1328125.6308594-.2109375,0-.4414062-.2109375-.4414062-.4199219.1259766-1.8066406.1894531-2.7304688.2304688-5.4599609v-7.1806641c0-1.4277344-.0839844-3.1494141-.2724609-4.3037109l1.7001953.8183594h12.09375l.3359375-.4404297c.1894531-.2314453.3154297-.4619141.4833984-.4619141.2519531,0,1.5751953,1.0498047,1.5751953,1.3642578-.1474609.1679688-.4833984.3359375-.8828125.4199219v9.9941406c.0429688,2.5195312.0839844,3.359375.1679688,4.9345703-.1884766.2519531-.8183594.6083984-1.2802734.6083984-.1884766,0-.2724609-.2089844-.2724609-.4199219.0410156-.2089844.0410156-.3359375.0839844-.671875v-.5664062h-12.4511719v.4199219Zm5.4589844-14.5712891h-5.4589844v6.2988281h5.4589844v-6.2988281Zm-5.4589844,6.8867188v6.6552734h5.4589844v-6.6552734h-5.4589844Zm12.4511719-6.8867188h-5.6484375v6.2988281h5.6484375v-6.2988281Zm-5.6484375,13.5419922h5.6484375v-6.6552734h-5.6484375v6.6552734Z"/>
        <path class="cls-1" d="m141.9290539,356.6054688l.3359375-.4414062c.1894531-.2099609.3144531-.4404297.4824219-.4404297.2519531,0,1.5957031,1.0283203,1.5957031,1.34375-.125.1679688-.4404297.3359375-.8603516.4199219v2.4140625c.0419922,2.3935547.0839844,3.1914062.1679688,4.6826172-.1884766.2304688-.8603516.5458984-1.3017578.5458984-.2304688,0-.3144531-.2099609-.3144531-.4199219.0410156-.2314453.0410156-.3574219.0839844-.7353516v-.5878906h-5.8583984v2.4990234c.0419922,2.4980469.0839844,3.3173828.1679688,4.8710938-.1679688.3144531-.7558594.671875-1.2597656.671875-.2724609,0-.4833984-.2099609-.4833984-.4199219.1054688-1.6376953.1679688-2.4570312.2109375-4.9345703v-2.6875h-5.8583984v.5039062c.0419922.5039062.0419922.671875.0839844.9033203-.0839844.2519531-.6298828.5664062-1.1962891.5664062-.1894531,0-.3359375-.2099609-.3359375-.4199219.0839844-1.0283203.1044922-1.5322266.1464844-3.0859375v-1.7636719c0-1.4277344-.0839844-3.1494141-.2734375-4.3046875l1.7226562.8193359h5.7109375v-.2314453c0-1.4277344-.0839844-3.1494141-.2734375-4.3037109,2.3515625.671875,2.3515625.8818359,1.9941406,1.1337891l-.3564453.2304688v3.1708984h5.6689453Zm-12.8916016,6.1513672h5.8583984v-5.5429688h-5.8583984v5.5429688Zm7.2226562,0h5.8583984v-5.5429688h-5.8583984v5.5429688Z"/>
        <path class="cls-1" d="m160.2630383,359.0830078c.2304688-.2519531.3984375-.5039062.5664062-.5039062.2519531,0,1.3857422,1.3017578,1.3857422,1.6162109-.1679688.1474609-.4199219.1894531-.8603516.2099609-.7988281.6513672-2.1835938,1.4277344-3.3808594,2.0371094l.1259766.0205078c-.0419922.2939453-.2314453.4619141-.671875.5253906v1.4697266h5.5634766l.4628906-.6513672c.2519531-.3359375.4609375-.671875.6289062-.671875.2519531,0,1.7851562,1.3017578,1.7851562,1.6171875-.0625.2304688-.2519531.3359375-.5253906.3359375h-7.9150391v4.2626953c0,1.1757812-.2519531,1.8886719-2.3935547,2.0996094-.0839844-.4414062-.2099609-.7988281-.5664062-1.0292969-.3574219-.2304688-.9873047-.4199219-2.0996094-.5878906v-.3144531s2.6660156.1884766,3.1699219.1884766c.3984375,0,.5253906-.1044922.5253906-.4619141v-4.1572266h-5.0185547c-1.0917969.0205078-2.0996094.1259766-3.1494141.2939453l-.5458984-1.0917969c.9238281.1044922,1.8476562.1464844,2.7919922.1679688h5.921875c0-.7558594-.0429688-1.6796875-.1474609-2.3310547l1.2597656.2314453c.7558594-.6298828,1.7001953-1.4697266,2.3515625-2.1630859h-5.1025391c-1.0917969.0214844-2.0996094.1259766-3.1484375.2939453l-.5673828-1.0703125c.9238281.1044922,1.8476562.1464844,2.7919922.1679688h6.3417969l.4199219-.5039062Zm3.6113281-2.8974609c.2304688-.2519531.3984375-.5039062.5664062-.5039062.2519531,0,1.5742188,1.3222656,1.5742188,1.6376953-.1464844.1679688-.3769531.1884766-.7763672.2099609-.671875.7763672-1.8681641,1.7841797-2.7714844,2.3720703l-.2099609-.1679688c.3574219-.6503906.8818359-1.6796875,1.1972656-2.4775391h-13.3125c.0214844,1.4492188-.5244141,2.4150391-1.1123047,2.8554688-.5039062.3994141-1.2177734.4619141-1.4697266.0214844-.1894531-.4619141.0625-.8818359.4619141-1.1552734.8603516-.5458984,1.5751953-2.0576172,1.4277344-3.6738281l.3564453-.0214844c.1474609.5039062.2519531.9658203.2949219,1.3857422h9.0068359c.1474609-.2304688.3154297-.4619141.4619141-.7138672.734375-1.1757812,1.4697266-2.8134766,1.7636719-3.9472656,2.2890625.8818359,2.2890625,1.0917969,1.8896484,1.2177734l-.3994141.1054688c-.734375,1.0498047-1.8886719,2.3300781-3.0644531,3.3378906h3.7158203l.3994141-.4824219Zm-13.1445312-3.6533203c4.1367188,1.6376953,3.0029297,4.6396484,1.6591797,3.5898438-.1679688-1.1337891-1.0917969-2.6035156-1.8896484-3.4433594l.2304688-.1464844Zm4.4941406-.3779297c3.9677734,1.9316406,2.5820312,4.9970703,1.2802734,3.7792969-.0419922-1.1972656-.7763672-2.7089844-1.5322266-3.6328125l.2519531-.1464844Z"/>
        <path class="cls-1" d="m174.102882,356.6054688c.2304688-.2939453.3984375-.609375.5664062-.609375.2519531,0,1.5957031,1.1757812,1.5957031,1.4912109-.0625.2304688-.2519531.3359375-.5244141.3359375h-2.8349609v2.2880859c4.0107422,1.9736328,2.9609375,4.7246094,1.7011719,3.6953125-.2304688-1.0078125-.9863281-2.2880859-1.7011719-3.2119141v5.2490234c.0429688,2.5195312.0839844,3.359375.1679688,4.9345703-.1679688.2929688-.7128906.6083984-1.1962891.6083984-.2519531,0-.4833984-.2099609-.4833984-.4199219.1269531-1.8056641.1894531-2.7294922.2314453-5.4589844v-3.9892578c-.7978516,1.9101562-1.8896484,3.6533203-3.2958984,5.1435547l-.2949219-.2724609c1.6796875-2.3730469,2.7304688-5.4384766,3.3183594-8.5664062h-.9238281c-.546875.0205078-1.0507812.1259766-1.5546875.2939453l-.5244141-1.0917969c.7353516.1044922,1.4697266.1464844,2.2255859.1679688h1.0498047v-.8818359c0-1.4277344-.0839844-3.1494141-.2724609-4.3046875,2.2675781.671875,2.2675781.8818359,1.9101562,1.1337891l-.3574219.2314453v3.8212891h.7988281l.3984375-.5878906Zm3.4853516,7.4326172c.1259766.2304688.0634766.3984375-.0634766.5244141l-.9238281-1.1123047c.5673828-.4199219,1.5546875-1.3017578,2.0996094-1.8476562l.2949219-.9033203.6923828.2939453-.6083984.7773438-.0214844.0419922c.3984375,1.40625,1.0292969,2.6660156,1.8261719,3.7373047.1269531-.2099609.2519531-.4414062.3789062-.6513672.6503906-1.2177734,1.1542969-2.9179688,1.2167969-4.09375,2.2265625.671875,2.2265625.8818359,1.8271484,1.0283203l-.3779297.1259766c-.4824219,1.5957031-1.2177734,3.1289062-2.2890625,4.5351562,1.5117188,1.6376953,3.4228516,2.7724609,5.5019531,3.3603516l-.0429688.2519531c-.5878906.2304688-.9238281.6923828-1.0488281,1.34375-2.015625-.8398438-3.7382812-2.2470703-5.0820312-4.1582031-1.5527344,1.6796875-3.6953125,3.1289062-6.7392578,4.1367188l-.1679688-.2939453c2.8759766-1.1962891,4.8916016-2.8759766,6.2988281-4.8291016-.671875-1.1552734-1.2392578-2.4990234-1.6162109-3.96875-.3789062.5878906-.8398438,1.3017578-1.1552734,1.7011719Zm7.2021484-8.9658203c.2304688-.3144531.3984375-.6298828.5664062-.6298828.2519531,0,1.6376953,1.2177734,1.6376953,1.5332031-.0419922.2304688-.2314453.3359375-.5039062.3359375h-7.6220703c-1.0917969.0205078-2.0996094.1259766-3.1484375.2939453l-.5253906-1.0917969c.9238281.1044922,1.8476562.1464844,2.7929688.1679688h2.2460938c0-1.1132812-.0625-2.5195312-.2099609-3.4433594,2.1630859.6298828,2.1630859.8398438,1.8271484,1.0703125l-.3154297.2099609v2.1630859h2.8349609l.4199219-.609375Zm-4.7871094,3.1289062l-.3574219.0625c-.8183594,1.1972656-2.2890625,2.6875-3.9472656,3.6328125l-.2304688-.2734375c.3144531-.2939453.6289062-.6083984.9023438-.9443359.8818359-1.0712891,1.7216797-2.625,1.9736328-3.8007812l1.1123047.6933594c.9238281.3564453.9238281.5664062.546875.6298828Zm2.2460938-.9033203c5.375,1.7851562,4.7246094,5.0810547,3.2128906,4.2207031-.5039062-1.34375-2.1630859-3.0449219-3.4228516-4.03125l.2099609-.1894531Z"/>
      </g>
      <circle class="cls-3" cx="12.4479663" cy="419.5951903" r="10.9479663"/>
      <g>
        <path class="cls-1" d="m53.4173352,423.1660156c.2792969-.3642578.5039062-.7285156.7275391-.7285156.3369141,0,2.0166016,1.4277344,2.0166016,1.8476562-.0839844.3085938-.3359375.4482422-.7001953.4482422h-5.2646484v1.8203125c.0566406,1.7919922.0566406,2.4072266.140625,3.4443359-.1679688.2792969-.7285156.7558594-1.5683594.7558594-.2792969,0-.4755859-.28125-.4755859-.5605469.1123047-1.1484375.1396484-1.7070312.1962891-3.4433594v-2.0166016h-1.8203125c-1.1201172.0283203-2.2119141.1679688-3.3046875.3916016l-.6992188-1.4550781c1.2324219.1396484,2.4638672.1953125,3.7236328.2236328h2.1005859v-3.1640625h-2.3525391v.7558594c0,.1962891-.7275391.6162109-1.3720703.6162109-.2792969,0-.4472656-.2792969-.4472656-.5605469.0839844-.9794922.1113281-1.4833984.1679688-2.9667969v-1.7929688c0-1.7910156-.1123047-4.0039062-.3359375-5.4589844l2.1269531.9794922h2.2128906v-2.7998047h-1.8203125c-1.1201172.0273438-2.2119141.1679688-3.3046875.3916016l-.6992188-1.4277344c1.2324219.1396484,2.4638672.1962891,3.7236328.2236328h2.1005859c0-1.2324219-.0566406-2.6875-.2246094-3.7236328,2.828125.8398438,2.828125,1.1201172,2.3808594,1.4277344l-.4492188.2802734v2.015625h2.6601562l.5322266-.8125c.3076172-.390625.5322266-.8115234.7558594-.8115234.3369141,0,2.1005859,1.5683594,2.1005859,1.9882812-.0566406.3076172-.2802734.4482422-.671875.4482422h-5.3769531v2.7998047h2.1005859l.4482422-.5322266c.2519531-.2792969.4199219-.5605469.6435547-.5605469.3359375,0,2.0439453,1.2890625,2.0439453,1.7089844-.1679688.2236328-.6152344.4755859-1.1484375.53125v2.5761719c.0566406,2.5761719.0839844,3.4160156.1972656,4.984375-.2246094.3359375-1.0371094.7832031-1.6523438.7832031h-.2519531v-1.0634766h-2.3808594v3.1640625h2.7167969l.5039062-.7275391Zm-.8398438-10.0244141h-6.4404297v2.9677734h6.4404297v-2.9677734Zm-6.4404297,3.7802734v2.9960938h6.4404297v-2.9960938h-6.4404297Zm12.6845703,3.2197266c-.4492188,4.0039062-1.7929688,7.8681641-5.9365234,10.6123047l-.3642578-.3359375c4.0878906-3.7246094,4.7880859-8.5410156,4.7880859-14.0283203v-4.9833984c0-1.6806641-.0839844-3.7519531-.3076172-5.125l2.3242188,1.0361328h4.84375l.3916016-.5878906c.2236328-.3076172.3642578-.6162109.5888672-.6162109.3359375,0,2.2675781,1.4277344,2.2675781,1.8476562-.1962891.28125-.7001953.5048828-1.2880859.6171875v19.4882812c0,1.4277344-.3076172,2.3515625-2.7998047,2.6308594-.0566406-.5605469-.2246094-1.0351562-.5878906-1.2871094-.4199219-.3085938-1.1210938-.5332031-2.3242188-.7011719v-.4472656s2.7714844.2246094,3.3320312.2246094c.53125,0,.671875-.1679688.671875-.6445312v-7.7001953h-5.5996094Zm.1396484-3.8076172c0,.9794922-.0283203,1.9882812-.1123047,2.9960938h5.5722656v-5.3486328h-5.4599609v2.3525391Zm5.4599609-8.1757812h-5.4599609v5.0117188h5.4599609v-5.0117188Z"/>
        <path class="cls-1" d="m76.9368664,428.5976562c.0566406.5878906.0283203.7832031.0839844,1.0078125-.0839844.4199219-.7275391.8964844-1.5683594.8964844-.2792969,0-.5878906-.28125-.5878906-.5605469.1679688-2.4082031.2519531-3.640625.3085938-7.2792969v-10.1923828c0-1.9042969-.1113281-4.2001953-.3642578-5.7402344l2.2958984,1.1201172h12.0957031l.4492188-.6162109c.2519531-.3076172.4472656-.6162109.671875-.6162109.3359375,0,2.1269531,1.4277344,2.1269531,1.8486328-.1953125.2236328-.6152344.4199219-1.1474609.5322266v13.9160156c.0556641,3.359375.1123047,4.4785156.2236328,6.5800781-.2519531.3359375-1.1191406.8671875-1.7910156.8671875-.2519531,0-.3652344-.2792969-.3652344-.5605469.0566406-.3359375.0566406-.5039062.1132812-1.0078125v-.7832031h-12.5449219v.5878906Zm12.5449219-19.9355469h-12.5449219v8.6796875h12.5449219v-8.6796875Zm-12.5449219,18.5351562h12.5449219v-9.0439453h-12.5449219v9.0439453Z"/>
        <path class="cls-1" d="m119.3851086,415.3261719c.4199219-.5878906.7558594-1.1767578.9794922-1.1767578.3359375,0,3.0800781,2.4082031,3.0800781,2.828125-.0839844.3359375-.3916016.4482422-.8115234.4482422h-18.8994141c-1.4570312.0273438-2.8007812.1679688-4.2011719.3916016l-.7832031-1.5673828c1.2324219.1396484,2.4638672.1953125,3.7236328.2236328h16.1279297l.7841797-1.1474609Z"/>
        <path class="cls-1" d="m131.8450695,408.9414062c-1.4560547.0283203-2.7998047.1679688-4.1992188.3925781l-.7568359-1.4003906c1.2314453.140625,2.4638672.1953125,3.7236328.2246094h16.5761719l.671875-.953125c.3642578-.4755859.6445312-.9511719.8681641-.9511719.3369141,0,2.6044922,1.8476562,2.6044922,2.2675781-.0839844.2802734-.3642578.4199219-.7285156.4199219h-10.2753906v18.7890625c0,1.5117188-.3642578,2.6308594-3.3046875,2.9101562-.0839844-.5878906-.3076172-1.0917969-.7558594-1.3710938-.5595703-.3632812-1.4550781-.6152344-3.0517578-.8125v-.4199219s3.7802734.2519531,4.5361328.2519531c.5878906,0,.7832031-.1679688.7832031-.671875v-18.6757812h-6.6914062Z"/>
        <path class="cls-1" d="m160.8255383,428.9335938c.0556641.5039062.0273438.671875.0839844.8671875-.0839844.3925781-.7558594.8964844-1.5117188.8964844-.3652344,0-.6728516-.2792969-.6728516-.5605469.1679688-2.40625.2519531-3.6386719.3076172-7.2792969v-10.9472656c0-1.9042969-.1113281-4.2011719-.3632812-5.7402344l2.3242188,1.0917969h12.4042969l.4746094-.6445312c.2519531-.3076172.4492188-.6435547.6728516-.6435547.3359375,0,2.2675781,1.5126953,2.2675781,1.9326172-.2236328.2519531-.7001953.5039062-1.2880859.6152344v14.5878906c.0566406,3.3603516.1123047,4.4804688.2246094,6.5800781-.2802734.3632812-1.1201172.8671875-1.7929688.8671875-.2792969,0-.390625-.2792969-.390625-.5585938.0546875-.28125.0546875-.4199219.1113281-.8691406v-.7265625h-12.8515625v.53125Zm12.8515625-20.859375h-12.8515625v5.8515625h12.8515625v-5.8515625Zm0,6.6640625h-12.8515625v5.9355469h12.8515625v-5.9355469Zm-12.8515625,12.8515625h12.8515625v-6.0761719h-12.8515625v6.0761719Z"/>
      </g>
      <g>
        <path class="cls-1" d="m42.6790539,1.3710938c2.96875.8398438,2.96875,1.1201172,2.4921875,1.4570312l-.4765625.3066406v8.0644531c-.0273438,5.4316406-.9238281,11.0322266-5.2070312,14.6162109l-.3925781-.3359375c3.2480469-3.7802734,3.8925781-9.0166016,3.8925781-14.2802734v-4.84375c0-1.5957031-.0839844-3.640625-.3085938-4.984375Zm8.2324219,6.7480469c0-1.8476562-.1123047-4.1992188-.3642578-5.7402344,3.0517578.8691406,3.0517578,1.1484375,2.5478516,1.484375l-.4755859.3085938v11.4238281c.0556641,3.359375.1123047,4.4794922.2236328,6.5800781-.2236328.3632812-.9511719.7832031-1.6240234.7832031-.3076172,0-.5595703-.2792969-.5595703-.5595703.1396484-2.0722656.1953125-3.1083984.2519531-6.2441406v-8.0361328Zm8.484375-1.0644531c0-1.8476562-.1132812-4.1992188-.3652344-5.7392578,3.0800781.8681641,3.0800781,1.1474609,2.6044922,1.4833984l-.4482422.3085938v15.2324219c.0566406,3.359375.1123047,4.4794922.2246094,6.5800781-.2246094.3916016-.9804688.8671875-1.6523438.8671875-.3632812,0-.671875-.2792969-.671875-.5595703.1679688-2.4082031.2519531-3.6396484.3085938-7.2802734V7.0546875Z"/>
        <path class="cls-1" d="m71.8548352,22.6513672c.0566406.7841797.0566406,1.0634766.1123047,1.4287109-.1123047.3632812-.7841797.8105469-1.5400391.8105469-.3359375,0-.6435547-.2792969-.6435547-.5585938.1679688-2.4082031.2519531-3.640625.3076172-7.28125v-7.5595703c0-1.9033203-.1113281-4.2001953-.3632812-5.7392578l2.2949219,1.0917969h14.7285156l1.0644531-1.3164062c2.4628906,1.8476562,2.4628906,2.1279297,1.7353516,2.4082031l-.7001953.2519531v11.0878906c.0566406,3.359375.1123047,4.4804688.2246094,6.5800781-.2802734.3085938-1.1484375.7558594-1.7929688.7558594-.1953125,0-.3066406-.2792969-.3066406-.5605469.0546875-.4199219.0546875-.6435547.1113281-1.2871094v-.9238281h-15.2324219v.8115234Zm0-1.6240234h15.2324219V5.6835938h-15.2324219v15.34375Z"/>
        <path class="cls-1" d="m96.774757,16.9960938c1.625,7.9511719-2.9667969,7.1113281-1.6513672,4.9833984.7558594-.9248047,1.2041016-2.7158203,1.2314453-4.9833984h.4199219Zm7.7285156-7.8691406c.2519531-.3359375.4482422-.671875.671875-.671875.3359375,0,1.8476562,1.3164062,1.8476562,1.7363281-.0839844.3085938-.3359375.4472656-.671875.4472656h-4.03125v3.0800781h2.3515625l.4199219-.5039062c.2246094-.2519531.3925781-.53125.6162109-.53125.3359375,0,1.8193359,1.203125,1.8193359,1.6240234-.1953125.2236328-.5039062.3359375-1.0351562.4199219-.2802734,5.515625-.9804688,8.3720703-2.0449219,9.3232422-.6435547.5878906-1.4833984.8125-2.4072266.8125,0-.4472656-.0839844-.8964844-.3359375-1.1484375-.2802734-.2519531-1.0087891-.4472656-1.7080078-.5878906v-.4755859c.8125.0556641,2.0722656.1679688,2.5478516.1679688.4482422,0,.6435547-.0556641.8955078-.2519531.671875-.6162109,1.2050781-3.2197266,1.484375-8.0361328h-6.7480469v.8964844c0,.1396484-.5039062.5878906-1.3164062.5878906-.2519531,0-.5039062-.2802734-.5039062-.5605469.140625-1.8203125.1962891-2.7441406.2519531-5.4882812v-3.0507812c0-1.9042969-.1113281-4.2011719-.3632812-5.7402344l2.2675781.9794922h5.7128906l.53125-.7275391c.2802734-.3642578.5039062-.7285156.7285156-.7285156.3359375,0,2.0722656,1.4277344,2.0722656,1.8476562-.0839844.3085938-.3369141.4492188-.7011719.4492188h-4.5351562v2.9667969h1.8476562l.4199219-.671875c.2519531-.3359375.4199219-.6992188.6445312-.6992188.3359375,0,1.875,1.3154297,1.875,1.7363281-.0556641.3066406-.3359375.4472656-.671875.4472656h-4.1152344v3.0234375h1.7363281l.4472656-.671875Zm-6.1318359,7.5878906c2.5751953,3.5839844.9238281,6.5800781-.1679688,5.1806641.2802734-1.6240234.0839844-3.7236328-.2519531-5.0683594l.4199219-.1123047Zm2.4072266-13.71875h-2.6035156v2.9667969h2.6035156v-2.9667969Zm0,6.8027344v-3.0234375h-2.6035156v3.0234375h2.6035156Zm-2.6035156.8398438v3.0800781h2.6035156v-3.0800781h-2.6035156Zm1.7636719,5.6005859c3.4443359,2.7441406,2.0722656,5.5439453.8964844,4.3115234,0-1.2871094-.671875-3.0507812-1.2324219-4.1435547l.3359375-.1679688Zm1.7089844-.6162109c3.7519531,1.3730469,2.6035156,4.2001953,1.34375,3.1640625-.1679688-.9804688-.9521484-2.2402344-1.6796875-2.9394531l.3359375-.2246094Zm15.4550781-14.0273438c.2519531-.3085938.4199219-.6445312.6445312-.6445312.3359375,0,2.015625,1.4560547,2.015625,1.8769531-.1396484.2226562-.5878906.4472656-1.1191406.53125v3.1914062c.0546875,3.1640625.1113281,4.2285156.2226562,6.1884766-.2519531.3076172-1.1191406.7275391-1.6513672.7275391-.2519531,0-.3642578-.2792969-.3642578-.5595703.0566406-.1396484.0566406-.2236328.1123047-.4755859v-.5322266h-4.2558594c1.1474609,5.2080078,3.6123047,9.9960938,7.4755859,11.9560547l-.0556641.3085938c-.671875.1386719-1.2607422.6992188-1.5126953,1.6230469-3.7226562-2.7714844-5.515625-7.53125-6.4394531-13.8876953h-1.6796875c-.1123047,4.7597656-.7841797,10.1640625-4.7880859,13.9160156l-.4199219-.2802734c3.1357422-4.1992188,3.5-9.5478516,3.5-14.8964844v-4.6757812c0-1.5673828-.0839844-3.5-.3076172-4.7871094l2.3232422,1.0351562h5.8798828l.4199219-.6152344Zm-6.6074219,9.015625v.4482422h6.4677734V3.0234375h-6.4677734v7.5878906Z"/>
        <path class="cls-1" d="m142.219093,7.0273438c.2519531-.3359375.4482422-.671875.6728516-.671875.3359375,0,2.0712891,1.5117188,2.0712891,1.9316406-.1679688.2246094-.5878906.4199219-1.1201172.5322266v2.7998047c.0566406,2.8007812.0839844,3.7246094.1962891,5.4316406-.2236328.3085938-1.1201172.7558594-1.7363281.7558594-.2802734,0-.3642578-.2792969-.3642578-.5585938.0566406-.1132812.0283203-.1972656.0839844-.3925781v-.4765625h-5.1230469c2.4921875,3.1640625,7.0839844,5.7128906,11.2275391,6.7763672l-.0556641.3076172c-.7285156.1123047-1.34375.7285156-1.5683594,1.5683594-4.0605469-1.5683594-7.9521484-4.5917969-10.1640625-8.5117188v2.8837891c.0566406,2.8564453.0839844,3.8076172.1962891,5.5712891-.1962891.3925781-.9521484.8408203-1.6523438.8408203-.3642578,0-.5878906-.2802734-.5878906-.5595703.1123047-1.5683594.1679688-2.3525391.2236328-4.7324219v-2.6601562c-2.7158203,3.1367188-6.6357422,5.6835938-11.0878906,7.3642578l-.2519531-.4755859c4.171875-2.0449219,7.8681641-5.125,10.1367188-8.3730469h-4.3691406v1.0078125c0,.1679688-.7832031.5888672-1.4833984.5888672-.2802734,0-.4482422-.2802734-.4482422-.5595703.0839844-1.0644531.1123047-1.5966797.1679688-3.1933594v-1.875c0-1.9042969-.1113281-4.2001953-.3632812-5.7402344l2.2958984,1.0644531h5.4033203v-2.9404297h-6.1035156c-1.4560547.0283203-2.7998047.1679688-4.2001953.3916016l-.7001953-1.4277344c1.2324219.140625,2.4648438.1962891,3.7246094.2246094h7.2792969c0-1.2597656-.0839844-2.8564453-.2519531-3.9199219,2.9960938.8955078,2.9960938,1.1757812,2.5205078,1.5117188l-.4482422.3076172v2.1005859h6.9433594l.6445312-.9238281c.3642578-.4492188.6445312-.9248047.8681641-.9248047.3359375,0,2.5205078,1.7919922,2.5205078,2.2119141-.0566406.3085938-.3652344.4482422-.7285156.4482422h-10.2480469v2.9404297h5.4316406l.4482422-.6445312Zm-7.7001953,1.4560547h-5.5722656v3.0800781h5.5722656v-3.0800781Zm-5.5722656,3.8916016v3.1640625h5.5722656v-3.1640625h-5.5722656Zm13.0761719-3.8916016h-5.6835938v3.0800781h5.6835938v-3.0800781Zm-5.6835938,7.0556641h5.6835938v-3.1640625h-5.6835938v3.1640625Z"/>
        <path class="cls-1" d="m155.8548352,22.6513672c.0566406.7841797.0566406,1.0634766.1123047,1.4287109-.1123047.3632812-.7841797.8105469-1.5400391.8105469-.3359375,0-.6435547-.2792969-.6435547-.5585938.1679688-2.4082031.2519531-3.640625.3076172-7.28125v-7.5595703c0-1.9033203-.1113281-4.2001953-.3632812-5.7392578l2.2949219,1.0917969h14.7285156l1.0644531-1.3164062c2.4628906,1.8476562,2.4628906,2.1279297,1.7353516,2.4082031l-.7001953.2519531v11.0878906c.0566406,3.359375.1123047,4.4804688.2246094,6.5800781-.2802734.3085938-1.1484375.7558594-1.7929688.7558594-.1953125,0-.3066406-.2792969-.3066406-.5605469.0546875-.4199219.0546875-.6435547.1113281-1.2871094v-.9238281h-15.2324219v.8115234Zm0-1.6240234h15.2324219V5.6835938h-15.2324219v15.34375Z"/>
      </g>
    </g>
  </g>
</svg>