<?xml version="1.0" encoding="UTF-8"?>
<svg id="_レイヤー_2" data-name="レイヤー 2" xmlns="http://www.w3.org/2000/svg" viewBox="0 0 603.2885742 172.296875">
  <defs>
    <style>
      .cls-1 {
        stroke-width: 0px;
      }
    </style>
  </defs>
  <g id="_レイヤー_2-2" data-name="レイヤー 2">
    <g>
      <path class="cls-1" d="m17.0834961,6.2207031c-.0600586.2207031-.2802734.3603516-.5800781.3603516-.2202148,1.3808594-.5400391,2.8408203-.8803711,4.0810547,1.0800781.4599609,2.2207031.9804688,3.3608398,1.5605469l-.6401367,1.3398438c-1.0800781-.5400391-2.1206055-1.0595703-3.140625-1.5-.9604492,2.8808594-2.3408203,4.9804688-4.4609375,6.3808594-.2802734-.2802734-.7802734-.6201172-1.1401367-.8398438,2.1000977-1.3798828,3.4003906-3.2607422,4.3208008-6.1210938-2.0205078-.8007812-3.8608398-1.3603516-5.3413086-1.4804688-1.3803711,5.0410156-2.6206055,6.3613281-5.0209961,6.3613281s-2.8608398-1.9208984-2.8608398-3.140625c0-3.1005859,3.2207031-4.5410156,6.8017578-4.5605469.4199219-1.6005859.800293-3.5615234,1.0800781-5.6416016-.9399414.0800781-4.140625.2998047-5.6611328.4003906-.0800781.1396484-.2402344.2392578-.4199219.2792969l-.1801758-1.6201172c1.7202148-.0595703,5.440918-.2998047,6.6416016-.4199219.2197266-.0205078.2998047-.1201172.4399414-.2197266l1.2402344.7402344c-.1000977.1591797-.2602539.2392578-.5.3193359-.3203125,2.2207031-.800293,4.5214844-1.2402344,6.2412109,1.5400391.1201172,3.3803711.6601562,5.3808594,1.4208984.340332-1.2001953.6401367-2.7412109.8603516-4.3613281l1.9404297.4199219Zm-9.9023438,3.7011719c-2.8803711.0400391-5.1811523,1.1806641-5.1811523,3.3007812,0,1.1201172.5405273,1.8798828,1.4804688,1.8798828,1.4604492,0,2.4204102-.5,3.7006836-5.1806641Z"/>
      <path class="cls-1" d="m22.237793,17.6230469c1.4804688-4.2402344,3.940918-11.3222656,4.7211914-13.4423828.3798828-1.0800781.9003906-2.6005859,1.0400391-3.1005859l2.1606445.5595703c-.1000977.2802734-.3798828.3808594-.7802734.3808594-1.1000977,2.7402344-2.800293,7.4208984-3.5405273,9.421875h.0200195c1.1801758-1.4404297,2.9804688-2.4609375,4.3808594-2.4609375,1.7402344,0,2.5805664,1.1806641,2.5205078,3.0410156l-.0600586,2.3808594c-.0200195,1.5.7802734,2.3193359,2.0805664,2.3193359,1.800293,0,3.4604492-2.0595703,4.3808594-5.5.3999023.2792969.8803711.5400391,1.300293.7392578-1.1000977,3.8212891-3.0805664,6.2216797-5.7412109,6.2216797-2.1206055,0-3.5009766-1.2802734-3.5009766-3.3203125,0-.3808594.0600586-2.2207031.0600586-2.640625,0-1.2607422-.5200195-1.9208984-1.3999023-1.9208984-2.3007812,0-4.6210938,3.3408203-5.1210938,4.6416016-.2802734.7001953-.7202148,1.9794922-1.1005859,3.1396484l-1.4204102-.4599609Z"/>
      <path class="cls-1" d="m51.409668,1.0195312c-.0600586.1601562-.2602539.3203125-.6201172.3408203-.1401367.8798828-.3203125,1.9199219-.5,2.7001953,1.9599609-.1201172,4.140625-.4599609,5.8808594-.9804688l.2202148,1.3603516c-1.8603516.4599609-4.0610352.7802734-6.3613281.9609375-.9604492,3.8408203-2.2802734,6.9609375-4.2407227,9.8417969l-1.340332-.5400391c1.8203125-2.6210938,3.2006836-5.6210938,4.0605469-9.2617188h-3.9804688v-1.3007812h2.3803711c.6201172,0,1.2602539-.0195312,1.840332-.0195312.2402344-1.0605469.4199219-2.2011719.5600586-3.3808594l2.1005859.2792969Zm5.3208008,8.5224609c.0200195,1.6201172.1401367,2.7207031.2602539,4.1005859,1.2802734.5,2.9404297,1.3603516,4.2607422,2.3203125l-.7197266,1.2802734c-1.1005859-.8398438-2.4609375-1.6201172-3.5410156-2.1005859,0,2.0009766-.800293,3.5605469-3.7407227,3.5605469-2.2207031,0-3.9208984-1-3.9008789-2.8798828,0-2.0009766,2.1005859-2.9609375,3.940918-2.9609375.7202148,0,1.4604492.140625,2.2602539.3603516-.0800781-1.2802734-.1796875-2.5810547-.1796875-3.5205078l1.3598633-.1601562Zm-1.1000977,5.0009766c-.8203125-.3203125-1.6601562-.4599609-2.3803711-.4599609-1.2001953,0-2.6206055.4794922-2.640625,1.7197266,0,1.140625,1.1201172,1.6806641,2.6806641,1.6806641,1.4404297,0,2.3603516-.7001953,2.3603516-2.0205078,0-.3203125,0-.6201172-.0200195-.9199219Zm5.4814453-7.0615234c-2.2607422.0195312-5.0014648.3798828-7.081543.9804688l-.2202148-1.2607422c2.2802734-.6601562,5.0410156-1.0800781,7.2216797-1.0800781l.0800781,1.3603516Z"/>
      <path class="cls-1" d="m75.4541016,4.0810547c-.0800781.1796875-.2402344.3193359-.5004883.3193359-.7202148,6.2216797-2.800293,11.6425781-6.1210938,11.6425781-1.6801758,0-3.2006836-1.6796875-3.2006836-4.8408203,0-4.8007812,3.7407227-8.8222656,9.0019531-8.8222656,5.78125,0,8.2817383,3.6611328,8.2817383,7.5625,0,4.7607422-2.7607422,7.0605469-7.6015625,8.1806641-.1801758-.3193359-.5200195-.859375-.840332-1.2197266,4.6010742-.8798828,6.9614258-3.1201172,6.9614258-6.9013672,0-3.3007812-2.1201172-6.3017578-6.8012695-6.3017578-.2001953,0-.4199219.0205078-.6000977.0400391l1.4204102.3408203Zm-1.9204102-.2607422c-4.0410156.5-6.5415039,3.8408203-6.5415039,7.3417969,0,2.140625.9199219,3.4804688,1.8803711,3.4804688,2.4204102,0,4.1606445-5.3408203,4.6611328-10.8222656Z"/>
      <path class="cls-1" d="m92.2890625,6.7011719c-.1801758-.7802734-.6601562-1.9404297-1.1401367-2.9208984h-.9404297c-.5800781,1.1601562-1.2802734,2.2011719-2.0405273,2.9804688-.2597656-.2197266-.7402344-.5195312-1.0800781-.6796875,1.300293-1.2597656,2.4404297-3.4609375,3.0405273-5.7011719l1.6206055.4404297c-.0600586.1201172-.2001953.1992188-.4204102.1992188-.159668.5205078-.3598633,1.0605469-.5600586,1.5810547h5.3012695v1.1796875h-3.6010742c.4204102.8603516.8203125,1.8203125.9804688,2.4609375l-1.1601562.4599609Zm13.1425781,4.78125v1.2001953h-7.621582c1.4404297,2.6201172,4.1010742,4.4003906,7.621582,5.140625-.3198242.2998047-.7001953.8203125-.8798828,1.2001953-3.8208008-.9599609-6.6015625-3.0800781-8.1621094-6.3408203h-.0600586c-1.0200195,2.8408203-3.1005859,5.140625-8.2016602,6.3613281-.1401367-.3408203-.4799805-.8603516-.7402344-1.140625,4.480957-.9804688,6.4814453-2.8203125,7.4619141-5.2207031h-7.5019531v-1.2001953h7.9018555c.2402344-.9003906.3803711-1.8603516.4799805-2.8808594-2.2802734.2402344-4.7006836.4003906-6.9013672.5-.0400391-.3203125-.2001953-.8203125-.3398438-1.1201172,4.8208008-.2402344,10.762207-.8203125,13.8427734-1.7607422l.9204102,1.140625c-.0400391.0400391-.1201172.0595703-.2001953.0595703-.0600586,0-.1201172,0-.1801758-.0195312-1.4599609.4199219-3.4804688.7597656-5.7011719,1.0400391l.4399414.0400391c-.0200195.1601562-.1796875.2597656-.4199219.2998047-.1401367.9404297-.2797852,1.8408203-.5,2.7011719h8.7416992Zm-4.5209961-4.9013672c-.2597656-.7402344-.8999023-1.8603516-1.5200195-2.7802734h-1.6206055c-.6601562,1.0400391-1.4404297,1.9804688-2.2202148,2.6806641-.2402344-.2001953-.7202148-.5205078-1.0605469-.7001953,1.4404297-1.1806641,2.7607422-3.2412109,3.480957-5.3818359l1.5800781.4804688c-.0400391.1201172-.199707.1796875-.4199219.1796875-.2001953.5205078-.4199219,1.0410156-.6801758,1.5605469h6.9013672v1.1806641h-4.5009766c.5405273.7998047,1.0405273,1.6796875,1.2802734,2.2802734l-1.2202148.5Z"/>
      <path class="cls-1" d="m111.7807617,8.3417969v3.2001953c0,2.1210938-.2202148,5.1416016-1.3803711,7.2011719-.2001953-.2597656-.7202148-.7001953-.9804688-.8398438,1.0405273-1.8798828,1.140625-4.4404297,1.140625-6.3808594v-4.3613281h5.7011719l-.800293-.2597656c.2998047-.8203125.6801758-2.1005859.840332-2.9804688l1.5400391.3994141c-.0600586.1201172-.2001953.1806641-.4199219.2001953-.2202148.7607422-.5600586,1.8603516-.8803711,2.640625h2.4003906v1.1806641h-7.1611328Zm6.9614258-5.6210938v1.1601562h-8.7421875v-1.1601562h3.7807617V.4394531l1.7006836.1005859c-.0200195.1396484-.1201172.2402344-.3803711.2802734v1.9003906h3.6411133Zm-6.1616211,1.4003906c.3803711.8798828.7402344,2.0195312.8203125,2.7197266l-1.1801758.3007812c-.0800781-.7207031-.3798828-1.9003906-.7602539-2.78125l1.1201172-.2392578Zm6.4814453,10.6621094c-.0400391.0996094-.1601562.1601562-.3398438.1796875-1.2001953,1.7001953-3.5410156,3.2207031-6.2016602,4.1005859-.1796875-.2998047-.4799805-.7001953-.7797852-.9404297,2.5004883-.7197266,4.7807617-2.0996094,5.9008789-3.7998047l1.4204102.4599609Zm-1.3203125-5.4814453c-.0600586.0996094-.159668.1601562-.3198242.1601562-1.0405273.8798828-2.8608398,1.8203125-4.4609375,2.4003906-.2001953-.2597656-.5200195-.6005859-.8203125-.8203125,1.5205078-.4794922,3.3208008-1.3398438,4.3007812-2.2207031l1.300293.4804688Zm.5400391,2.7207031c-.0395508.1201172-.159668.1796875-.3398438.1796875-1.1000977,1.0800781-3.0605469,2.2402344-4.8208008,2.9404297-.2001953-.2597656-.5205078-.6201172-.800293-.8193359,1.6601562-.6201172,3.6005859-1.6806641,4.6411133-2.7607422l1.3198242.4599609Zm4.480957,4.3212891c-.0595703.0791016-.1796875.1396484-.3798828.1396484-.7802734.8994141-2.4804688,2-3.940918,2.6201172-.199707-.2597656-.6201172-.6601562-.9199219-.9003906,1.5-.5996094,3.140625-1.6601562,3.9204102-2.5400391l1.3203125.6806641Zm-3.1806641-11.6630859h2.8408203c.1601562-.6396484.3198242-1.4003906.4199219-2.0605469h-3.9008789v-1.2001953h9.3623047v1.2001953h-4.1411133c-.1201172.6005859-.3198242,1.3808594-.5200195,2.0605469h4.0209961v10.5625h-8.0820312V4.6806641Zm6.8417969,3.1611328v-2.0810547h-5.6411133v2.0810547h5.6411133Zm0,3.140625v-2.1005859h-5.6411133v2.1005859h5.6411133Zm0,3.1601562v-2.1201172h-5.6411133v2.1201172h5.6411133Zm1.1000977,4.9208984c-.6801758-.7402344-2.0805664-1.8603516-3.2006836-2.6601562l1-.6601562c1.1206055.7197266,2.5605469,1.8398438,3.2607422,2.5800781l-1.0600586.7402344Z"/>
      <path class="cls-1" d="m139.7094727,1.4003906c-.0400391.2392578-.2802734.3398438-.6601562.359375-.2202148,1.1210938-.5800781,3.0615234-.8203125,4.2617188.9003906-.1005859,1.7202148-.1806641,2.2207031-.1806641,3.0405273-.0400391,4.0805664,1.9804688,4.0805664,4.9814453,0,1.5-.2797852,3.2802734-.6801758,4.4804688-.6201172,2.0400391-1.9003906,3.0205078-3.5605469,3.0205078-.8203125,0-1.9003906-.3398438-3.6206055-1.7402344.2197266-.359375.3798828-.7998047.5400391-1.2197266,1.6000977,1.2402344,2.4404297,1.5195312,3.0605469,1.5195312,1.1401367,0,1.8203125-.7197266,2.2202148-2,.4204102-1.2402344.6401367-3.0800781.6401367-4.1005859-.0200195-2.2802734-.7597656-3.640625-2.7602539-3.6210938-.6000977,0-1.4204102.0800781-2.4404297.2001953-1.0004883,4.0810547-2.1806641,7.5820312-4.1010742,10.8017578l-1.3203125-.6396484c1.9404297-3.1005859,3.0405273-6.2011719,3.980957-10.0019531-1.0205078.1201172-2.4804688.2998047-3.5610352.4804688l-.1196289-1.4003906c.9799805-.1201172,2.6201172-.3007812,3.9604492-.4609375.300293-1.4599609.6201172-3.2597656.8603516-5.0205078l2.0805664.2802734Zm4.6411133-.6201172c.9599609.7402344,2.1000977,1.9404297,2.6801758,2.7998047l-.7797852.5605469c-.5605469-.8603516-1.7607422-2.1201172-2.640625-2.7802734l.7402344-.5800781Zm4.480957,11.6425781c-.6601562-2.8808594-2.2407227-5.3017578-4.0810547-6.8222656l1.1601562-.7792969c1.9804688,1.6601562,3.7006836,4.1601562,4.3608398,7.0605469l-1.4399414.5410156Zm-1.4604492-12.4228516c.9799805.7197266,2.1201172,1.9199219,2.7006836,2.7802734l-.7802734.5800781c-.5600586-.8603516-1.7602539-2.140625-2.640625-2.8007812l.7202148-.5595703Z"/>
      <path class="cls-1" d="m160.4892578,13.0429688c-.0200195.1396484-.1801758.2392578-.4199219.2597656-.5400391,2.8603516-1.7006836,4.8007812-6.4213867,5.7607422-.1201172-.3203125-.4604492-.9003906-.7402344-1.1796875,4.3208008-.7802734,5.4008789-2.3408203,5.8012695-5.0214844l1.7802734.1806641Zm4.440918,3.8603516c0,.5800781.1601562.7001953,1.0800781.7001953h3.1806641c.840332,0,1.0004883-.3798828,1.0805664-2.9003906.2998047.2402344.8798828.4599609,1.2402344.5595703-.1601562,2.9003906-.5400391,3.6210938-2.2207031,3.6210938h-3.4003906c-1.8408203,0-2.3208008-.4199219-2.3208008-1.9804688v-4.6005859h-7.7216797V1.1601562h12.7426758v11.1425781h-3.6606445v4.6005859Zm-7.7817383-14.5634766v2.1806641h10.0820312v-2.1806641h-10.0820312Zm0,3.28125v2.2001953h10.0820312v-2.2001953h-10.0820312Zm0,3.3007812v2.2402344h10.0820312v-2.2402344h-10.0820312Z"/>
      <path class="cls-1" d="m183.2739258,11.6826172c.6801758-.3408203,1.340332-.4599609,1.9804688-.4599609,1.0200195,0,1.7602539.7792969,1.7602539,2.0400391,0,.5205078-.0600586,1.140625-.0600586,1.6201172,0,2.0400391,1.2001953,2.0400391,2.9204102,2.0400391.8803711,0,1.8808594-.0595703,2.6005859-.1796875,0,.9003906.0600586,1.4199219.0600586,1.4199219-.7797852.0800781-1.7202148.1201172-2.6005859.1201172-.8198242,0-1.5600586-.0400391-2.0800781-.1201172-1.4404297-.2197266-2.2607422-1.2802734-2.2807617-2.4599609,0-.4599609.0400391-1.3603516.0400391-1.9599609,0-.8408203-.3198242-1.3203125-1.0200195-1.3203125-.9604492,0-2.4404297.5595703-3.5810547,1.6601562-1.1601562,1.1396484-3.340332,3.3398438-4.0205078,4.140625,0,0-.2202148-.2802734-1.0805664-1.0605469,1.9003906-1.9404297,8.1821289-8.0410156,10.222168-10.0214844-1.4599609.1396484-6.0009766.3994141-8.2817383.5195312-.0600586.1201172-.159668.2001953-.3198242.2207031l-.1201172-1.6005859c2.8007812-.0800781,8.0615234-.3398438,10.0820312-.5205078l.300293-.1796875,1.1601562,1.0605469c-.1201172.0996094-.2602539.1396484-.4799805.1591797-1.2602539,1.1806641-3.7211914,3.4414062-5.2011719,4.8613281v.0205078Zm5.0209961-8.0019531c-2.140625-.6201172-5.9013672-1.2207031-8.5620117-1.3408203l.300293-1.3398438c2.7607422.1201172,6.3613281.6601562,8.6416016,1.3203125l-.3798828,1.3603516Z"/>
      <path class="cls-1" d="m201.5493164,9.2216797c1.3203125-.6796875,3.3808594-1.1601562,4.9614258-1.1601562,3.1806641,0,5.1806641,1.8603516,5.1806641,4.8007812,0,3.6210938-3.1806641,5.6210938-7.2011719,5.6210938-2.6005859,0-4.3808594-1.0400391-4.3808594-2.7998047,0-1.4804688,1.4599609-2.6806641,3.2802734-2.6806641,2.2607422,0,3.7807617,1.7998047,4.0810547,3.6201172,1.6005859-.5996094,2.7607422-1.8798828,2.7607422-3.7402344,0-2.1611328-1.6005859-3.5410156-4.1210938-3.5410156-3.0004883,0-5.9414062,1.3398438-7.2617188,2.6201172-.6000977.5605469-1.3798828,1.4003906-1.9204102,2.0205078l-1.0200195-1.0195312c1.800293-1.8808594,7.5214844-7.3417969,10.2421875-9.8828125-1.1601562.1601562-5.1611328.3203125-7.4414062.4003906-.0600586.1396484-.2602539.2597656-.4204102.2998047l-.159668-1.7001953c2.7001953-.0195312,7.8613281-.2197266,9.3217773-.4404297l.300293-.1396484,1.0600586,1.3007812c-.1000977.0800781-.2802734.1591797-.4799805.1796875-1.4204102,1.1601562-5.2211914,4.7207031-6.7817383,6.2216797v.0195312Zm2.7607422,8.0019531c.6000977,0,1.300293-.0800781,1.8203125-.2001953-.2202148-1.5400391-1.3603516-2.8408203-2.840332-2.8408203-1.0405273,0-1.9604492.5605469-1.9604492,1.4804688,0,1.2197266,1.6601562,1.5605469,2.9804688,1.5605469Z"/>
      <path class="cls-1" d="m217.4658203,13.5029297c1.4804688,1.1796875,3.440918,3.1601562,4.5209961,4.4208984l-1.2001953,1.0996094c-1-1.2802734-3.0405273-3.3798828-4.3808594-4.5810547l1.0600586-.9394531Z"/>
      <path class="cls-1" d="m241.7548828,4.6005859c.2197266-.0195312.3999023-.0400391.6000977-.0400391,2.1801758,0,4.3408203,1.3007812,4.3408203,4.0009766,0,2.6005859-1.7802734,4.1210938-4.5209961,4.1210938-1.1801758,0-2.7407227-.4404297-4.0009766-1.4404297.1401367-.2998047.300293-.8203125.4003906-1.2001953,1.1601562.9003906,2.5405273,1.3203125,3.6005859,1.3203125,1.8803711,0,3.0605469-1.0205078,3.0605469-2.8203125,0-1.4804688-1.0200195-2.640625-3.140625-2.640625-1.6801758,0-4.3208008.859375-6.581543,1.6601562.9404297,3.1806641,2.2207031,7.7412109,3.0009766,10.7421875l-1.5405273.3398438c-.6201172-2.8808594-1.9404297-7.6416016-2.8007812-10.5820312-1.2802734.4599609-3.0805664,1.0605469-4.1606445,1.4599609-.0200195.1806641-.1601562.3603516-.340332.4404297l-.6401367-1.6005859c1.2802734-.3994141,3.3007812-1.0595703,4.7612305-1.5800781-.6000977-2.0400391-1.1601562-3.8408203-1.5205078-5.0009766l2.0605469-.3798828c.0200195.2597656-.0800781.359375-.4199219.5400391.4399414,1.5400391.800293,2.8408203,1.2402344,4.3603516,2.1601562-.7402344,4.2006836-1.4003906,5.7612305-1.6201172-.9003906-1.0205078-2.4804688-2.3808594-3.5810547-3.0410156l.9204102-.8994141c1.340332.7597656,3.1206055,2.2597656,4.0610352,3.4003906l-.5600586.4599609Z"/>
      <path class="cls-1" d="m252.0366211,8.3417969c.3598633-.0800781,1.1000977-.2802734,1.7802734-.4804688,2.4804688-.7402344,5.3808594-1.4199219,7.2416992-1.4199219,2.7001953,0,5.1210938,1.4404297,5.1210938,4.7011719,0,4.4003906-4.3613281,6.0205078-9.7021484,6.4404297-.0800781-.2998047-.2802734-.9794922-.4003906-1.2197266,4.7011719-.3398438,8.6821289-1.7001953,8.6821289-5.140625,0-2.5009766-1.7807617-3.5810547-3.9008789-3.5615234-1.6005859.0205078-4.1811523.6005859-6.7016602,1.4609375-.4599609.1601562-.9599609.3398438-1.2802734.4394531-.0400391.1601562-.1796875.3007812-.3198242.3408203l-.5200195-1.5605469Z"/>
      <path class="cls-1" d="m285.5249023,7.5410156c-.0395508.0205078-.0996094.0205078-.159668.0205078-.1401367,0-.300293-.0400391-.4204102-.1201172-5.940918,1.7402344-11.3222656,4.3613281-11.3022461,7.0410156,0,1.9208984,2.1206055,2.5810547,5.3613281,2.5810547,3.2207031,0,5.6811523-.2402344,7.081543-.4599609l.1196289,1.4599609c-1.840332.2402344-4.8208008.3603516-7.1611328.3603516-3.9609375,0-6.8417969-.9208984-6.8618164-3.8613281-.0200195-2.1396484,2.1206055-4.0205078,5.2612305-5.640625-.6801758-1.2207031-.9199219-3.5410156-.9199219-8.0615234l2.2001953.1796875c-.0200195.2597656-.2202148.4199219-.6201172.4804688-.0200195,3.5.1000977,5.6806641.6601562,6.7607422,1.8803711-.8798828,4.0410156-1.6796875,6.2412109-2.4003906l.5200195,1.6601562Z"/>
      <path class="cls-1" d="m309.4638672,12.8222656h-6.7416992c1.1206055,2.8613281,3.5209961,4.4414062,7.3618164,5.0214844-.2802734.2792969-.6401367.8193359-.8203125,1.2001953-3.9208984-.7607422-6.3613281-2.4804688-7.6416016-5.6210938-.8203125,2.7402344-2.6206055,4.6201172-7.0615234,5.6611328-.1201172-.3408203-.4599609-.8603516-.7202148-1.1210938,4.1611328-.8994141,5.8212891-2.5595703,6.5415039-5.140625h-5.6811523c-.3203125,2.0605469-1.0004883,4.1806641-2.3007812,5.8408203-.2397461-.2197266-.8198242-.5996094-1.1801758-.7392578,2.2006836-2.7412109,2.4604492-6.5615234,2.4604492-9.3417969v-4.1816406h14.4233398v4.7216797h-6.4414062v.0195312l1,.0605469c0,.1396484-.159668.2392578-.4199219.2792969-.0600586.7607422-.1401367,1.4609375-.2402344,2.140625h7.4619141v1.2001953Zm.1000977-11.2421875v1.2402344h-17.644043v-1.2402344h17.644043Zm-14.543457,7.5419922c-.0200195.7802734-.0600586,1.6201172-.159668,2.5h5.7807617c.1401367-.7597656.2202148-1.6005859.2802734-2.5h-5.9013672Zm11.7626953-3.6210938h-11.7626953v2.5205078h11.7626953v-2.5205078Z"/>
      <path class="cls-1" d="m314.0844727,8.3417969c.3598633-.0800781,1.1000977-.2802734,1.7802734-.4804688,2.4804688-.7402344,5.3808594-1.4199219,7.2416992-1.4199219,2.7001953,0,5.1210938,1.4404297,5.1210938,4.7011719,0,4.4003906-4.3613281,6.0205078-9.7021484,6.4404297-.0800781-.2998047-.2802734-.9794922-.4003906-1.2197266,4.7011719-.3398438,8.6821289-1.7001953,8.6821289-5.140625,0-2.5009766-1.7807617-3.5810547-3.9008789-3.5615234-1.6005859.0205078-4.1811523.6005859-6.7016602,1.4609375-.4599609.1601562-.9599609.3398438-1.2802734.4394531-.0400391.1601562-.1796875.3007812-.3198242.3408203l-.5200195-1.5605469Z"/>
      <path class="cls-1" d="m331.3520508,3.140625c1.5004883-.0605469,13.8232422-.9404297,16.4238281-.9599609l.0200195,1.5c-.2602539-.0205078-.5-.0205078-.7402344-.0205078-1.1601562,0-2.140625.2001953-3.4208984,1.0205078-3.0004883,1.8007812-5.9013672,5.0214844-5.9013672,7.6015625,0,2.8007812,1.9604492,4.4609375,6.921875,5.1005859l-.6601562,1.4003906c-5.6811523-.8203125-7.8017578-2.9404297-7.8017578-6.5009766,0-2.8203125,2.7807617-6.2412109,6.4414062-8.5419922-2.1206055.140625-8.1020508.6005859-10.6826172.8408203-.0595703.1601562-.2797852.2998047-.4399414.3193359l-.1601562-1.7597656Z"/>
      <path class="cls-1" d="m368.2617188,7.6015625c-1.800293.6201172-3.980957,1-6.0410156,1.2402344.6201172,1.0800781,1.840332,2.5800781,3.300293,3.140625l-.7998047,1.140625c-.2802734-.140625-.800293-.3808594-1.1606445-.6005859-.4399414-.1601562-1.4199219-.2998047-2.3603516-.2998047-.2797852,0-.5600586.0195312-.8203125.0400391l-.2797852-1.1005859c.6801758-.0400391,1.6601562,0,2.2402344.0800781-.5400391-.5800781-1.1801758-1.4404297-1.5800781-2.2607422-1.340332.140625-2.8208008.2001953-5.3613281.2001953-.9799805,0-2.0805664,0-2.9804688-.0195312l-.0200195-1.2607422c.8999023.0205078,2.0605469.0400391,3.0605469.0400391,1.640625,0,3.2607422,0,4.8808594-.1396484-.2197266-.6201172-.5400391-1.7607422-.7797852-2.6611328-.800293.0800781-1.7006836.1201172-2.5205078.1201172-1.0805664,0-2.4609375,0-3.4008789-.0400391v-1.2402344c1.2001953.0605469,2.5205078.0605469,3.3808594.0605469.7197266,0,1.5400391-.0400391,2.300293-.1005859-.1801758-.9199219-.3798828-2.0205078-.5400391-3.140625l2.0605469.0205078c0,.2392578-.1801758.3798828-.5405273.4394531.1201172.8603516.2602539,1.7802734.4204102,2.5605469,1.8803711-.1796875,3.9008789-.5800781,5.3608398-1.1601562l.340332,1.2402344c-1.4604492.5400391-3.440918.9208984-5.4414062,1.140625.2602539,1.0605469.5205078,2,.7602539,2.6201172,2.1206055-.2197266,4.4208984-.6796875,6.2412109-1.3203125l.2802734,1.2607422Zm-3.5205078,10.5820312c-1.1005859.0800781-2.4208984.1201172-4.4013672.1201172-3.2402344-.0205078-5.7612305-1.0605469-5.7211914-3.3203125.0200195-1.1806641,1.0605469-2.4414062,2.3608398-3.1611328l.8999023.9199219c-1.1601562.6201172-1.840332,1.4609375-1.840332,2.2207031,0,1.4199219,1.7602539,2.0400391,4.3007812,2.0605469,1.5004883,0,3.0810547-.0800781,4.4414062-.1806641l-.0400391,1.3408203Z"/>
      <path class="cls-1" d="m384.6347656,4.8212891c-1.7006836.5996094-3.9609375.9794922-6.1416016,1.1396484-.8398438,4.5810547-2.0605469,9.1416016-3.6606445,12.5029297l-1.4404297-.5400391c1.640625-3.2207031,2.8408203-7.3613281,3.6206055-11.9023438-.3999023.0195312-3.0805664.0400391-3.6806641.0195312l-.0200195-1.3603516c.3203125.0205078.7402344.0205078,1.2001953.0205078.1801758,0,2.1806641,0,2.7006836-.0205078.2001953-1.2802734.4003906-2.6806641.5200195-3.9003906l2.0605469.2001953c-.0200195.2197266-.2998047.3798828-.5800781.3994141-.1201172.8808594-.3198242,1.9609375-.5,3.1806641,1.9604492-.1796875,3.940918-.5195312,5.6010742-1.1201172l.3203125,1.3808594Zm5.3208008,13.3222656c-.6000977.0195312-1.2202148.0400391-1.840332.0400391-1.8803711,0-3.6606445-.140625-4.7407227-.4404297-1.4204102-.4003906-2.2407227-1.4394531-2.2207031-2.7597656.0200195-.8808594.3999023-1.8808594,1.2402344-2.9013672l1.2001953.5205078c-.7001953.8203125-1.0400391,1.6005859-1.0400391,2.2207031,0,1.5800781,1.5200195,1.9794922,5.1611328,1.9794922.7402344,0,1.5-.0195312,2.2402344-.0800781v1.4208984Zm-7.8017578-9.6416016c2.0605469-.6601562,4.9013672-1.0810547,7.2617188-1.0205078v1.3603516c-2.2602539-.0605469-4.8808594.2597656-6.9213867.9003906l-.340332-1.2402344Z"/>
      <path class="cls-1" d="m412.5258789,6.28125v1.2197266h-4.5209961l.9604492.3007812c-.0600586.1396484-.2001953.2001953-.4404297.2197266-.3798828.7197266-1,1.7607422-1.5200195,2.5410156h4.9208984v1.2197266h-7.5415039c-.0400391.1201172-.1601562.1796875-.4003906.2197266v2.28125h7.0014648v1.2001953h-7.0014648v3.5605469h-1.3999023v-3.5605469h-6.7416992v-1.2001953h6.7416992v-2.5009766h-7.8217773v-1.2197266h4.6411133c-.2402344-.8007812-.7802734-1.9208984-1.2802734-2.78125l.9399414-.2802734h-4.8608398v-1.2197266h8.3818359v-2.4208984h-6.2416992v-1.2001953h6.2416992V.4199219l1.800293.1201172c-.0200195.1396484-.1401367.2402344-.4003906.2802734v1.8398438h6.4013672v1.2001953h-6.4013672v2.4208984h8.5419922Zm-6.5615234,4.28125l-.2998047-.1005859c.5200195-.8203125,1.1601562-2.0400391,1.5400391-2.9609375h-7.8212891c.5600586.9208984,1.1401367,2.1005859,1.3598633,2.8808594l-.5400391.1806641h5.7612305Z"/>
      <path class="cls-1" d="m430.1992188,1.1601562c0,.2001953-.1401367.2998047-.4399414.3798828.0795898,1.4003906.1396484,3.0410156.1796875,4.5410156,1.5805664-.2597656,3.1005859-.5,4.28125-.6796875l.1196289,1.3994141c-1.2001953.1201172-2.7602539.3408203-4.3808594.6005859.0200195,1.8408203-.0200195,3.4609375-.2197266,4.4414062-.2402344,1.1796875-1.1005859,1.8603516-2.2407227,1.8603516-.8203125,0-1.9804688-.2802734-3.0805664-.8808594.1000977-.2998047.1801758-.7998047.2402344-1.1796875,1.1201172.5996094,2.1401367.7802734,2.6201172.7802734,1.2006836,0,1.3803711-1.1806641,1.2802734-4.8212891-2.300293.3798828-4.7006836.7802734-6.5209961,1.0996094.0400391,1.9003906.0795898,3.7216797.159668,4.8417969.2402344,3.0400391,1.7407227,3.2197266,4.6210938,3.2197266,1.640625,0,3.8007812-.0996094,5.2412109-.2998047l.0400391,1.3603516c-1.4204102.1601562-3.440918.2197266-5.1210938.2197266-3.1005859,0-5.8212891-.0800781-6.1611328-4.3798828-.1000977-1.1210938-.1401367-2.8613281-.1801758-4.7216797-1.2402344.2207031-2.8808594.5400391-3.9008789.7402344l-.2202148-1.3398438c1.0605469-.1601562,2.7207031-.4599609,4.1010742-.6806641-.0200195-1.7402344-.0400391-3.6201172-.0400391-5.140625l1.9804688.1796875c-.0200195.2197266-.1801758.3398438-.5.3798828-.0200195,1.2207031-.0200195,2.8212891,0,4.3212891l6.480957-1.0800781c-.0595703-1.7001953-.1396484-3.640625-.2597656-5.2617188l1.9204102.1005859Z"/>
      <path class="cls-1" d="m445.7695312,1.0195312c-.0600586.1601562-.2602539.3203125-.6201172.3408203-.1401367.8798828-.3203125,1.9199219-.5,2.7001953,1.9599609-.1201172,4.140625-.4599609,5.8808594-.9804688l.2202148,1.3603516c-1.8603516.4599609-4.0610352.7802734-6.3613281.9609375-.9604492,3.8408203-2.2807617,6.9609375-4.2407227,9.8417969l-1.340332-.5400391c1.8203125-2.6210938,3.2006836-5.6210938,4.0605469-9.2617188h-3.9804688v-1.3007812h2.3803711c.6201172,0,1.2602539-.0195312,1.840332-.0195312.2402344-1.0605469.4199219-2.2011719.5600586-3.3808594l2.1005859.2792969Zm5.3208008,8.5224609c.0200195,1.6201172.1401367,2.7207031.2602539,4.1005859,1.2802734.5,2.9404297,1.3603516,4.2607422,2.3203125l-.7197266,1.2802734c-1.1005859-.8398438-2.4609375-1.6201172-3.5410156-2.1005859,0,2.0009766-.800293,3.5605469-3.7407227,3.5605469-2.2207031,0-3.9208984-1-3.9008789-2.8798828,0-2.0009766,2.1005859-2.9609375,3.940918-2.9609375.7202148,0,1.4604492.140625,2.2602539.3603516-.0800781-1.2802734-.1796875-2.5810547-.1796875-3.5205078l1.3598633-.1601562Zm-1.1000977,5.0009766c-.8203125-.3203125-1.6601562-.4599609-2.3803711-.4599609-1.2001953,0-2.6206055.4794922-2.640625,1.7197266,0,1.140625,1.1201172,1.6806641,2.6806641,1.6806641,1.4404297,0,2.3603516-.7001953,2.3603516-2.0205078,0-.3203125,0-.6201172-.0200195-.9199219Zm5.4814453-7.0615234c-2.2607422.0195312-5.0014648.3798828-7.081543.9804688l-.2202148-1.2607422c2.2802734-.6601562,5.0410156-1.0800781,7.2216797-1.0800781l.0800781,1.3603516Z"/>
      <path class="cls-1" d="m461.5244141,1.7402344h12.9829102v16.84375h-1.4003906v-1.2011719h-10.2021484v1.3203125h-1.3803711V1.7402344Zm11.5825195,1.3603516h-10.2021484v5.7412109h10.2021484V3.1005859Zm-10.2021484,12.9228516h10.2021484v-5.8613281h-10.2021484v5.8613281Z"/>
      <path class="cls-1" d="m495.7949219,1.2402344c-.0996094.1396484-.2597656.1796875-.4199219.1601562-.4199219.5996094-1.0800781,1.4804688-1.6401367,2.1201172h3.6005859v4.1611328h-1.3203125v-2.9404297h-14.2631836v2.9404297h-1.2802734V3.5205078h3.2807617c-.3598633-.7001953-1.0200195-1.6806641-1.6000977-2.3808594l1.1601562-.5c.7202148.7802734,1.4604492,1.8203125,1.8203125,2.5205078l-.7602539.3603516h3.7006836V.4199219l1.7407227.1201172c-.0200195.1396484-.1201172.2402344-.3803711.2802734v2.7001953h3.6210938l-.6000977-.2802734c.5800781-.7197266,1.3603516-1.8798828,1.7602539-2.6601562l1.5800781.6601562Zm.2202148,11.2021484v4.1806641c0,1.5-.7402344,1.5-4.0009766,1.5-.0600586-.359375-.2797852-.8193359-.4599609-1.1796875.7602539.0195312,1.4604492.0400391,1.9604492.0400391,1.0200195,0,1.1801758,0,1.1801758-.3603516v-2.9404297h-5.2612305v5.3613281h-1.3603516v-5.3613281h-4.9609375v4.4804688h-1.300293v-5.7207031h6.2612305v-1.6806641h-4.4609375v-4.4404297h10.6225586v4.4404297h-4.5610352c-.0600586.0400391-.1401367.0605469-.2402344.0800781v1.6005859h6.581543Zm-11.1420898-5.0605469v2.3398438h8.0415039v-2.3398438h-8.0415039Z"/>
      <path class="cls-1" d="m506.796875,16.2236328c0,1.5400391-1.2602539,2.7998047-2.800293,2.7998047-1.5405273,0-2.8007812-1.2597656-2.8007812-2.7998047,0-1.5410156,1.2602539-2.8007812,2.8007812-2.8007812,1.5800781,0,2.800293,1.2998047,2.800293,2.8007812Zm-.7202148,0c0-1.1601562-.9199219-2.0810547-2.0800781-2.0810547-1.140625,0-2.0605469.9208984-2.0605469,2.0810547,0,1.1396484.9199219,2.0595703,2.0605469,2.0595703,1.2001953,0,2.0800781-.9599609,2.0800781-2.0595703Z"/>
      <path class="cls-1" d="m8.1816406,56.1181641c-.0400391.2402344-.2802734.3408203-.6601562.3603516-.2202148,1.1201172-.5800781,3.0605469-.8203125,4.2607422.9003906-.0996094,1.7202148-.1796875,2.2207031-.1796875,3.0405273-.0400391,4.0805664,1.9804688,4.0805664,4.9814453,0,1.5-.2797852,3.2802734-.6801758,4.4804688-.6201172,2.0400391-1.9003906,3.0205078-3.5605469,3.0205078-.8203125,0-1.9003906-.3398438-3.6206055-1.7402344.2197266-.3603516.3798828-.7998047.5400391-1.2197266,1.6000977,1.2402344,2.4404297,1.5195312,3.0605469,1.5195312,1.1401367,0,1.8203125-.7197266,2.2202148-2,.4204102-1.2402344.6401367-3.0810547.6401367-4.1005859-.0200195-2.28125-.7597656-3.6416016-2.7602539-3.6210938-.6000977,0-1.4204102.0800781-2.4404297.2001953-1.0004883,4.0810547-2.1806641,7.5810547-4.1010742,10.8017578l-1.3203125-.6396484c1.9404297-3.1005859,3.0405273-6.2011719,3.980957-10.0019531-1.0205078.1201172-2.4804688.2998047-3.5610352.4794922l-.1196289-1.4003906c.9799805-.1201172,2.6201172-.2998047,3.9604492-.4599609.300293-1.4599609.6201172-3.2607422.8603516-5.0205078l2.0805664.2792969Zm9.2617188,9.6220703c-.6401367-2.9199219-2.5405273-5.4003906-4.5009766-6.8408203l1.0805664-.8408203c2.1201172,1.5009766,4.2207031,4.2617188,4.8608398,7.1220703l-1.4404297.5595703Z"/>
      <path class="cls-1" d="m26.4824219,56.7783203c-.0400391.1806641-.2197266.3203125-.5200195.3603516-.5800781,2.5205078-1.0400391,6.0214844-1.0400391,8.2617188,0,1.3808594.0600586,2.5605469.2001953,3.3613281.4399414-.9003906,1.4199219-2.8007812,2.0400391-3.9609375l.9204102.9394531c-1.4604492,2.6005859-2.3803711,4.2617188-2.3803711,5.0410156,0,.2402344.0600586.5009766.159668.8203125l-1.3999023.2802734c-.5205078-1.4404297-.9204102-3.640625-.9204102-6.4414062,0-2.5605469.4199219-6.0009766,1-8.9814453l1.9404297.3193359Zm2.9609375,4.5410156c1.6000977,0,3.9609375-.0400391,5.4008789-.1396484-.1196289-2.3203125-.2597656-5.0810547-.3198242-5.5009766l2.0605469.0800781c-.0200195.2197266-.2202148.3994141-.5405273.4599609.0400391,1.0996094.1401367,3.140625.2202148,4.8808594,1.3603516-.1201172,2.8208008-.3203125,3.9208984-.6201172l.1401367,1.4199219c-1.1201172.2402344-2.5405273.4404297-4.0209961.5400391,0,.1201172.0200195.4404297.0200195,1.6210938,0,4.3203125-.9599609,7.3808594-4.8208008,9.3017578-.1601562-.2197266-.7402344-.7597656-1.0805664-1,3.7006836-1.8007812,4.480957-4.4208984,4.480957-8.1816406l-.0200195-1.6611328c-1.340332.0800781-3.640625.140625-5.4208984.140625l-.0200195-1.3408203Z"/>
      <path class="cls-1" d="m51.9257812,56.1181641c-.0400391.2402344-.2802734.3408203-.6601562.3603516-.2202148,1.1201172-.5800781,3.0605469-.8203125,4.2607422.9003906-.0996094,1.7202148-.1796875,2.2207031-.1796875,3.0405273-.0400391,4.0805664,1.9804688,4.0805664,4.9814453,0,1.5-.2797852,3.2802734-.6801758,4.4804688-.6201172,2.0400391-1.9003906,3.0205078-3.5605469,3.0205078-.8203125,0-1.9003906-.3398438-3.6206055-1.7402344.2197266-.3603516.3798828-.7998047.5400391-1.2197266,1.6000977,1.2402344,2.4404297,1.5195312,3.0605469,1.5195312,1.1401367,0,1.8203125-.7197266,2.2202148-2,.4204102-1.2402344.6401367-3.0810547.6401367-4.1005859-.0200195-2.28125-.7597656-3.6416016-2.7602539-3.6210938-.6000977,0-1.4204102.0800781-2.4404297.2001953-1.0004883,4.0810547-2.1806641,7.5810547-4.1010742,10.8017578l-1.3203125-.6396484c1.9404297-3.1005859,3.0405273-6.2011719,3.980957-10.0019531-1.0205078.1201172-2.4804688.2998047-3.5610352.4794922l-.1196289-1.4003906c.9799805-.1201172,2.6201172-.2998047,3.9604492-.4599609.300293-1.4599609.6201172-3.2607422.8603516-5.0205078l2.0805664.2792969Zm4.6411133-.6201172c.9599609.7402344,2.1000977,1.9404297,2.6801758,2.8007812l-.7797852.5605469c-.5605469-.8603516-1.7607422-2.1210938-2.640625-2.78125l.7402344-.5800781Zm4.480957,11.6425781c-.6601562-2.8798828-2.2407227-5.3007812-4.0810547-6.8212891l1.1601562-.7802734c1.9804688,1.6601562,3.7006836,4.1611328,4.3608398,7.0615234l-1.4399414.5400391Zm-1.4604492-12.421875c.9799805.7197266,2.1206055,1.9199219,2.7006836,2.7802734l-.7802734.5800781c-.5600586-.8603516-1.7602539-2.140625-2.640625-2.8007812l.7202148-.5595703Z"/>
      <path class="cls-1" d="m72.8999023,66.4003906c.6801758-.3398438,1.340332-.4599609,1.9804688-.4599609,1.0200195,0,1.7602539.7802734,1.7602539,2.0410156,0,.5195312-.0600586,1.1396484-.0600586,1.6201172,0,2.0400391,1.2001953,2.0400391,2.9204102,2.0400391.8803711,0,1.8808594-.0595703,2.6005859-.1796875,0,.9003906.0600586,1.4199219.0600586,1.4199219-.7797852.0800781-1.7202148.1201172-2.6005859.1201172-.8198242,0-1.5600586-.0400391-2.0800781-.1201172-1.4404297-.2197266-2.2607422-1.2802734-2.2807617-2.4599609,0-.4599609.0400391-1.3603516.0400391-1.9609375,0-.8398438-.3198242-1.3203125-1.0200195-1.3203125-.9604492,0-2.4404297.5605469-3.5810547,1.6611328-1.1601562,1.1396484-3.340332,3.3398438-4.0205078,4.140625,0,0-.2202148-.2802734-1.0805664-1.0605469,1.9003906-1.9404297,8.1821289-8.0419922,10.222168-10.0224609-1.4599609.140625-6.0009766.4003906-8.2817383.5205078-.0600586.1201172-.159668.2001953-.3198242.2197266l-.1201172-1.5996094c2.8007812-.0800781,8.0615234-.3408203,10.0820312-.5205078l.300293-.1796875,1.1601562,1.0595703c-.1201172.1005859-.2602539.140625-.4799805.1601562-1.2602539,1.1806641-3.7211914,3.4414062-5.2011719,4.8613281v.0195312Zm5.0209961-8.0009766c-2.140625-.6201172-5.9013672-1.2207031-8.5620117-1.3408203l.300293-1.3398438c2.7607422.1201172,6.3613281.6601562,8.6416016,1.3203125l-.3798828,1.3603516Z"/>
      <path class="cls-1" d="m95.4643555,58.7988281c-.0800781.1806641-.2402344.3203125-.5004883.3203125-.7202148,6.2216797-2.800293,11.6425781-6.1210938,11.6425781-1.6801758,0-3.2006836-1.6806641-3.2006836-4.8408203,0-4.8007812,3.7407227-8.8222656,9.0019531-8.8222656,5.78125,0,8.2817383,3.6611328,8.2817383,7.5615234,0,4.7617188-2.7607422,7.0615234-7.6015625,8.1816406-.1801758-.3193359-.5200195-.859375-.840332-1.2197266,4.6010742-.8798828,6.9614258-3.1210938,6.9614258-6.9013672,0-3.3007812-2.1201172-6.3017578-6.8012695-6.3017578-.2001953,0-.4204102.0205078-.6000977.0400391l1.4204102.3398438Zm-1.9204102-.2597656c-4.0410156.5-6.5415039,3.8408203-6.5415039,7.3417969,0,2.140625.9199219,3.4804688,1.8803711,3.4804688,2.4204102,0,4.1606445-5.3408203,4.6611328-10.8222656Z"/>
      <path class="cls-1" d="m114.027832,55.7382812c-.0600586.1601562-.2602539.3203125-.6201172.3398438-.1401367.8808594-.3203125,1.9208984-.5,2.7011719,1.9599609-.1201172,4.140625-.4599609,5.8808594-.9804688l.2202148,1.3603516c-1.8603516.4599609-4.0610352.7802734-6.3613281.9599609-.9604492,3.8408203-2.2802734,6.9619141-4.2407227,9.8427734l-1.340332-.5400391c1.8203125-2.6210938,3.2006836-5.6220703,4.0605469-9.2626953h-3.9804688v-1.2998047h2.3803711c.6201172,0,1.2602539-.0205078,1.840332-.0205078.2402344-1.0595703.4199219-2.2001953.5600586-3.3808594l2.1005859.2802734Zm5.3208008,8.5224609c.0200195,1.6201172.1401367,2.7197266.2602539,4.1005859,1.2802734.5,2.9404297,1.3603516,4.2607422,2.3203125l-.7197266,1.2802734c-1.1005859-.8398438-2.4609375-1.6201172-3.5410156-2.1005859,0,2.0009766-.800293,3.5605469-3.7407227,3.5605469-2.2207031,0-3.9208984-1-3.9008789-2.8798828,0-2.0009766,2.1005859-2.9609375,3.940918-2.9609375.7202148,0,1.4604492.1396484,2.2602539.3603516-.0800781-1.2802734-.1796875-2.5810547-.1796875-3.5214844l1.3598633-.1591797Zm-1.1000977,5.0009766c-.8203125-.3203125-1.6601562-.4599609-2.3803711-.4599609-1.2001953,0-2.6206055.4794922-2.640625,1.7197266,0,1.140625,1.1201172,1.6806641,2.6806641,1.6806641,1.4404297,0,2.3603516-.7001953,2.3603516-2.0205078,0-.3203125,0-.6201172-.0200195-.9199219Zm5.4814453-7.0615234c-2.2607422.0195312-5.0014648.3798828-7.081543.9794922l-.2202148-1.2597656c2.2802734-.6601562,5.0410156-1.0800781,7.2216797-1.0800781l.0800781,1.3603516Z"/>
      <path class="cls-1" d="m131.1650391,57.859375c-.0400391.1796875-.2602539.2998047-.5405273.3193359-.2397461,1.5009766-.3798828,3.3007812-.3798828,4.9814453,0,.7402344.0400391,1.4599609.0800781,2.1005859.2397461,3.4003906,1.6201172,5.4609375,3.1606445,5.4414062.800293,0,1.840332-2.0410156,2.5605469-4.28125.2802734.2802734.8203125.6601562,1.1601562.8603516-.9199219,2.7001953-2.0805664,4.9003906-3.7407227,4.9404297-2.5405273.0400391-4.3007812-3.0400391-4.5810547-6.8808594-.0600586-.7607422-.0800781-1.6005859-.0800781-2.5009766,0-1.7597656.1000977-3.6806641.300293-5.3808594l2.0605469.4003906Zm13.2626953,9.3017578c-.5600586-3.5009766-2.3408203-6.0214844-5.0410156-7.5214844l.8798828-1.0800781c2.9208984,1.5595703,5.0610352,4.4404297,5.6416016,8.1416016l-1.4804688.4599609Z"/>
      <path class="cls-1" d="m160.1762695,61.9794922c.4003906,1.3203125.9604492,2.5810547,1.640625,3.7207031,1.3203125-.8193359,2.8803711-1.9404297,3.8808594-2.8203125l1.2202148,1.1005859c-.0800781.0800781-.2602539.0996094-.4204102.0800781-1.0200195.7998047-2.6806641,1.8603516-4.0205078,2.640625,1.4399414,1.9804688,3.340332,3.5,5.7011719,4.2607422-.300293.2597656-.6801758.7802734-.9003906,1.1396484-4.1010742-1.5-6.7412109-5.1806641-8.1616211-9.7412109-.6401367.4794922-1.4003906.9599609-2.2006836,1.3798828,2.7607422,1.9804688,3.940918,4.5410156,3.940918,6.5615234,0,2.1601562-1.3603516,3.4804688-3.440918,3.4804688-.5,0-1.1401367-.0195312-1.800293-.0595703-.0200195-.3408203-.1396484-.9003906-.3598633-1.2607422.7402344.0605469,1.4404297.0800781,1.8803711.0800781.5800781,0,1.0600586-.0400391,1.4804688-.3798828.5600586-.3603516.8798828-1.1005859.8798828-2.0205078,0-.5605469-.1201172-1.1806641-.3798828-1.8408203-2.2006836,1.9003906-5.6411133,3.8007812-8.5419922,4.7617188-.1601562-.3408203-.4399414-.8408203-.7202148-1.140625,3.0410156-.8203125,6.7216797-2.7802734,8.7421875-4.7011719-.2602539-.4199219-.5800781-.8398438-.9404297-1.2402344-1.7202148,1.2802734-4.4208984,2.6611328-6.5214844,3.4208984-.159668-.3203125-.4599609-.7802734-.7202148-1.0605469,2.1206055-.6201172,4.8813477-1.9199219,6.5014648-3.1201172-.3398438-.2998047-.7202148-.6201172-1.1401367-.9199219-1.5004883.6992188-3.1206055,1.2802734-4.6411133,1.7197266-.159668-.2597656-.4799805-.7802734-.6801758-1.0205078,2.4609375-.6201172,5.2612305-1.6796875,7.2216797-3.0205078h-4.7412109v-1.1796875h11.4628906v1.1796875h-4.2211914Zm-8.4819336-3.2402344v2.7001953h-1.300293v-3.9404297h7.6220703v-2.3603516l1.7802734.1201172c-.0200195.1396484-.1401367.2392578-.4003906.2597656v1.9804688h7.7416992v3.9404297h-1.3603516v-2.7001953h-14.0830078Z"/>
      <path class="cls-1" d="m178.3710938,62.8798828l.300293-.0195312.7202148.0800781c-.2202148,1.2802734-.1000977,8.9414062-1.1401367,10.1816406-.4404297.5800781-.9204102.640625-2.0605469.640625-.340332,0-.7402344,0-1.1401367-.0205078-.0200195-.3798828-.1401367-.9199219-.340332-1.2597656.7802734.0595703,1.5205078.0800781,1.8203125.0800781.300293,0,.4604492-.0400391.6201172-.2607422.4204102-.5.6801758-2.5400391.8803711-8.1611328h-2.8808594c-.2597656,3.5605469-.8798828,7.2412109-2.4604492,9.6015625-.2197266-.2802734-.6801758-.6601562-1.0200195-.8398438,2.0004883-2.9609375,2.3203125-8.5820312,2.4003906-13.0625h-2.3203125v-1.2607422h3.7407227v-3.3808594l1.7001953.1005859c-.0200195.1396484-.1401367.2392578-.3999023.2792969v3.0009766h3.5205078v1.2607422h-4.9609375c-.0200195.9599609-.0600586,1.9794922-.1201172,3.0400391h3.140625Zm11.7026367-3.6210938h-7.9018555c-.6000977,1.2607422-1.2998047,2.3808594-2.0600586,3.2207031-.2001953-.2392578-.6601562-.6796875-.9204102-.8798828,1.300293-1.4404297,2.4204102-3.9208984,3.0605469-6.4609375l1.6206055.4199219c-.0600586.1396484-.2001953.2197266-.4204102.2197266-.199707.7607422-.4599609,1.5009766-.7397461,2.2402344h7.3613281v1.2402344Zm.0600586,8.6220703h-3.9008789c.7402344,2.1806641,2.1206055,3.9609375,4.0610352,4.78125-.300293.2597656-.7202148.7597656-.9204102,1.0800781-1.9003906-.9599609-3.2607422-2.8007812-4.0805664-5.0810547-.6000977,1.8007812-1.9404297,3.640625-4.9614258,5.1210938-.1796875-.2802734-.5600586-.7001953-.8598633-.9404297,3.1206055-1.4199219,4.2807617-3.2607422,4.7207031-4.9609375h-4.1806641v-1.2197266h4.3808594c.0400391-.3798828.0400391-.7607422.0400391-1.1005859v-2.140625h-1.7001953c-.3803711,1.0605469-.840332,2.0205078-1.340332,2.7412109-.2402344-.2001953-.7001953-.5009766-1.0205078-.6601562.9204102-1.2802734,1.640625-3.5009766,2.0605469-5.6611328l1.5605469.4199219c-.0400391.1201172-.1801758.2001953-.4204102.2001953-.1201172.5800781-.2597656,1.1601562-.4399414,1.7402344h6.28125v1.2197266h-3.6806641v2.140625c0,.3603516-.0200195.7207031-.0400391,1.1005859h4.440918v1.2197266Z"/>
      <path class="cls-1" d="m204.328125,58.7988281c-.0800781.1806641-.2402344.3203125-.5004883.3203125-.7202148,6.2216797-2.800293,11.6425781-6.1210938,11.6425781-1.6801758,0-3.2006836-1.6806641-3.2006836-4.8408203,0-4.8007812,3.7407227-8.8222656,9.0019531-8.8222656,5.78125,0,8.2817383,3.6611328,8.2817383,7.5615234,0,4.7617188-2.7607422,7.0615234-7.6015625,8.1816406-.1801758-.3193359-.5200195-.859375-.840332-1.2197266,4.6010742-.8798828,6.9614258-3.1210938,6.9614258-6.9013672,0-3.3007812-2.1201172-6.3017578-6.8012695-6.3017578-.2001953,0-.4199219.0205078-.6000977.0400391l1.4204102.3398438Zm-1.9204102-.2597656c-4.0410156.5-6.5415039,3.8408203-6.5415039,7.3417969,0,2.140625.9199219,3.4804688,1.8803711,3.4804688,2.4204102,0,4.1606445-5.3408203,4.6611328-10.8222656Z"/>
      <path class="cls-1" d="m222.340332,69.6210938v-14.6826172h6.6616211v1.0400391h-5.621582v13.6425781h-1.0400391Z"/>
      <path class="cls-1" d="m246.9194336,71.6816406c-1.7602539.3203125-4.0810547.4599609-6.081543.4599609-1.6801758,0-3.140625-.0996094-3.9204102-.2597656-2.4208984-.5400391-3.4609375-2.0605469-3.4609375-3.8203125,0-1.5410156.8603516-3.0810547,2.0405273-4.28125l1.1601562.5996094c-1.1201172,1.1611328-1.7602539,2.4414062-1.7602539,3.5615234,0,1.1601562.7802734,2.2197266,2.5004883,2.6005859.7001953.1601562,1.8803711.2392578,3.2607422.2392578,1.9404297,0,4.2607422-.1591797,6.1611328-.5400391l.1000977,1.4404297Zm-8.9819336-10.1015625c1.0400391-.8007812,2.4604492-1.7802734,3.5405273-2.3212891v-.0195312c-1.5200195.1796875-5.0009766.2597656-7.2211914.2402344,0-.3798828,0-1.0400391-.0200195-1.4003906.4399414.0195312,8.121582.1396484,11.4023438-.640625l.1601562,1.4804688c-2.3808594.2802734-5.4414062,2.3603516-6.7216797,3.3808594l-1.1401367-.7197266Z"/>
      <path class="cls-1" d="m252.6318359,59.7392578c1.6206055,0,3.1010742-.1396484,3.7612305-.2998047.0395508-1.2001953.0595703-1.8603516.1396484-3.6806641l2.0605469.1601562c-.0400391.2197266-.2202148.359375-.5600586.3994141-.0800781.8808594-.1601562,2.1210938-.2001953,2.8613281l.6201172.2392578c-.4799805.9609375-.6801758,2.140625-.7998047,2.8613281,2.2001953-2.0605469,4.640625-3.5214844,6.3012695-3.5214844,1.8803711,0,2.8203125,1.3203125,2.8203125,3.6416016,0,.2597656-.0200195.5195312-.0400391.7792969-.1396484,1.7607422-.3398438,4.2617188-.3398438,5.8613281,0,1.2001953.1401367,1.8408203.9799805,1.8408203.6000977,0,1.8007812-.6005859,2.6606445-1.3408203.0400391.4003906.2001953,1.2207031.2802734,1.5205078-1.0205078.7402344-2.2207031,1.3007812-3.140625,1.3007812-1.6806641,0-2.2407227-1-2.2407227-3.0810547,0-1.0400391.3603516-6.5410156.3603516-6.5615234,0-1.7402344-.6000977-2.5205078-1.5805664-2.5205078-1.5004883,0-4.0209961,1.6201172-6.1010742,3.8212891,0,2.9003906,0,6.4609375.0200195,9.1816406h-1.4003906c.0200195-1.1601562,0-6.8613281.0200195-8.1416016-.7001953,1.4003906-2.0605469,3.2207031-3.6411133,4.8212891l-.7197266-1.2607422c1.6601562-1.5605469,3.5205078-3.9804688,4.4008789-6.0410156,0-.5800781.0200195-1.1201172.0400391-1.7607422-.7001953.1601562-2.1606445.3203125-3.6811523.3408203l-.0200195-1.4208984Z"/>
      <path class="cls-1" d="m281.527832,56.1181641c-.0400391.2402344-.2802734.3408203-.6601562.3603516-.2202148,1.1201172-.5800781,3.0605469-.8203125,4.2607422.9003906-.0996094,1.7202148-.1796875,2.2207031-.1796875,3.0405273-.0400391,4.0805664,1.9804688,4.0805664,4.9814453,0,1.5-.2797852,3.2802734-.6801758,4.4804688-.6201172,2.0400391-1.9003906,3.0205078-3.5605469,3.0205078-.8203125,0-1.9003906-.3398438-3.6206055-1.7402344.2197266-.3603516.3798828-.7998047.5400391-1.2197266,1.6000977,1.2402344,2.4404297,1.5195312,3.0605469,1.5195312,1.1401367,0,1.8203125-.7197266,2.2202148-2,.4204102-1.2402344.6401367-3.0810547.6401367-4.1005859-.0200195-2.28125-.7597656-3.6416016-2.7602539-3.6210938-.6000977,0-1.4204102.0800781-2.4404297.2001953-1.0004883,4.0810547-2.1806641,7.5810547-4.1010742,10.8017578l-1.3203125-.6396484c1.9404297-3.1005859,3.0405273-6.2011719,3.980957-10.0019531-1.0205078.1201172-2.4804688.2998047-3.5610352.4794922l-.1196289-1.4003906c.9799805-.1201172,2.6201172-.2998047,3.9604492-.4599609.300293-1.4599609.6201172-3.2607422.8603516-5.0205078l2.0805664.2792969Zm9.2617188,9.6220703c-.6401367-2.9199219-2.5405273-5.4003906-4.5009766-6.8408203l1.0805664-.8408203c2.1201172,1.5009766,4.2207031,4.2617188,4.8608398,7.1220703l-1.4404297.5595703Z"/>
      <path class="cls-1" d="m300.2890625,59.4589844c-.0800781.2001953-.2397461.3007812-.5200195.3408203-.1601562,2.9599609-.5400391,5.4804688-.8203125,5.9003906h.0200195c1.9604492-1.4599609,5.0214844-2.4599609,7.3618164-2.4599609,3.0805664,0,5.0009766,1.5800781,4.9609375,4.3808594-.0600586,3.6806641-3.1005859,5.3212891-10.8422852,5.6416016-.1000977-.3808594-.2797852-.9404297-.5-1.3203125,6.9814453-.3007812,9.7822266-1.4404297,9.8422852-4.3017578.0200195-1.9199219-1.3203125-3.0800781-3.6611328-3.0800781-3.7006836,0-7.0415039,2.2207031-7.6015625,3.2001953l-1.3603516-.6601562c.4003906-.3798828,1.1005859-3.9609375,1.1401367-7.8808594l1.9804688.2392578Zm.340332-3.8808594c2.7207031.3203125,5.8012695.9404297,7.7617188,1.7607422l-.5004883,1.3798828c-2.0600586-.8798828-5.0410156-1.4599609-7.6816406-1.8203125l.4204102-1.3203125Z"/>
      <path class="cls-1" d="m321.5996094,59.0595703v14.6826172h-6.6616211v-1.0605469h5.6210938v-13.6220703h1.0405273Z"/>
      <path class="cls-1" d="m345.9067383,62.2597656c-.0395508.0205078-.0996094.0205078-.159668.0205078-.1401367,0-.300293-.0400391-.4204102-.1201172-5.940918,1.7402344-11.3222656,4.3603516-11.3022461,7.0410156,0,1.9208984,2.1206055,2.5810547,5.3613281,2.5810547,3.2207031,0,5.6811523-.2402344,7.081543-.4599609l.1196289,1.4599609c-1.840332.2402344-4.8208008.3603516-7.1611328.3603516-3.9609375,0-6.8417969-.9208984-6.8618164-3.8613281-.0200195-2.140625,2.1206055-4.0205078,5.2612305-5.640625-.6801758-1.2207031-.9199219-3.5410156-.9199219-8.0625l2.2001953.1806641c-.0200195.2597656-.2202148.4199219-.6201172.4794922-.0200195,3.5009766.1000977,5.6816406.6601562,6.7617188,1.8803711-.8798828,4.0410156-1.6806641,6.2412109-2.4003906l.5200195,1.6601562Z"/>
      <path class="cls-1" d="m351.7060547,68.2207031c1.4804688,1.1806641,3.440918,3.1611328,4.5209961,4.421875l-1.2001953,1.0996094c-1-1.2802734-3.0405273-3.3808594-4.3808594-4.5810547l1.0600586-.9404297Z"/>
      <path class="cls-1" d="m5.440918,99.4335938l2.0205078.2001953c-.0600586.2402344-.2402344.3398438-.5800781.3798828-.0800781.9404297-.1401367,2.0410156-.1801758,2.8613281.1201172.0595703.3203125.1396484.7202148.2998047-.2402344.4794922-.6401367,1.5605469-.8203125,2.4199219-.0200195.4003906-.0400391.5410156-.0600586.8603516,2.1606445-1.5800781,4.4208984-2.4199219,6.5415039-2.4199219,3.5009766,0,5.3413086,2.3798828,5.3413086,5.7412109,0,4.2001953-3.3007812,6.1005859-8.7021484,6.5810547-.1196289-.4199219-.2998047-.9003906-.5-1.2802734,4.9609375-.4599609,7.7617188-1.8603516,7.7617188-5.28125,0-2.4404297-1.2602539-4.4404297-4.0009766-4.4404297-2.1000977,0-4.2006836.8203125-6.4614258,2.640625,0,2.8798828,0,6.3408203.0200195,9.0019531h-1.3999023c.0200195-1.2001953,0-7.0820312.0200195-8.4023438-.6601562,1.2001953-2.2207031,3.2412109-3.8012695,4.6416016l-.7397461-1.1806641c1.5800781-1.4199219,3.6806641-3.8007812,4.5605469-5.9414062l.0600586-1.640625c-.7797852.140625-2.3603516.3007812-3.9404297.3408203l-.0400391-1.3808594c1.3999023,0,3.0405273-.0800781,4.0605469-.2998047l.1201172-3.7011719Z"/>
      <path class="cls-1" d="m33.5263672,117.3574219c-2.0205078-2.3603516-5.1411133-5.3212891-7.8417969-7.4414062-1-.7998047-1.3598633-1.3603516-1.3598633-2.0800781,0-.5800781.3198242-1.140625,1.0600586-1.8203125,1.8203125-1.6806641,5.2412109-4.921875,7.1616211-6.8818359l1.7001953,1.1201172c-.0400391.0400391-.1801758.2001953-.4399414.2001953-.0800781,0-.1601562-.0195312-.2402344-.0400391-2.0004883,1.9208984-5.1210938,4.640625-6.7612305,6.1816406-.4804688.4599609-.8603516.8603516-.8603516,1.1796875,0,.3408203.3598633.7402344,1.0600586,1.2607422,2.640625,2.0400391,5.4614258,4.6210938,7.9018555,7.2617188l-1.3803711,1.0595703Z"/>
      <path class="cls-1" d="m44.4731445,99.4335938l2.0205078.2001953c-.0600586.2402344-.2402344.3398438-.5800781.3798828-.0800781.9404297-.1401367,2.0410156-.1801758,2.8613281.1201172.0595703.3203125.1396484.7202148.2998047-.2402344.4794922-.6401367,1.5605469-.8203125,2.4199219-.0200195.4003906-.0400391.5410156-.0600586.8603516,2.1606445-1.5800781,4.4208984-2.4199219,6.5415039-2.4199219,3.5009766,0,5.3413086,2.3798828,5.3413086,5.7412109,0,4.2001953-3.3007812,6.1005859-8.7021484,6.5810547-.1196289-.4199219-.2998047-.9003906-.5-1.2802734,4.9609375-.4599609,7.7617188-1.8603516,7.7617188-5.28125,0-2.4404297-1.2602539-4.4404297-4.0009766-4.4404297-2.1000977,0-4.2006836.8203125-6.4614258,2.640625,0,2.8798828,0,6.3408203.0200195,9.0019531h-1.3999023c.0200195-1.2001953,0-7.0820312.0200195-8.4023438-.6601562,1.2001953-2.2207031,3.2412109-3.8012695,4.6416016l-.7397461-1.1806641c1.5800781-1.4199219,3.6806641-3.8007812,4.5605469-5.9414062l.0600586-1.640625c-.7797852.140625-2.3603516.3007812-3.9404297.3408203l-.0400391-1.3808594c1.3999023,0,3.0405273-.0800781,4.0605469-.2998047l.1201172-3.7011719Z"/>
      <path class="cls-1" d="m72.5585938,117.3574219c-2.0205078-2.3603516-5.1411133-5.3212891-7.8417969-7.4414062-1-.7998047-1.3598633-1.3603516-1.3598633-2.0800781,0-.5800781.3198242-1.140625,1.0600586-1.8203125,1.8203125-1.6806641,5.2412109-4.921875,7.1616211-6.8818359l1.7001953,1.1201172c-.0400391.0400391-.1801758.2001953-.4399414.2001953-.0800781,0-.1601562-.0195312-.2402344-.0400391-2.0004883,1.9208984-5.1210938,4.640625-6.7612305,6.1816406-.4804688.4599609-.8603516.8603516-.8603516,1.1796875,0,.3408203.3598633.7402344,1.0600586,1.2607422,2.640625,2.0400391,5.4614258,4.6210938,7.9018555,7.2617188l-1.3803711,1.0595703Z"/>
      <path class="cls-1" d="m88.0917969,102.234375c-.0200195-.4404297-.0795898-2.6201172-.1196289-3.1201172l2.0600586.0791016c-.0200195.1601562-.159668.3603516-.5200195.4208984,0,.2392578,0,.4794922.0400391,2.5800781,2.4604492-.0800781,5.0410156-.1396484,6.5415039-.1601562v1.3808594c-1.7001953-.0400391-4.1210938,0-6.5014648.0800781.0400391,1.5595703.0800781,3,.1401367,4.1005859.2001953.6601562.2402344,1.2597656.2402344,2.1005859,0,.6396484-.0600586,1.3798828-.2001953,1.9404297-.5200195,2.3398438-2.2407227,4.4003906-5.7612305,5.8007812-.2602539-.3398438-.7001953-.8398438-1.0205078-1.1396484,3.0610352-1.1005859,4.7011719-2.7607422,5.2011719-4.6611328h-.0200195c-.4199219.5996094-1.1601562,1.0595703-2.0600586,1.0595703-1.7807617,0-3.3608398-1.4599609-3.3608398-3.5-.0200195-2.1210938,1.7001953-3.7412109,3.6005859-3.7412109.7202148,0,1.4604492.2597656,1.8603516.6201172,0-.3398438-.0400391-1.6806641-.0800781-2.5400391-2.0800781.0400391-8.4013672.2597656-9.2216797.2998047l-.0400391-1.3203125,4.5610352-.1201172,4.6606445-.1601562Zm.3803711,7.0214844c0-.7802734,0-2.6005859-2.0405273-2.6005859-1.3803711.0205078-2.3603516,1.0800781-2.3803711,2.5410156,0,1.4003906,1.0600586,2.3203125,2.2202148,2.3203125,1.4204102,0,2.2006836-1.1005859,2.2006836-2.2607422Z"/>
      <path class="cls-1" d="m105.465332,107.7158203c1.3203125-.6806641,3.3808594-1.1601562,4.9614258-1.1601562,3.1806641,0,5.1806641,1.8603516,5.1806641,4.8007812,0,3.6210938-3.1806641,5.6210938-7.2011719,5.6210938-2.6005859,0-4.3808594-1.0400391-4.3808594-2.8007812,0-1.4804688,1.4599609-2.6806641,3.2802734-2.6806641,2.2607422,0,3.7807617,1.8007812,4.0810547,3.6210938,1.6005859-.5996094,2.7607422-1.8798828,2.7607422-3.7412109,0-2.1601562-1.6005859-3.5400391-4.1210938-3.5400391-3.0004883,0-5.9414062,1.3398438-7.2617188,2.6201172-.6000977.5605469-1.3798828,1.4003906-1.9204102,2.0205078l-1.0200195-1.0205078c1.800293-1.8798828,7.5214844-7.3408203,10.2421875-9.8818359-1.1601562.1601562-5.1611328.3203125-7.4414062.4003906-.0600586.1396484-.2602539.2597656-.4204102.2998047l-.159668-1.7001953c2.7001953-.0205078,7.8613281-.2197266,9.3217773-.4404297l.300293-.1396484,1.0600586,1.2998047c-.1000977.0800781-.2802734.1601562-.4799805.1806641-1.4204102,1.1601562-5.2211914,4.7207031-6.7817383,6.2207031v.0205078Zm2.7607422,8.0019531c.6000977,0,1.300293-.0800781,1.8203125-.2001953-.2202148-1.5410156-1.3603516-2.8408203-2.840332-2.8408203-1.0405273,0-1.9604492.5605469-1.9604492,1.4804688,0,1.2197266,1.6601562,1.5605469,2.9804688,1.5605469Z"/>
      <path class="cls-1" d="m135.4951172,115.7177734c-1.7202148-1.3603516-3.9008789-2.6611328-6.0014648-3.3408203.0400391.7802734-.1000977,1.7998047-.2597656,2.3203125-.1601562,1.6601562-1.7006836,2.3007812-3.5410156,2.3007812-2.5805664,0-4.6210938-1.2607422-4.6411133-3.28125-.0395508-2.0205078,2.0805664-3.2607422,4.6010742-3.2802734.7001953,0,1.6005859.0400391,2.3408203.1796875,0-.5400391-.1000977-1-.1201172-1.4599609-.1801758-2.6210938-.340332-6.8212891-.3603516-9.7021484l2.0805664.1201172c0,.2001953-.1801758.3798828-.5200195.4199219-.0200195.5400391,0,3.1806641,0,3.7802734,1.300293,0,4.2207031-.2197266,6.6416016-.6396484l.1396484,1.4199219c-2.2802734.3603516-5.2407227.5605469-6.7612305.5800781,0,1.140625.0400391,1.6005859.3398438,5.7412109,2.5805664.7607422,5.0214844,2.1210938,6.9814453,3.5615234l-.9199219,1.2802734Zm-9.8823242-4.0810547c-1.9204102.0400391-3.2607422.8398438-3.2607422,1.9804688,0,1.4599609,1.5805664,2.1005859,3.1806641,2.1005859,1.4003906,0,2.5605469-.5009766,2.5605469-1.9208984,0-.4599609,0-1.2802734-.0395508-1.8603516-.800293-.2402344-1.6806641-.2998047-2.440918-.2998047Z"/>
      <path class="cls-1" d="m141.534668,106.2949219c3.0004883-.8193359,6.78125-1.6396484,8.2817383-1.6396484,3.0004883,0,4.7612305,1.5996094,4.7612305,4.5605469v.1601562c-.0400391,3.640625-2.9008789,6.3017578-8.6420898,7.8417969-.1801758-.3398438-.6000977-.8798828-.9003906-1.2207031,5.1210938-1.2197266,8.0219727-3.6201172,8.0219727-6.6611328,0-1.9199219-.9204102-3.3007812-3.3007812-3.3007812-1.6000977,0-4.7807617.7207031-7.2416992,1.5800781.0200195.1601562-.1796875.3603516-.3798828.4609375l-.6000977-1.78125Zm2.8007812-6.9208984c2.7402344.2402344,5.9008789.8203125,8.0415039,1.5605469l-.4199219,1.4003906c-2.1206055-.7207031-5.3613281-1.3808594-7.9619141-1.6005859l.340332-1.3603516Z"/>
      <path class="cls-1" d="m166.8535156,99.5136719c-.0600586.1601562-.2602539.3203125-.6201172.3398438-.1401367.8808594-.3203125,1.9208984-.5,2.7011719,1.9599609-.1201172,4.140625-.4599609,5.8808594-.9804688l.2202148,1.3603516c-1.8603516.4599609-4.0610352.7802734-6.3613281.9599609-.9604492,3.8408203-2.2807617,6.9619141-4.2407227,9.8427734l-1.340332-.5400391c1.8203125-2.6210938,3.2006836-5.6220703,4.0605469-9.2626953h-3.9804688v-1.2998047h2.3803711c.6201172,0,1.2602539-.0205078,1.840332-.0205078.2402344-1.0595703.4199219-2.2001953.5600586-3.3808594l2.1005859.2802734Zm5.3208008,8.5224609c.0200195,1.6201172.1401367,2.7197266.2602539,4.1005859,1.2802734.5,2.9404297,1.3603516,4.2607422,2.3203125l-.7197266,1.2802734c-1.1005859-.8398438-2.4609375-1.6201172-3.5410156-2.1005859,0,2.0009766-.800293,3.5605469-3.7407227,3.5605469-2.2207031,0-3.9208984-1-3.9008789-2.8798828,0-2.0009766,2.1005859-2.9609375,3.940918-2.9609375.7202148,0,1.4604492.1396484,2.2602539.3603516-.0800781-1.2802734-.1796875-2.5810547-.1796875-3.5214844l1.3598633-.1591797Zm-1.1000977,5.0009766c-.8203125-.3203125-1.6601562-.4599609-2.3803711-.4599609-1.2001953,0-2.6206055.4794922-2.640625,1.7197266,0,1.140625,1.1201172,1.6806641,2.6806641,1.6806641,1.4404297,0,2.3603516-.7001953,2.3603516-2.0205078,0-.3203125,0-.6201172-.0200195-.9199219Zm5.4814453-7.0615234c-2.2607422.0195312-5.0014648.3798828-7.081543.9794922l-.2202148-1.2597656c2.2802734-.6601562,5.0410156-1.0800781,7.2216797-1.0800781l.0800781,1.3603516Z"/>
      <path class="cls-1" d="m187.0585938,113.3964844v-14.6826172h6.6616211v1.0400391h-5.621582v13.6425781h-1.0400391Z"/>
      <path class="cls-1" d="m215.4956055,110.2763672h-4.6411133c1.300293,1.0996094,3.2407227,2.0400391,5.0214844,2.5-.2802734.2402344-.6401367.7207031-.8203125,1.0410156-.9404297-.3007812-1.9204102-.7402344-2.8408203-1.2802734v5.0009766h-1.300293v-.6201172h-8.7817383v.6201172h-1.2802734v-4.9414062c-.8803711.5800781-1.9003906,1.1201172-3.0605469,1.6005859-.1601562-.3203125-.5200195-.7802734-.7802734-.9804688,2.0605469-.7802734,3.6606445-1.8203125,4.8408203-2.9404297h-4.5004883v-1.1005859h5.480957c.2602539-.3398438.5-.7001953.6801758-1.0400391h-3.3007812v-5.4208984h12.6625977v5.4208984h-7.6015625c-.0400391.0996094-.1601562.1601562-.3798828.1796875-.1601562.2802734-.3203125.5800781-.5200195.8603516h11.1220703v1.1005859Zm-13.1625977-7.7822266v-1h-4.9013672v-1.1396484h4.9013672v-1.4208984l1.7001953.1005859c-.0200195.1396484-.1201172.2392578-.3999023.2792969v1.0410156h5.4609375v-1.4208984l1.7202148.1005859c-.0195312.1396484-.1196289.2392578-.3999023.2792969v1.0410156h5.0410156v1.1396484h-5.0410156v1h-1.3203125v-1h-5.4609375v1h-1.300293Zm-.840332,1.140625v1.3398438h10.0419922v-1.3398438h-10.0419922Zm0,2.2207031v1.3603516h10.0419922v-1.3603516h-10.0419922Zm9.421875,7.9414062v-1.2597656h-8.7817383v1.2597656h8.7817383Zm-8.7817383,2.1601562h8.7817383v-1.2998047h-8.7817383v1.2998047Zm1.4003906-5.6806641c-.4003906.4394531-.840332.8798828-1.3203125,1.2998047h8.5820312c-.5205078-.3994141-1.0004883-.8398438-1.4003906-1.2998047h-5.8613281Z"/>
      <path class="cls-1" d="m223.796875,103.234375c-.0800781.2001953-.2397461.3007812-.5200195.3408203-.1601562,2.9599609-.5400391,5.4804688-.8203125,5.9003906h.0200195c1.9604492-1.4599609,5.0214844-2.4599609,7.3618164-2.4599609,3.0805664,0,5.0009766,1.5800781,4.9609375,4.3808594-.0600586,3.6806641-3.1005859,5.3212891-10.8422852,5.6416016-.1000977-.3808594-.2797852-.9404297-.5-1.3203125,6.9814453-.3007812,9.7822266-1.4404297,9.8422852-4.3017578.0200195-1.9199219-1.3203125-3.0800781-3.6611328-3.0800781-3.7006836,0-7.0415039,2.2207031-7.6015625,3.2001953l-1.3603516-.6601562c.4003906-.3798828,1.1005859-3.9609375,1.1401367-7.8808594l1.9804688.2392578Zm.340332-3.8808594c2.7207031.3203125,5.8012695.9404297,7.7617188,1.7607422l-.5004883,1.3798828c-2.0600586-.8798828-5.0410156-1.4599609-7.6816406-1.8203125l.4204102-1.3203125Z"/>
      <path class="cls-1" d="m244.3374023,99.7939453c-.0400391.2402344-.2202148.3798828-.6201172.4404297-.1601562,2.3203125-.3603516,7.6210938-.3603516,10.5820312,0,2.9804688,1.4804688,4.4208984,4.0009766,4.4208984,2.4404297,0,4.9208984-1.2207031,7.2016602-3.8007812.199707.3203125.6601562.9599609.8999023,1.1806641-2.340332,2.6601562-5.1811523,4.0605469-8.121582,4.0605469-3.640625,0-5.5009766-2.1005859-5.5009766-5.8818359,0-2.5205078.1796875-8.7216797.3198242-11.1816406l2.1806641.1796875Z"/>
      <path class="cls-1" d="m264.9111328,102.8349609v14.6826172h-6.6611328v-1.0605469h5.6210938v-13.6220703h1.0400391Z"/>
      <path class="cls-1" d="m291.9794922,107.4960938c-.0400391.0195312-.0800781.0390625-.1196289.0390625-.1201172,0-.2202148-.0595703-.300293-.1191406-1.5205078.5-3.7407227,1.3203125-5.4013672,2.0400391.0400391.4599609.0600586.9804688.0600586,1.5605469,0,.6396484-.0200195,1.3603516-.0600586,2.140625l-1.4599609.0800781c.0600586-.7207031.1000977-1.640625.1000977-2.4208984,0-.2998047,0-.5800781-.0200195-.7998047-2.2607422,1.0996094-4.1010742,2.4404297-4.1010742,3.640625,0,1.1601562,1.3803711,1.7197266,4.1411133,1.7197266,1.9404297,0,3.7407227-.0400391,5.0209961-.1992188l.0200195,1.3398438c-1.1806641.1201172-2.980957.1601562-5.0410156.1601562-3.8408203,0-5.5415039-.9199219-5.5415039-2.9609375,0-1.7597656,2.3208008-3.4609375,5.3212891-4.9609375-.1201172-1.2597656-.6801758-1.8808594-1.4804688-1.8808594-1.4604492,0-2.9804688.8203125-4.7807617,2.8212891-.5600586.6201172-1.340332,1.4003906-2.2006836,2.1806641l-.9799805-.9804688c2-1.7607422,3.8808594-3.4404297,5.0410156-7.3818359l-1.1201172.0205078h-3.3408203v-1.3007812c1.2202148.0205078,2.640625.0205078,3.4604492.0205078l1.3603516-.0205078c.2202148-.9199219.4003906-1.7802734.5400391-2.8603516l1.9604492.2402344c-.0400391.2001953-.199707.3193359-.5.359375-.1401367.8007812-.3198242,1.5009766-.5,2.2207031,1.3603516-.0195312,4.2807617-.3398438,6.8813477-1.1601562l.2402344,1.3408203c-2.5004883.7792969-5.5214844,1.0595703-7.5019531,1.1201172-.4799805,1.5-.9799805,2.7001953-1.4399414,3.3798828h.0200195c.8798828-.7792969,2.2001953-1.2998047,3.2207031-1.2998047,1.3598633,0,2.2202148.9804688,2.4804688,2.6005859,1.6801758-.7597656,3.8007812-1.5800781,5.4008789-2.2001953l.6201172,1.5205078Z"/>
      <path class="cls-1" d="m310.7431641,106.6757812l1.0004883.5800781c-.0600586.0996094-.1601562.1601562-.2802734.2001953-1.1601562,2.7001953-3.0205078,4.7802734-5.3012695,6.3408203,2.2207031,1.2402344,4.9414062,2.0605469,8.0620117,2.5009766-.3203125.3193359-.6601562.8994141-.8603516,1.2802734-3.3208008-.5205078-6.1811523-1.5009766-8.5219727-2.9814453-2.5004883,1.4208984-5.4208984,2.3408203-8.5014648,2.9208984-.1201172-.3603516-.4799805-.9804688-.7402344-1.2802734,2.9204102-.4794922,5.6811523-1.2597656,8.0415039-2.4599609-1.8603516-1.4003906-3.3203125-3.1806641-4.3808594-5.3212891l1.1401367-.4199219h-3.140625v-1.3203125h6.9213867v-3.28125h-8.0214844v-1.3203125h8.0214844v-3.1806641l1.7807617.1201172c-.0200195.1396484-.1401367.2402344-.4003906.2802734v2.7802734h8.1020508v1.3203125h-8.1020508v3.28125h4.9213867l.2597656-.0400391Zm-10.222168,1.3603516c1.0004883,2.0205078,2.4804688,3.7001953,4.4208984,5.0009766,2.0004883-1.2607422,3.6411133-2.9013672,4.7011719-5.0009766h-9.1220703Z"/>
      <path class="cls-1" d="m325.8857422,110.1757812c.6801758-.3398438,1.340332-.4599609,1.9804688-.4599609,1.0200195,0,1.7602539.7802734,1.7602539,2.0410156,0,.5195312-.0600586,1.1396484-.0600586,1.6201172,0,2.0400391,1.2001953,2.0400391,2.9208984,2.0400391.8798828,0,1.8803711-.0595703,2.6000977-.1796875,0,.9003906.0600586,1.4199219.0600586,1.4199219-.7797852.0800781-1.7202148.1201172-2.6005859.1201172-.8198242,0-1.5600586-.0400391-2.0800781-.1201172-1.4404297-.2197266-2.2607422-1.2802734-2.2807617-2.4599609,0-.4599609.0400391-1.3603516.0400391-1.9609375,0-.8398438-.3198242-1.3203125-1.0200195-1.3203125-.9604492,0-2.4404297.5605469-3.5810547,1.6611328-1.1601562,1.1396484-3.340332,3.3398438-4.0205078,4.140625,0,0-.2202148-.2802734-1.0805664-1.0605469,1.9003906-1.9404297,8.1821289-8.0419922,10.222168-10.0224609-1.4599609.140625-6.0009766.4003906-8.2817383.5205078-.0600586.1201172-.159668.2001953-.3198242.2197266l-.1201172-1.5996094c2.8007812-.0800781,8.0615234-.3408203,10.0820312-.5205078l.300293-.1796875,1.1601562,1.0595703c-.1201172.1005859-.2602539.140625-.4799805.1601562-1.2602539,1.1806641-3.7207031,3.4414062-5.2011719,4.8613281v.0195312Zm5.0209961-8.0009766c-2.140625-.6201172-5.9013672-1.2207031-8.5620117-1.3408203l.300293-1.3398438c2.7607422.1201172,6.3613281.6601562,8.6416016,1.3203125l-.3798828,1.3603516Z"/>
      <path class="cls-1" d="m338.0058594,101.6347656c1.5004883-.0605469,13.8232422-.9404297,16.4238281-.9609375l.0200195,1.5009766c-.2602539-.0205078-.5-.0205078-.7402344-.0205078-1.1601562,0-2.140625.2001953-3.4208984,1.0205078-3.0004883,1.7998047-5.9013672,5.0205078-5.9013672,7.6015625,0,2.8007812,1.9604492,4.4609375,6.921875,5.1005859l-.6601562,1.4003906c-5.6811523-.8203125-7.8017578-2.9404297-7.8017578-6.5009766,0-2.8203125,2.7807617-6.2412109,6.4414062-8.5419922-2.1206055.140625-8.1020508.6005859-10.6821289.8398438-.0600586.1601562-.2802734.3007812-.4404297.3203125l-.1601562-1.7597656Z"/>
      <path class="cls-1" d="m361.8310547,101.6347656c-.0400391.1796875-.2602539.2998047-.5405273.3193359-.2397461,1.5009766-.3798828,3.3007812-.3798828,4.9814453,0,.7402344.0400391,1.4599609.0800781,2.1005859.2397461,3.4003906,1.6201172,5.4609375,3.1606445,5.4414062.800293,0,1.840332-2.0410156,2.5605469-4.28125.2802734.2802734.8203125.6601562,1.1601562.8603516-.9199219,2.7001953-2.0805664,4.9003906-3.7407227,4.9404297-2.5405273.0400391-4.3007812-3.0400391-4.5810547-6.8808594-.0600586-.7607422-.0800781-1.6005859-.0800781-2.5009766,0-1.7597656.1000977-3.6806641.300293-5.3808594l2.0605469.4003906Zm13.2626953,9.3017578c-.5600586-3.5009766-2.3408203-6.0214844-5.0410156-7.5214844l.8798828-1.0800781c2.9208984,1.5595703,5.0610352,4.4404297,5.6416016,8.1416016l-1.4804688.4599609Z"/>
      <path class="cls-1" d="m391.4243164,117.3574219c-2.0205078-2.3603516-5.1411133-5.3212891-7.8417969-7.4414062-1-.7998047-1.3598633-1.3603516-1.3598633-2.0800781,0-.5800781.3198242-1.140625,1.0600586-1.8203125,1.8203125-1.6806641,5.2412109-4.921875,7.1616211-6.8818359l1.7001953,1.1201172c-.0400391.0400391-.1801758.2001953-.4399414.2001953-.0800781,0-.1601562-.0195312-.2402344-.0400391-2.0004883,1.9208984-5.1210938,4.640625-6.7612305,6.1816406-.4804688.4599609-.8603516.8603516-.8603516,1.1796875,0,.3408203.3598633.7402344,1.0600586,1.2607422,2.640625,2.0400391,5.4614258,4.6210938,7.9018555,7.2617188l-1.3803711,1.0595703Z"/>
      <path class="cls-1" d="m399.6542969,102.9951172c0,1.7597656-.3203125,3.9599609-1.0805664,5.2607422l-1.0600586-.5400391c.6801758-1.1601562,1-3.2011719,1.0400391-4.8808594l1.1005859.1601562Zm.8598633-4.0810547l1.7207031.1201172c-.0200195.1396484-.1401367.2392578-.4003906.2597656v18.1835938h-1.3203125v-18.5634766Zm2.5805664,3.1601562c.6601562,1.0205078,1.3803711,2.3408203,1.6806641,3.1611328l-.9804688.6601562c-.2998047-.8808594-1.0200195-2.2607422-1.6601562-3.3007812l.9599609-.5205078Zm13.0830078,7.5214844h-5.7612305c1.0800781,3.1210938,3.1005859,5.6816406,5.980957,6.7421875-.3198242.2792969-.7597656.8398438-.9599609,1.2402344-2.9208984-1.2802734-4.9008789-3.9208984-6.081543-7.2421875-.6801758,2.6005859-2.1601562,5.2011719-5.4208984,7.2216797-.1801758-.2802734-.6401367-.7597656-.9404297-1,3.3208008-1.9404297,4.6611328-4.4609375,5.2211914-6.9619141h-4.5410156v-1.2998047h4.7612305c.1401367-1.140625.1601562-2.2402344.1601562-3.2607422v-1.5400391h-3.6611328v-1.2607422h3.6611328v-3.3203125l1.7202148.1201172c-.0200195.1396484-.1401367.2392578-.3999023.2792969v2.9208984h4.4609375v6.0615234h1.800293v1.2998047Zm-6.2612305-6.1005859v1.5400391c0,1.0205078-.0200195,2.140625-.1601562,3.2607422h3.2807617v-4.8007812h-3.1206055Z"/>
      <path class="cls-1" d="m424.3588867,106.9355469v6.5810547c1.5600586,2.3808594,4.480957,2.3808594,8.2416992,2.3808594,2.2001953,0,4.7607422-.0400391,6.3212891-.1396484-.1601562.2998047-.3803711.9199219-.4204102,1.3203125-1.3798828.0390625-3.5805664.0791016-5.5610352.0791016-4.4008789,0-7.1616211,0-9.1420898-2.4804688-.9199219.9003906-1.8603516,1.7802734-2.6401367,2.4609375.0200195.1601562-.0200195.2402344-.1601562.3203125l-.7802734-1.4208984c.8603516-.6396484,1.9003906-1.5195312,2.8408203-2.3798828v-5.4414062h-2.640625v-1.2802734h3.940918Zm-2.6806641-7.5019531c1.2602539.9404297,2.6806641,2.3408203,3.3007812,3.3408203l-1.1005859.8408203c-.5800781-1.0205078-1.9804688-2.4609375-3.2407227-3.4414062l1.0405273-.7402344Zm12.2426758,5.0410156c-.1401367-.0595703-.2802734-.1201172-.3803711-.1396484.3803711-.6806641.8203125-1.7001953,1.1000977-2.4609375h-9.1616211v-1.0996094h5.8413086v-1.8603516l1.7001953.0996094c-.0200195.140625-.1401367.2402344-.3999023.2802734v1.4804688h6.0610352v1.0996094h-3.4404297l.9599609.3203125c-.0600586.1201172-.1801758.1806641-.3999023.1601562-.2802734.6201172-.7202148,1.4804688-1.140625,2.1201172h3.1611328v8.6621094c0,1.2802734-.6005859,1.3408203-2.7407227,1.3408203-.0600586-.3203125-.2402344-.7607422-.4003906-1.0605469.3803711,0,.7402344.0195312,1.0205078.0195312.7802734,0,.8603516,0,.8603516-.2792969v-7.5820312h-8.9619141v8.9423828h-1.2407227v-10.0429688h2.8408203c-.1601562-.6796875-.5800781-1.5996094-1.0200195-2.3203125l1.1000977-.2802734c.4799805.7402344.9599609,1.7607422,1.1000977,2.4013672l-.6401367.1992188h4.1811523Zm-2.440918,4.921875v-1.4003906h-3.140625v-.9208984h3.140625v-1.3603516l1.4204102.1005859c-.0200195.1201172-.1201172.2197266-.3598633.2402344v1.0195312h3.3007812v.9208984h-3.3007812v1.4003906h2.2402344v3.6201172h-4.4208984v.8203125h-1v-4.4404297h2.1201172Zm2.3007812,2.7402344v-1.8603516h-3.4208984v1.8603516h3.4208984Z"/>
      <path class="cls-1" d="m449.8198242,99.5136719c-.0600586.1601562-.2602539.3203125-.6201172.3398438-.1401367.8808594-.3203125,1.9208984-.5,2.7011719,1.9599609-.1201172,4.140625-.4599609,5.8808594-.9804688l.2202148,1.3603516c-1.8603516.4599609-4.0610352.7802734-6.3613281.9599609-.9604492,3.8408203-2.2802734,6.9619141-4.2407227,9.8427734l-1.340332-.5400391c1.8203125-2.6210938,3.2006836-5.6220703,4.0605469-9.2626953h-3.9804688v-1.2998047h2.3803711c.6201172,0,1.2602539-.0205078,1.840332-.0205078.2402344-1.0595703.4199219-2.2001953.5600586-3.3808594l2.1005859.2802734Zm5.3208008,8.5224609c.0200195,1.6201172.1401367,2.7197266.2602539,4.1005859,1.2802734.5,2.9404297,1.3603516,4.2607422,2.3203125l-.7197266,1.2802734c-1.1005859-.8398438-2.4609375-1.6201172-3.5410156-2.1005859,0,2.0009766-.800293,3.5605469-3.7407227,3.5605469-2.2207031,0-3.9208984-1-3.9008789-2.8798828,0-2.0009766,2.1005859-2.9609375,3.940918-2.9609375.7202148,0,1.4604492.1396484,2.2602539.3603516-.0800781-1.2802734-.1796875-2.5810547-.1796875-3.5214844l1.3598633-.1591797Zm-1.1000977,5.0009766c-.8203125-.3203125-1.6601562-.4599609-2.3803711-.4599609-1.2001953,0-2.6206055.4794922-2.640625,1.7197266,0,1.140625,1.1201172,1.6806641,2.6806641,1.6806641,1.4404297,0,2.3603516-.7001953,2.3603516-2.0205078,0-.3203125,0-.6201172-.0200195-.9199219Zm5.4814453-7.0615234c-2.2607422.0195312-5.0014648.3798828-7.081543.9794922l-.2202148-1.2597656c2.2802734-.6601562,5.0410156-1.0800781,7.2216797-1.0800781l.0800781,1.3603516Z"/>
      <path class="cls-1" d="m466.2866211,105.9951172c-.7602539,1.2607422-1.6005859,2.3808594-2.440918,3.3408203-.1396484-.3203125-.4799805-.9404297-.699707-1.2597656,1.9204102-2.0810547,3.8408203-5.5419922,5.0009766-9.0019531l1.6000977.5400391c-.0800781.1396484-.2197266.2001953-.4599609.1796875-.5200195,1.4003906-1.1401367,2.8007812-1.840332,4.140625l.5400391.140625c-.0400391.1201172-.1401367.2197266-.3999023.2392578v13.2636719h-1.300293v-11.5830078Zm10.1020508,9.5224609h5.8012695v1.2802734h-13.1430664v-1.2802734h5.9814453v-5.3212891h-4.7612305v-1.2802734h4.7612305v-4.640625h-5.4414062v-1.2802734h7.1616211c-.9399414-.9208984-2.8603516-2.28125-4.3608398-3.1611328l.8803711-.9599609c1.5400391.8798828,3.5205078,2.1806641,4.480957,3.1005859l-.8803711,1.0205078h5.0410156v1.2802734h-5.5209961v4.640625h4.9008789v1.2802734h-4.9008789v5.3212891Z"/>
      <path class="cls-1" d="m486.8261719,102.0341797c1.2402344.0800781,2.9008789.0800781,4.2612305.0800781.8999023,0,1.9204102-.0195312,2.7602539-.0400391-.0200195-.9599609-.0400391-2.0800781-.0400391-2.7802734l2.0205078.0996094c-.0200195.2402344-.199707.3603516-.5400391.4208984-.0200195.3193359,0,1.8603516,0,2.2001953,2.3408203-.1201172,4.6611328-.3203125,6.6416016-.7802734l.1796875,1.3203125c-1.9599609.4404297-4.2807617.6396484-6.8212891.7597656.0200195,1.2001953.0400391,2.4404297.0800781,3.6806641,1.9404297-.1201172,4.0209961-.3798828,5.6411133-.7802734l.1601562,1.3007812c-1.6801758.3603516-3.7807617.6005859-5.78125.7001953l.1601562,3.3408203c1.840332.5996094,3.8007812,1.640625,5.8813477,3.1201172l-.8803711,1.2207031c-1.800293-1.4199219-3.5009766-2.3808594-4.9609375-2.9404297,0,.3193359.0200195.6796875.0200195.9394531-.0200195,1.9013672-1.1606445,3.0009766-3.5810547,3.0009766-2.5405273,0-4.4008789-1.0400391-4.4008789-2.9208984,0-1.9199219,2.1806641-2.9804688,4.4208984-2.9804688.6601562,0,1.3603516.0605469,2.1005859.2402344-.0200195-.8603516-.0600586-1.9003906-.0800781-2.9804688-.6401367.0195312-1.3603516.0400391-1.9404297.0400391-3.4208984,0-4.3808594-.5400391-4.3808594-1.7001953,0-.7607422.5800781-1.3808594,1.8603516-2.2011719l.9604492.6201172c-.9003906.5009766-1.3803711.9404297-1.3803711,1.3408203,0,.5996094.9399414.7197266,3.4804688.7197266.4404297,0,.9003906,0,1.340332-.0195312l-.1201172-3.7011719c-.8598633.0400391-1.8603516.0400391-2.7602539.0400391-1.2802734,0-3.1010742,0-4.3012695-.0400391v-1.3203125Zm7.4018555,10.4228516c-.800293-.2207031-1.5405273-.3203125-2.2407227-.3203125-1.5200195,0-3.0605469.6201172-3.0605469,1.8203125,0,1.1806641,1.4003906,1.7607422,3.140625,1.7607422,1.5805664,0,2.1806641-.7001953,2.1806641-2.1005859l-.0200195-1.1601562Z"/>
      <path class="cls-1" d="m509.7509766,101.6347656c-.0400391.1796875-.2602539.2998047-.5405273.3193359-.2397461,1.5009766-.3798828,3.3007812-.3798828,4.9814453,0,.7402344.0400391,1.4599609.0800781,2.1005859.2397461,3.4003906,1.6201172,5.4609375,3.1606445,5.4414062.800293,0,1.840332-2.0410156,2.5605469-4.28125.2802734.2802734.8203125.6601562,1.1601562.8603516-.9199219,2.7001953-2.0805664,4.9003906-3.7407227,4.9404297-2.5405273.0400391-4.3007812-3.0400391-4.5810547-6.8808594-.0600586-.7607422-.0800781-1.6005859-.0800781-2.5009766,0-1.7597656.1000977-3.6806641.300293-5.3808594l2.0605469.4003906Zm13.2626953,9.3017578c-.5600586-3.5009766-2.3408203-6.0214844-5.0410156-7.5214844l.8798828-1.0800781c2.9208984,1.5595703,5.0610352,4.4404297,5.6416016,8.1416016l-1.4804688.4599609Z"/>
      <path class="cls-1" d="m533.046875,114.7167969c0,1.5410156-1.2602539,2.8007812-2.800293,2.8007812-1.5405273,0-2.8007812-1.2597656-2.8007812-2.8007812,0-1.5400391,1.2602539-2.7998047,2.8007812-2.7998047,1.5800781,0,2.800293,1.2998047,2.800293,2.7998047Zm-.7202148,0c0-1.1601562-.9199219-2.0800781-2.0800781-2.0800781-1.140625,0-2.0605469.9199219-2.0605469,2.0800781,0,1.140625.9199219,2.0605469,2.0605469,2.0605469,1.2001953,0,2.0800781-.9599609,2.0800781-2.0605469Z"/>
      <path class="cls-1" d="m3.140625,160.7138672c-.7602539,1.2607422-1.6005859,2.3808594-2.440918,3.3408203-.1396484-.3203125-.4799805-.9404297-.699707-1.2597656,1.9204102-2.0810547,3.8408203-5.5419922,5.0009766-9.0019531l1.6000977.5400391c-.0800781.1396484-.2197266.2001953-.4599609.1796875-.5200195,1.4003906-1.1401367,2.8007812-1.840332,4.140625l.5400391.140625c-.0400391.1201172-.1401367.2197266-.3999023.2392578v13.2636719h-1.300293v-11.5830078Zm10.1020508,9.5224609h5.8012695v1.2802734H5.9008789v-1.2802734h5.9814453v-5.3212891h-4.7612305v-1.2802734h4.7612305v-4.640625h-5.440918v-1.2802734h7.1611328c-.9399414-.9208984-2.8603516-2.28125-4.3608398-3.1611328l.8803711-.9599609c1.5400391.8798828,3.5205078,2.1806641,4.480957,3.1005859l-.8803711,1.0205078h5.0410156v1.2802734h-5.5209961v4.640625h4.9008789v1.2802734h-4.9008789v5.3212891Z"/>
      <path class="cls-1" d="m29.2011719,160.3134766h-2.4404297v11.9033203h-1.300293v-11.9033203h-2.5805664v-1.2597656h2.5805664v-5.4013672l1.6801758.1005859c-.0200195.1396484-.1201172.2392578-.3798828.2792969v5.0214844h2.4404297v1.2597656Zm4.3808594,4.0009766l.6401367.0605469c-.0600586.4003906-.1000977,6.4414062-.800293,7.3417969-.3198242.3994141-.5600586.5595703-2.4604492.5-.0200195-.3408203-.1201172-.8203125-.2998047-1.1005859.5800781.0400391,1.0600586.0595703,1.300293.0595703.2197266,0,.3598633-.0390625.4799805-.2197266.2802734-.3398438.4399414-1.7197266.5800781-5.5214844h-1.7802734c-.3203125,2.7207031-1.0800781,5.2011719-2.940918,6.8222656-.159668-.2607422-.5-.640625-.7797852-.8203125,1.6000977-1.3808594,2.2602539-3.5205078,2.5405273-6.0019531h-2.0205078v-1.0996094h2.1206055c.0595703-.7001953.0795898-1.4208984.0996094-2.140625l1.5605469.1201172c-.0200195.1601562-.1601562.2402344-.3798828.2802734-.0200195.5800781-.0600586,1.1601562-.1000977,1.7402344h1.9804688l.2597656-.0205078Zm6.581543-8.3017578c-.0200195.1201172-.0400391.2607422-.0800781.4003906-.4399414,5.1611328-.7602539,5.28125-2.9204102,5.28125-.3803711,0-.840332,0-1.300293-.0400391-.0400391-.3603516-.1601562-.8398438-.3603516-1.1601562.8603516.0800781,1.640625.0996094,1.9604492.0996094.300293,0,.4599609-.0400391.6201172-.1796875.300293-.2802734.5-1.1806641.7001953-3.3808594h-3.9208984c-.6801758,2.2001953-2.0805664,3.9208984-5.0610352,5.0214844-.1401367-.3007812-.4599609-.7207031-.7001953-.9404297,2.5605469-.8798828,3.8208008-2.2402344,4.4609375-4.0810547h-3.6806641v-1.1201172h3.980957c.1401367-.7001953.2197266-1.4599609.2597656-2.2802734l1.6606445.1201172c-.0200195.1591797-.1601562.2597656-.4003906.2998047-.0600586.6396484-.1396484,1.2597656-.2397461,1.8603516h4.0009766l.2998047-.0400391.7202148.1396484Zm.1801758,8.3222656l.6401367.0195312c-.0800781.4599609,0,6.5019531-.6601562,7.3417969-.3203125.4599609-.6201172.5800781-2.6206055.5205078-.0400391-.3603516-.1601562-.8203125-.3203125-1.140625.6601562.0605469,1.2202148.0605469,1.4604492.0605469.2202148,0,.3598633-.0205078.4799805-.2001953.2402344-.3203125.3603516-1.7001953.4599609-5.5019531h-1.9003906c-.3398438,2.7412109-1.1401367,5.2011719-3.0605469,6.8222656-.1796875-.2802734-.5200195-.6601562-.7998047-.8603516,1.6801758-1.3603516,2.3803711-3.4804688,2.6801758-5.9619141h-1.9204102v-1.0996094h2.0205078c.0600586-.7001953.0800781-1.4003906.1000977-2.140625l1.6000977.1201172c-.0395508.1601562-.159668.2402344-.3999023.2802734-.0200195.5800781-.0600586,1.1601562-.1000977,1.7402344h2.3408203Z"/>
      <path class="cls-1" d="m55.3564453,157.2929688c-.0800781.1806641-.2402344.3203125-.5004883.3203125-.7202148,6.2216797-2.800293,11.6425781-6.1210938,11.6425781-1.6801758,0-3.2006836-1.6806641-3.2006836-4.8408203,0-4.8007812,3.7407227-8.8222656,9.0019531-8.8222656,5.78125,0,8.2817383,3.6611328,8.2817383,7.5615234,0,4.7617188-2.7607422,7.0615234-7.6015625,8.1816406-.1801758-.3193359-.5200195-.859375-.840332-1.2197266,4.6010742-.8798828,6.9614258-3.1210938,6.9614258-6.9013672,0-3.3007812-2.1201172-6.3017578-6.8012695-6.3017578-.2001953,0-.4199219.0205078-.6000977.0400391l1.4204102.3398438Zm-1.9204102-.2597656c-4.0410156.5-6.5415039,3.8408203-6.5415039,7.3417969,0,2.140625.9199219,3.4804688,1.8803711,3.4804688,2.4204102,0,4.1606445-5.3408203,4.6611328-10.8222656Z"/>
      <path class="cls-1" d="m70.0483398,154.9130859c-.4399414,1.2001953-1.0400391,3.5605469-1.2602539,5.1210938l-1.800293.2197266c.4799805-1.8203125,1.4604492-4.28125,2.0004883-5.2011719l1.0600586-.1396484Zm3.1206055,0c-.4399414,1.2001953-1.0400391,3.5605469-1.2802734,5.1210938l-1.7802734.2197266c.4599609-1.8203125,1.4404297-4.28125,1.9804688-5.2011719l1.0800781-.1396484Z"/>
      <path class="cls-1" d="m94.2856445,157.4931641c-.0600586.1005859-.1601562.1601562-.300293.2001953-1.8603516,2.8408203-5.0009766,5.8212891-8.081543,8.0419922,1.5405273,1.2402344,3.0805664,2.7802734,4.1010742,3.9003906l-1.2202148,1.0605469c-2.1005859-2.4609375-6.0415039-5.7617188-9.4223633-7.7421875l.9604492-1.0195312c1.4204102.7998047,3.0205078,1.8603516,4.4609375,2.9599609,2.7006836-1.9199219,5.440918-4.5009766,7.0214844-6.8212891h-14.6831055v-1.3603516h15.7431641l.2402344-.1201172,1.1801758.9003906Z"/>
      <path class="cls-1" d="m116.1474609,157.4931641c-.0600586.1005859-.1601562.1601562-.300293.2001953-1.8603516,2.8408203-5.0009766,5.8212891-8.081543,8.0419922,1.5405273,1.2402344,3.0805664,2.7802734,4.1010742,3.9003906l-1.2202148,1.0605469c-2.1005859-2.4609375-6.0415039-5.7617188-9.4223633-7.7421875l.9604492-1.0195312c1.4204102.7998047,3.0205078,1.8603516,4.4609375,2.9599609,2.7006836-1.9199219,5.440918-4.5009766,7.0214844-6.8212891h-14.6831055v-1.3603516h15.7431641l.2402344-.1201172,1.1801758.9003906Z"/>
      <path class="cls-1" d="m133.65625,156.7128906c-.0400391.0605469-.1196289.1201172-.2197266.140625-.9003906,2.1796875-2.3007812,4.6806641-3.8608398,6.7412109,2.1601562,1.7207031,5.5009766,4.7412109,7.3813477,6.8212891l-1.2802734,1c-1.800293-2.0800781-4.940918-5.0410156-7.0014648-6.6806641-1.7402344,2.1396484-4.7407227,5.0410156-7.6416016,6.7011719-.2397461-.2998047-.6801758-.7802734-1.0400391-1.0800781,5.5410156-3.0410156,9.762207-8.6025391,11.5424805-12.9628906h-9.8623047v-1.3603516h10.6025391l.2597656-.1005859,1.1201172.7802734Zm.1000977-2.6806641c.840332.8408203,1.7807617,2.1210938,2.3007812,3.1210938l-.8203125.5c-.4599609-.9003906-1.4003906-2.2402344-2.2407227-3.1005859l.7602539-.5205078Zm2.4604492-.9599609c.7001953.7207031,1.7607422,2.1201172,2.2407227,3.0205078l-.8203125.5c-.4199219-.8798828-1.5-2.3203125-2.1801758-3.0205078l.7597656-.5Z"/>
      <path class="cls-1" d="m147.9189453,157.2128906c-.0595703.1806641-.2197266.2802734-.5200195.3203125-.8198242,4.7412109-2.3603516,9.8027344-4.7807617,12.8632812-.3803711-.2607422-.9404297-.5-1.340332-.6806641,2.4003906-2.9208984,3.9208984-7.8212891,4.6210938-12.9423828l2.0200195.4394531Zm6.3017578-.6396484c2.2001953,3.7207031,4.5805664,9.5820312,5.4609375,13.1425781l-1.4604492.5800781c-.8999023-3.5205078-3.2207031-9.5214844-5.3608398-13.1425781l1.3603516-.5800781Z"/>
      <path class="cls-1" d="m164.7226562,159.5742188c.6000977,1.2197266,1.2602539,3.140625,1.5004883,4.3007812l-1.1206055.2998047c-.2397461-1.1601562-.8598633-2.9804688-1.4599609-4.2607422l1.0800781-.3398438Zm11.9423828.1396484c-.0400391.1796875-.2397461.2197266-.4199219.2001953-1.5605469,5.8408203-4.5009766,9.421875-9.3417969,11.3818359-.1601562-.2392578-.5205078-.7001953-.7802734-.9199219,4.7807617-1.8798828,7.5214844-5.1611328,8.9819336-11.1220703l1.5600586.4599609Zm-7.081543-1.1005859c.4204102,1.3408203.800293,3.2607422.9404297,4.5410156l-1.1801758.2207031c-.1201172-1.2802734-.5-3.1210938-.9404297-4.5009766l1.1801758-.2607422Z"/>
      <path class="cls-1" d="m192.8461914,169.4160156c.7998047,0,2.9404297-.1005859,4.2006836-.2998047.0200195.4394531.0400391,1,.0800781,1.4394531-1.3203125.1601562-3.3208008.2207031-4.1411133.2207031h-5.0009766c-3.0205078,0-4.480957-1.3007812-4.480957-4.1611328v-11.6826172l1.9604492.1201172c-.0400391.2001953-.1801758.3203125-.5400391.3798828v6.5019531c3.0605469-.9609375,7.3217773-2.5605469,9.9223633-3.9609375l1.0200195,1.3798828c-.0600586.0400391-.1401367.0605469-.2202148.0605469-.1000977,0-.199707-.0205078-.2998047-.0605469-2.4204102,1.2207031-6.9814453,2.9208984-10.4223633,3.9414062v3.3408203c0,2.0400391.9799805,2.7802734,3.0405273,2.7802734h4.8813477Zm4.1606445-15.9433594c1.2402344,0,2.2407227,1,2.2407227,2.2402344s-1.0004883,2.2402344-2.2407227,2.2402344-2.2602539-1-2.2602539-2.2402344c0-1.2802734,1.0600586-2.2402344,2.2602539-2.2402344Zm1.5605469,2.2402344c0-.8798828-.7001953-1.6005859-1.5605469-1.6005859-.8798828,0-1.5800781.7207031-1.5800781,1.6005859s.7001953,1.6005859,1.5800781,1.6005859c.9003906,0,1.5605469-.7607422,1.5605469-1.6005859Z"/>
      <path class="cls-1" d="m200.7719727,161.8740234h16.7036133v1.4208984h-15.9438477c-.1196289.1992188-.3798828.3398438-.6401367.3798828l-.1196289-1.8007812Z"/>
      <path class="cls-1" d="m219.0839844,156.6328125h12.7226562l.1201172-.0595703,1.3603516,1.0400391c-.0600586.0800781-.1201172.1396484-.2402344.1796875-1.6201172,7.5224609-5.1010742,11.4433594-11.222168,13.7636719-.2202148-.3603516-.6201172-.8808594-.9003906-1.1806641,5.8212891-2.140625,9.1821289-5.8613281,10.4824219-12.3623047h-12.3227539v-1.3808594Zm15.2431641-3.5800781c1.2001953,0,2.1806641.9794922,2.1806641,2.2001953,0,1.2001953-.9804688,2.1806641-2.1806641,2.1806641-1.2202148,0-2.2001953-.9804688-2.2001953-2.1806641,0-1.2607422,1.0200195-2.2001953,2.2001953-2.2001953Zm1.5205078,2.2001953c0-.8603516-.6801758-1.5400391-1.5205078-1.5400391-.8398438,0-1.5400391.6796875-1.5400391,1.5400391,0,.8398438.7001953,1.5400391,1.5400391,1.5400391.8803711,0,1.5205078-.7402344,1.5205078-1.5400391Z"/>
      <path class="cls-1" d="m255.059082,160.7138672c-.0400391.0800781-.1401367.1601562-.2602539.2001953-1.6401367,6.0410156-4.980957,8.9824219-10.9624023,10.6425781-.1801758-.3603516-.5600586-.8603516-.8398438-1.1601562,5.440918-1.3603516,8.8217773-4.1611328,10.0820312-8.8027344h-13.2431641v-1.359375h13.8432617l.2001953-.1201172,1.1801758.5996094Zm-1.8803711-4.2802734h-11.402832v-1.3203125h11.402832v1.3203125Z"/>
      <path class="cls-1" d="m272.3168945,156.2734375c-.0400391.0996094-.1401367.1796875-.2602539.2197266-1.0800781,2.5400391-2.3603516,4.7412109-4.0004883,6.8818359,2.1801758,1.7402344,5.4609375,4.7207031,7.3212891,6.78125l-1.2202148,1.0595703c-1.7602539-2.0400391-4.980957-5.0810547-7.0214844-6.7207031-1.7602539,2.140625-4.8007812,5.0605469-7.7016602,6.7207031-.2202148-.2998047-.7001953-.7998047-1.0400391-1.0800781,5.5410156-3.0400391,9.921875-8.7216797,11.722168-13.0625h-9.8217773v-1.3603516h10.6020508l.2602539-.0996094,1.1601562.6601562Z"/>
      <path class="cls-1" d="m278.0097656,160.2539062c.4399414-1.2001953,1.0600586-3.5605469,1.2802734-5.1210938l1.7802734-.2197266c-.4599609,1.8203125-1.4404297,4.2802734-1.9804688,5.2011719l-1.0800781.1396484Zm3.1206055,0c.4399414-1.2001953,1.0400391-3.5605469,1.2802734-5.1210938l1.7802734-.2197266c-.4799805,1.8203125-1.4404297,4.2802734-1.9804688,5.2011719l-1.0800781.1396484Z"/>
      <path class="cls-1" d="m288.3256836,156.3535156c1.5004883-.0605469,13.8232422-.9404297,16.4238281-.9609375l.0200195,1.5009766c-.2602539-.0205078-.5-.0205078-.7402344-.0205078-1.1601562,0-2.140625.2001953-3.4208984,1.0205078-3.0004883,1.7998047-5.9013672,5.0205078-5.9013672,7.6015625,0,2.8007812,1.9604492,4.4609375,6.921875,5.1005859l-.6601562,1.4003906c-5.6811523-.8203125-7.8017578-2.9404297-7.8017578-6.5009766,0-2.8203125,2.7807617-6.2412109,6.4414062-8.5419922-2.2006836.1601562-8.1020508.6005859-10.6826172.8398438-.0595703.1601562-.2797852.3007812-.4399414.3203125l-.1601562-1.7597656Zm12.9628906,3.9404297c.9604492.7197266,2.1005859,1.9003906,2.7207031,2.7607422l-.7602539.6201172c-.5600586-.8798828-1.7802734-2.1201172-2.640625-2.7802734l.6801758-.6005859Zm2.1606445-1.7607422c.9799805.7207031,2.1401367,1.8808594,2.7207031,2.7607422l-.7602539.6005859c-.5400391-.8007812-1.7006836-2.0410156-2.640625-2.7607422l.6801758-.6005859Z"/>
      <path class="cls-1" d="m314.9648438,160.7138672l.7797852.2597656c-.0200195.1005859-.0795898.1806641-.1396484.2402344-.3203125,2.7011719-.8803711,4.9414062-1.7006836,6.7421875,2.0004883,1.9794922,4.8413086,2.4199219,8.3017578,2.4199219.7602539,0,5.2011719,0,6.1816406-.0195312-.2202148.3193359-.4604492.9394531-.5400391,1.3203125h-5.6616211c-3.7807617,0-6.7211914-.5205078-8.8818359-2.5410156-.7602539,1.3203125-1.6801758,2.3603516-2.7407227,3.1210938-.199707-.2802734-.7197266-.7607422-1-.9404297,1.1201172-.7607422,2.0805664-1.8203125,2.8408203-3.2011719-.7802734-1.0400391-1.4204102-2.3398438-1.9204102-4l1.0600586-.4404297c.3798828,1.2802734.8603516,2.3408203,1.4604492,3.2001953.5600586-1.3798828.9799805-3,1.2202148-4.9003906h-2.5605469l-.4204102.8203125-1.2402344-.3408203c1.0405273-1.9199219,2.2807617-4.4609375,3.1206055-6.2607422h-3.4204102v-1.2207031h4.2006836l.2602539-.0595703.8603516.359375c-.0400391.0800781-.1000977.1806641-.1601562.2607422-.6201172,1.2802734-1.6005859,3.3007812-2.5805664,5.2207031h2.4204102l.2602539-.0400391Zm5.9208984.0800781v-1.6005859h-5.6811523v-1.1201172h5.6811523v-1.5800781h-4.1005859v-1.1005859h4.1005859v-1.7998047l1.7006836.1201172c-.0200195.1396484-.1201172.2392578-.3803711.2597656v1.4199219h4.4008789v2.6806641h1.6206055v1.1201172h-1.6206055v2.7011719h-4.4008789v1.6601562h4.7412109v1.0800781h-4.7412109v1.6601562h5.6416016v1.1201172h-5.6416016v2.2207031h-1.3203125v-2.2207031h-5.4208984v-1.1201172h5.4208984v-1.6601562h-4.5209961v-1.0800781h4.5209961v-1.6601562h-4.2407227v-1.1005859h4.2407227Zm1.3203125-4.3007812v1.5800781h3.0810547v-1.5800781h-3.0810547Zm3.0810547,4.3007812v-1.6005859h-3.0810547v1.6005859h3.0810547Z"/>
      <path class="cls-1" d="m332.6274414,156.3535156c1.5004883-.0605469,13.8232422-.9404297,16.4238281-.9609375l.0200195,1.5009766c-.2602539-.0205078-.5-.0205078-.7402344-.0205078-1.1601562,0-2.140625.2001953-3.4208984,1.0205078-3.0004883,1.7998047-5.9013672,5.0205078-5.9013672,7.6015625,0,2.8007812,1.9604492,4.4609375,6.921875,5.1005859l-.6601562,1.4003906c-5.6811523-.8203125-7.8017578-2.9404297-7.8017578-6.5009766,0-2.8203125,2.7807617-6.2412109,6.4414062-8.5419922-2.1206055.140625-8.1020508.6005859-10.6826172.8398438-.0595703.1601562-.2797852.3007812-.4399414.3203125l-.1601562-1.7597656Z"/>
      <path class="cls-1" d="m358.7089844,162.4345703c1.3203125-.6806641,3.3808594-1.1601562,4.9609375-1.1601562,3.1811523,0,5.1811523,1.8603516,5.1811523,4.8007812,0,3.6210938-3.1806641,5.6210938-7.2011719,5.6210938-2.6005859,0-4.3813477-1.0400391-4.3813477-2.8007812,0-1.4804688,1.4604492-2.6806641,3.2807617-2.6806641,2.2607422,0,3.7807617,1.8007812,4.0810547,3.6210938,1.6000977-.5996094,2.7607422-1.8798828,2.7607422-3.7412109,0-2.1601562-1.6005859-3.5400391-4.1210938-3.5400391-3.0004883,0-5.9414062,1.3398438-7.2617188,2.6201172-.6000977.5605469-1.3798828,1.4003906-1.9204102,2.0205078l-1.0200195-1.0205078c1.800293-1.8798828,7.5214844-7.3408203,10.2421875-9.8818359-1.1601562.1601562-5.1611328.3203125-7.4414062.4003906-.0600586.1396484-.2602539.2597656-.4204102.2998047l-.159668-1.7001953c2.7001953-.0205078,7.8613281-.2197266,9.3217773-.4404297l.300293-.1396484,1.0600586,1.2998047c-.1000977.0800781-.2802734.1601562-.4799805.1806641-1.4204102,1.1601562-5.2211914,4.7207031-6.7817383,6.2207031v.0205078Zm2.7607422,8.0019531c.6000977,0,1.300293-.0800781,1.8203125-.2001953-.2202148-1.5410156-1.3603516-2.8408203-2.840332-2.8408203-1.0405273,0-1.9604492.5605469-1.9604492,1.4804688,0,1.2197266,1.6601562,1.5605469,2.9804688,1.5605469Z"/>
      <path class="cls-1" d="m390.7470703,159.8935547h-5.9814453l.0800781,9.7226562c.0400391,2.0205078-1.3203125,2.0800781-5.0009766,2.0400391-.0600586-.3603516-.2001953-.9199219-.3603516-1.2998047,1.3203125.0195312,2.9008789.0195312,3.2607422-.0205078.4799805-.0595703.7202148-.3798828.7001953-.7402344l-.0800781-8.6416016c-2.0405273,3.0009766-5.3608398,6.1210938-8.621582,8.0419922-.2402344-.3603516-.6201172-.7802734-.9804688-1.0800781,3.2607422-1.8007812,6.7016602-4.9414062,8.7421875-8.0224609h-7.9619141v-1.3603516h8.7817383l-.0400391-4.3203125,1.9204102.0800781c-.0200195.2197266-.2197266.3398438-.5.3798828l.0400391,3.8603516h6.0014648v1.3603516Z"/>
      <path class="cls-1" d="m396.277832,155.8330078c2.0805664.6601562,4.480957,1.7001953,5.9614258,2.7207031l-.7602539,1.2597656c-1.4404297-1.0195312-3.8007812-2.0800781-5.8413086-2.7802734l.6401367-1.2001953Zm-.0800781,13.8632812c7.1015625-2.2011719,11.8227539-6.1816406,14.2231445-11.7226562.4199219.3398438.8803711.5996094,1.300293.8203125-2.5004883,5.4804688-7.3813477,9.7421875-14.1630859,12.0019531-.0200195.1806641-.1401367.3798828-.2797852.4599609l-1.0805664-1.5595703Z"/>
      <path class="cls-1" d="m417.9985352,165.2753906v-9.7226562l1.9003906.1201172c-.0200195.1796875-.1601562.3203125-.4799805.3603516v9.2421875h-1.4204102Zm11.1420898-10.5029297c-.0200195.2001953-.159668.3007812-.4799805.3408203v6.3613281c0,4.2001953-1.4404297,8.0410156-7.1816406,10.2617188-.199707-.2998047-.7001953-.8203125-1.0400391-1.0800781,5.5410156-2.0605469,6.78125-5.4814453,6.78125-9.1816406v-6.8222656l1.9204102.1201172Z"/>
      <path class="cls-1" d="m435.1396484,161.8740234h16.703125v1.4208984h-15.9433594c-.1196289.1992188-.3798828.3398438-.6401367.3798828l-.1196289-1.8007812Z"/>
      <path class="cls-1" d="m472.0332031,156.4335938c-.0600586.0791016-.1601562.1591797-.2602539.1992188-.7802734,7.8222656-3.4404297,12.0224609-10.1220703,14.7236328-.2602539-.3398438-.6601562-.7802734-1-1.0800781,6.3813477-2.6005859,8.8818359-6.4013672,9.5419922-12.9628906h-11.4228516v5.5214844h-1.3798828v-6.8818359h13.2626953l.2202148-.1601562,1.1601562.640625Z"/>
      <path class="cls-1" d="m478.3876953,155.8330078c2.0805664.6601562,4.480957,1.7001953,5.9614258,2.7207031l-.7602539,1.2597656c-1.4404297-1.0195312-3.8007812-2.0800781-5.8413086-2.7802734l.6401367-1.2001953Zm-.0800781,13.8632812c7.1015625-2.2011719,11.8227539-6.1816406,14.2231445-11.7226562.4199219.3398438.8803711.5996094,1.300293.8203125-2.5004883,5.4804688-7.3813477,9.7421875-14.1630859,12.0019531-.0200195.1806641-.1401367.3798828-.2797852.4599609l-1.0805664-1.5595703Z"/>
      <path class="cls-1" d="m507.5517578,157.2929688c-.0800781.1806641-.2402344.3203125-.5004883.3203125-.7202148,6.2216797-2.800293,11.6425781-6.1210938,11.6425781-1.6801758,0-3.2006836-1.6806641-3.2006836-4.8408203,0-4.8007812,3.7407227-8.8222656,9.0019531-8.8222656,5.78125,0,8.2817383,3.6611328,8.2817383,7.5615234,0,4.7617188-2.7607422,7.0615234-7.6015625,8.1816406-.1801758-.3193359-.5200195-.859375-.840332-1.2197266,4.6010742-.8798828,6.9614258-3.1210938,6.9614258-6.9013672,0-3.3007812-2.1201172-6.3017578-6.8012695-6.3017578-.2001953,0-.4199219.0205078-.6000977.0400391l1.4204102.3398438Zm-1.9204102-.2597656c-4.0410156.5-6.5415039,3.8408203-6.5415039,7.3417969,0,2.140625.9199219,3.4804688,1.8803711,3.4804688,2.4204102,0,4.1606445-5.3408203,4.6611328-10.8222656Z"/>
      <path class="cls-1" d="m529.5517578,160.4736328c.4003906,1.3203125.9604492,2.5810547,1.640625,3.7207031,1.3203125-.8193359,2.8803711-1.9404297,3.8808594-2.8203125l1.2202148,1.1005859c-.0800781.0800781-.2602539.0996094-.4204102.0800781-1.0200195.7998047-2.6806641,1.8603516-4.0205078,2.640625,1.4399414,1.9804688,3.340332,3.5,5.7011719,4.2607422-.300293.2597656-.6801758.7802734-.9003906,1.1396484-4.1010742-1.5-6.7412109-5.1806641-8.1616211-9.7412109-.6401367.4794922-1.4003906.9599609-2.2006836,1.3798828,2.7607422,1.9804688,3.940918,4.5410156,3.940918,6.5615234,0,2.1601562-1.3603516,3.4804688-3.440918,3.4804688-.5,0-1.1401367-.0195312-1.800293-.0595703-.0200195-.3408203-.1401367-.9003906-.3598633-1.2607422.7402344.0605469,1.4404297.0800781,1.8803711.0800781.5800781,0,1.0600586-.0400391,1.4804688-.3798828.5600586-.3603516.8798828-1.1005859.8798828-2.0205078,0-.5605469-.1201172-1.1806641-.3798828-1.8408203-2.2006836,1.9003906-5.6411133,3.8007812-8.5419922,4.7617188-.1601562-.3408203-.4399414-.8408203-.7202148-1.140625,3.0410156-.8203125,6.7216797-2.7802734,8.7421875-4.7011719-.2602539-.4199219-.5800781-.8398438-.9404297-1.2402344-1.7202148,1.2802734-4.4208984,2.6611328-6.5214844,3.4208984-.159668-.3203125-.4599609-.7802734-.7202148-1.0605469,2.1206055-.6201172,4.8813477-1.9199219,6.5014648-3.1201172-.3398438-.2998047-.7202148-.6201172-1.1401367-.9199219-1.5004883.6992188-3.1206055,1.2802734-4.6411133,1.7197266-.159668-.2597656-.4799805-.7802734-.6801758-1.0205078,2.4604492-.6201172,5.2612305-1.6796875,7.2216797-3.0205078h-4.7412109v-1.1796875h11.4628906v1.1796875h-4.2211914Zm-8.4819336-3.2402344v2.7001953h-1.300293v-3.9404297h7.6220703v-2.3603516l1.7802734.1201172c-.0200195.1396484-.1401367.2392578-.4003906.2597656v1.9804688h7.7416992v3.9404297h-1.3603516v-2.7001953h-14.0830078Z"/>
      <path class="cls-1" d="m541.2514648,159.6142578c.4599609-.1005859,1.1201172-.2802734,2.0605469-.5810547,3.5405273-1.1396484,6.7011719-1.9199219,8.9018555-1.9199219,3.3608398,0,6.2211914,1.6601562,6.2211914,5.8613281,0,4.9609375-4.9008789,6.8818359-11.6625977,7.5615234-.0600586-.2998047-.3198242-1-.5200195-1.3603516,6.1811523-.5800781,10.6225586-2.2607422,10.6225586-6.1210938,0-3.140625-2.1606445-4.5009766-4.8012695-4.5009766-2.8603516,0-8.0014648,1.6601562-9.8222656,2.4404297,0,.2001953-.1796875.4003906-.3598633.4599609l-.6401367-1.8398438Zm12.9228516-5.6816406c1.0800781.8398438,2.1000977,1.9199219,2.6806641,2.7802734l-.800293.6201172c-.5800781-.8603516-1.6005859-2.0205078-2.6206055-2.7802734l.7402344-.6201172Zm2.9204102-.8203125c1.1201172.8603516,2.0205078,1.8007812,2.6606445,2.7402344l-.800293.6201172c-.6401367-.9394531-1.6201172-1.9794922-2.6206055-2.7597656l.7602539-.6005859Z"/>
      <path class="cls-1" d="m573.7080078,172.0761719c-2.0205078-2.3603516-5.1411133-5.3212891-7.8417969-7.4414062-1-.7998047-1.3598633-1.3603516-1.3598633-2.0800781,0-.5800781.3198242-1.140625,1.0600586-1.8203125,1.8203125-1.6806641,5.2412109-4.921875,7.1616211-6.8818359l1.7001953,1.1201172c-.0400391.0400391-.1801758.2001953-.4399414.2001953-.0800781,0-.1601562-.0195312-.2402344-.0400391-2.0004883,1.9208984-5.1210938,4.640625-6.7612305,6.1816406-.4804688.4599609-.8603516.8603516-.8603516,1.1796875,0,.3408203.3598633.7402344,1.0600586,1.2607422,2.640625,2.0400391,5.4614258,4.6210938,7.9018555,7.2617188l-1.3803711,1.0595703Z"/>
      <path class="cls-1" d="m582.2939453,165.4550781c-.3798828-1.0800781-.5600586-2.640625-.5800781-3.7607422,0-1.8808594.2001953-4.0605469.6801758-6.6015625l2.0004883.3398438c-.0800781.2607422-.3198242.3203125-.5800781.3408203-.3999023,1.6601562-.6801758,4.2001953-.6801758,5.8203125,0,.4404297.0200195.8007812.0600586,1.0810547.3999023-.9804688,1.1401367-2.3408203,1.5600586-3.1005859.1801758.2597656.5805664.6796875.7802734.8798828-1.4799805,2.6601562-1.9204102,3.4208984-1.9204102,4.2607422,0,.1601562.0200195.3203125.0600586.5l-1.3803711.2402344Zm10.7226562-10.8828125c-.0200195.2402344-.1801758.3408203-.5205078.4404297.1401367,1.7402344.340332,4.6416016.340332,6.9414062-.0200195,3.8613281-1.4204102,7.3417969-7.4418945,9.8427734-.2197266-.3203125-.699707-.8603516-1-1.1611328,5.4609375-2.0800781,6.9213867-5.3808594,6.9213867-8.6611328,0-2.4609375-.2397461-5.3613281-.4599609-7.5019531l2.1606445.0996094Z"/>
      <path class="cls-1" d="m603.2885742,169.4355469c0,1.5410156-1.2602539,2.8007812-2.800293,2.8007812-1.5405273,0-2.8007812-1.2597656-2.8007812-2.8007812,0-1.5400391,1.2602539-2.7998047,2.8007812-2.7998047,1.5800781,0,2.800293,1.2998047,2.800293,2.7998047Zm-.7202148,0c0-1.1601562-.9199219-2.0800781-2.0800781-2.0800781-1.140625,0-2.0605469.9199219-2.0605469,2.0800781,0,1.140625.9199219,2.0605469,2.0605469,2.0605469,1.2001953,0,2.0800781-.9599609,2.0800781-2.0605469Z"/>
    </g>
  </g>
</svg>