<?xml version="1.0" encoding="UTF-8"?>
<svg id="_レイヤー_2" data-name="レイヤー 2" xmlns="http://www.w3.org/2000/svg" viewBox="0 0 634.3867188 171.2158203">
  <defs>
    <style>
      .cls-1 {
        stroke-width: 0px;
      }
    </style>
  </defs>
  <g id="_レイヤー_1-2" data-name="レイヤー 1">
    <g>
      <path class="cls-1" d="m18.2436523,12.3027344c-.6201172-.4208984-1.340332-.9003906-2.2001953-1.4208984-.7602539,3.9814453-2.6806641,6.4208984-7.4619141,6.9414062v-1.8203125c3.6806641-.5800781,5.0810547-2.5,5.6411133-6.0810547-1.5600586-.7402344-3.340332-1.3603516-5.2607422-1.6005859l-.2402344.9404297c-1.1601562,4.3212891-2.340332,7.6015625-5.1611328,7.6015625-1.5205078,0-3.1606445-1.3203125-3.1606445-4.0605469,0-3.2607422,2.6206055-6.2412109,6.9814453-6.421875.2202148-1.0800781.4399414-2.2207031.6000977-3.3603516H2.2402344v-1.8603516h8.1015625c-.2597656,1.7001953-.6000977,3.5605469-.9599609,5.3212891,1.8803711.1992188,3.6005859.7597656,5.0610352,1.3798828.0600586-1.2802734.0800781-2.7207031.0800781-4.3408203h1.9804688c0,1.9199219-.0400391,3.6806641-.1601562,5.2412109.840332.4599609,1.4804688.8603516,1.9003906,1.1396484v2.4013672Zm-15.9633789.5c0,1.3603516.7001953,2.0605469,1.4003906,2.0605469,1.0600586,0,2.1005859-1.78125,3.2807617-6.6220703-2.9008789.2207031-4.6811523,2.4208984-4.6811523,4.5615234Z"/>
      <path class="cls-1" d="m39.6137695,7.6015625c-.1601562,5.1005859-1.840332,9.8417969-5.9213867,9.8417969-1.8803711,0-3.1606445-.9404297-3.1606445-3.140625v-3.2802734c0-1.3203125-.340332-1.5605469-.9804688-1.5605469-1.4399414,0-3.3603516,2.4199219-4.0004883,4.0605469-.4003906,1.0800781-.8203125,2.7802734-1.0805664,3.8007812h-2.2001953c1.7001953-6.1210938,3.5205078-11.8828125,5.3007812-16.4833984h2.3408203c-1.2001953,2.7001953-2.4204102,6.0615234-3.2207031,8.4814453.8203125-.9794922,2.1206055-1.9003906,3.3808594-1.9003906,1.6801758,0,2.4604492,1.1005859,2.4604492,3.0810547v3.4208984c0,1.2001953.6201172,1.4599609,1.3203125,1.4599609,2.2802734,0,3.5405273-3.4208984,3.6206055-7.78125h2.140625Z"/>
      <path class="cls-1" d="m43.3798828,15.5830078c1.7402344-3.4208984,3.0205078-7.0820312,3.9008789-10.5625h-2.980957v-1.8398438h3.4208984c.199707-.9003906.3398412-1.7802734.4799805-2.6210938h2.1005859c-.1601562.9003906-.300293,1.7607422-.5,2.6210938h3.7006836v1.8398438h-4.1411133c-.9799805,3.8212891-2.2802734,7.3017578-3.6606445,10.5625h-2.3203125Zm17.9238281.0595703c-.800293-.6601562-1.8208008-1.4794922-3.0009766-2.1796875-.0600586,3.0400391-2.0600586,4.3398438-4.8808594,4.3398438-3.0405273,0-4.940918-1.4599609-4.940918-3.7597656,0-2.3212891,1.9604492-3.8613281,4.8808594-3.8613281,1.1000977,0,2.0805664.1601562,2.9804688.4003906v-5.5615234h-1.6000977v-1.8398438h6.3012695v1.8398438h-2.7407227v6.3212891c1.4204102.6601562,2.4204102,1.4609375,3.0009766,1.8808594v2.4199219Zm-4.9614258-3.1601562c-.9199219-.3603516-1.9003906-.5800781-2.9404297-.5800781-2.1005859,0-3.1005859.9003906-3.1005859,2.0800781,0,1.4208984,1.2802734,2.0605469,3.0205078,2.0605469s3.0205078-.7802734,3.0205078-3.0800781v-.4804688Z"/>
      <path class="cls-1" d="m74.8876953,15.3828125c3.0205078-.3603516,6.0810547-2.1601562,6.0810547-6.5810547,0-2.9804688-1.840332-5.0810547-4.980957-5.4814453-.5400391,4.4609375-1.5600586,8.9619141-3.0004883,11.2021484-.9204102,1.5400391-2.0205078,1.8408203-2.8808594,1.8408203-1.800293,0-4.0605469-2.1201172-4.0605469-6.0410156,0-4.9414062,3.5805664-8.9423828,8.9819336-8.9423828,5.0410156,0,8.0214844,3.140625,8.0214844,7.4814453,0,5.78125-4.0410156,8.1816406-8.1616211,8.4619141v-1.9404297Zm-6.9013672-5.0605469c0,2.5400391,1.300293,4,2.1000977,4,.4804688,0,1.0004883-.2197266,1.7207031-1.7802734,1-2.1396484,1.8203125-6.2011719,2.1801758-9.2617188-3.8007812.4199219-6.0009766,3.5810547-6.0009766,7.0419922Z"/>
      <path class="cls-1" d="m93.2211914,5.9804688s-.4604492-1.5595703-1.1206055-2.7998047h-.6401367c-1.0400391,1.6796875-2.4204102,3.0205078-2.4204102,3.0205078l-1.4404297-1.3808594s2.2607422-1.7197266,3.5410156-4.8203125l1.8603516.3798828c-.1201172.3398438-.3598633.8603516-.5400391,1.1601562h4.5009766v1.640625h-2.9609375c.5405273.7197266,1.1005859,1.9199219,1.1005859,1.9199219l-1.8803711.8798828Zm11.3422852,12.0224609c-4.5410156-.9794922-7.2216797-3.1005859-8.1015625-5.1201172-1.0004883,2.1396484-3.3408203,4.3203125-7.7817383,5.1201172l-1.0205078-1.8603516c4.0410156-.6396484,6.081543-2.1396484,7.0014648-3.8603516h-6.6010742v-1.7802734h7.1616211c.1396484-.7802734.2197266-1.4599609.2197266-2.1201172-1.4003906.0595703-2.9404297.0996094-4.6411133.0996094h-1.0600586l-.7202148-1.7207031c.6000977.0205078,1.1801758.0205078,1.7402344.0205078,7.8618164,0,12.2827148-1.1005859,12.2827148-1.1005859l1.0004883,1.6201172s-2.7807617.640625-6.5014648.9003906c0,.6806641-.0600586,1.5605469-.1801758,2.3007812h7.7416992v1.7802734h-7.0014648c.7602539,1.3007812,3.0205078,3.0810547,7.4614258,3.8203125l-1,1.9003906Zm-2.6206055-14.8222656c.5.5595703,1.0600586,1.5400391,1.0600586,1.5400391l-1.7202148.9199219s-.3398438-1-1.2001953-2.4599609h-.800293c-1,1.7402344-2.1601562,2.9199219-2.1601562,2.9199219l-1.4604492-1.4003906s2.0205078-1.6396484,3.140625-4.7001953l1.800293.3798828c-.1000977.3398438-.2998047.8398438-.4599609,1.1601562h5.1010742v1.640625h-3.3007812Z"/>
      <path class="cls-1" d="m110.1420898,16.3427734c.6000977-1.7802734.6401367-2.9003906.6401367-7.0810547v-4.0410156h1.7202148c-.2202148-.8398438-.5-1.8798828-.7001953-2.5205078h-.8603516v-1.5605469h2.9008789V0h1.9404297v1.1396484h2.9404297v1.5605469h-.840332c-.159668.7001953-.5200195,1.9804688-.7397461,2.5205078h1.9204102v1.5205078h-2.0405273l.8999023.9599609c-1.8803711,1.9208984-4.1206055,2.6806641-4.1206055,2.6806641l-.9404297-1.3603516s2.5405273-.7802734,4.0009766-2.2802734h-4.2807617v2.5205078c0,4.2207031-.0400391,6.0410156-.9003906,8.4013672l-1.5400391-1.3203125Zm2.1000977-.0996094s3.8808594-1.0205078,6.0214844-3.5605469l1.1401367,1.1201172c-2.340332,2.9599609-6.0410156,4-6.0410156,4l-1.1206055-1.5595703Zm.5400391-3.7607422s3.2006836-1.0605469,4.8813477-3.1611328l1,1.0810547c-2.0805664,2.4599609-4.9208984,3.4199219-4.9208984,3.4199219l-.9604492-1.3398438Zm2.5605469-7.2617188c.2802734-.7197266.5405273-1.6601562.7402344-2.5205078h-2.5004883c.2202148.7197266.4599609,1.6601562.6401367,2.5205078h1.1201172Zm11.9428711,12.7822266c-1.9804688-.9394531-3.2207031-2.2802734-3.2207031-2.2802734l.8598633-.9794922h-2.9204102l.840332,1s-1.6005859,1.5-3.5410156,2.2197266l-.9799805-1.5996094c1.4003906-.4404297,2.5805664-1.1806641,3.0004883-1.6201172h-1.6801758V3.8408203h2.2402344c.2802734-.5205078.5400391-1.1005859.6801758-1.5605469h-3.2807617V.6601562h8.5019531v1.6396484h-3.1005859c-.1401367.5205078-.4003906,1.0800781-.6000977,1.5410156h3.1606445v10.9023438h-1.8203125c.5.4794922,1.5800781,1.1396484,2.7802734,1.5595703l-.9199219,1.7001953Zm-1.9404297-12.6025391h-3.8208008v1.5205078h3.8208008v-1.5205078Zm0,2.9609375h-3.8208008v1.6201172h3.8208008v-1.6201172Zm0,3.0410156h-3.8208008v1.7402344h3.8208008v-1.7402344Z"/>
      <path class="cls-1" d="m138.1386719,14.7626953c.7001953.3203125,1.9204102.7207031,2.9008789.7207031,1.840332,0,2.7207031-1.9208984,2.7207031-6.0419922,0-2.9404297-.4003906-3.5800781-2.6606445-3.5800781h-2.4604492c-.800293,4.1601562-1.9204102,7.9414062-3.3608398,11.5615234h-2.3408203c1.7006836-3.640625,2.9208984-7.5214844,3.6611328-11.5615234h-3.6811523v-1.8603516h4.0009766c.1601562-1.0810547.300293-2.1806641.4204102-3.2607422h2.1201172c-.1401367,1.0996094-.2998047,2.1796875-.4799805,3.2607422h2.1005859c3.4003906,0,4.7407227.6796875,4.7407227,5.4404297,0,5.9013672-1.3999023,7.9814453-4.5209961,7.9814453-1.2202148,0-2.4804688-.3398438-3.1606445-.6201172v-2.0400391Zm7.2817383-11.7626953V.1992188h1.340332v2.8007812h-1.340332Zm3.3007812,8.3417969c-.4404297-2.7607422-1.3803711-5.3613281-2.8808594-7.78125h2.3608398c1.3203125,2.3603516,2.2001953,5.1210938,2.6601562,7.78125h-2.1401367Zm-1.0004883-8.3417969V.1992188h1.3803711v2.8007812h-1.3803711Z"/>
      <path class="cls-1" d="m166.0727539,17.6630859s-1.8007812-.0195312-1.8007812-1.7802734v-3.9804688h-2.4003906c-.1796875.8798828-1.1201172,5.0205078-6.6411133,6.1005859l-1.1606445-1.9003906c4.28125-.6992188,5.3413086-2.8398438,5.6015625-4.2001953h-3.440918V.7402344h13.9428711v11.1621094h-3.8808594v3.3007812c0,.6396484.5600586.6992188.7402344.6992188h1.6206055c.5800781,0,1.1201172-.0390625,1.4399414-2.4794922l1.9804688,1.0800781c-.7797852,3.1601562-1.7001953,3.1601562-2.7202148,3.1601562h-3.2807617Zm2.0800781-15.3232422h-9.9018555v1.5205078h9.9018555v-1.5205078Zm0,3.0410156h-9.9018555v1.6005859h9.9018555v-1.6005859Zm0,3.1201172h-9.9018555v1.8007812h9.9018555v-1.8007812Z"/>
      <path class="cls-1" d="m193.909668,16.8027344c-.6401367.2001953-2.7607422.6201172-4.3608398.6201172-2.5209961,0-3.6611328-.6396484-3.6611328-2.7597656v-1.3007812c0-1.0800781-.2197266-1.2802734-1.0200195-1.2802734-.4599609,0-1.3803711.3603516-2.1606445.9404297-1.7402344,1.2402344-4.5009766,3.5400391-5.6411133,4.6210938v-2.5810547c2.5805664-2.2001953,6.3613281-5.2011719,10.1220703-8.0410156h-8.921875v-1.9003906h12.8027344v1.5400391c-1.7202148,1.2001953-4.5209961,3.3203125-5.3212891,3.9003906.1201172-.0400391.3203125-.0996094.4804688-.0996094,1.1801758,0,1.7202148.4599609,1.7202148,2.0400391v1.1005859c0,1.4199219.3598633,1.8808594,1.840332,1.8808594,1.2802734,0,3.1606445-.4208984,4.1210938-.7207031v2.0400391Zm-3.0009766-13.4228516c-3.4003906-.1992188-7.7612305-.3193359-11.1220703-.359375v-1.8603516c3.6806641.0195312,7.6816406.1201172,11.1220703.2802734v1.9394531Z"/>
      <path class="cls-1" d="m208.6679688,15.6230469c2.0004883-.5,3.5610352-1.7001953,3.5610352-3.8007812,0-1.8408203-1.5805664-3.3007812-4.8413086-3.3007812-3.2407227,0-5.8012695.7001953-9.5820312,3.5205078v-2.1806641l10.2021484-6.6806641h-8.1416016v-1.8408203h11.8828125v1.5800781l-6.7016602,4.3408203c.6201172-.2197266,1.7402344-.4394531,3.0205078-.4394531,3.8007812,0,6.28125,1.9599609,6.28125,4.9609375,0,3.7011719-3.2402344,5.8613281-7.78125,5.8613281-3.5610352,0-6.4414062-1.2802734-6.4414062-3.5605469,0-1.2402344,1.1000977-2.7011719,3.6005859-2.7011719,2.7207031,0,4.4609375,1.6201172,4.940918,2.1005859v2.140625Zm-5.0410156-2.5410156c-1.2001953,0-1.6000977.5009766-1.6000977.9208984,0,1.2998047,2.5805664,1.8994141,4.2407227,1.8994141.800293,0,1.6005859-.0996094,2.3603516-.2597656-.9599609-.9599609-2.9604492-2.5605469-5.0009766-2.5605469Z"/>
      <path class="cls-1" d="m222.7407227,17.8027344c-.9204102-1.3398438-2.0205078-2.9394531-3.5009766-4.4599609h2.5605469c1.1801758,1.2402344,2.3408203,2.7998047,3.5009766,4.4804688l-2.5605469-.0205078Z"/>
      <path class="cls-1" d="m239.28125,17.8027344c-.8603516-3.4599609-2.0805664-7.3007812-3.3808594-11.1416016-1.3203125.4404297-2.5205078.9199219-3.4609375,1.2998047v-2.1201172c.8203125-.2998047,1.7807617-.6396484,2.8208008-.9804688-.4003906-1.2197266-.840332-2.4404297-1.2802734-3.640625h2.1206055c.3398438.9404297.699707,1.9609375,1.0600586,3.0605469,1.0800781-.3193359,2.2001953-.5800781,3.3007812-.7998047-.5-.9599609-1.0405273-1.9804688-1.5805664-2.7802734h2.1606445c.5.7197266.9399414,1.5595703,1.4204102,2.4404297.6000977-.0605469,1.2202148-.1005859,1.7602539-.1005859,4.0610352,0,5.8813477,2.3603516,5.8813477,4.8212891,0,4.0810547-3.6611328,5.6416016-7.8217773,5.7607422v-1.8398438c2.7607422-.0800781,5.7612305-1.1005859,5.7612305-3.8408203,0-1.4804688-1.1201172-3.0410156-3.940918-3.0410156-.2998047,0-.5800781.0205078-.9003906.0400391.5405273,1.0605469,1.140625,2.4003906,1.5004883,3.3613281h-2.140625c-.3398438-.9609375-.8198242-2.0810547-1.3198242-3.1005859-1.140625.1992188-2.3208008.5-3.4609375.859375,1.340332,3.9013672,2.7407227,8.2822266,3.7006836,11.7421875h-2.2001953Z"/>
      <path class="cls-1" d="m259.4912109,16.4433594v-1.8408203c5.5209961,0,8.8818359-1.5400391,8.8818359-4.640625,0-1.9404297-1.4604492-3.3007812-4.6411133-3.3007812-2.9003906,0-5.9609375.7998047-8.121582,1.4804688l-.0200195-1.9208984c2.0405273-.6201172,5.0810547-1.4599609,8.1616211-1.4599609,4.7211914,0,6.6616211,2.2001953,6.6616211,5.1210938,0,4.140625-3.6210938,6.5615234-10.5024414,6.5615234h-.4199219Z"/>
      <path class="cls-1" d="m291.9956055,16.8427734c-1.6801758.2607422-4.2207031.6005859-6.9013672.6201172h-.0800781c-6.3813477,0-8.7617188-2.3203125-8.7617188-5.2001953,0-3.0615234,2.5405273-4.9814453,6.2011719-6.1220703-.2602539-1.7001953-.6801758-5.2412109-.6801758-5.2412109h2.1806641s.2998047,2.9208984.5200195,4.7216797c2.2202148-.5205078,4.7207031-.8007812,7.2016602-.9003906v2.0205078c-7.2016602.2197266-13.2832031,1.9199219-13.2832031,5.4013672,0,2.2998047,2.5205078,3.3408203,6.7416992,3.3408203,2.2602539,0,4.6210938-.2802734,6.8613281-.7001953v2.0595703Z"/>
      <path class="cls-1" d="m300.6166992,8.8417969c0,4.3408203-.3398438,6.8808594-1.7602539,9.1416016l-1.7006836-1.5400391c1.2402344-1.6601562,1.5004883-4.3007812,1.5004883-8.9619141V3.4804688h15.3432617v5.3613281h-13.3828125Zm-3.0004883-6.5615234V.5996094h17.043457v1.6806641h-17.043457Zm16.6035156,15.7226562c-3.7807617-1.1601562-5.6611328-3.6601562-6.4614258-5.2607422-.800293,2.1005859-3.0205078,4.1806641-6.1015625,5.2607422l-1.0600586-1.9003906c2.5205078-.5791016,4.6611328-2.0400391,5.2412109-3.5400391h-4.6411133v-1.8007812h5.3613281c.159668-.6396484.2197266-1.5205078.2197266-1.5205078l2.0004883.140625s-.0600586.7998047-.1801758,1.3798828h6.0415039v1.8007812h-4.940918c.7202148,1.2802734,2.300293,2.7607422,5.4208984,3.6005859l-.8999023,1.8398438Zm-2.1806641-12.7216797h-11.4223633v1.7597656h11.4223633v-1.7597656Z"/>
      <path class="cls-1" d="m323.8310547,16.4433594v-1.8408203c5.5209961,0,8.8818359-1.5400391,8.8818359-4.640625,0-1.9404297-1.4604492-3.3007812-4.6411133-3.3007812-2.9003906,0-5.9609375.7998047-8.121582,1.4804688l-.0200195-1.9208984c2.0405273-.6201172,5.0810547-1.4599609,8.1616211-1.4599609,4.7211914,0,6.6616211,2.2001953,6.6616211,5.1210938,0,4.140625-3.6210938,6.5615234-10.5024414,6.5615234h-.4199219Z"/>
      <path class="cls-1" d="m352.4912109,17.2832031c-6.1411133,0-9.8823242-2.3203125-9.8823242-6.7011719,0-2.8408203,2.0004883-5.28125,4.6811523-6.7412109l-8.8618164.2998047v-2.0009766l16.2836914-.359375v1.9599609l-2.3208008.0800781c-3.8608398.4599609-7.7016602,3.3212891-7.7016602,6.5820312,0,3.7402344,3.7407227,4.8408203,8.2617188,4.8408203v2.0400391h-.4599609Z"/>
      <path class="cls-1" d="m374.8491211,17.0029297c-1.7602539.3398438-3.7207031.6005859-6.0415039.6005859h-.2597656c-4.9213867,0-7.6816406-1.2207031-7.6816406-4.140625,0-1.9804688,1.8603516-3.8613281,5.7612305-3.8613281,2.5405273,0,4.1206055.5400391,4.8408203.8007812-.3999023-.7402344-.800293-1.4804688-1.1801758-2.2607422h-10.0019531v-1.6806641h9.2016602l-.8598633-1.9003906h-8.3417969v-1.7001953h7.6015625c-.300293-.7607422-.6401367-1.5-.9604492-2.2607422h2.2607422c.2597656.6806641.5200195,1.3603516.8198242,2.0810547h6.3017578v1.6796875h-5.6015625l.9003906,2.0009766h4.7011719v1.7197266h-3.8808594c.7001953,1.4804688,1.4399414,2.9609375,2.2402344,4.4414062l-2.2402344.1396484c-1.2006836-.7001953-2.980957-1.3798828-5.4614258-1.3798828-2.6005859,0-3.980957.9199219-3.980957,2.1201172,0,1.7001953,2.0605469,2.3203125,5.8413086,2.3203125,2.1005859,0,4.1210938-.2998047,6.0214844-.7001953v1.9804688Z"/>
      <path class="cls-1" d="m386.7871094,4.8808594c-.7802734,4.3007812-1.7001953,8.0019531-3.1005859,12.2617188h-2.2001953c1.4399414-3.8798828,2.5205078-7.9609375,3.2802734-12.2617188h-3.1005859v-1.8603516h3.4008789c.1401367-.8007812.2602539-1.6201172.3598633-2.4404297h2.0805664c-.1201172.8398438-.2402344,1.6601562-.3798828,2.4404297h9.4418945v1.8603516h-9.7822266Zm11.3823242,11.9023438c-1.5.2802734-3.340332.5195312-5.480957.5195312-3.6806641,0-5.6411133-1.2998047-5.6411133-3.4404297,0-1.3203125.7802734-2.5,1.4604492-3.3007812h2.340332c-.5600586.5400391-1.800293,1.9003906-1.800293,3.0410156,0,1.0800781,1.2402344,1.8203125,3.7006836,1.8203125,1.8603516,0,3.9008789-.2998047,5.4208984-.6796875v2.0400391Zm-9.921875-8.0615234v-1.8203125h9.4418945v1.8203125h-9.4418945Z"/>
      <path class="cls-1" d="m412.6582031,15.0029297v3h-2.0405273v-3h-6.4213867v-1.7402344h6.4213867v-2.0605469h-7.3217773v-1.7402344h4.3212891c-.4804688-1.140625-.8603516-1.9404297-1.1801758-2.5009766h-3.3408203v-1.7402344h7.4614258v-1.9003906h-6.2412109v-1.6806641h6.2412109V0h2.0405273v1.6396484h6.2612305v1.6806641h-6.2612305v1.9003906h7.5214844v1.7402344h-3.4208984c-.2397461.5800781-.6396484,1.5400391-1.1601562,2.5009766h4.4208984v1.7402344h-7.3012695v2.0605469h6.5214844v1.7402344h-6.5214844Zm-3.980957-8.0214844c.3203125.6601562.7202148,1.5195312,1.1000977,2.4804688h3.5009766c.5800781-.9804688.9599609-1.7207031,1.2602539-2.4804688h-5.8613281Z"/>
      <path class="cls-1" d="m440.6669922,17.0029297c-1.7402344.2597656-3.440918.4199219-5.6811523.4199219-4.8413086,0-6.7817383-1.1796875-6.7817383-4.2402344v-6.3017578h-3.2006836v-1.9199219h3.2006836V.859375h1.9804688v4.1015625h7.2617188V.859375h1.9804688v4.1015625h3.4604492v1.9199219h-3.4604492v5.3417969h-1.9804688v-5.3417969h-7.2617188v5.7617188c0,2.0205078.7802734,2.8408203,4.8613281,2.8408203,1.9804688,0,3.9008789-.2001953,5.6210938-.5009766v2.0205078Z"/>
      <path class="cls-1" d="m446.9897461,15.5830078c1.7402344-3.4208984,3.0205078-7.0820312,3.9003906-10.5625h-2.9804688v-1.8398438h3.4208984c.2001953-.9003906.3398438-1.7802734.4799677-2.6210938h2.1005987c-.1601562.9003906-.300293,1.7607422-.5,2.6210938h3.7006836v1.8398438h-4.1411133c-.9799805,3.8212891-2.2802734,7.3017578-3.6606445,10.5625h-2.3203125Zm17.9238281.0595703c-.800293-.6601562-1.8208008-1.4794922-3.0009766-2.1796875-.0600586,3.0400391-2.0605469,4.3398438-4.8808594,4.3398438-3.0405273,0-4.940918-1.4599609-4.940918-3.7597656,0-2.3212891,1.9604492-3.8613281,4.8808594-3.8613281,1.1000977,0,2.0805664.1601562,2.9804688.4003906v-5.5615234h-1.6000977v-1.8398438h6.3012695v1.8398438h-2.7407227v6.3212891c1.4204102.6601562,2.4208984,1.4609375,3.0009766,1.8808594v2.4199219Zm-4.9614258-3.1601562c-.9199219-.3603516-1.9003906-.5800781-2.9404297-.5800781-2.1005859,0-3.1005859.9003906-3.1005859,2.0800781,0,1.4208984,1.2802734,2.0605469,3.0205078,2.0605469s3.0205078-.7802734,3.0205078-3.0800781v-.4804688Z"/>
      <path class="cls-1" d="m482.637207,18.0029297v-1.1396484h-9.762207v1.1396484h-2.0405273V.5996094h13.8427734v17.4033203h-2.0400391Zm0-15.6025391h-9.762207v5.1611328h9.762207V2.4003906Zm0,6.9609375h-9.762207v5.7011719h9.762207v-5.7011719Z"/>
      <path class="cls-1" d="m505.9331055,7.1416016v-2.8808594h-13.2626953v2.8808594h-1.9604492V2.4599609h3.5605469c-.2397461-.3798828-.7202148-1-1.1801758-1.5205078l2.0004883-.7597656c.6000977.8398438,1.1601562,1.7802734,1.3603516,2.2802734h1.9003906V0h1.9604492v2.4599609h1.6201172c.4003906-.4794922,1.0405273-1.3603516,1.5205078-2.2802734l2.0004883.7802734c-.3203125.5195312-.800293,1.0800781-1.1801758,1.5h3.6206055v4.6816406h-1.9604492Zm-3.5605469,8.2617188c2.0200195,0,2.4404297-.1201172,2.4404297-.6201172v-1.7607422h-4.5209961v4.9804688h-1.9604492v-4.9804688h-4.4008789v4.2207031h-1.9604492v-5.9414062h6.3613281v-1.1796875h-4.6411133v-4.78125h11.2426758v4.78125h-4.6411133v1.1796875h6.4814453v3.4814453c0,2.1796875-1.7607422,2.4794922-3.8007812,2.4794922l-.6000977-1.859375Zm.6000977-8.4619141h-7.4018555v1.5800781h7.4018555v-1.5800781Z"/>
      <path class="cls-1" d="m515.1748047,17.9033203c-1.5605469,0-2.8208008-1.2802734-2.8208008-2.7802734,0-1.5605469,1.2602539-2.78125,2.8208008-2.78125,1.5200195,0,2.800293,1.2207031,2.800293,2.78125,0,1.5-1.2802734,2.7802734-2.800293,2.7802734Zm0-4.2412109c-.8203125,0-1.4404297.6601562-1.4404297,1.4609375,0,.7998047.6201172,1.4199219,1.4404297,1.4199219.7797852,0,1.4599609-.6201172,1.4599609-1.4199219,0-.8007812-.6801758-1.4609375-1.4599609-1.4609375Z"/>
      <path class="cls-1" d="m5.9208984,69.4814453c.7001953.3203125,1.9204102.7197266,2.9008789.7197266,1.840332,0,2.7207031-1.9199219,2.7207031-6.0410156,0-2.9404297-.4003906-3.5810547-2.6606445-3.5810547h-2.4604492c-.800293,4.1611328-1.9204102,7.9423828-3.3608398,11.5625H.7197266c1.7006836-3.640625,2.9208984-7.5214844,3.6611328-11.5625H.699707v-1.8603516h4.0009766c.1601562-1.0800781.300293-2.1806641.4204102-3.2607422h2.1201172c-.1401367,1.1005859-.2998047,2.1806641-.4799805,3.2607422h2.1005859c3.4003906,0,4.7407227.6806641,4.7407227,5.4414062,0,5.9013672-1.3999023,7.9814453-4.5209961,7.9814453-1.2202148,0-2.4804688-.3398438-3.1606445-.6201172v-2.0400391Zm10.5825195-3.7207031c-.5-3.0810547-1.5805664-5.9414062-3.3808594-8.5625h2.4003906c1.5605469,2.5205078,2.6206055,5.6015625,3.1206055,8.5625h-2.1401367Z"/>
      <path class="cls-1" d="m23.9941406,71.7421875c-.1196289-1.9609375-.1796875-4.3808594-.1796875-6.5820312,0-3.4404297.1201172-6.3613281.4399414-9.4619141h2.0004883c-.3203125,3.2412109-.4199219,5.9609375-.4199219,9.3417969,0,2.0605469.0595703,4.4208984.2197266,6.7021484h-2.0605469Zm5.3813477-1.3408203c3.0205078-.7402344,5.6611328-1.9599609,5.6811523-7.0615234v-2.2001953h-6.9614258v-1.9208984h6.9614258v-3.6201172h2.0405273v3.6201172h3.1206055v1.9208984h-3.140625v2.3007812c0,6.5605469-3.9208984,8.1015625-7.7016602,8.8417969v-1.8808594Z"/>
      <path class="cls-1" d="m50.2626953,69.4814453c.7001953.3203125,1.9204102.7197266,2.9008789.7197266,1.840332,0,2.7207031-1.9199219,2.7207031-6.0410156,0-2.9404297-.4003906-3.5810547-2.6606445-3.5810547h-2.4604492c-.800293,4.1611328-1.9204102,7.9423828-3.3608398,11.5625h-2.3408203c1.7006836-3.640625,2.9208984-7.5214844,3.6611328-11.5625h-3.6811523v-1.8603516h4.0009766c.1601562-1.0800781.300293-2.1806641.4204102-3.2607422h2.1201172c-.1401367,1.1005859-.2998047,2.1806641-.4799805,3.2607422h2.1005859c3.4003906,0,4.7407227.6806641,4.7407227,5.4414062,0,5.9013672-1.3999023,7.9814453-4.5209961,7.9814453-1.2202148,0-2.4804688-.3398438-3.1606445-.6201172v-2.0400391Zm7.2817383-11.7626953v-2.8007812h1.340332v2.8007812h-1.340332Zm3.3007812,8.3417969c-.4404297-2.7607422-1.3803711-5.3613281-2.8808594-7.78125h2.3608398c1.3203125,2.3603516,2.2001953,5.1210938,2.6601562,7.78125h-2.1401367Zm-1.0004883-8.3417969v-2.8007812h1.3803711v2.8007812h-1.3803711Z"/>
      <path class="cls-1" d="m83.4516602,71.5214844c-.6401367.2001953-2.7607422.6201172-4.3608398.6201172-2.5209961,0-3.6611328-.6396484-3.6611328-2.7607422v-1.2998047c0-1.0800781-.2197266-1.2802734-1.0200195-1.2802734-.4599609,0-1.3803711.3603516-2.1606445.9404297-1.7402344,1.2402344-4.5009766,3.5400391-5.6411133,4.6210938v-2.5810547c2.5805664-2.2001953,6.3613281-5.2011719,10.1220703-8.0419922h-8.921875v-1.9003906h12.8027344v1.5410156c-1.7202148,1.2001953-4.5209961,3.3203125-5.3212891,3.9003906.1201172-.0400391.3203125-.0996094.4804688-.0996094,1.1801758,0,1.7202148.4599609,1.7202148,2.0400391v1.1005859c0,1.4199219.3598633,1.8798828,1.840332,1.8798828,1.2802734,0,3.1606445-.4199219,4.1210938-.7197266v2.0400391Zm-3.0009766-13.4228516c-3.4003906-.2001953-7.7612305-.3193359-11.1220703-.359375v-1.8613281c3.6806641.0205078,7.6816406.1201172,11.1220703.2802734v1.9404297Z"/>
      <path class="cls-1" d="m96.6879883,70.1015625c3.0205078-.3603516,6.0810547-2.1601562,6.0810547-6.5810547,0-2.9814453-1.840332-5.0820312-4.980957-5.4814453-.5400391,4.4609375-1.5600586,8.9619141-3.0004883,11.2021484-.9204102,1.5400391-2.0205078,1.8408203-2.8808594,1.8408203-1.800293,0-4.0605469-2.1210938-4.0605469-6.0419922,0-4.9404297,3.5805664-8.9414062,8.9819336-8.9414062,5.0410156,0,8.0214844,3.140625,8.0214844,7.4814453,0,5.78125-4.0410156,8.1816406-8.1616211,8.4619141v-1.9404297Zm-6.9013672-5.0615234c0,2.5410156,1.300293,4.0009766,2.1000977,4.0009766.4804688,0,1.0004883-.2197266,1.7207031-1.7802734,1-2.140625,1.8203125-6.2011719,2.1801758-9.2617188-3.8007812.4199219-6.0009766,3.5810547-6.0009766,7.0410156Z"/>
      <path class="cls-1" d="m108.8959961,70.3017578c1.7402344-3.4208984,3.0205078-7.0820312,3.9003906-10.5625h-2.9804688v-1.8408203h3.4208984c.2001953-.8994141.3398438-1.7802734.4799805-2.6201172h2.1005859c-.1601562.9003906-.300293,1.7607422-.5,2.6201172h3.7006836v1.8408203h-4.1411133c-.9799805,3.8203125-2.2802734,7.3017578-3.6606445,10.5625h-2.3203125Zm17.9238281.0595703c-.800293-.6601562-1.8208008-1.4804688-3.0009766-2.1806641-.0600586,3.0410156-2.0605469,4.3408203-4.8808594,4.3408203-3.0405273,0-4.940918-1.4599609-4.940918-3.7607422,0-2.3203125,1.9604492-3.8603516,4.8808594-3.8603516,1.1000977,0,2.0805664.1601562,2.9804688.4003906v-5.5615234h-1.6000977v-1.8408203h6.3012695v1.8408203h-2.7407227v6.3212891c1.4204102.6601562,2.4208984,1.4599609,3.0009766,1.8808594v2.4199219Zm-4.9614258-3.1601562c-.9199219-.3603516-1.9003906-.5800781-2.9404297-.5800781-2.1005859,0-3.1005859.8994141-3.1005859,2.0800781,0,1.4199219,1.2802734,2.0605469,3.0205078,2.0605469s3.0205078-.7802734,3.0205078-3.0810547v-.4794922Z"/>
      <path class="cls-1" d="m140.9077148,69.9609375c-.7197266.5410156-2.4804688,1.8007812-4.3608398,1.8007812-2.5205078,0-4.5410156-2.0205078-4.5410156-7.7412109,0-3.0009766.4204102-5.7617188.800293-7.6220703h2.1005859c-.5600586,2.5205078-.8603516,5.1210938-.8603516,7.8017578,0,3.4804688.9003906,5.5214844,2.7207031,5.5214844,1.5004883,0,3.1206055-1.3408203,4.140625-2.2607422v2.5Zm5.1210938-.0195312c0-4.9208984-.5800781-8.9023438-3.7006836-13.1230469h2.4003906c2.1806641,3.0810547,3.4008789,6.921875,3.4008789,13.1230469h-2.1005859Z"/>
      <path class="cls-1" d="m168.3129883,59.9189453v-2.2001953h-13.2827148v2.2207031h-1.9604492v-3.9208984h7.621582v-1.3007812h1.9604492v1.3007812h7.621582v3.9003906h-1.9604492Zm.9599609,12.1630859c-3.3803711-2.5410156-5.3808594-6.9414062-5.9609375-11.1826172h-1.0004883c-.2397461.2998047-.5200195.6005859-.8398438.9003906,1.0400391.9404297,2.3803711,2.9208984,2.3803711,7.3818359,0,3.0800781-1.5605469,3.5400391-4.2407227,3.5400391l-.800293-1.7998047h.2998047c2.2407227,0,2.7807617-.4404297,2.7807617-1.7402344,0-.3007812,0-.5800781-.0200195-.8408203-3.1806641,2.7207031-7.5415039,3.7011719-7.5415039,3.7011719l-1.2001953-1.6201172s5.5810547-1.140625,8.4814453-4.1416016c-.0795898-.3994141-.199707-.7597656-.2998047-1.0800781-2.7407227,2.2207031-6.9013672,3.4414062-6.9013672,3.4414062l-1.2001953-1.6210938s4.5209961-.9199219,7.3813477-3.3203125c-.2402344-.3398438-.4399414-.5800781-.6000977-.7607422-1.3203125.8408203-2.9604492,1.5205078-4.7412109,1.9404297l-1.2001953-1.7402344c2.640625-.3994141,4.8212891-1.2998047,5.78125-2.2402344h-4.0805664v-1.7001953h11.7822266v1.7001953h-2.2802734c.1401367,1.2802734.4399414,2.6005859.9399414,3.8613281.7802734-.7207031,1.5004883-1.6611328,2.1206055-2.6806641l1.8203125,1.3398438c-.9799805,1.3203125-1.9404297,2.3808594-3.0004883,3.2607422.8798828,1.4599609,2.0205078,2.7607422,3.5405273,3.8007812l-1.4003906,1.6005859Z"/>
      <path class="cls-1" d="m185.3442383,58.5791016c-.4804688.9003906-1.2402344,1.8798828-2.0805664,2.7402344l-1.5405273-1.3603516c.1801758-.1396484.3803711-.2998047.5200195-.4394531h-3.5605469v1.8398438h3.6806641v5.1816406c0,5.2011719-.4199219,5.78125-3.2607422,5.78125l-.7998047-1.9003906c1.9804688,0,2.1801758,0,2.1801758-3.78125v-3.4804688h-1.8203125c-.1201172,3.4804688-.4599609,7.1816406-2.0004883,9.5615234l-1.4404297-1.7402344c1.5004883-2.6005859,1.5805664-6.0214844,1.5805664-10.0820312v-1.3798828h-1.300293v-1.8007812h2.4604492v-3.0009766h1.9604492v3.0009766h2.6206055v1.5c1.8603516-1.9599609,2.4804688-4.4804688,2.4804688-4.4804688l2.0205078.2802734s-.2402344.7197266-.7402344,1.7597656h6.8413086v1.8007812h-7.8012695Zm6.5810547,14.0429688c-1.7802734-1.3203125-2.8803711-2.7607422-3.640625-4.4013672-.6000977,1.5410156-2.1806641,3.3613281-4.440918,4.5009766l-1.1601562-1.8798828c2.7207031-.9804688,3.9208984-2.6611328,4.2807617-4.1210938h-3.7607422v-1.7001953h3.980957v-2.4404297h-1.1005859c-.4199219.6601562-.9399414,1.4804688-1.5800781,2.1005859l-1.4003906-1.2607422c2.0405273-1.7402344,2.7006836-4.2011719,2.7006836-4.2011719l1.7602539.3203125s-.1601562.5605469-.5200195,1.3808594h5.3813477v1.6601562h-3.3408203v2.4404297h3.7207031v1.7001953h-3.4609375c.3603516,1.1201172,1.340332,2.7001953,3.8808594,4.0410156l-1.300293,1.8603516Z"/>
      <path class="cls-1" d="m206.699707,70.1015625c3.0205078-.3603516,6.0810547-2.1601562,6.0810547-6.5810547,0-2.9814453-1.840332-5.0820312-4.980957-5.4814453-.5400391,4.4609375-1.5600586,8.9619141-3.0004883,11.2021484-.9204102,1.5400391-2.0205078,1.8408203-2.8808594,1.8408203-1.800293,0-4.0605469-2.1210938-4.0605469-6.0419922,0-4.9404297,3.5805664-8.9414062,8.9819336-8.9414062,5.0410156,0,8.0214844,3.140625,8.0214844,7.4814453,0,5.78125-4.0410156,8.1816406-8.1616211,8.4619141v-1.9404297Zm-6.9013672-5.0615234c0,2.5410156,1.300293,4.0009766,2.1000977,4.0009766.4804688,0,1.0004883-.2197266,1.7207031-1.7802734,1-2.140625,1.8203125-6.2011719,2.1801758-9.2617188-3.8007812.4199219-6.0009766,3.5810547-6.0009766,7.0410156Z"/>
      <path class="cls-1" d="m225.5322266,70.0009766v-15.4423828h6.5014648v1.9394531h-4.5610352v13.5029297h-1.9404297Z"/>
      <path class="cls-1" d="m250.4350586,71.1015625c-2.1801758.3398438-4.5805664.6005859-7.0214844.6005859-4.9208984,0-8.421875-1.3408203-8.421875-4.7011719,0-1.7802734,1.2006836-3.5410156,2.5410156-4.8408203h2.7602539c-1.7001953,1.2802734-3.140625,3.140625-3.140625,4.5800781,0,2.0205078,2.3208008,2.9609375,6.1616211,2.9609375,2.5205078,0,4.8007812-.3203125,7.1210938-.7001953v2.1005859Zm-14.0029297-12.2626953v-2h13.0830078v2h-13.0830078Z"/>
      <path class="cls-1" d="m273.6958008,70.7216797c-.8603516.4199219-1.8603516.7597656-2.7607422.7597656-1.4003906,0-2.5205078-.6201172-2.5205078-3.2001953v-6.8818359c0-1.2001953-.2797852-2.4599609-1.7602539-2.4599609-1.800293,0-4.0009766,2.5800781-5.0410156,3.9804688v9.5224609h-2.0004883v-6.8417969c-.9003906,1.4599609-2.3603516,3.3808594-3.6606445,4.8408203v-2.9003906c1.1201172-1.4003906,2.5004883-3.2412109,3.6606445-5.2216797v-1.3203125h-3.6606445v-1.9003906h3.6606445v-3.7802734h2.0004883v4.8408203c1.1601562-1.2998047,2.9604492-3.2402344,5.3007812-3.2402344,2.640625,0,3.5410156,1.9804688,3.5410156,4.0410156v7.1611328c0,1.1005859.2797852,1.2597656.8999023,1.2597656.6601562,0,1.5605469-.4794922,2.3408203-1v2.3408203Z"/>
      <path class="cls-1" d="m283.3989258,69.4814453c.7001953.3203125,1.9204102.7197266,2.9008789.7197266,1.840332,0,2.7207031-1.9199219,2.7207031-6.0410156,0-2.9404297-.4003906-3.5810547-2.6606445-3.5810547h-2.4604492c-.800293,4.1611328-1.9204102,7.9423828-3.3608398,11.5625h-2.3408203c1.7006836-3.640625,2.9208984-7.5214844,3.6611328-11.5625h-3.6811523v-1.8603516h4.0009766c.1601562-1.0800781.300293-2.1806641.4204102-3.2607422h2.1201172c-.1401367,1.1005859-.2998047,2.1806641-.4799805,3.2607422h2.1005859c3.4003906,0,4.7407227.6806641,4.7407227,5.4414062,0,5.9013672-1.4003906,7.9814453-4.5209961,7.9814453-1.2202148,0-2.4804688-.3398438-3.1606445-.6201172v-2.0400391Zm10.5825195-3.7207031c-.5-3.0810547-1.5805664-5.9414062-3.3808594-8.5625h2.4003906c1.5605469,2.5205078,2.6206055,5.6015625,3.1206055,8.5625h-2.1401367Z"/>
      <path class="cls-1" d="m303.1147461,69.6816406c1.2202148.2197266,2.7407227.4599609,4.8012695.4599609,4.0205078,0,6.8613281-1.3603516,6.8613281-3.8808594,0-1.6806641-1.4204102-3.0009766-4.1411133-3.0009766-3.640625,0-6.2211914,1.7802734-7.7016602,3.4013672h-1.8603516l1.0405273-7.8417969h2.0004883l-.7802734,5.1005859c1.300293-1.0195312,3.7807617-2.5400391,7.3212891-2.5400391,4.1811523,0,6.2617188,2.0800781,6.2617188,4.8203125,0,3.6816406-3.1210938,5.8417969-8.9418945,5.8417969-2.2207031,0-3.6811523-.2001953-4.8613281-.4199219v-1.9404297Zm11.5825195-11.5224609c-3.7207031-.2802734-8.7817383-.4404297-12.1826172-.4404297v-1.8603516c3.5805664,0,8.421875.1201172,12.1826172.3798828v1.9208984Z"/>
      <path class="cls-1" d="m320.7836914,73.0419922v-1.9199219h4.5410156v-13.4833984h1.9404297v15.4238281l-6.4814453-.0205078Z"/>
      <path class="cls-1" d="m353.715332,71.5615234c-1.6801758.2607422-4.2207031.6005859-6.9013672.6201172h-.0800781c-6.3813477,0-8.7617188-2.3203125-8.7617188-5.2011719,0-3.0605469,2.5405273-4.9804688,6.2011719-6.1210938-.2602539-1.7001953-.6801758-5.2412109-.6801758-5.2412109h2.1806641s.2998047,2.9208984.5200195,4.7216797c2.2202148-.5205078,4.7207031-.8007812,7.2016602-.9003906v2.0205078c-7.2016602.2197266-13.2832031,1.9199219-13.2832031,5.4003906,0,2.3007812,2.5205078,3.3408203,6.7416992,3.3408203,2.2602539,0,4.6210938-.2792969,6.8613281-.7001953v2.0605469Z"/>
      <path class="cls-1" d="m361.8588867,72.5214844c-.9204102-1.3398438-2.0205078-2.9404297-3.5009766-4.4609375h2.5605469c1.1801758,1.2402344,2.3408203,2.8007812,3.5009766,4.4814453l-2.5605469-.0205078Z"/>
      <path class="cls-1" d="m9.9418945,113.8164062c2.5605469-.2792969,5.6010742-1.7998047,5.6010742-6.0605469,0-2.5205078-1.4003906-4.6611328-4.2807617-4.6611328-2.0805664,0-3.8408203,1.3603516-5.0410156,2.9804688v10.1025391h-1.9804688v-7.0419922c-.9404297,1.4404297-2.4003906,3.3603516-3.6606445,4.7607422v-2.8203125c1.1201172-1.2597656,2.5004883-3.140625,3.6606445-5.1005859v-1.2207031H.6401367v-1.9003906h3.6005859v-3.8007812h1.9804688v4.5810547c.9399414-1.0605469,2.7207031-2.4404297,5.2011719-2.4404297,4.2807617,0,6.1811523,3.2607422,6.1811523,6.5615234,0,5.7207031-4.0009766,7.6210938-7.6616211,7.9609375v-1.9003906Z"/>
      <path class="cls-1" d="m34.4921875,116.0576172c-2.8203125-2.2607422-6.0610352-4.4814453-9.1816406-6.6220703-1.0805664-.7597656-2.2006836-1.3203125-2.2006836-2.5205078,0-1.0195312.9003906-1.7001953,2.4404297-2.4599609,2.9609375-1.4609375,6.581543-3.1210938,11.7426758-5.1210938v2.1601562c-4.2807617,1.6806641-7.921875,3.2207031-10.722168,4.640625-.5800781.2802734-.9604492.5410156-.9604492.7802734,0,.2802734.4404297.5800781.8603516.8808594,3.8608398,2.5800781,7.2416992,4.8808594,11.3823242,8.28125l-3.3608398-.0195312Z"/>
      <path class="cls-1" d="m52.1879883,113.8164062c2.5605469-.2792969,5.6010742-1.7998047,5.6010742-6.0605469,0-2.5205078-1.4003906-4.6611328-4.2807617-4.6611328-2.0805664,0-3.8408203,1.3603516-5.0410156,2.9804688v10.1025391h-1.9804688v-7.0419922c-.9404297,1.4404297-2.4003906,3.3603516-3.6606445,4.7607422v-2.8203125c1.1201172-1.2597656,2.5004883-3.140625,3.6606445-5.1005859v-1.2207031h-3.6005859v-1.9003906h3.6005859v-3.8007812h1.9804688v4.5810547c.9399414-1.0605469,2.7207031-2.4404297,5.2011719-2.4404297,4.2807617,0,6.1811523,3.2607422,6.1811523,6.5615234,0,5.7207031-4.0009766,7.6210938-7.6616211,7.9609375v-1.9003906Z"/>
      <path class="cls-1" d="m76.7382812,116.0576172c-2.8203125-2.2607422-6.0610352-4.4814453-9.1816406-6.6220703-1.0805664-.7597656-2.2006836-1.3203125-2.2006836-2.5205078,0-1.0195312.9003906-1.7001953,2.4404297-2.4599609,2.9609375-1.4609375,6.581543-3.1210938,11.7426758-5.1210938v2.1601562c-4.2807617,1.6806641-7.921875,3.2207031-10.722168,4.640625-.5800781.2802734-.9604492.5410156-.9604492.7802734,0,.2802734.4404297.5800781.8603516.8808594,3.8608398,2.5800781,7.2416992,4.8808594,11.3823242,8.28125l-3.3608398-.0195312Z"/>
      <path class="cls-1" d="m98.3505859,103.4150391v4.2607422c0,6.0214844-3.3208008,8.1015625-9.1821289,8.5019531v-1.9404297c3.6206055-.2402344,5.6411133-1.3203125,6.5014648-3.28125-.6801758.3798828-1.5805664.7001953-2.8408203.7001953-2.6005859,0-4.5009766-1.2998047-4.5009766-3.6005859,0-2.1201172,1.8007812-3.7011719,4.7011719-3.7011719,1.5605469,0,2.4804688.3808594,3.2407227.7607422v-1.7001953h-10.762207v-1.8603516h10.762207v-2.5410156h2.0805664v2.5410156h4.6010742v1.8603516h-4.6010742Zm-5.1611328,2.5400391c-1.8203125,0-2.940918.9199219-2.940918,2.0400391,0,1.3007812,1.0805664,2.0205078,2.9609375,2.0205078,1.9804688,0,3.1206055-.9599609,3.1206055-2.2597656,0-1.1005859-1.0800781-1.8007812-3.140625-1.8007812Z"/>
      <path class="cls-1" d="m117.7822266,114.1171875c2.0004883-.5,3.5610352-1.7001953,3.5610352-3.8007812,0-1.8408203-1.5805664-3.3007812-4.8413086-3.3007812-3.2407227,0-5.8012695.7001953-9.5820312,3.5205078v-2.1806641l10.2021484-6.6816406h-8.1416016v-1.8398438h11.8828125v1.5800781l-6.7016602,4.3408203c.6201172-.2197266,1.7402344-.4394531,3.0205078-.4394531,3.8007812,0,6.28125,1.9599609,6.28125,4.9609375,0,3.7001953-3.2402344,5.8613281-7.78125,5.8613281-3.5610352,0-6.4414062-1.2802734-6.4414062-3.5615234,0-1.2402344,1.1000977-2.7001953,3.6005859-2.7001953,2.7207031,0,4.4609375,1.6201172,4.940918,2.1005859v2.140625Zm-5.0410156-2.5410156c-1.2001953,0-1.6000977.5-1.6000977.9199219,0,1.3007812,2.5805664,1.9003906,4.2407227,1.9003906.800293,0,1.6005859-.0996094,2.3603516-.2597656-.9599609-.9599609-2.9604492-2.5605469-5.0009766-2.5605469Z"/>
      <path class="cls-1" d="m145.7978516,114.2167969c-1.3203125-.9003906-3.8208008-2.4804688-6.6416016-3.5205078v.4599609c0,3.5009766-2.0605469,5.0410156-5.3208008,5.0410156-3.1811523,0-5.2211914-1.6005859-5.2211914-4.1210938s2.0800781-4.2001953,5.5410156-4.2001953c1.0200195,0,2.0205078.1191406,3.0004883.2998047v-9.0224609h2.0004883v3.2412109h6.4614258v1.8398438h-6.4614258v4.4814453c2.7607422.8798828,5.1411133,2.2802734,6.6416016,3.2001953v2.3007812Zm-8.6420898-4.140625c-1.0200195-.2197266-2.0400391-.3798828-3.0405273-.3798828-2.2006836,0-3.5805664.8193359-3.5805664,2.3203125,0,1.6201172,1.5400391,2.3408203,3.2807617,2.3408203,2.0200195,0,3.340332-.7607422,3.340332-3.4814453v-.7998047Z"/>
      <path class="cls-1" d="m153.3925781,113.9169922c6.1411133-.1601562,11.0019531-1.7802734,11.0019531-5.3212891,0-1.8408203-1.6000977-2.9404297-4.9008789-2.9404297-3.5605469,0-7.2216797.8603516-8.8217773,1.2998047v-2.0400391c1.6201172-.4003906,5.0610352-1.2001953,9.0620117-1.2001953,4.2006836,0,6.8413086,1.5605469,6.8413086,4.8408203,0,4.8212891-4.940918,7.0810547-13.1826172,7.3017578v-1.9404297Zm10.6621094-11.8027344c-3.4208984-.2998047-7.581543-.3203125-11.3222656-.3203125v-1.9199219c3.4804688,0,7.7817383,0,11.3222656.2402344v2Z"/>
      <path class="cls-1" d="m170.7661133,114.0771484c1.7402344-3.4208984,3.0205078-7.0820312,3.9003906-10.5625h-2.9804688v-1.8408203h3.4208984c.2001953-.8994141.3398438-1.7802734.4799805-2.6201172h2.1005859c-.1601562.9003906-.300293,1.7607422-.5,2.6201172h3.7006836v1.8408203h-4.1411133c-.9799805,3.8203125-2.2802734,7.3017578-3.6606445,10.5625h-2.3203125Zm17.9238281.0595703c-.800293-.6601562-1.8208008-1.4804688-3.0009766-2.1806641-.0600586,3.0410156-2.0605469,4.3408203-4.8808594,4.3408203-3.0405273,0-4.940918-1.4599609-4.940918-3.7607422,0-2.3203125,1.9604492-3.8603516,4.8808594-3.8603516,1.1000977,0,2.0805664.1601562,2.9804688.4003906v-5.5615234h-1.6000977v-1.8408203h6.3012695v1.8408203h-2.7407227v6.3212891c1.4204102.6601562,2.4208984,1.4599609,3.0009766,1.8808594v2.4199219Zm-4.9614258-3.1601562c-.9199219-.3603516-1.9003906-.5800781-2.9404297-.5800781-2.1005859,0-3.1005859.8994141-3.1005859,2.0800781,0,1.4199219,1.2802734,2.0605469,3.0205078,2.0605469s3.0205078-.7802734,3.0205078-3.0810547v-.4794922Z"/>
      <path class="cls-1" d="m199.1005859,113.7763672v-15.4423828h6.5014648v1.9394531h-4.5610352v13.5029297h-1.9404297Z"/>
      <path class="cls-1" d="m223.2866211,116.4970703v-.7402344h-8.4819336v.7402344h-2.0004883v-4.7001953c-.5800781.2998047-1.2602539.5800781-1.9404297.7998047l-.840332-1.8408203c1.5405273-.2792969,3.0810547-.8203125,4.0810547-1.4199219h-3.5805664v-1.4199219h5.3208008c.300293-.2607422.5600586-.5410156.6801758-.7607422h-4.5610352v-5.4013672h3.0009766v-.859375h-4.4609375v-1.4804688h4.4609375v-.9208984h2.0004883v.9208984h4.1206055v-.9208984h2.0004883v.9208984h4.4609375v1.4804688h-4.4609375v.859375h3.0605469v5.4013672h-7.1416016c-.159668.2597656-.3398438.4804688-.6000977.7607422h9.1420898v1.4199219h-3.6606445c.8398438.5400391,2.3203125,1.1201172,4.140625,1.5l-.7797852,1.8808594c-.7402344-.2802734-1.4404297-.6201172-1.9604492-.9404297v4.7207031h-2.0004883Zm.8598633-13.5429688h-10.1821289v.8808594h10.1821289v-.8808594Zm0,2.0410156h-10.1821289v.9599609h10.1821289v-.9599609Zm-.8598633,6.4414062h-8.4819336v.9003906h8.4819336v-.9003906Zm0,2.1005859h-8.4819336v.9394531h8.4819336v-.9394531Zm-6.5014648-4.2011719c-.340332.2998047-.800293.6201172-1.2602539.8603516h7.0214844c-.3803711-.3007812-.7602539-.640625-.9604492-.8603516h-4.8007812Zm4.3007812-8.4414062h-4.1206055v.859375h4.1206055v-.859375Z"/>
      <path class="cls-1" d="m235.3164062,113.4570312c1.2202148.2197266,2.7407227.4599609,4.8012695.4599609,4.0205078,0,6.8613281-1.3603516,6.8613281-3.8808594,0-1.6806641-1.4204102-3.0009766-4.1411133-3.0009766-3.640625,0-6.2211914,1.7802734-7.7016602,3.4013672h-1.8603516l1.0405273-7.8417969h2.0004883l-.7802734,5.1005859c1.300293-1.0195312,3.7807617-2.5400391,7.3212891-2.5400391,4.1811523,0,6.2617188,2.0800781,6.2617188,4.8203125,0,3.6816406-3.1210938,5.8417969-8.9423828,5.8417969-2.2202148,0-3.6806641-.2001953-4.8608398-.4199219v-1.9404297Zm11.5825195-11.5224609c-3.7207031-.2802734-8.7817383-.4404297-12.1826172-.4404297v-1.8603516c3.5805664,0,8.421875.1201172,12.1826172.3798828v1.9208984Z"/>
      <path class="cls-1" d="m269.949707,106.1152344c-.4204102,6.4414062-3.5410156,9.8417969-8.3818359,9.8417969-3.2407227,0-6.3413086-1.2001953-6.3413086-6.0410156v-10.3417969h2.0605469v10.3613281c0,3.2011719,2.1201172,4.0615234,4.3208008,4.0615234,3.4008789,0,5.78125-2.3408203,6.2412109-7.8818359h2.1005859Z"/>
      <path class="cls-1" d="m273.2758789,116.8173828v-1.9199219h4.5410156v-13.4833984h1.9404297v15.4238281l-6.4814453-.0205078Z"/>
      <path class="cls-1" d="m305.9594727,115.7167969c-1.3803711.2001953-3.0209961.3203125-4.8413086.3203125-3.9208984,0-7.1811523-.7597656-7.1811523-3.9003906,0-2.1611328,2.4604492-4.0410156,5.7607422-5.28125-.2998047-.4199219-.699707-.6201172-1.2202148-.6201172-1.5400391,0-3.140625.8603516-5.1811523,2.7802734-.6796875.640625-1.7802734,1.8007812-3.0004883,2.9609375v-2.5205078c2.0205078-1.9208984,3.8007812-4.0810547,5.1811523-6.4414062h-4.6811523v-1.8007812h5.6416016c.3398438-.7197266.6201172-1.4199219.8999023-2.140625h2.140625c-.300293.7802734-.6000977,1.4804688-.9204102,2.140625h7.5415039v1.8007812h-8.4814453c-.5800781.9804688-1.1601562,1.8203125-1.7207031,2.6005859.5605469-.4404297,1.8408203-.9804688,2.8208008-.9804688,1.340332,0,2.2407227.5,2.8208008,1.5800781,1.6601562-.4599609,3.4003906-.7998047,5.1210938-.9599609v1.9404297c-1.6005859.1396484-3.140625.4404297-4.5610352.8203125.2197266,1.1601562.3198242,2.7001953.3198242,4.6210938h-1.9204102c0-1.6601562-.0400391-3.0410156-.2197266-4.0605469-2.5205078.8994141-4.2612305,2.1601562-4.2612305,3.4804688,0,1.6201172,2.0605469,2.140625,5.0610352,2.140625,1.5805664,0,3.1806641-.1601562,4.8813477-.4003906v1.9199219Z"/>
      <path class="cls-1" d="m328.2714844,116.3974609c-3.0605469-.7998047-5.78125-1.9609375-7.7416992-3.2011719-1.9804688,1.2802734-4.8408203,2.6005859-8.3417969,3.3007812l-.8603516-2.1005859c3.1606445-.4794922,5.7412109-1.4599609,7.4819336-2.4599609-2.2807617-1.7802734-3.5009766-3.640625-4.0009766-4.8212891h-2.300293v-1.7998047h6.8012695v-2.8808594h-7.5615234v-1.8007812h7.5615234v-2.140625h1.9604492v2.140625h7.5214844v1.8007812h-7.5214844v2.8808594h5.4609375v1.7597656s-1.0400391,2.4208984-4.4208984,4.9414062c1.7006836.9599609,4.1210938,1.7597656,6.9614258,2.3798828l-1,2.0009766Zm-11.3022461-9.2822266c.3598633.9199219,1.6201172,2.4003906,3.6005859,3.8007812,3.0605469-1.9804688,3.8007812-3.8007812,3.8007812-3.8007812h-7.4013672Z"/>
      <path class="cls-1" d="m351.1474609,115.296875c-.6401367.2001953-2.7607422.6201172-4.3608398.6201172-2.5205078,0-3.6611328-.6396484-3.6611328-2.7607422v-1.2998047c0-1.0800781-.2197266-1.2802734-1.0200195-1.2802734-.4599609,0-1.3803711.3603516-2.1606445.9404297-1.7402344,1.2402344-4.5009766,3.5400391-5.6411133,4.6210938v-2.5810547c2.5805664-2.2001953,6.3613281-5.2011719,10.1220703-8.0419922h-8.921875v-1.9003906h12.8027344v1.5410156c-1.7202148,1.2001953-4.5209961,3.3203125-5.3208008,3.9003906.1196289-.0400391.3198242-.0996094.4799805-.0996094,1.1801758,0,1.7202148.4599609,1.7202148,2.0400391v1.1005859c0,1.4199219.3603516,1.8798828,1.840332,1.8798828,1.2802734,0,3.1606445-.4199219,4.1210938-.7197266v2.0400391Zm-3.0009766-13.4228516c-3.4003906-.2001953-7.7612305-.3193359-11.1220703-.359375v-1.8613281c3.6806641.0205078,7.6816406.1201172,11.1220703.2802734v1.9404297Z"/>
      <path class="cls-1" d="m368.8510742,115.7773438c-6.1411133,0-9.8818359-2.3203125-9.8818359-6.7011719,0-2.8408203,2-5.28125,4.6806641-6.7421875l-8.8618164.3007812v-2.0009766l16.2836914-.3603516v1.9609375l-2.3208008.0800781c-3.8608398.4599609-7.7016602,3.3203125-7.7016602,6.5810547,0,3.7412109,3.7407227,4.8408203,8.2617188,4.8408203v2.0410156h-.4599609Z"/>
      <path class="cls-1" d="m385.4257812,113.7363281c-.7197266.5410156-2.4804688,1.8007812-4.3608398,1.8007812-2.5205078,0-4.5410156-2.0205078-4.5410156-7.7412109,0-3.0009766.4204102-5.7617188.800293-7.6220703h2.1005859c-.5600586,2.5205078-.8603516,5.1210938-.8603516,7.8017578,0,3.4804688.9003906,5.5214844,2.7207031,5.5214844,1.5004883,0,3.1206055-1.3408203,4.140625-2.2607422v2.5Zm5.1210938-.0195312c0-4.9208984-.5800781-8.9023438-3.7006836-13.1230469h2.4003906c2.1806641,3.0810547,3.4008789,6.921875,3.4008789,13.1230469h-2.1005859Z"/>
      <path class="cls-1" d="m409.300293,116.0576172c-2.8203125-2.2607422-6.0610352-4.4814453-9.1816406-6.6220703-1.0800781-.7597656-2.2006836-1.3203125-2.2006836-2.5205078,0-1.0195312.9003906-1.7001953,2.4404297-2.4599609,2.9609375-1.4609375,6.581543-3.1210938,11.7426758-5.1210938v2.1601562c-4.2807617,1.6806641-7.921875,3.2207031-10.722168,4.640625-.5800781.2802734-.9604492.5410156-.9604492.7802734,0,.2802734.4404297.5800781.8603516.8808594,3.8608398,2.5800781,7.2416992,4.8808594,11.3823242,8.28125l-3.3608398-.0195312Z"/>
      <path class="cls-1" d="m417.4179688,107.6953125c.5400391-1.3798828.6201172-3.6601562.6201172-4.9003906,0-.5205078-.0200195-.8603516-.0200195-.8603516l1.7001953.1396484s.0200195.2802734.0200195.7402344c0,1.2207031-.0800781,3.7607422-.6401367,5.5810547l-1.6801758-.7001953Zm2.7001953,8.8017578v-18.0039062h1.9204102v3.8408203l1.2207031-.5800781s.8398438,1.9208984,1.3398438,3.6611328l-1.6401367.7802734c-.2602539-1.3808594-.7001953-2.8007812-.9204102-3.4609375v13.7626953h-1.9204102Zm14.1230469-.0800781c-3.0605469-1.8603516-4.5410156-4.8408203-5.1811523-6.640625-.6601562,2.4404297-2.1201172,5.0410156-4.9208984,6.7207031l-1.4003906-1.6396484c2.5004883-1.3408203,4.1210938-3.28125,4.6611328-5.5820312h-3.7207031v-1.7998047h4.0209961c.0395508-.4599609.0595703-.9404297.0595703-1.4404297v-2.8007812h-3.1005859v-1.6601562h3.1005859v-3.0810547h1.9604492v3.0810547h4.1611328v5.9013672h1.4804688v1.7998047h-4.8813477c.5400391,1.3808594,2.1005859,3.9208984,5.1210938,5.4814453l-1.3603516,1.6601562Zm-2.2202148-13.1826172h-2.3007812v2.8408203c0,.4804688,0,.9404297-.0400391,1.4003906h2.3408203v-4.2412109Z"/>
      <path class="cls-1" d="m447.9814453,115.8769531c-1.9604492,0-3.4003906-.6601562-4.3608398-1.5996094-.4599609.7197266-1.2402344,1.5195312-2.2006836,2.2197266l-1.2602539-1.7597656c1.7207031-1.0800781,2.3408203-2.1806641,2.3408203-2.1806641v-4.9013672h-2.1005859v-1.7998047h4.0610352v6.6005859c.7202148.9804688,1.5200195,1.7011719,3.6005859,1.7011719l10.1020508-.1005859-.3999023,1.8203125h-9.7822266Zm-5.0810547-12.7421875s-1.1000977-1.640625-2.4003906-3.0605469l1.4804688-1.1201172c1.340332,1.5400391,2.4404297,3.0800781,2.4404297,3.0800781l-1.5205078,1.1005859Zm10.8823242,8.9013672h-5.4008789v-4.1806641h2.2202148v-1.2001953h-2.5605469v-1.4003906h2.5605469v-1.1005859h-3.0805664v9.0820312h-1.8603516v-10.5615234h2.7006836c-.300293-.6201172-.6201172-1.1806641-.8603516-1.5410156h-2.2407227v-1.5400391h5.1210938v-1.1005859h2.0004883v1.1005859h5.2612305v1.5400391h-2.2802734c-.2001953.5400391-.4804688,1.1201172-.7602539,1.5410156h2.7006836v8.2216797c0,2.5205078-1.300293,2.5-2.9208984,2.5605469l-.6000977-1.4208984Zm-4.1606445-10.9023438c.2397461.4003906.5600586,1.0410156.7597656,1.5410156h2.1606445c.3203125-.4609375.6201172-1.0205078.840332-1.5410156h-3.7607422Zm3.2006836,8.0820312h-2.7607422v1.4599609h2.7607422v-1.4599609Zm2.640625-5.0615234h-3.0810547v1.1005859h2.6206055v1.4003906h-2.6206055v1.2001953h2.1206055v3.8212891c.5600586,0,.9604492,0,.9604492-.640625v-6.8818359Z"/>
      <path class="cls-1" d="m462.7021484,114.0771484c1.7402344-3.4208984,3.0205078-7.0820312,3.9008789-10.5625h-2.980957v-1.8408203h3.4208984c.199707-.8994141.3398438-1.7802734.4799805-2.6201172h2.1005859c-.1601562.9003906-.300293,1.7607422-.5,2.6201172h3.7006836v1.8408203h-4.1411133c-.9799805,3.8203125-2.2802734,7.3017578-3.6606445,10.5625h-2.3203125Zm17.9238281.0595703c-.800293-.6601562-1.8208008-1.4804688-3.0009766-2.1806641-.0600586,3.0410156-2.0600586,4.3408203-4.8808594,4.3408203-3.0405273,0-4.940918-1.4599609-4.940918-3.7607422,0-2.3203125,1.9604492-3.8603516,4.8808594-3.8603516,1.1000977,0,2.0805664.1601562,2.9804688.4003906v-5.5615234h-1.6000977v-1.8408203h6.3012695v1.8408203h-2.7407227v6.3212891c1.4204102.6601562,2.4204102,1.4599609,3.0009766,1.8808594v2.4199219Zm-4.9614258-3.1601562c-.9199219-.3603516-1.9003906-.5800781-2.9404297-.5800781-2.1005859,0-3.1005859.8994141-3.1005859,2.0800781,0,1.4199219,1.2802734,2.0605469,3.0205078,2.0605469s3.0205078-.7802734,3.0205078-3.0810547v-.4794922Z"/>
      <path class="cls-1" d="m486.6640625,116.4970703v-10.3623047c-.5800781.9003906-1.2602539,1.6210938-1.2602539,1.6210938l-1.0200195-1.8808594c1.6201172-1.640625,3.4204102-4.6806641,4.2006836-7.3818359l1.8803711.6005859c-.4599609,1.4804688-1.1601562,3.1005859-1.840332,4.3212891v13.0820312h-1.9604492Zm2.7207031-.7597656v-1.8007812h5.4008789v-4.3808594h-4.0605469v-1.7597656h4.0605469v-3.7011719h-4.8208008v-1.8007812h6.4414062c-.6601562-.5996094-1.9003906-1.5400391-3.4609375-2.4599609l1.3603516-1.3408203c2.0004883,1.1005859,3.7607422,2.6806641,3.7607422,2.6806641l-1.2001953,1.1201172h4.980957v1.8007812h-5.0410156v3.7011719h4.2011719v1.7597656h-4.2011719v4.3808594h5.6611328v1.8007812h-13.0825195Z"/>
      <path class="cls-1" d="m523.5698242,114.4169922c-1.300293-.9003906-3.4609375-2.3007812-5.8813477-3.2412109v.2607422c0,3.7207031-2.4804688,4.7412109-5.2011719,4.7412109-3.1206055,0-4.9609375-1.5605469-4.9609375-3.9013672,0-2.1201172,1.7001953-3.8603516,5.480957-3.8603516.9003906,0,1.800293.0996094,2.640625.2792969v-2.0400391h-8.1015625v-1.7001953h8.1015625v-2.1806641h-8.1015625v-1.7802734h8.1015625v-1.9609375h2.0405273v1.9609375h5.7211914v1.7802734h-5.7211914v2.1806641h5.7211914v1.7402344h-5.7211914v2.5205078c2.6206055.8603516,4.7807617,2.2207031,5.8813477,2.9404297v2.2607422Zm-7.921875-3.8808594c-.9204102-.2402344-1.8803711-.3798828-2.8007812-.3798828-2.3203125,0-3.3603516.9599609-3.3603516,2.1201172,0,1.2402344,1.1201172,2.0605469,2.9404297,2.0605469,2.1606445,0,3.2207031-.8603516,3.2207031-3.2402344v-.5605469Z"/>
      <path class="cls-1" d="m538.144043,113.7363281c-.7197266.5410156-2.4804688,1.8007812-4.3608398,1.8007812-2.5205078,0-4.5410156-2.0205078-4.5410156-7.7412109,0-3.0009766.4204102-5.7617188.800293-7.6220703h2.1005859c-.5600586,2.5205078-.8603516,5.1210938-.8603516,7.8017578,0,3.4804688.9003906,5.5214844,2.7207031,5.5214844,1.5004883,0,3.1206055-1.3408203,4.140625-2.2607422v2.5Zm5.1210938-.0195312c0-4.9208984-.5800781-8.9023438-3.7006836-13.1230469h2.4003906c2.1806641,3.0810547,3.4008789,6.921875,3.4008789,13.1230469h-2.1005859Z"/>
      <path class="cls-1" d="m553.4487305,116.3974609c-1.5605469,0-2.8208008-1.2802734-2.8208008-2.7802734,0-1.5605469,1.2602539-2.78125,2.8208008-2.78125,1.5200195,0,2.800293,1.2207031,2.800293,2.78125,0,1.5-1.2802734,2.7802734-2.800293,2.7802734Zm0-4.2412109c-.8203125,0-1.4404297.6601562-1.4404297,1.4609375,0,.7998047.6201172,1.4199219,1.4404297,1.4199219.7797852,0,1.4599609-.6201172,1.4599609-1.4199219,0-.8007812-.6801758-1.4609375-1.4599609-1.4609375Z"/>
      <path class="cls-1" d="m2.2802734,171.2158203v-10.3623047c-.5800781.9003906-1.2602539,1.6210938-1.2602539,1.6210938l-1.0200195-1.8808594c1.6201172-1.640625,3.4204102-4.6806641,4.2006836-7.3818359l1.8803711.6005859c-.4599609,1.4804688-1.1601562,3.1005859-1.840332,4.3212891v13.0820312h-1.9604492Zm2.7207031-.7597656v-1.8007812h5.4008789v-4.3808594h-4.0605469v-1.7597656h4.0605469v-3.7011719h-4.8208008v-1.8007812h6.4414062c-.6601562-.5996094-1.9003906-1.5400391-3.4609375-2.4599609l1.3603516-1.3408203c2.0004883,1.1005859,3.7607422,2.6806641,3.7607422,2.6806641l-1.2001953,1.1201172h4.980957v1.8007812h-5.0410156v3.7011719h4.2011719v1.7597656h-4.2011719v4.3808594h5.6611328v1.8007812H5.0009766Z"/>
      <path class="cls-1" d="m24.5883789,171.2158203v-11.3222656h-2.2407227v-1.7998047h2.2407227v-4.8818359h1.9604492v4.8818359h2.140625v1.7998047h-2.140625v11.3222656h-1.9604492Zm5.5209961-2.0800781c1.5805664,0,1.6606445-.0996094,1.6606445-4.6005859h-1.0205078c-.0600586,2.1601562-.7001953,4.640625-2.3603516,6.6806641l-1.6000977-1.3203125c1.4799805-1.5400391,2.1201172-3.3408203,2.1401367-5.3603516h-1.1601562v-1.7412109h1.300293c0-.5.0200195-.7998047.0200195-1.2802734h1.8203125c0,.4804688-.0200195.7802734-.0200195,1.2802734h2.6806641c0,6.8017578-.1000977,8.1425781-2.8608398,8.1425781l-.6000977-1.8007812Zm4.6811523-10.0625c2.1606445-.0400391,2.4604492-.1201172,2.4604492-2.4599609h-3.1206055c-.3398438,1.6796875-1.5205078,3.6005859-3.6206055,4.5810547l-1.5605469-1.3808594c1.7202148-.6796875,2.8007812-1.9199219,3.0605469-3.2001953h-2.2402344v-1.7402344h2.6806641c.159668-.7607422.199707-1.6611328.199707-1.6611328h2.0205078s-.0200195.9003906-.1601562,1.6611328h4.6811523c0,5.0810547-.4799805,5.9208984-3.8007812,6.0410156l-.6000977-1.8408203Zm1.7802734,10.0625c1.5605469,0,1.6606445-.0800781,1.6606445-3.1806641v-1.4199219h-.9204102c-.1201172,2.4199219-.6801758,4.640625-2.3603516,6.6611328l-1.5205078-1.3007812c1.3803711-1.3203125,2.0004883-3.5,2.0605469-5.3603516h-1.340332v-1.7412109h1.4804688c0-.5.0200195-.7998047.0200195-1.2802734h1.8203125c0,.4804688-.0200195.7802734-.0200195,1.2802734h2.5805664v1.8408203c0,5.3212891-.1201172,6.3017578-2.8608398,6.3017578l-.6000977-1.8007812Z"/>
      <path class="cls-1" d="m53.8857422,168.5957031c3.0205078-.3603516,6.0810547-2.1601562,6.0810547-6.5810547,0-2.9814453-1.840332-5.0820312-4.980957-5.4814453-.5400391,4.4609375-1.5600586,8.9619141-3.0004883,11.2021484-.9204102,1.5400391-2.0205078,1.8408203-2.8808594,1.8408203-1.800293,0-4.0605469-2.1210938-4.0605469-6.0419922,0-4.9404297,3.5805664-8.9414062,8.9819336-8.9414062,5.0410156,0,8.0214844,3.140625,8.0214844,7.4814453,0,5.78125-4.0410156,8.1816406-8.1616211,8.4619141v-1.9404297Zm-6.9013672-5.0615234c0,2.5410156,1.300293,4.0009766,2.1000977,4.0009766.4804688,0,1.0004883-.2197266,1.7207031-1.7802734,1-2.140625,1.8203125-6.2011719,2.1801758-9.2617188-3.8007812.4199219-6.0009766,3.5810547-6.0009766,7.0410156Z"/>
      <path class="cls-1" d="m72.4541016,159.0537109v-2.8007812c0-1.3203125.6401367-2.3603516,1.6005859-2.9609375l.7001953.9208984c-.6401367.359375-1.0205078,1.0195312-1.0205078,2h1.0004883v2.8408203h-2.2807617Zm3.8808594,0v-2.8007812c0-1.3203125.6401367-2.3603516,1.6005826-2.9609375l.7001987.9208984c-.6401367.359375-1.0205078,1.0195312-1.0205078,2h1.0004883v2.8408203h-2.2807617Z"/>
      <path class="cls-1" d="m93.3198242,170.5761719c-2.0200195-3.1611328-4.8608398-6.9013672-7.2412109-9.7021484h2.6606445c.8598633,1.0400391,1.8603516,2.3203125,2.8803711,3.6611328,3.1806641-1.5605469,5.4814453-4.0009766,6.4814453-7.6025391h-14.5229492v-1.9599609h17.1035156l-.0200195.1601562c-.7402344,5.7607422-3.8808594,9.1015625-7.8217773,10.9824219,1.1601562,1.5605469,2.2607422,3.1201172,3.1206055,4.4609375h-2.640625Z"/>
      <path class="cls-1" d="m115.4555664,170.5761719c-2.0200238-3.1611328-4.8608398-6.9013672-7.2412109-9.7021484h2.6606445c.8598633,1.0400391,1.8603516,2.3203125,2.8803711,3.6611328,3.1806641-1.5605469,5.4814453-4.0009766,6.4814453-7.6025391h-14.5229492v-1.9599609h17.1035156l-.0200195.1601562c-.7402344,5.7607422-3.8808594,9.1015625-7.8217773,10.9824219,1.1601562,1.5605469,2.2607422,3.1201172,3.1206055,4.4609375h-2.640625Z"/>
      <path class="cls-1" d="m144.1054688,170.7763672c-2.9003906-1.3603516-5.3208008-3.7607422-6.8613281-6.4414062-2.7006836,3.2207031-6.2612305,5.28125-9.6621094,6.2412109v-2.0810547c4.6611328-1.4794922,9.5620117-5.5810547,11.3022461-11.6621094h-10.4018555v-2h13.0424805c-.4599609,2.9404297-1.4799805,5.4404297-2.8603516,7.5810547,1.3803711,2.9404297,3.4804688,4.7607422,5.440918,6.0810547v2.28125Zm-2.3803711-14.3037109v-3.0605469h1.300293v3.0605469h-1.300293Zm2.1806641,0v-3.0605469h1.2802734v3.0605469h-1.2802734Z"/>
      <path class="cls-1" d="m149.2163086,168.3359375c2.9204102-3.1806641,4.0405273-7.7216797,4.140625-13.1230469v-.8007812h2.2207031v.7207031c-.1601562,7.6816406-2.2807617,12.8427734-6.3613281,15.703125v-2.5Zm17.043457,2.5205078c-4.0810547-2.8808594-6.2412109-8.0419922-6.4213867-15.7236328v-.7207031h2.2207031v.8007812c.0996094,5.4013672,1.2802734,9.9423828,4.2006836,13.1230469v2.5205078Z"/>
      <path class="cls-1" d="m171.918457,163.7548828c-.3198242-2.0410156-.9399414-4.7617188-1.6801758-6.8818359h1.9804688c.6801758,1.9609375,1.3203125,4.6210938,1.7402344,6.8818359h-2.0405273Zm1.6206055,5.1806641c6.78125-1.3798828,8.9819336-5.6806641,9.0820312-12.0224609v-.2197266h2.1401367v.2392578c-.2001953,7.921875-3.6206055,12.6035156-11.222168,13.9033203v-1.9003906Zm3.5405273-5.4013672c-.3398438-2.1201172-.8999023-4.640625-1.5800781-6.8613281h2.0004883c.659668,1.9609375,1.1801758,4.3808594,1.6000977,6.8613281h-2.0205078Z"/>
      <path class="cls-1" d="m195.875,170.3955078c-3.0805664,0-4.6611328-1.0595703-4.6611328-4.140625v-12.1621094h2.1606445v3.7802734h12.3227539v1.9609375h-12.3227539v6.0810547c0,1.8798828.8803711,2.5205078,2.9003906,2.5205078h9.8022461v1.9804688l-10.2021484-.0205078Zm8.3017578-13.2421875c-1.0800781,0-1.9804688-.9003906-1.9804688-1.9804688,0-1.1201172.9003906-2.0205078,1.9804688-2.0205078,1.1000977,0,2.0004883.9003906,2.0004883,2.0205078,0,1.0800781-.9003906,1.9804688-2.0004883,1.9804688Zm0-3.0605469c-.5800781,0-1.0400391.5-1.0400391,1.0800781,0,.5996094.4599609,1.0400391,1.0400391,1.0400391.6000977,0,1.0800781-.4404297,1.0800781-1.0400391,0-.5800781-.4799805-1.0800781-1.0800781-1.0800781Z"/>
      <path class="cls-1" d="m211.2280273,162.4541016v-2.0205078h16.5634766v2.0205078h-16.5634766Z"/>
      <path class="cls-1" d="m231.2246094,168.5957031c6.4013672-1.4404297,10.0419922-5.7011719,10.5419922-11.8623047h-12.7827148v-1.9804688h13.5429688c-.0200195-.0605469-.0200195-.1201172-.0200195-.1806641,0-1.0595703.8803711-1.9404297,1.9204102-1.9404297,1.0605469,0,1.9204102.8808594,1.9204102,1.9404297,0,1.0410156-.8598633,1.9208984-1.9204102,1.9208984-.1396484,0-.2597656-.0205078-.3999023-.0605469-.5200195,8.5019531-6.0415039,13.0830078-12.8027344,14.1230469v-1.9599609Zm13.2026367-15.0429688c-.5400391,0-1,.4394531-1,1.0195312,0,.5400391.4599609,1.0009766,1,1.0009766.5800781,0,1.0205078-.4609375,1.0205078-1.0009766,0-.5800781-.4404297-1.0195312-1.0205078-1.0195312Z"/>
      <path class="cls-1" d="m266.8393555,159.6933594c-.7397461,6.4013672-5.0009766,10.5830078-13.7026367,10.9423828v-1.9599609c6.2412109-.4804688,9.8217773-2.9208984,11.1020508-7.3613281h-13.8828125v-1.9208984h16.4833984v.2998047Zm-15.203125-3.0800781v-1.9804688h13.9228516v1.9804688h-13.9228516Z"/>
      <path class="cls-1" d="m287.675293,170.7763672c-2.9003906-1.3603516-5.3212891-3.7607422-6.8613281-6.4414062-2.7006836,3.2207031-6.2612305,5.28125-9.6621094,6.2412109v-2.0810547c4.6611328-1.4794922,9.5419922-5.5810547,11.3022461-11.6621094h-10.4023438v-2h13.0429688c-.4799805,2.9404297-1.5004883,5.4404297-2.8603516,7.5810547,1.3598633,2.9404297,3.4804688,4.7607422,5.440918,6.0810547v2.28125Z"/>
      <path class="cls-1" d="m291.4057617,158.4335938c.6401367-.3603516,1.0205078-1.0400391,1.0205078-2.0205078h-1.0004883v-2.8408203h2.2807617v2.8007812c0,1.3203125-.640625,2.3808594-1.6005859,2.9804688l-.7001953-.9199219Zm3.8808594,0c.6401367-.3603516,1.0200195-1.0400391,1.0200195-2.0205078h-1v-2.8408203h2.2802734v2.8007812c0,1.3203125-.6401367,2.3808594-1.6000977,2.9804688l-.7001953-.9199219Z"/>
      <path class="cls-1" d="m322.3671875,170.4960938c-6.1411133,0-9.8823242-2.3203125-9.8823242-6.7011719,0-2.8408203,2.0004883-5.28125,4.6811523-6.7421875l-8.8618164.3007812v-2.0009766l16.2836914-.3603516v1.9609375l-2.3208008.0800781c-3.8608398.4599609-7.7016602,3.3203125-7.7016602,6.5810547,0,3.7412109,3.7407227,4.8408203,8.2617188,4.8408203v2.0410156h-.4599609Zm-1.5800781-9.0625v-3.0205078h1.3798828v3.0205078h-1.3798828Zm2.3203125,0v-3.0205078h1.3803711v3.0205078h-1.3803711Z"/>
      <path class="cls-1" d="m339.5180664,170.7158203c-2.9008789,0-4.8813477-.9199219-6.2817383-2.1601562-.6601562.9599609-1.4599609,1.8798828-2.6206055,2.6601562l-1.3598633-1.6601562c1.1000977-.6601562,2.0400391-1.4404297,2.6000977-2.3603516-.7797852-1.140625-1.3398438-2.5410156-1.7602539-3.5605469l1.7602539-.8408203c.2602539.7607422.6005859,1.6806641,1.0004883,2.4013672.4199219-1.2607422.5200195-2.640625.5200195-3.5615234h-3.3408203v-1.5800781c1.6005859-1.8408203,3.1606445-4.4404297,3.1606445-4.4404297h-3.3803711v-1.8007812h5.5810547v1.6601562s-1.8203125,3.2011719-2.8408203,4.3613281h2.8608398c0,2.2197266-.1801758,4.6806641-1.1801758,7.0009766,1.2001953,1.2402344,2.9604492,2.0810547,5.3608398,2.0810547l7.7416992-.1005859-.6801758,1.9003906h-7.1411133Zm2.4204102-3.9208984v1.5205078h-1.9604492v-1.5205078h-4.6411133v-1.6201172h4.6411133v-1.2402344h-3.7207031v-1.4404297h3.7207031v-1.2001953h-3.7207031v-1.4404297h3.7207031v-1.2998047h-4.78125v-1.4804688h4.78125v-1.2207031h-3.640625v-1.4404297h3.640625v-1.2001953h1.9604492v1.2001953h4.2207031v2.6611328h.9804688v1.4804688h-.9804688v2.7402344h-4.2207031v1.2001953h4.1606445v1.4404297h-4.1606445v1.2402344h5.1411133v1.6201172h-5.1411133Zm2.3203125-10.9423828h-2.3203125v1.2207031h2.3203125v-1.2207031Zm0,2.7011719h-2.3203125v1.2998047h2.3203125v-1.2998047Z"/>
      <path class="cls-1" d="m366.3330078,170.4960938c-6.1411133,0-9.8823242-2.3203125-9.8823242-6.7011719,0-2.8408203,2.0004883-5.28125,4.6811523-6.7421875l-8.8618164.3007812v-2.0009766l16.2836914-.3603516v1.9609375l-2.3208008.0800781c-3.8608398.4599609-7.7016602,3.3203125-7.7016602,6.5810547,0,3.7412109,3.7407227,4.8408203,8.2617188,4.8408203v2.0410156h-.4599609Z"/>
      <path class="cls-1" d="m383.7099609,168.8359375c2.0004883-.5,3.5610352-1.7001953,3.5610352-3.8007812,0-1.8408203-1.5805664-3.3007812-4.8413086-3.3007812-3.2407227,0-5.8012695.7001953-9.5820312,3.5205078v-2.1806641l10.2021484-6.6816406h-8.1416016v-1.8398438h11.8828125v1.5800781l-6.7016602,4.3408203c.6201172-.2197266,1.7402344-.4394531,3.0205078-.4394531,3.8007812,0,6.28125,1.9599609,6.28125,4.9609375,0,3.7001953-3.2402344,5.8613281-7.78125,5.8613281-3.5610352,0-6.4414062-1.2802734-6.4414062-3.5615234,0-1.2402344,1.1000977-2.7001953,3.6005859-2.7001953,2.7207031,0,4.4609375,1.6201172,4.940918,2.1005859v2.140625Zm-5.0410156-2.5410156c-1.2001953,0-1.6000977.5-1.6000977.9199219,0,1.3007812,2.5805664,1.9003906,4.2407227,1.9003906.800293,0,1.6005859-.0996094,2.3603516-.2597656-.9599609-.9599609-2.9604492-2.5605469-5.0009766-2.5605469Z"/>
      <path class="cls-1" d="m405.3681641,170.9160156v-12.0224609h-1c-1.7006836,5.28125-5.3413086,9.5615234-10.0024414,11.3828125v-2.140625c3.5209961-1.7802734,6.28125-4.9208984,7.8017578-9.2421875h-7.6616211v-1.9609375h10.8623047v-3.1601562h2.140625v3.1601562h3.6005859v1.9609375h-3.6005859v12.0224609h-2.140625Z"/>
      <path class="cls-1" d="m424.8359375,158.2929688c-2.6206055-.6601562-5.5810547-1.2001953-8.121582-1.3994141v-2.1210938c2.5004883.2197266,5.5610352.7001953,8.121582,1.3007812v2.2197266Zm7.3017578-.8193359c-1.0800781,9.0810547-6.6816406,12.4619141-15.1630859,12.9023438v-2.0605469c6.8212891-.5800781,11.7822266-2.7607422,12.9023438-10.8417969h2.2607422Z"/>
      <path class="cls-1" d="m438.2641602,164.234375v-9.9619141h2.1806641v9.9619141h-2.1806641Zm1.8203125,4.3808594c6.5014648-.4199219,10.0424805-2.2402344,10.0424805-8.5214844v-5.8212891h2.2001953v5.78125c0,7.1611328-3.7607422,10.1425781-12.2426758,10.5419922v-1.9804688Z"/>
      <path class="cls-1" d="m458.4619141,162.4541016v-2.0205078h16.5634766v2.0205078h-16.5634766Z"/>
      <path class="cls-1" d="m485.2773438,168.5957031c6.2612305-1.3808594,8.9418945-5.2011719,9.0219727-11.9023438h-11.2426758v5.5605469h-2.1206055v-7.5214844h15.6035156v1.1601562c0,8.5224609-3.5805664,13.2226562-11.262207,14.6835938v-1.9804688Z"/>
      <path class="cls-1" d="m510.6015625,158.2929688c-2.6206055-.6601562-5.5810547-1.2001953-8.121582-1.3994141v-2.1210938c2.5004883.2197266,5.5610352.7001953,8.121582,1.3007812v2.2197266Zm7.3017578-.8193359c-1.0800781,9.0810547-6.6816406,12.4619141-15.1630859,12.9023438v-2.0605469c6.8212891-.5800781,11.7822266-2.7607422,12.9023438-10.8417969h2.2607422Z"/>
      <path class="cls-1" d="m531.5981445,168.5957031c3.0205078-.3603516,6.0810547-2.1601562,6.0810547-6.5810547,0-2.9814453-1.840332-5.0820312-4.980957-5.4814453-.5400391,4.4609375-1.5600586,8.9619141-3.0004883,11.2021484-.9204102,1.5400391-2.0205078,1.8408203-2.8808594,1.8408203-1.800293,0-4.0605469-2.1210938-4.0605469-6.0419922,0-4.9404297,3.5805664-8.9414062,8.9819336-8.9414062,5.0410156,0,8.0214844,3.140625,8.0214844,7.4814453,0,5.78125-4.0410156,8.1816406-8.1616211,8.4619141v-1.9404297Zm-6.9013672-5.0615234c0,2.5410156,1.300293,4.0009766,2.1000977,4.0009766.4804688,0,1.0004883-.2197266,1.7207031-1.7802734,1-2.140625,1.8203125-6.2011719,2.1801758-9.2617188-3.8007812.4199219-6.0009766,3.5810547-6.0009766,7.0410156Z"/>
      <path class="cls-1" d="m559.7211914,158.4130859v-2.2001953h-13.2827148v2.2207031h-1.9604492v-3.9208984h7.621582v-1.3007812h1.9604492v1.3007812h7.621582v3.9003906h-1.9604492Zm.9599609,12.1630859c-3.3803711-2.5410156-5.3808594-6.9414062-5.9609375-11.1826172h-1.0004883c-.2397461.2998047-.5200195.6005859-.8398438.9003906,1.0400391.9404297,2.3803711,2.9208984,2.3803711,7.3818359,0,3.0800781-1.5605469,3.5400391-4.2407227,3.5400391l-.800293-1.7998047h.2998047c2.2407227,0,2.7807617-.4404297,2.7807617-1.7402344,0-.3007812,0-.5800781-.0200195-.8408203-3.1806641,2.7207031-7.5415039,3.7011719-7.5415039,3.7011719l-1.2001953-1.6201172s5.5810547-1.140625,8.4814453-4.1416016c-.0795898-.3994141-.199707-.7597656-.2998047-1.0800781-2.7407227,2.2207031-6.9013672,3.4414062-6.9013672,3.4414062l-1.2001953-1.6210938s4.5209961-.9199219,7.3813477-3.3203125c-.2402344-.3398438-.4399414-.5800781-.6000977-.7607422-1.3203125.8408203-2.9604492,1.5205078-4.7412109,1.9404297l-1.2001953-1.7402344c2.640625-.3994141,4.8212891-1.2998047,5.78125-2.2402344h-4.0805664v-1.7001953h11.7822266v1.7001953h-2.2802734c.1401367,1.2802734.4399414,2.6005859.9399414,3.8613281.7802734-.7207031,1.5004883-1.6611328,2.1206055-2.6806641l1.8203125,1.3398438c-.9799805,1.3203125-1.9404297,2.3808594-3.0004883,3.2607422.8798828,1.4599609,2.0205078,2.7607422,3.5405273,3.8007812l-1.4003906,1.6005859Z"/>
      <path class="cls-1" d="m571.2148438,169.3359375v-1.9404297c6.3413086,0,10.2421875-1.8007812,10.2421875-5.4208984,0-2.28125-1.7006836-3.9208984-5.4414062-3.9208984-3.3007812,0-6.8613281.9394531-9.2617188,1.7402344v-2.0810547c2.300293-.7001953,5.7412109-1.6201172,9.3618164-1.6201172,5.4008789,0,7.5214844,2.4804688,7.5214844,5.7617188,0,4.7402344-4.0605469,7.4814453-11.8422852,7.4814453h-.5800781Zm8.2617188-13.0625v-2.9208984h1.3803711v2.9208984h-1.3803711Zm2.3203125,0v-2.9208984h1.3803711v2.9208984h-1.3803711Z"/>
      <path class="cls-1" d="m600.5644531,170.7763672c-2.8203125-2.2607422-6.0610352-4.4814453-9.1816406-6.6220703-1.0805664-.7597656-2.2006836-1.3203125-2.2006836-2.5205078,0-1.0195312.9003906-1.7001953,2.4404297-2.4599609,2.9609375-1.4609375,6.581543-3.1210938,11.7426758-5.1210938v2.1601562c-4.2807617,1.6806641-7.921875,3.2207031-10.722168,4.640625-.5800781.2802734-.9604492.5410156-.9604492.7802734,0,.2802734.4404297.5800781.8603516.8808594,3.8608398,2.5800781,7.2416992,4.8808594,11.3823242,8.28125l-3.3608398-.0195312Z"/>
      <path class="cls-1" d="m612.9887695,168.8359375c5.6015625-.2001953,8.8017578-2.0009766,8.8017578-7.3017578,0-2.3808594-.8398438-5.3808594-3.7006836-5.3808594-3.1606445,0-5.2612305,4.5009766-5.9208984,9.1816406h-1.9008789c.0600586-3.0009766.1201172-7.2011719.300293-10.8623047h2.0405273c-.1401367,1.2001953-.2402344,3.4404297-.300293,4.8613281.3203125-1.1806641,2.1206055-5.0810547,5.9814453-5.0810547,3.7407227,0,5.6611328,3.2998047,5.6611328,7.2412109,0,6.2011719-3.5405273,9.2021484-10.9624023,9.2617188v-1.9199219Z"/>
      <path class="cls-1" d="m631.5864258,171.1162109c-1.5605469,0-2.8208008-1.2802734-2.8208008-2.7802734,0-1.5605469,1.2602539-2.78125,2.8208008-2.78125,1.5200195,0,2.800293,1.2207031,2.800293,2.78125,0,1.5-1.2802734,2.7802734-2.800293,2.7802734Zm0-4.2412109c-.8203125,0-1.4404297.6601562-1.4404297,1.4609375,0,.7998047.6201172,1.4199219,1.4404297,1.4199219.7797852,0,1.4599609-.6201172,1.4599609-1.4199219,0-.8007812-.6801758-1.4609375-1.4599609-1.4609375Z"/>
    </g>
  </g>
</svg>