<?xml version="1.0" encoding="UTF-8"?>
<svg id="_レイヤー_2" data-name="レイヤー 2" xmlns="http://www.w3.org/2000/svg" xmlns:xlink="http://www.w3.org/1999/xlink" viewBox="0 0 55.7058312 179.8201211">
  <defs>
    <style>
      .cls-1 {
        filter: url(#drop-shadow-1);
      }

      .cls-2 {
        fill: #cb5080;
      }

      .cls-2, .cls-3 {
        stroke-width: 0px;
      }

      .cls-3 {
        fill: #fff;
      }
    </style>
    <filter id="drop-shadow-1" filterUnits="userSpaceOnUse">
      <feOffset dx="3" dy="3"/>
      <feGaussianBlur result="blur" stdDeviation="3"/>
      <feFlood flood-color="#000" flood-opacity="1"/>
      <feComposite in2="blur" operator="in"/>
      <feComposite in="SourceGraphic"/>
    </filter>
  </defs>
  <g id="_レイヤー_2-2" data-name="レイヤー 2">
    <g class="cls-1">
      <path class="cls-3" d="m37.3564828,179.8201211l-19.1242479-18.9935245L.0509249,179.0129201S-.1097024,51.8954365.1395933,32.8973799C.5877139-1.2514435,20.4167894.0059152,20.4167894.0059152h35.2890418S37.8927696.0059152,37.3194342,31.839753c-.3568499,19.8138735.0370485,147.9803681.0370485,147.9803681Z"/>
      <g>
        <path class="cls-2" d="m7.9414297,32.0254674c0-.5932617.03125-1.1870117.0625-1.7802734.0625-1.3120117.3125-2.3115234.40625-2.7797852.03125-.15625.0625-.25.125-.25.03125,0,.0932617.03125.1557617.09375.40625.3125,1.0307617.7182617,3.3735352.7182617h.25c1.4677734-.03125,2.9047852-.03125,4.2792969-.03125,3.1230469,0,5.9033203.03125,8.0893555.03125h1.5620117c1.4365234-.03125,2.6860352-.15625,2.9985352-1.9990234.03125-.125.125-.1875.21875-.1875.0625,0,.15625.0625.15625.125-.03125.53125-.0625,1.1245117-.0625,1.9052734,0,.6875.03125,1.4995117.1245117,2.5302734.0625.4995117.0625.9682617.0625,1.4052734,0,3.3110352-1.3115234,5.5913086-4.0917969,5.9033203-.1557617.03125-.3120117.03125-.4370117.03125-1.5927734,0-3.3110352-.9057617-4.7788086-3.2792969-.0625-.09375-.15625-.21875-.21875-.21875,0,0-.03125,0-.03125.03125-1.0932617,3.6542969-3.5610352,5.3413086-6.0283203,5.3413086-1.9677734,0-3.9667969-1.0932617-5.1850586-3.2172852-.8432617-1.4682617-1.0307617-2.9047852-1.0307617-4.3730469Zm5.4663086,5.0600586c2.7485352,0,5.8095703-1.8427734,6.1533203-5.1225586v-1.3740234c0-.25-.125-.46875-.40625-.5-.34375-.03125-6.4345703-.03125-7.027832-.03125-1.8427734.03125-2.3427734.25-2.8110352.9370117-.28125.40625-.4375,1.0620117-.4375,1.8115234,0,.9370117.25,1.9990234.9682617,2.8115234.8432617.9995117,2.1865234,1.4677734,3.5610352,1.4677734Zm11.1196289-1.8115234c.3120117,0,.6557617,0,.9682617-.03125,2.1547852-.15625,3.3730469-1.8427734,3.3730469-3.4672852,0-.4682617-.09375-.9057617-.2807617-1.3115234-.15625-.34375-.46875-.34375-.9995117-.34375-.28125,0-.90625.03125-1.1245117.03125-.1875,0-4.9038086-.03125-5.1850586-.03125-.53125,0-.7495117.03125-.7807617.53125-.03125.4682617-.09375.9682617-.09375,1.4365234,0,.7182617.125,1.4057617.4682617,1.7490234,1.0620117,1.1870117,2.3427734,1.4370117,3.6547852,1.4370117Z"/>
        <path class="cls-2" d="m8.3164297,40.9082799c0-.15625.09375-.25.1875-.25s.1557617.0625.1870117.1875c.25,1.4370117.875,1.6245117,2.0302734,1.7177734.53125.03125,1.9365234.09375,3.3422852.09375,1.1557617,0,2.3115234-.03125,2.9672852-.15625.6245117-.1245117.9370117-.7495117.9682617-1.4677734,0-.125.09375-.1875.15625-.1875s.15625.03125.15625.125c.1875.9995117.5932617,2.2802734,1.1245117,2.9672852.09375.09375.125.1875.125.25,0,.09375-.09375.15625-.1875.1875-.34375.1870117-1.0932617.3120117-1.6557617.3120117-.1245117,0-.1870117,0-.1870117.0625,0,.03125.03125.0625.09375.125.5620117.6557617,1.2490234,1.5307617,1.5302734,1.8427734.1875.25.3125.46875.3125.8120117,0,.21875-.03125.46875-.125.8125-.09375.3120117-.1875.6245117-.3125.9057617-.03125.09375-.09375.125-.1875.125-.4057617,0-1.3740234-1.0932617-1.3740234-1.7807617,0-.0932617,0-.1557617.03125-.2182617.09375-.25.125-.5.125-.71875,0-.8432617-.53125-1.4365234-1.2495117-1.9052734-.25-.15625-.5-.21875-.7807617-.25-1.7495117-.0932617-4.3417969-.1245117-4.9042969-.1245117-.9995117.03125-1.9365234.03125-1.9990234,1.3115234,0,.15625-.0932617.21875-.1870117.21875s-.15625-.03125-.15625-.15625v-.03125c.03125-.9057617.15625-1.5927734.15625-2.5297852,0-.59375-.0625-1.3120117-.1875-2.2490234v-.03125Z"/>
        <path class="cls-2" d="m17.6552969,50.776444c.03125,0,.09375-.03125.15625-.03125.09375,0,.15625.03125.25.125.53125.6245117,1.4682617,2.4677734,1.4682617,4.1855469,0,.4370117-.0625.8745117-.21875,1.2807617-.4375,1.2802734-1.1870117,2.1860352-3.4360352,2.2485352h-.3432617c-.90625,0-2.4052734-.0625-3.6235352-.0625-.7182617,0-1.3427734.03125-1.6865234.09375-.5932617.125-1.5307617.40625-1.5307617,1.4995117,0,.125-.0932617.21875-.1870117.21875s-.1875-.09375-.1875-.25c.09375-1.0307617.09375-1.5932617.09375-1.9677734,0-.5-.03125-.5625-.09375-.8120117,0-.0625-.03125-.125-.03125-.1875,0-.125.0625-.1875.25-.28125.1557617-.0625.4057617-.125.6870117-.15625.15625-.03125.21875-.0625.21875-.15625,0-.03125-.03125-.1245117-.09375-.2182617-.8745117-1.3120117-1.2182617-2.4990234-1.2182617-3.4985352,0-1.8115234,1.1870117-2.9985352,2.5297852-2.9985352.3125,0,.59375.0625.90625.1875.5307617.21875,1.1552734.8432617,1.5302734,1.6865234.53125,1.2495117.9057617,3.5297852,1.2807617,4.5292969.15625.3745117.3120117.4370117.6870117.4370117.25,0,.46875,0,.6245117-.03125,1.9370117,0,2.8427734-1.1245117,2.8427734-2.2797852,0-1.2182617-.9995117-2.4990234-2.8740234-2.6865234-.0932617,0-.1557617-.09375-.1557617-.15625,0-.0932617.0625-.1557617.1557617-.1870117,1.0932617-.03125,1.5620117-.40625,1.9990234-.53125Zm-6.715332,5.8095703c.7495117,0,1.5620117,0,2.3427734.03125.21875,0,.3125-.03125.3125-.15625,0-.0620117-.03125-.1245117-.0625-.2495117-.3125-.9057617-.71875-2.5927734-1.0307617-3.3110352-.3125-.7182617-.78125-.9057617-1.1870117-.9682617h-.1875c-1.0620117,0-1.7177734.8745117-1.7177734,2.0615234,0,.6557617.21875,1.4370117.7495117,2.1865234.25.3745117.375.4057617.7807617.4057617Z"/>
        <path class="cls-2" d="m8.3164297,70.1079869c0-.125.0625-.21875.25-.21875.1870117.03125,1.4677734.34375,4.0292969.34375.7495117,0,1.6240234-.03125,2.5922852-.09375,1.8427734-.15625,2.2802734-.8745117,2.5610352-1.6240234.0625-.21875.09375-.4375.09375-.6875,0-1.0620117-.6870117-2.3422852-1.4677734-2.9360352-.21875-.15625-.46875-.21875-.7495117-.25-1.7495117-.0932617-4.3730469-.1245117-4.9355469-.1245117-.9995117.03125-1.9365234.03125-1.9990234,1.3115234,0,.15625-.0932617.21875-.1870117.21875s-.15625-.03125-.15625-.15625v-.03125c.03125-.9057617.15625-1.5927734.15625-2.5610352,0-.59375-.0625-1.3120117-.1875-2.2490234v-.03125c0-.15625.09375-.25.1875-.25.0625,0,.1245117.0625.1557617.1875.25,1.4370117.90625,1.6245117,2.0615234,1.7177734.53125.03125,1.9365234.09375,3.3422852.09375,1.1870117,0,2.3427734-.03125,2.9985352-.15625.6245117-.1245117.9057617-.7495117.9370117-1.4677734,0-.15625.09375-.21875.1875-.21875.0625,0,.15625.03125.15625.125.125.9995117.5620117,2.3740234,1.0932617,3.0610352.09375.09375.125.15625.125.21875,0,.09375-.09375.15625-.1875.1875-.34375.1870117-1.0620117.2807617-1.6245117.3120117-.1557617,0-.2495117,0-.2495117.0625,0,.03125.03125.0625.09375.15625.5620117.8120117,1.2490234,2.0615234,1.5302734,2.3740234.1875.2495117.3125.4682617.3125.8120117,0,.1875-.03125.4370117-.125.7495117-.5,1.9052734-1.7802734,3.1547852-4.0292969,3.2172852h-.28125c-.8432617,0-2.1552734-.0625-3.2485352-.0625-.6245117,0-1.1865234.03125-1.5302734.09375-.5932617.125-1.4995117.4370117-1.4995117,1.6865234,0,.1875-.1245117.28125-.2182617.28125s-.1875-.0625-.1875-.25v-.03125c.09375-1.1557617.09375-1.9365234.09375-2.4672852,0-.71875-.03125-.9995117-.09375-1.2495117v-.09375Z"/>
        <path class="cls-2" d="m19.0610586,83.3638463c1.3432617.03125,2.6860352.0625,3.9355469.0625,2.0302734,0,3.7792969-.0625,4.8413086-.1557617.9370117-.0625,1.1870117-.5,1.2182617-1.4370117,0-.15625.09375-.21875.1875-.21875.0625,0,.15625.0625.15625.15625.125,1.0932617.7182617,2.4677734,1.2490234,3.4047852.0625.125.125.2182617.125.3120117,0,.125-.09375.15625-.2495117.15625h-.09375l-2.1552734-.1875c-3.7167969-.2182617-9.1206055-.2807617-13.0874023-.2807617-2.4052734,0-4.2792969,0-4.9663086.0625-.5932617.03125-1.4370117.3120117-1.4995117,1.4365234-.03125.15625-.1245117.28125-.2495117.28125-.09375,0-.15625-.09375-.15625-.25v-.03125c.09375-1.0307617.09375-1.6240234.09375-1.9990234,0-.5307617-.03125-.6245117-.09375-.8745117v-.15625c0-.125.03125-.21875.21875-.28125.0625,0,.1557617-.03125.3432617-.03125.15625-.0307617.21875-.0620117.21875-.1245117,0-.03125-.03125-.09375-.0625-.15625-.6870117-.9370117-.9995117-2.0302734-.9995117-3.1235352,0-1.4682617.5625-2.9047852,1.5620117-3.7792969.9057617-.8432617,2.2172852-1.3432617,3.6542969-1.3432617.8120117,0,1.6865234.15625,2.5297852.5,2.9047852,1.1865234,3.8110352,3.4980469,3.8110352,5.4658203,0,.7807617-.125,1.4995117-.34375,2.0927734l-.1875.4995117Zm-8.3085938-.0932617c1.0932617.03125,2.4677734.0620117,3.8110352.0620117h1.4677734c.5,0,.8745117-.0307617,1.2807617-.2807617.8745117-.53125,1.3115234-1.5307617,1.3115234-2.5615234,0-1.5302734-.9990234-3.1855469-3.0917969-3.5292969-.4375-.0625-.875-.125-1.2807617-.125-1.4682617,0-2.8422852.46875-3.8417969,1.4057617-.71875.6557617-1.1557617,1.6240234-1.1557617,2.6547852,0,.6245117.1875,1.2807617.5620117,1.9052734.21875.375.5.46875.9370117.46875Z"/>
        <path class="cls-2" d="m15.0005117,93.3872838c0,.21875-.1875.3125-.4370117.3125-.0625,0-.15625-.03125-.25-.03125-.5625-.03125-.9995117-.09375-.9995117-.5,0-.21875.03125-.4995117.03125-.8120117,0-1.3432617-.09375-3.2797852-.15625-4.0917969,0-.25.125-.34375.40625-.34375.1245117,0,.2807617,0,.4370117.03125.5932617.125.8432617.125.8432617.5v.125c0,.21875-.03125.5620117-.03125.9370117,0,1.3120117.09375,3.2172852.15625,3.8105469v.0625Z"/>
        <path class="cls-2" d="m29.3686758,112.7510533c.0625-.03125.125-.03125.15625-.03125.09375,0,.1245117.0625.1245117.125v.09375c-.0932617.4995117-.1557617,1.0307617-.1557617,1.7177734,0,.6557617.0625,1.4370117.1557617,2.5302734v.03125c0,.0932617-.0932617.1870117-.1870117.1870117s-.21875-.09375-.25-.2807617c-.3125-1.8120117-1.7490234-2.3740234-3.3110352-2.4677734-1.2495117-.0625-4.0605469-.125-7.121582-.125-3.8105469,0-8.0273438.09375-10.3383789.34375h-.125c-.21875,0-.3125-.0625-.3125-.1875s.125-.28125.40625-.4375c.9057617-.5307617,12.4936523-11.7753906,16.8979492-15.3359375.1875-.125.28125-.21875.28125-.28125,0-.03125-.03125-.03125-.125-.03125h-.125c-3.4985352.125-11.1821289.09375-14.2119141.1875-.9057617,0-2.3115234.28125-2.3740234,1.7177734,0,.15625-.125.28125-.2495117.28125-.09375,0-.15625-.09375-.15625-.28125v-.09375c.125-1.1865234.21875-1.8740234.21875-2.6547852,0-.5932617-.0625-1.2495117-.1875-2.2802734v-.09375c0-.2182617.09375-.3120117.1875-.3120117.0620117,0,.1557617.0625.1557617.2495117.09375,1.3120117,1.2807617,1.9057617,2.5615234,1.9677734,1.9990234.125,6.0283203.1875,9.8701172.1875,3.6542969,0,7.184082-.0625,8.6206055-.2807617.09375-.03125.15625-.03125.21875-.03125.15625,0,.25.0625.25.1557617,0,.09375-.09375.25-.34375.4375-2.7797852,2.2490234-11.4003906,10.6821289-16.6479492,15.4301758-.03125.03125-.0625.0625-.0625.0932617,0,.03125.03125.0625.15625.0625,2.6547852-.03125,9.2456055-.0625,11.7753906-.1557617,1.6240234-.03125,3.4360352-.15625,4.2480469-.4375Z"/>
        <path class="cls-2" d="m8.0351797,122.179276c0-1.4370117.5625-2.8735352,1.5307617-3.7792969.9370117-.8432617,2.3110352-1.3432617,3.7792969-1.3432617.7807617,0,1.5927734.15625,2.4047852.4375,2.7490234.9995117,3.8422852,3.1542969,3.8422852,5.0595703,0,1.4682617-.65625,2.8115234-1.7182617,3.3735352-.2807617.15625-.1875.25-.3745117.375-.0625.0625-.15625.09375-.25.09375-.25,0-.53125-.1875-.625-.625-.1870117-.7807617-1.7490234-4.5288086-2.4360352-6.309082-.125-.25-.1875-.34375-.40625-.34375h-.09375c-1.0307617.03125-2.3422852.375-3.3105469,1.2495117-.71875.6557617-1.1245117,1.7177734-1.1245117,2.8422852s.4370117,2.3427734,1.4677734,3.1860352c.09375.09375.15625.1557617.15625.2182617s-.0625.09375-.15625.09375c-.03125,0-.09375,0-.1245117-.03125-1.7807617-.9682617-2.5615234-2.7485352-2.5615234-4.4975586Zm9.3706055,1.8740234c.0625,0,.15625,0,.21875-.03125.6870117-.21875,1.0927734-.9370117,1.0927734-1.7802734,0-1.3745117-.9995117-2.9985352-3.4355469-3.1235352-.1875,0-.28125.0625-.28125.125s.03125.125.0625.1875c.53125,1.2802734,1.4057617,3.4355469,1.9677734,4.4038086.09375.15625.21875.21875.375.21875Z"/>
        <path class="cls-2" d="m8.3476797,132.8120885c-.53125-.1875-.8120117-.3120117-.8120117-.4370117s.2807617-.25.8120117-.4375c1.8740234-.5620117,5.6220703-1.9677734,8.4331055-3.0922852,1.2807617-.4995117,2.0302734-.8745117,2.1865234-1.8427734.03125-.09375.09375-.21875.1875-.21875.03125,0,.0625.0625.0625.15625v.0625c-.03125.6245117-.0625,1.3432617-.0625,1.9990234,0,.8120117.03125,1.5927734.0625,2.0927734v.0625c0,.09375-.03125.15625-.09375.15625s-.125-.0625-.15625-.15625c-.09375-.5625-.4057617-.7495117-.7495117-.7495117s-.7182617.1557617-1.0620117.2807617c-1.4995117.5625-3.4672852,1.3745117-5.4350586,1.9677734-.1245117.03125-.1870117.09375-.1870117.15625s.09375.15625.1870117.1875c1.9365234.7807617,6.0908203,2.4990234,7.309082,2.8735352.21875.0625.46875.15625.46875.28125,0,.0625-.09375.15625-.4375.28125-.8745117.2807617-5.3413086,2.1235352-7.5585938,3.2167969-.125.0625-.1875.125-.1875.1875s.09375.15625.28125.21875c1.6240234.6245117,3.9980469,1.6240234,5.2470703,2.0927734.5.1875,1.2495117.34375,1.8115234.34375h.40625c.09375,0,.15625.03125.15625.1557617-.03125.25-.03125.6875-.03125,1.2495117,0,.375,0,.8745117.03125,1.3745117,0,.09375-.0625.15625-.125.15625s-.125-.0625-.125-.15625c-.0625-1.1245117-1.4052734-1.7802734-2.3115234-2.1552734-1.8427734-.7807617-6.902832-2.9047852-8.3081055-3.3422852-.46875-.15625-.7495117-.3120117-.7495117-.4370117,0-.15625.2495117-.28125.7495117-.4375,1.4365234-.4057617,4.5600586-1.9365234,7.6523438-3.1860352-2.1552734-.8745117-6.871582-2.6547852-7.6523438-2.9047852Z"/>
        <path class="cls-2" d="m8.2226797,148.128983c0-.46875.21875-.9682617.7495117-1.2495117.1875-.09375.40625-.15625.625-.15625.7495117,0,1.5615234.5,1.5927734,1.4682617v.09375c0,.9995117-.6870117,1.4052734-1.3745117,1.4052734-.2495117,0-.5307617-.0625-.7495117-.15625-.5307617-.2495117-.8432617-.8120117-.8432617-1.4052734Zm5.6845703-.09375h.0625c.53125,0,1.0620117.03125,1.5620117.03125,5.9970703,0,10.3696289-.9370117,11.0878906-1.1245117.8125-.1875,1.0932617-.40625,1.2807617-.40625.15625,0,.25.09375.46875.4375.9995117,1.4365234,1.6552734,1.7490234,1.6552734,1.9990234,0,.0625-.0625.125-.1875.21875-.2182617.15625-1.0620117.4057617-1.9365234.4057617h-.2807617c-4.1855469-.3120117-6.7783203-.9995117-12.0253906-.9995117-.53125,0-1.0620117.03125-1.6245117.03125h-.0625c-.3120117,0-.4995117-.15625-.4995117-.3120117,0-.15625.15625-.28125.4995117-.28125Z"/>
      </g>
    </g>
  </g>
</svg>