<?xml version="1.0" encoding="UTF-8"?>
<svg id="_レイヤー_2" data-name="レイヤー 2" xmlns="http://www.w3.org/2000/svg" viewBox="0 0 126.1230469 72.0698242">
  <defs>
    <style>
      .cls-1 {
        opacity: .5;
      }

      .cls-2 {
        fill: #cb5080;
        stroke-width: 0px;
      }
    </style>
  </defs>
  <g id="_レイヤー_2-2" data-name="レイヤー 2">
    <g>
      <g class="cls-1">
        <g>
          <path class="cls-2" d="m20.2363281,49.6767578L3.0488281,21.309082c-.2919922-.5424805-.7089844-1.7939453-.8759766-2.4614258h-.125c.0830078.7089844.25,1.7519531.25,2.7114258v28.1176758H.3789062V17.137207h2.5449219l17.2294922,28.3261719c.4169922.7924805.8339844,1.8769531,1.0009766,2.4194336h.0830078c-.125-.5839844-.3330078-1.7519531-.3330078-2.4614258v-28.2841797h1.8769531v32.5395508h-2.5449219Z"/>
          <path class="cls-2" d="m28.5302734,38.2045898c0-7.2587891,4.2548828-11.8896484,10.6376953-11.8896484,6.5498047,0,10.6386719,4.6723633,10.6386719,11.8896484,0,7.2587891-4.0888672,11.8891602-10.6386719,11.8891602-6.3828125,0-10.6376953-4.6303711-10.6376953-11.8891602Zm19.4404297,0c0-6.5083008-3.796875-10.2207031-8.8027344-10.2207031-4.7138672,0-8.8017578,3.7124023-8.8017578,10.2207031,0,6.3408203,4.0878906,10.2207031,8.8017578,10.2207031,5.0058594,0,8.8027344-3.7128906,8.8027344-10.2207031Z"/>
          <path class="cls-2" d="m55.4794922,49.6767578v-4.0048828h2.8779297v4.0048828h-2.8779297Z"/>
          <path class="cls-2" d="m74.4326172,49.6977539V5.8837891l-7.9492188,4.8193359-1.3144531-2.565918c3.4423828-1.6274414,7.6357422-4.1938477,9.7636719-7.2607422h2.3164062v48.8212891h-2.8164062Z"/>
          <path class="cls-2" d="m92.3994141,25.2871094c0-13.7075195,5.4453125-25.2871094,16.7744141-25.2871094,11.2666016,0,16.8378906,11.5795898,16.8378906,25.2871094,0,14.0205078-5.5712891,25.2871094-16.8378906,25.2871094-11.3291016,0-16.7744141-11.2666016-16.7744141-25.2871094Zm30.7949219,0c0-11.7045898-4.8193359-22.4702148-14.0205078-22.4702148-9.2001953,0-13.8945312,10.5151367-13.8945312,22.4702148,0,12.0175781,4.6943359,22.4702148,13.8945312,22.4702148,9.2011719,0,14.0205078-10.4526367,14.0205078-22.4702148Z"/>
        </g>
      </g>
      <g class="cls-1">
        <g>
          <path class="cls-2" d="m0,66.887207v-1.3105469l8.9355469-5.1679688v1.6083984l-7.4169922,4.2148438,7.4169922,4.2148438v1.6083984l-8.9355469-5.1679688Z"/>
          <path class="cls-2" d="m20.4414062,71.8911133l-1.8017578-8.1015625c-.0888672-.4467773-.1484375-1.4443359-.1630859-1.8168945-.015625-.074707-.015625-.1191406-.015625-.1342773h-.0449219c-.0146484.1191406-.0742188,1.3852539-.1933594,1.9511719l-1.7871094,8.1015625h-1.9804688l-2.6503906-11.6162109h1.7265625l1.7431641,8.0419922c.0888672.4467773.1933594,1.3847656.1933594,1.9208984h.0302734c.0585938-.5507812.1191406-1.4145508.2226562-1.90625l1.7128906-8.0566406h1.9960938l1.8017578,8.0717773c.0888672.4169922.1630859,1.2807617.1933594,1.8466797h.0449219c.0292969-.5805664.1044922-1.3999023.1630859-1.831543l1.6982422-8.0869141h1.6679688l-2.6064453,11.6162109h-1.9511719Z"/>
          <path class="cls-2" d="m33.8183594,71.9804688c-.2089844.0444336-.4169922.074707-.6113281.074707-.7890625,0-1.4443359-.3876953-1.5332031-1.1469727-.4619141.7446289-1.7578125,1.1616211-3.0380859,1.1616211-1.6826172,0-2.5166016-.7890625-2.546875-2.1591797v-.0898438c0-1.5932617,1.0869141-2.3974609,2.859375-2.784668,1.2216797-.2827148,2.3085938-.7299805,2.3085938-1.1914062,0-.8188477-.6103516-1.0722656-1.7578125-1.0722656-.8486328,0-2.0849609.5361328-2.5615234,1.3105469l-.6992188-1.1914062c.6845703-.8637695,1.9208984-1.4145508,3.3652344-1.4145508,2.1591797,0,3.3505859.7441406,3.3505859,2.4868164v3.9165039c0,.5664062.2832031.8193359.7294922.8193359.1347656,0,.2988281-.0297852.4619141-.0742188l-.3271484,1.3549805Zm-2.4873047-4.6464844c-.3574219.3574219-1.1171875.6254883-1.9804688.8491211-1.0283203.2529297-1.6826172.5654297-1.6826172,1.4892578v.0888672c.0439453.6855469.4609375,1.027832,1.3105469,1.027832.8779297,0,2.0839844-.5063477,2.3525391-1.3256836v-2.1293945Z"/>
          <path class="cls-2" d="m35.7558594,71.8911133v-8.2353516h1.4296875v.8632812c.4912109-.6845703,1.3847656-.9975586,2.6210938-1.0419922l.3125,1.5185547c-.2236328-.0292969-.4316406-.0595703-.6259766-.0595703-1.0419922,0-1.8017578.4765625-2.1142578,1.2958984v5.6591797h-1.6230469Z"/>
          <path class="cls-2" d="m51.0429688,71.8911133v-5.3466797c0-1.1318359-.5068359-1.7275391-1.4453125-1.7275391-.8925781,0-1.578125.7299805-1.6074219,1.6386719v5.4355469h-1.609375v-5.3466797c0-1.1318359-.4609375-1.7275391-1.4296875-1.7275391-.7294922,0-1.265625.5214844-1.5332031,1.3105469v5.7636719h-1.6230469v-8.2353516h1.4882812v.9677734c.3574219-.640625,1.0878906-1.1464844,2.2050781-1.1464844,1.1162109,0,1.90625.5209961,2.2333984,1.3549805.3125-.7744141,1.2363281-1.3549805,2.4277344-1.3549805,1.5341797,0,2.53125,1.0571289,2.53125,2.7099609v5.7041016h-1.6376953Z"/>
          <path class="cls-2" d="m67.6337891,71.8911133l-4.2587891-7.8486328c-.2089844-.3720703-.5810547-1.3847656-.7148438-1.8466797h-.0449219c.0449219.7001953.1044922,1.7275391.1044922,2.7553711v6.9399414h-1.6240234v-11.6162109h2.1152344l4.2441406,7.8037109c.2978516.5507812.7001953,1.4443359.8046875,1.8320312h.0449219c-.0449219-.5068359-.1347656-1.8173828-.1347656-2.5615234v-7.0742188h1.6230469v11.6162109h-2.1591797Z"/>
          <path class="cls-2" d="m79.8828125,71.9804688c-.2089844.0444336-.4169922.074707-.6113281.074707-.7890625,0-1.4443359-.3876953-1.5332031-1.1469727-.4619141.7446289-1.7578125,1.1616211-3.0380859,1.1616211-1.6826172,0-2.5166016-.7890625-2.546875-2.1591797v-.0898438c0-1.5932617,1.0869141-2.3974609,2.859375-2.784668,1.2216797-.2827148,2.3085938-.7299805,2.3085938-1.1914062,0-.8188477-.6103516-1.0722656-1.7578125-1.0722656-.8486328,0-2.0849609.5361328-2.5615234,1.3105469l-.6992188-1.1914062c.6845703-.8637695,1.9208984-1.4145508,3.3652344-1.4145508,2.1591797,0,3.3505859.7441406,3.3505859,2.4868164v3.9165039c0,.5664062.2832031.8193359.7294922.8193359.1347656,0,.2988281-.0297852.4619141-.0742188l-.3271484,1.3549805Zm-2.4873047-4.6464844c-.3574219.3574219-1.1171875.6254883-1.9804688.8491211-1.0283203.2529297-1.6826172.5654297-1.6826172,1.4892578v.0888672c.0439453.6855469.4609375,1.027832,1.3105469,1.027832.8779297,0,2.0839844-.5063477,2.3525391-1.3256836v-2.1293945Z"/>
          <path class="cls-2" d="m85.2558594,72.0698242c-2.3681641,0-3.1875-.5063477-3.1875-2.3378906v-4.7807617h-1.1611328v-1.2954102h1.2207031v-2.5917969h1.5634766v2.5917969h1.4599609v1.2954102h-1.4599609v4.4829102c0,1.1611328.2382812,1.2509766,1.90625,1.2509766l-.3417969,1.3847656Z"/>
          <path class="cls-2" d="m92.8681641,71.8911133v-1.1171875c-.4013672.7744141-1.4589844,1.2958984-2.7255859,1.2958984-1.7421875,0-3.0078125-1.1020508-3.0078125-2.7851562v-5.6289062h1.6230469v5.2568359c0,1.1171875.7744141,1.7573242,1.7871094,1.7573242.9833984,0,1.8613281-.5209961,2.1894531-1.519043v-5.4951172h1.6386719v8.2353516h-1.5048828Z"/>
          <path class="cls-2" d="m96.9101562,71.8911133v-8.2353516h1.4296875v.8632812c.4912109-.6845703,1.3847656-.9975586,2.6210938-1.0419922l.3125,1.5185547c-.2236328-.0292969-.4316406-.0595703-.6259766-.0595703-1.0419922,0-1.8017578.4765625-2.1142578,1.2958984v5.6591797h-1.6230469Z"/>
          <path class="cls-2" d="m110.3818359,71.9804688c-.2089844.0444336-.4169922.074707-.6103516.074707-.7900391,0-1.4453125-.3876953-1.5341797-1.1469727-.4619141.7446289-1.7578125,1.1616211-3.0380859,1.1616211-1.6835938,0-2.5175781-.7890625-2.546875-2.1591797v-.0898438c0-1.5932617,1.0869141-2.3974609,2.859375-2.784668,1.2207031-.2827148,2.3085938-.7299805,2.3085938-1.1914062,0-.8188477-.6113281-1.0722656-1.7578125-1.0722656-.8486328,0-2.0849609.5361328-2.5615234,1.3105469l-.7001953-1.1914062c.6855469-.8637695,1.921875-1.4145508,3.3662109-1.4145508,2.1591797,0,3.3505859.7441406,3.3505859,2.4868164v3.9165039c0,.5664062.2832031.8193359.7304688.8193359.1337891,0,.296875-.0297852.4609375-.0742188l-.3271484,1.3549805Zm-2.4873047-4.6464844c-.3574219.3574219-1.1171875.6254883-1.9804688.8491211-1.0273438.2529297-1.6835938.5654297-1.6835938,1.4892578v.0888672c.0449219.6855469.4619141,1.027832,1.3105469,1.027832.8789062,0,2.0859375-.5063477,2.3535156-1.3256836v-2.1293945Z"/>
          <path class="cls-2" d="m112.3496094,71.8911133v-11.6162109h1.6826172v11.6162109h-1.6826172Z"/>
          <path class="cls-2" d="m117.1875,72.0400391v-1.5932617l7.4160156-4.2148438-7.4160156-4.2148438v-1.6083984l8.9355469,5.1679688v1.3105469l-8.9355469,5.152832Z"/>
        </g>
      </g>
    </g>
  </g>
</svg>