<?xml version="1.0" encoding="UTF-8"?>
<svg id="_レイヤー_2" data-name="レイヤー 2" xmlns="http://www.w3.org/2000/svg" viewBox="0 0 112.0234375 71.1933594">
  <defs>
    <style>
      .cls-1 {
        opacity: .5;
      }

      .cls-2 {
        fill: #cb5080;
        stroke-width: 0px;
      }
    </style>
  </defs>
  <g id="_レイヤー_2-2" data-name="レイヤー 2">
    <g>
      <g class="cls-1">
        <g>
          <path class="cls-2" d="m22.9042969,48.800293L5.7167969,20.4326172c-.2919922-.5424805-.7089844-1.7939453-.8759766-2.4614258h-.125c.0830078.7089844.25,1.7519531.25,2.7114258v28.1176758h-1.9189453V16.2607422h2.5449219l17.2294922,28.3261719c.4169922.7924805.8339844,1.8769531,1.0009766,2.4194336h.0830078c-.125-.5839844-.3330078-1.7519531-.3330078-2.4614258v-28.2841797h1.8769531v32.5395508h-2.5449219Z"/>
          <path class="cls-2" d="m31.1982422,37.328125c0-7.2587891,4.2548828-11.8896484,10.6376953-11.8896484,6.5498047,0,10.6386719,4.6723633,10.6386719,11.8896484,0,7.2587891-4.0888672,11.8891602-10.6386719,11.8891602-6.3828125,0-10.6376953-4.6303711-10.6376953-11.8891602Zm19.4404297,0c0-6.5083008-3.796875-10.2207031-8.8027344-10.2207031-4.7138672,0-8.8017578,3.7124023-8.8017578,10.2207031,0,6.3408203,4.0878906,10.2207031,8.8017578,10.2207031,5.0058594,0,8.8027344-3.7128906,8.8027344-10.2207031Z"/>
          <path class="cls-2" d="m58.1474609,48.800293v-4.0048828h2.8779297v4.0048828h-2.8779297Z"/>
          <path class="cls-2" d="m77.1005859,48.8212891V5.0073242l-7.9492188,4.8193359-1.3144531-2.565918c3.4423828-1.6274414,7.6357422-4.1938477,9.7636719-7.2607422h2.3164062v48.8212891h-2.8164062Z"/>
          <path class="cls-2" d="m106.4912109,48.8212891V5.0073242l-7.9492188,4.8193359-1.3144531-2.565918c3.4423828-1.6274414,7.6357422-4.1938477,9.7636719-7.2607422h2.3164062v48.8212891h-2.8164062Z"/>
        </g>
      </g>
      <g class="cls-1">
        <g>
          <path class="cls-2" d="m0,66.0107422v-1.3105469l8.9355469-5.1679688v1.6083984l-7.4160156,4.2148438,7.4160156,4.2148438v1.6083984l-8.9355469-5.1679688Z"/>
          <path class="cls-2" d="m18.8457031,71.0146484l-2.5761719-4.8398438h-2.6806641v4.8398438h-1.6679688v-11.6162109h4.4677734c2.1591797,0,3.6933594,1.1616211,3.6933594,3.2617188,0,1.9355469-.953125,2.8886719-2.1738281,3.2460938l2.9335938,5.1083984h-1.9960938Zm-2.7246094-6.1953125c1.3398438,0,2.2480469-.7001953,2.2480469-2.0996094,0-1.2509766-.9980469-1.8916016-2.2636719-1.8916016h-2.5019531v3.9912109h2.5175781Z"/>
          <path class="cls-2" d="m22.3417969,61.3496094v-1.9511719h1.7285156v1.9511719h-1.7285156Zm.0302734,9.6650391v-8.2353516h1.6533203v8.2353516h-1.6533203Z"/>
          <path class="cls-2" d="m33.1425781,69.8681641c-.7597656.878418-1.7421875,1.3251953-3.1875,1.3251953-2.21875,0-4.1992188-1.4443359-4.1992188-4.3037109,0-2.7553711,1.8466797-4.2890625,4.1992188-4.2890625,1.3554688,0,2.3535156.4169922,3.0976562,1.2060547l-.5800781,1.3105469c-.5507812-.7890625-1.4150391-1.1767578-2.3232422-1.1767578-1.3105469,0-2.7548828.9086914-2.7548828,2.9492188,0,2.0253906,1.3994141,2.9633789,2.7695312,2.9633789.9082031,0,1.8613281-.4169922,2.3974609-1.206543l.5810547,1.2216797Z"/>
          <path class="cls-2" d="m40.2949219,71.0146484v-5.3164062c0-1.1171875-.7587891-1.7578125-1.7871094-1.7578125-.9677734,0-1.8613281.5068359-2.1884766,1.5195312v5.5546875h-1.6240234v-11.6162109h1.6240234v4.378418c.3720703-.6552734,1.2802734-1.1762695,2.6064453-1.1762695,1.7568359,0,2.9931641,1.0419922,2.9931641,2.7250977v5.6889648h-1.6240234Z"/>
          <path class="cls-2" d="m56.1416016,71.0146484l-4.2587891-7.8486328c-.2089844-.3720703-.5810547-1.3847656-.7148438-1.8466797h-.0449219c.0449219.7001953.1044922,1.7275391.1044922,2.7553711v6.9399414h-1.6240234v-11.6162109h2.1152344l4.2441406,7.8037109c.2978516.5507812.7001953,1.4443359.8046875,1.8320312h.0449219c-.0449219-.5068359-.1347656-1.8173828-.1347656-2.5615234v-7.0742188h1.6230469v11.6162109h-2.1591797Z"/>
          <path class="cls-2" d="m68.0185547,71.1040039c-.2089844.0444336-.4169922.074707-.6103516.074707-.7900391,0-1.4453125-.3876953-1.5341797-1.1469727-.4619141.7446289-1.7578125,1.1616211-3.0380859,1.1616211-1.6835938,0-2.5175781-.7890625-2.546875-2.1591797v-.0898438c0-1.5932617,1.0869141-2.3974609,2.859375-2.784668,1.2207031-.2827148,2.3085938-.7299805,2.3085938-1.1914062,0-.8188477-.6113281-1.0722656-1.7578125-1.0722656-.8486328,0-2.0849609.5361328-2.5615234,1.3105469l-.7001953-1.1914062c.6855469-.8637695,1.921875-1.4145508,3.3662109-1.4145508,2.1591797,0,3.3505859.7441406,3.3505859,2.4868164v3.9165039c0,.5664062.2832031.8193359.7304688.8193359.1337891,0,.296875-.0297852.4609375-.0742188l-.3271484,1.3549805Zm-2.4873047-4.6464844c-.3574219.3574219-1.1171875.6254883-1.9804688.8491211-1.0273438.2529297-1.6835938.5654297-1.6835938,1.4892578v.0888672c.0449219.6855469.4619141,1.027832,1.3105469,1.027832.8789062,0,2.0859375-.5063477,2.3535156-1.3256836v-2.1293945Z"/>
          <path class="cls-2" d="m73.0195312,71.1933594c-2.3681641,0-3.1875-.5063477-3.1875-2.3378906v-4.7807617h-1.1611328v-1.2954102h1.2207031v-2.5917969h1.5634766v2.5917969h1.4599609v1.2954102h-1.4599609v4.4829102c0,1.1611328.2382812,1.2509766,1.90625,1.2509766l-.3417969,1.3847656Z"/>
          <path class="cls-2" d="m80.2587891,71.0146484v-1.1171875c-.4013672.7744141-1.4589844,1.2958984-2.7255859,1.2958984-1.7421875,0-3.0078125-1.1020508-3.0078125-2.7851562v-5.6289062h1.6230469v5.2568359c0,1.1171875.7744141,1.7573242,1.7871094,1.7573242.9833984,0,1.8613281-.5209961,2.1894531-1.519043v-5.4951172h1.6386719v8.2353516h-1.5048828Z"/>
          <path class="cls-2" d="m83.9277344,71.0146484v-8.2353516h1.4296875v.8632812c.4921875-.6845703,1.3857422-.9975586,2.6210938-1.0419922l.3134766,1.5185547c-.2236328-.0292969-.4326172-.0595703-.6259766-.0595703-1.0419922,0-1.8017578.4765625-2.1142578,1.2958984v5.6591797h-1.6240234Z"/>
          <path class="cls-2" d="m97.0283203,71.1040039c-.2089844.0444336-.4169922.074707-.6103516.074707-.7900391,0-1.4453125-.3876953-1.5341797-1.1469727-.4619141.7446289-1.7578125,1.1616211-3.0380859,1.1616211-1.6835938,0-2.5175781-.7890625-2.546875-2.1591797v-.0898438c0-1.5932617,1.0869141-2.3974609,2.859375-2.784668,1.2207031-.2827148,2.3085938-.7299805,2.3085938-1.1914062,0-.8188477-.6113281-1.0722656-1.7578125-1.0722656-.8486328,0-2.0849609.5361328-2.5615234,1.3105469l-.7001953-1.1914062c.6855469-.8637695,1.921875-1.4145508,3.3662109-1.4145508,2.1591797,0,3.3505859.7441406,3.3505859,2.4868164v3.9165039c0,.5664062.2832031.8193359.7304688.8193359.1337891,0,.296875-.0297852.4609375-.0742188l-.3271484,1.3549805Zm-2.4873047-4.6464844c-.3574219.3574219-1.1171875.6254883-1.9804688.8491211-1.0273438.2529297-1.6835938.5654297-1.6835938,1.4892578v.0888672c.0449219.6855469.4619141,1.027832,1.3105469,1.027832.8789062,0,2.0859375-.5063477,2.3535156-1.3256836v-2.1293945Z"/>
          <path class="cls-2" d="m98.6230469,71.0146484v-11.6162109h1.6826172v11.6162109h-1.6826172Z"/>
          <path class="cls-2" d="m103.0878906,71.1635742v-1.5932617l7.4169922-4.2148438-7.4169922-4.2148438v-1.6083984l8.9355469,5.1679688v1.3105469l-8.9355469,5.152832Z"/>
        </g>
      </g>
    </g>
  </g>
</svg>