<?xml version="1.0" encoding="UTF-8"?>
<svg id="_レイヤー_2" data-name="レイヤー 2" xmlns="http://www.w3.org/2000/svg" viewBox="0 0 883.9536133 403.1113281">
  <defs>
    <style>
      .cls-1 {
        fill: #f2bacd;
        stroke-width: 0px;
      }

      .cls-2 {
        opacity: .4;
      }
    </style>
  </defs>
  <g id="_レイヤー_2-2" data-name="レイヤー 2">
    <g class="cls-2">
      <g>
        <path class="cls-1" d="m57.7583008,57.4384766h-11.1196289V24.2392578l-10.8798828,21.5996094h-7.5195312l-10.9599609-21.5996094v33.1992188H6.159668V.4804688h10.9160156l14.8217773,30.7988281L46.6386719.4804688h11.1196289v56.9580078Z"/>
        <path class="cls-1" d="m130.6030273,57.4384766h-11.5996094l-3.3603516-10.0800781h-20.2392578l-3.4394531,10.0800781h-11.5996094L101.0834961.4804688h8.7197266l20.7998047,56.9580078Zm-17.9199219-19.4394531l-6.9599609-20.71875-7.1992188,20.71875h14.1591797Z"/>
        <path class="cls-1" d="m204.7592773,57.4384766h-11.1201172V24.2392578l-10.8789062,21.5996094h-7.5205078l-10.9589844-21.5996094v33.1992188h-11.1201172V.4804688h10.9160156l14.8222656,30.7988281L193.6391602.4804688h11.1201172v56.9580078Z"/>
        <path class="cls-1" d="m277.6040039,57.4384766h-11.5996094l-3.3603516-10.0800781h-20.2392578l-3.4394531,10.0800781h-11.5996094L248.0844727.4804688h8.7197266l20.7998047,56.9580078Zm-17.9199219-19.4394531l-6.9599609-20.71875-7.1992188,20.71875h14.1591797Z"/>
        <path class="cls-1" d="m302.9858398,10.4003906l-10.8798828,8.2392578V.4804688h10.8798828v9.9199219Z"/>
        <path class="cls-1" d="m365.9194336,40.6386719c0,5.3876953-1.9873047,9.6142578-5.9599609,12.6796875-3.9736328,3.0673828-9.0273438,4.6005859-15.1591797,4.6005859-8.9072266,0-15.8398438-2.5068359-20.7998047-7.5205078l7.2001953-7.1992188c3.2001953,3.1992188,7.7861328,4.7998047,13.7597656,4.7998047,6.7197266,0,10.0791016-2.3466797,10.0791016-7.0400391,0-2.1328125-.5595703-3.7197266-1.6796875-4.7597656s-2.8271484-1.7197266-5.1201172-2.0400391l-6.8798828-.9599609c-10.0791016-1.3857422-15.1191406-6.6923828-15.1191406-15.9189453,0-5.1728516,1.7861328-9.3466797,5.359375-12.5205078,3.5732422-3.171875,8.4003906-4.7597656,14.4804688-4.7597656,7.6796875,0,13.8115234,2.2138672,18.3984375,6.640625l-7.0390625,6.9589844c-2.7197266-2.6123047-6.6132812-3.9199219-11.6796875-3.9199219-2.8271484,0-5,.6806641-6.5195312,2.0400391-1.5205078,1.3603516-2.2802734,3.0800781-2.2802734,5.1601562,0,1.6533203.5996094,3.0400391,1.7998047,4.1601562,1.2001953,1.1191406,2.9199219,1.8398438,5.1601562,2.1591797l6.7197266.9599609c4.8525391.6943359,8.4794922,2.1601562,10.8798828,4.4003906,2.9316406,2.7734375,4.3994141,6.7998047,4.3994141,12.0791016Z"/>
        <path class="cls-1" d="m468.394043,57.4384766h-11.1191406v-23.8388672h-19.2792969v23.8388672h-11.1201172V.4804688h11.1201172v23.2792969h19.2792969V.4804688h11.1191406v56.9580078Z"/>
        <path class="cls-1" d="m541.2397461,57.4384766h-11.5996094l-3.3603516-10.0800781h-20.2392578l-3.4394531,10.0800781h-11.5996094L511.7202148.4804688h8.7197266l20.7998047,56.9580078Zm-17.9199219-19.4394531l-6.9599609-20.71875-7.1992188,20.71875h14.1591797Z"/>
        <path class="cls-1" d="m604.6762695,18.2402344c0,5.0126953-1.6542969,9.1728516-4.9599609,12.4794922-3.5195312,3.5195312-8.1337891,5.2792969-13.8398438,5.2792969h-10.9589844v21.4394531h-11.1201172V.4804688h22.0791016c5.7060547,0,10.3203125,1.7597656,13.8398438,5.2792969,3.3056641,3.3076172,4.9599609,7.4677734,4.9599609,12.4804688Zm-11.1201172,0c0-2.3466797-.7470703-4.2402344-2.2392578-5.6806641-1.4941406-1.4394531-3.4941406-2.1591797-6-2.1591797h-10.3994141v15.5996094h10.3994141c2.5058594,0,4.5058594-.7070312,6-2.1201172,1.4921875-1.4130859,2.2392578-3.2929688,2.2392578-5.6396484Z"/>
        <path class="cls-1" d="m669.2006836,18.2402344c0,5.0126953-1.6542969,9.1728516-4.9599609,12.4794922-3.5195312,3.5195312-8.1337891,5.2792969-13.8398438,5.2792969h-10.9589844v21.4394531h-11.1201172V.4804688h22.0791016c5.7060547,0,10.3203125,1.7597656,13.8398438,5.2792969,3.3056641,3.3076172,4.9599609,7.4677734,4.9599609,12.4804688Zm-11.1201172,0c0-2.3466797-.7470703-4.2402344-2.2392578-5.6806641-1.4941406-1.4394531-3.4941406-2.1591797-6-2.1591797h-10.3994141v15.5996094h10.3994141c2.5058594,0,4.5058594-.7070312,6-2.1201172,1.4921875-1.4130859,2.2392578-3.2929688,2.2392578-5.6396484Z"/>
        <path class="cls-1" d="m732.0375977.4804688l-17.1191406,33.5986328v23.359375h-11.0400391v-23.359375L686.7592773.4804688h12.0791016l10.6396484,22.9589844,10.4794922-22.9589844h12.0800781Z"/>
        <path class="cls-1" d="m47.0385742,104.5380859c0,5.0126953-1.6538086,9.1728516-4.9599609,12.4794922-3.5200195,3.5195312-8.1333008,5.2792969-13.8393555,5.2792969h-10.9599609v21.4394531H6.159668v-56.9580078h22.0795898c5.7060547,0,10.3193359,1.7597656,13.8393555,5.2792969,3.3061523,3.3076172,4.9599609,7.4677734,4.9599609,12.4804688Zm-11.1196289,0c0-2.3466797-.7475586-4.2402344-2.2402344-5.6806641-1.4936523-1.4394531-3.4936523-2.1591797-5.9995117-2.1591797h-10.3999023v15.5996094h10.3999023c2.5058594,0,4.5058594-.7070312,5.9995117-2.1201172,1.4926758-1.4130859,2.2402344-3.2929688,2.2402344-5.6396484Z"/>
        <path class="cls-1" d="m107.644043,143.7363281h-36.9589844v-56.9580078h11.1201172v47.0380859h25.8388672v9.9199219Z"/>
        <path class="cls-1" d="m171.746582,124.2167969c0,5.9199219-2,10.7333984-6,14.4394531-4,3.7080078-8.9873047,5.5605469-14.9599609,5.5605469-5.9736328,0-10.9589844-1.8525391-14.9589844-5.5605469-4-3.7060547-6-8.5195312-6-14.4394531v-37.4384766h11.1201172v37.0390625c0,3.2529297.8798828,5.8134766,2.6396484,7.6796875,1.7597656,1.8671875,4.1601562,2.7998047,7.1992188,2.7998047,3.0400391,0,5.453125-.9326172,7.2402344-2.7998047,1.7861328-1.8662109,2.6796875-4.4267578,2.6796875-7.6796875v-37.0390625h11.0400391v37.4384766Z"/>
        <path class="cls-1" d="m235.1362305,126.9365234c0,5.3876953-1.9873047,9.6142578-5.9599609,12.6796875-3.9736328,3.0673828-9.0273438,4.6005859-15.1591797,4.6005859-8.9072266,0-15.8398438-2.5068359-20.7998047-7.5205078l7.2001953-7.1992188c3.2001953,3.1992188,7.7861328,4.7998047,13.7597656,4.7998047,6.7197266,0,10.0791016-2.3466797,10.0791016-7.0400391,0-2.1328125-.5595703-3.7197266-1.6796875-4.7597656s-2.8271484-1.7197266-5.1201172-2.0400391l-6.8798828-.9599609c-10.0791016-1.3857422-15.1191406-6.6923828-15.1191406-15.9189453,0-5.1728516,1.7861328-9.3466797,5.359375-12.5205078,3.5732422-3.171875,8.4003906-4.7597656,14.4804688-4.7597656,7.6796875,0,13.8115234,2.2138672,18.3984375,6.640625l-7.0390625,6.9589844c-2.7197266-2.6123047-6.6132812-3.9199219-11.6796875-3.9199219-2.8271484,0-5,.6806641-6.5195312,2.0400391-1.5205078,1.3603516-2.2802734,3.0800781-2.2802734,5.1601562,0,1.6533203.5996094,3.0400391,1.7998047,4.1601562,1.2001953,1.1191406,2.9199219,1.8398438,5.1601562,2.1591797l6.7197266.9599609c4.8525391.6943359,8.4794922,2.1601562,10.8798828,4.4003906,2.9316406,2.7734375,4.3994141,6.7998047,4.3994141,12.0791016Z"/>
        <path class="cls-1" d="m293.4604492,120.1386719h-12.7998047v12.7998047h-9.7587891v-12.7998047h-12.8798828v-9.7597656h12.8798828v-12.7998047h9.7587891v12.7998047h12.7998047v9.7597656Z"/>
        <path class="cls-1" d="m69.9975586,173.0761719l-15.2792969,56.9580078h-9.2797852l-10.4794922-34.5585938-10.4799805,34.5585938h-9.2792969L0,173.0761719h11.5996094l8.7998047,35.9189453,10.3994141-35.9189453h8.3198242l10.3999023,35.9189453,8.8793945-35.9189453h11.5996094Z"/>
        <path class="cls-1" d="m131.9311523,230.0341797h-11.5996094l-3.3603516-10.0800781h-20.2392578l-3.4394531,10.0800781h-11.5996094l20.71875-56.9580078h8.7197266l20.7998047,56.9580078Zm-17.9199219-19.4394531l-6.9599609-20.71875-7.1992188,20.71875h14.1591797Z"/>
        <path class="cls-1" d="m200.5678711,230.0341797h-12.9599609l-14.6396484-25.9189453-7.359375,8.7998047v17.1191406h-11.1201172v-56.9580078h11.1201172v24.7988281l20.0791016-24.7988281h13.5195312l-18.8798828,22.6386719,20.2402344,34.3193359Z"/>
        <path class="cls-1" d="m270.6362305,230.0341797h-11.5996094l-3.3603516-10.0800781h-20.2392578l-3.4394531,10.0800781h-11.5996094l20.71875-56.9580078h8.7197266l20.7998047,56.9580078Zm-17.9199219-19.4394531l-6.9599609-20.71875-7.1992188,20.71875h14.1591797Z"/>
        <path class="cls-1" d="m331.753418,213.234375c0,5.3876953-1.9873047,9.6142578-5.9599609,12.6796875-3.9736328,3.0673828-9.0273438,4.6005859-15.1591797,4.6005859-8.9072266,0-15.8398438-2.5068359-20.7998047-7.5205078l7.2001953-7.1992188c3.2001953,3.1992188,7.7861328,4.7998047,13.7597656,4.7998047,6.7197266,0,10.0791016-2.3466797,10.0791016-7.0400391,0-2.1328125-.5595703-3.7197266-1.6796875-4.7597656s-2.8271484-1.7197266-5.1201172-2.0400391l-6.8798828-.9599609c-10.0791016-1.3857422-15.1191406-6.6923828-15.1191406-15.9189453,0-5.1728516,1.7861328-9.3466797,5.359375-12.5205078,3.5732422-3.171875,8.4003906-4.7597656,14.4804688-4.7597656,7.6796875,0,13.8115234,2.2138672,18.3984375,6.640625l-7.0390625,6.9589844c-2.7197266-2.6123047-6.6132812-3.9199219-11.6796875-3.9199219-2.8271484,0-5,.6806641-6.5195312,2.0400391-1.5205078,1.3603516-2.2802734,3.0800781-2.2802734,5.1601562,0,1.6533203.5996094,3.0400391,1.7998047,4.1601562,1.2001953,1.1191406,2.9199219,1.8398438,5.1601562,2.1591797l6.7197266.9599609c4.8525391.6943359,8.4794922,2.1601562,10.8798828,4.4003906,2.9316406,2.7734375,4.3994141,6.7998047,4.3994141,12.0791016Z"/>
        <path class="cls-1" d="m400.9262695,230.0341797h-11.5996094l-3.3603516-10.0800781h-20.2392578l-3.4394531,10.0800781h-11.5996094l20.71875-56.9580078h8.7197266l20.7998047,56.9580078Zm-17.9199219-19.4394531l-6.9599609-20.71875-7.1992188,20.71875h14.1591797Z"/>
        <path class="cls-1" d="m443.9233398,212.0351562h-24.6396484v-9.6796875h24.6396484v9.6796875Z"/>
        <path class="cls-1" d="m505.0327148,221.9541016h-5.2001953v8.0800781h-10v-8.0800781h-23.2792969v-9.8388672l19.5195312-39.0390625h11.3603516l-19.5195312,39.0390625h11.9189453v-10.6396484h10v10.6396484h5.2001953v9.8388672Z"/>
        <path class="cls-1" d="m568.1420898,213.234375c0,5.3876953-1.9873047,9.6142578-5.9599609,12.6796875-3.9736328,3.0673828-9.0273438,4.6005859-15.1591797,4.6005859-8.9072266,0-15.8398438-2.5068359-20.7998047-7.5205078l7.2001953-7.1992188c3.2001953,3.1992188,7.7861328,4.7998047,13.7597656,4.7998047,6.7197266,0,10.0791016-2.3466797,10.0791016-7.0400391,0-2.1328125-.5595703-3.7197266-1.6796875-4.7597656s-2.8271484-1.7197266-5.1201172-2.0400391l-6.8798828-.9599609c-10.0791016-1.3857422-15.1191406-6.6923828-15.1191406-15.9189453,0-5.1728516,1.7861328-9.3466797,5.359375-12.5205078,3.5732422-3.171875,8.4003906-4.7597656,14.4804688-4.7597656,7.6796875,0,13.8115234,2.2138672,18.3984375,6.640625l-7.0390625,6.9589844c-2.7197266-2.6123047-6.6132812-3.9199219-11.6796875-3.9199219-2.8271484,0-5,.6806641-6.5195312,2.0400391-1.5205078,1.3603516-2.2802734,3.0800781-2.2802734,5.1601562,0,1.6533203.5996094,3.0400391,1.7998047,4.1601562,1.2001953,1.1191406,2.9199219,1.8398438,5.1601562,2.1591797l6.7197266.9599609c4.8525391.6943359,8.4794922,2.1601562,10.8798828,4.4003906,2.9316406,2.7734375,4.3994141,6.7998047,4.3994141,12.0791016Z"/>
        <path class="cls-1" d="m630.3950195,182.9960938h-14.8789062v47.0380859h-11.1201172v-47.0380859h-14.8789062v-9.9199219h40.8779297v9.9199219Z"/>
        <path class="cls-1" d="m696.9770508,230.0341797h-12.8798828l-11.1201172-22.7197266h-7.9990234v22.7197266h-11.1201172v-56.9580078h22.3193359c5.6523438,0,10.1855469,1.7070312,13.5996094,5.1201172,3.2519531,3.2529297,4.8798828,7.359375,4.8798828,12.3193359,0,3.7871094-1.0400391,7.0400391-3.1201172,9.7597656-1.8671875,2.3994141-4.2929688,4.1337891-7.2792969,5.1992188l12.7197266,24.5595703Zm-13.4404297-39.5585938c0-2.2275391-.7470703-4.03125-2.2392578-5.4111328-1.4941406-1.3789062-3.4404297-2.0683594-5.8398438-2.0683594h-10.4794922v14.9589844h10.4794922c2.3994141,0,4.3457031-.6884766,5.8398438-2.0683594,1.4921875-1.3789062,2.2392578-3.1826172,2.2392578-5.4111328Z"/>
        <path class="cls-1" d="m758.0698242,230.0341797h-37.5185547v-56.9580078h37.5185547v9.9199219h-26.3984375v13.359375h22.4785156v9.9199219h-22.4785156v13.8388672h26.3984375v9.9199219Z"/>
        <path class="cls-1" d="m820.6518555,230.0341797h-37.5185547v-56.9580078h37.5185547v9.9199219h-26.3984375v13.359375h22.4785156v9.9199219h-22.4785156v13.8388672h26.3984375v9.9199219Z"/>
        <path class="cls-1" d="m883.9536133,182.9960938h-14.8789062v47.0380859h-11.1201172v-47.0380859h-14.8789062v-9.9199219h40.8779297v9.9199219Z"/>
        <path class="cls-1" d="m42.7988281,269.2949219h-14.8798828v47.0380859h-11.1196289v-47.0380859H1.9199219v-9.9199219h40.8789062v9.9199219Z"/>
        <path class="cls-1" d="m106.4682617,287.8535156c0,6.1875-.2402344,10.4804688-.7207031,12.8798828-.6933594,3.9472656-2.3466797,7.2275391-4.9599609,9.8398438-4.1591797,4.1601562-9.2792969,6.2402344-15.359375,6.2402344-6.1328125,0-11.2792969-2.0800781-15.4394531-6.2402344-2.5595703-2.5595703-4.2128906-5.8398438-4.9599609-9.8398438-.4267578-2.3457031-.639673-6.6396484-.639673-12.8798828,0-6.2392578.2129152-10.53125.639673-12.8789062.7470703-4,2.4003906-7.2802734,4.9599609-9.8398438,4.1601562-4.1601562,9.3066406-6.2402344,15.4394531-6.2402344,6.0800781,0,11.2001953,2.0800781,15.359375,6.2402344,2.6132812,2.6132812,4.2666016,5.8935547,4.9599609,9.8398438.4804688,2.3994141.7207031,6.6933594.7207031,12.8789062Zm-11.1201172,0c0-4.3720703-.0537109-7.1455078-.1601562-8.3193359-.3193359-3.5195312-1.1992188-6.0800781-2.6396484-7.6796875-1.8134766-2.0263672-4.1875-3.0400391-7.1201172-3.0400391-2.9873047,0-5.3867188,1.0136719-7.1992188,3.0400391-1.3876953,1.5996094-2.2402344,4.1601562-2.5605469,7.6796875-.1074219.9599609-.1591797,3.7333984-.1591797,8.3193359,0,4.5878906.0517578,7.3603516.1591797,8.3203125.3203125,3.5195312,1.1728516,6.0800781,2.5605469,7.6796875,1.8125,2.0273438,4.2119141,3.0400391,7.1992188,3.0400391,3.3066406,0,5.8925781-1.2802734,7.7597656-3.8398438,1.4404297-1.9726562,2.1601562-7.0400391,2.1601562-15.2001953Z"/>
        <path class="cls-1" d="m177.8256836,316.3330078h-12.9599609l-14.6396484-25.9189453-7.359375,8.7998047v17.1191406h-11.1201172v-56.9580078h11.1201172v24.7988281l20.0791016-24.7988281h13.5195312l-18.8798828,22.6386719,20.2402344,34.3193359Z"/>
        <path class="cls-1" d="m237.5913086,287.8535156c0,6.1875-.2402344,10.4804688-.7207031,12.8798828-.6933594,3.9472656-2.3466797,7.2275391-4.9599609,9.8398438-4.1591797,4.1601562-9.2792969,6.2402344-15.359375,6.2402344-6.1328125,0-11.2792969-2.0800781-15.4394531-6.2402344-2.5595703-2.5595703-4.2128906-5.8398438-4.9599609-9.8398438-.4267578-2.3457031-.6396484-6.6396484-.6396484-12.8798828,0-6.2392578.2128906-10.53125.6396484-12.8789062.7470703-4,2.4003906-7.2802734,4.9599609-9.8398438,4.1601562-4.1601562,9.3066406-6.2402344,15.4394531-6.2402344,6.0800781,0,11.2001953,2.0800781,15.359375,6.2402344,2.6132812,2.6132812,4.2666016,5.8935547,4.9599609,9.8398438.4804688,2.3994141.7207031,6.6933594.7207031,12.8789062Zm-11.1201172,0c0-4.3720703-.0537109-7.1455078-.1601562-8.3193359-.3193359-3.5195312-1.1992188-6.0800781-2.6396484-7.6796875-1.8134766-2.0263672-4.1875-3.0400391-7.1201172-3.0400391-2.9873047,0-5.3867188,1.0136719-7.1992188,3.0400391-1.3876953,1.5996094-2.2402344,4.1601562-2.5605469,7.6796875-.1074219.9599609-.1591797,3.7333984-.1591797,8.3193359,0,4.5878906.0517578,7.3603516.1591797,8.3203125.3203125,3.5195312,1.1728516,6.0800781,2.5605469,7.6796875,1.8125,2.0273438,4.2119141,3.0400391,7.1992188,3.0400391,3.3066406,0,5.8925781-1.2802734,7.7597656-3.8398438,1.4404297-1.9726562,2.1601562-7.0400391,2.1601562-15.2001953Z"/>
        <path class="cls-1" d="m305.9887695,316.3330078h-12.8798828l-11.1201172-22.7197266h-7.9990234v22.7197266h-11.1201172v-56.9580078h22.3193359c5.6523438,0,10.1855469,1.7070312,13.5996094,5.1201172,3.2519531,3.2529297,4.8798828,7.359375,4.8798828,12.3193359,0,3.7871094-1.0400391,7.0400391-3.1201172,9.7597656-1.8671875,2.3994141-4.2929688,4.1337891-7.2792969,5.1992188l12.7197266,24.5595703Zm-13.4404297-39.5585938c0-2.2275391-.7470703-4.03125-2.2392578-5.4111328-1.4941406-1.3789062-3.4404297-2.0683594-5.8398438-2.0683594h-10.4794922v14.9589844h10.4794922c2.3994141,0,4.3457031-.6884766,5.8398438-2.0683594,1.4921875-1.3789062,2.2392578-3.1826172,2.2392578-5.4111328Z"/>
        <path class="cls-1" d="m369.3696289,287.8535156c0,6.1875-.2402344,10.4804688-.7207031,12.8798828-.6933594,3.9472656-2.3466797,7.2275391-4.9599609,9.8398438-4.1591797,4.1601562-9.2792969,6.2402344-15.359375,6.2402344-6.1328125,0-11.2792969-2.0800781-15.4394531-6.2402344-2.5595703-2.5595703-4.2128906-5.8398438-4.9599609-9.8398438-.4267578-2.3457031-.6396484-6.6396484-.6396484-12.8798828,0-6.2392578.2128906-10.53125.6396484-12.8789062.7470703-4,2.4003906-7.2802734,4.9599609-9.8398438,4.1601562-4.1601562,9.3066406-6.2402344,15.4394531-6.2402344,6.0800781,0,11.2001953,2.0800781,15.359375,6.2402344,2.6132812,2.6132812,4.2666016,5.8935547,4.9599609,9.8398438.4804688,2.3994141.7207031,6.6933594.7207031,12.8789062Zm-11.1201172,0c0-4.3720703-.0537109-7.1455078-.1601562-8.3193359-.3193359-3.5195312-1.1992188-6.0800781-2.6396484-7.6796875-1.8134766-2.0263672-4.1875-3.0400391-7.1201172-3.0400391-2.9873047,0-5.3867188,1.0136719-7.1992188,3.0400391-1.3876953,1.5996094-2.2402344,4.1601562-2.5605469,7.6796875-.1074219.9599609-.1591797,3.7333984-.1591797,8.3193359,0,4.5878906.0517578,7.3603516.1591797,8.3203125.3203125,3.5195312,1.1728516,6.0800781,2.5605469,7.6796875,1.8125,2.0273438,4.2119141,3.0400391,7.1992188,3.0400391,3.3066406,0,5.8925781-1.2802734,7.7597656-3.8398438,1.4404297-1.9726562,2.1601562-7.0400391,2.1601562-15.2001953Z"/>
        <path class="cls-1" d="m428.487793,316.3330078h-37.4384766v-8.9599609l24.3193359-38.078125h-23.2792969v-9.9199219h36.3984375v8.7998047l-24.3994141,38.2382812h24.3994141v9.9199219Z"/>
        <path class="cls-1" d="m499.7817383,316.3330078h-11.5996094l-3.3603516-10.0800781h-20.2392578l-3.4394531,10.0800781h-11.5996094l20.71875-56.9580078h8.7197266l20.7998047,56.9580078Zm-17.9199219-19.4394531l-6.9599609-20.71875-7.1992188,20.71875h14.1591797Z"/>
        <path class="cls-1" d="m581.8413086,259.375l-15.2792969,56.9580078h-9.2792969l-10.4804688-34.5585938-10.4794922,34.5585938h-9.2792969l-15.1992188-56.9580078h11.5996094l8.7988281,35.9189453,10.4003906-35.9189453h8.3193359l10.3994141,35.9189453,8.8798828-35.9189453h11.5996094Z"/>
        <path class="cls-1" d="m643.7749023,316.3330078h-11.5996094l-3.3603516-10.0800781h-20.2392578l-3.4394531,10.0800781h-11.5996094l20.71875-56.9580078h8.7197266l20.7998047,56.9580078Zm-17.9199219-19.4394531l-6.9599609-20.71875-7.1992188,20.71875h14.1591797Z"/>
        <path class="cls-1" d="m43.0385742,385.8310547c0,5.3876953-1.9873047,9.6142578-5.9599609,12.6796875-3.9736328,3.0673828-9.0268555,4.6005859-15.1591797,4.6005859-8.9072266,0-15.8398438-2.5068359-20.7993164-7.5205078l7.199707-7.1992188c3.199707,3.1992188,7.7861328,4.7998047,13.7592773,4.7998047,6.7197266,0,10.0800781-2.3466797,10.0800781-7.0400391,0-2.1328125-.5600586-3.7197266-1.6801758-4.7597656s-2.8276367-1.7197266-5.1196289-2.0400391l-6.8798828-.9599609c-10.0795898-1.3857422-15.1196289-6.6923828-15.1196289-15.9189453,0-5.1728516,1.7861328-9.3466797,5.3598633-12.5205078,3.5722656-3.171875,8.3999023-4.7597656,14.4794922-4.7597656,7.6796875,0,13.8120117,2.2138672,18.3994141,6.640625l-7.0395508,6.9589844c-2.7202148-2.6123047-6.6137695-3.9199219-11.6796875-3.9199219-2.8276367,0-5,.6806641-6.5200195,2.0400391-1.5200195,1.3603516-2.2797852,3.0800781-2.2797852,5.1601562,0,1.6533203.6000977,3.0400391,1.7998047,4.1601562,1.2001953,1.1191406,2.9199219,1.8398438,5.1601562,2.1591797l6.7197266.9599609c4.8520508.6943359,8.4794922,2.1601562,10.8793945,4.4003906,2.9326172,2.7734375,4.3999023,6.7998047,4.3999023,12.0791016Z"/>
        <path class="cls-1" d="m112.2114258,402.6308594h-11.5996094l-3.3603516-10.0800781h-20.2392578l-3.4394531,10.0800781h-11.5996094l20.71875-56.9580078h8.7197266l20.7998047,56.9580078Zm-17.9199219-19.4394531l-6.9599609-20.71875-7.1992188,20.71875h14.1591797Z"/>
        <path class="cls-1" d="m167.7524414,345.6728516l-17.1191406,33.5986328v23.359375h-11.0400391v-23.359375l-17.1191406-33.5986328h12.0791016l10.6396484,22.9589844,10.4794922-22.9589844h12.0800781Z"/>
        <path class="cls-1" d="m228.3022461,402.6308594h-11.5996094l-3.3603516-10.0800781h-20.2392578l-3.4394531,10.0800781h-11.5996094l20.71875-56.9580078h8.7197266l20.7998047,56.9580078Zm-17.9199219-19.4394531l-6.9599609-20.71875-7.1992188,20.71875h14.1591797Z"/>
        <path class="cls-1" d="m302.4584961,402.6308594h-11.1201172v-33.1992188l-10.8789062,21.5996094h-7.5205078l-10.9589844-21.5996094v33.1992188h-11.1201172v-56.9580078h10.9160156l14.8222656,30.7988281,14.7402344-30.7988281h11.1201172v56.9580078Z"/>
        <path class="cls-1" d="m375.3032227,402.6308594h-11.5996094l-3.3603516-10.0800781h-20.2392578l-3.4394531,10.0800781h-11.5996094l20.71875-56.9580078h8.7197266l20.7998047,56.9580078Zm-17.9199219-19.4394531l-6.9599609-20.71875-7.1992188,20.71875h14.1591797Z"/>
        <path class="cls-1" d="m436.5307617,379.2128906c0,7.8056641-1.8134766,13.6074219-5.4394531,17.4023438-4.1601562,4.3310547-9.5195312,6.4960938-16.0800781,6.4960938-6.0791016,0-11.1992188-2.0800781-15.359375-6.2402344-2.5595703-2.5595703-4.2128906-5.8398438-4.9599609-9.8398438-.4267578-2.3457031-.6396484-6.6396484-.6396484-12.8798828,0-6.2392578.2138672-10.53125.6416016-12.8789062.7470703-4,2.4033203-7.2802734,4.96875-9.8398438,4.1669922-4.1601562,9.296875-6.2402344,15.3886719-6.2402344,6.1972656,0,11.2470703,1.8398438,15.1474609,5.5205078,3.3662109,3.2529297,5.4775391,7.4931641,6.3320312,12.7197266h-11.2285156c-1.3369141-5.546875-4.7578125-8.3203125-10.265625-8.3203125-2.9414062,0-5.3193359,1.0136719-7.1376953,3.0400391-1.390625,1.5996094-2.2470703,4.1601562-2.5673828,7.6796875-.1074219.9599609-.1591797,3.7333984-.1591797,8.3193359,0,4.5878906.0517578,7.3603516.1591797,8.3203125.3203125,3.5732422,1.1728516,6.1591797,2.5605469,7.7597656,1.7597656,1.9736328,4.1318359,2.9599609,7.1191406,2.9599609,3.3603516,0,6-1.0664062,7.9199219-3.2001953,1.7060547-1.8662109,2.5605469-4.3994141,2.5605469-7.5996094v-2.1601562h-10.4804688v-9.359375h21.5195312v8.3408203Z"/>
        <path class="cls-1" d="m505.440918,402.6308594h-11.5996094l-3.3603516-10.0800781h-20.2392578l-3.4394531,10.0800781h-11.5996094l20.71875-56.9580078h8.7197266l20.7998047,56.9580078Zm-17.9199219-19.4394531l-6.9599609-20.71875-7.1992188,20.71875h14.1591797Z"/>
        <path class="cls-1" d="m566.2700195,374.1513672c0,6.1875-.2402344,10.4804688-.7207031,12.8798828-.6933594,3.9472656-2.3466797,7.2275391-4.9599609,9.8398438-4.1591797,4.1601562-9.2792969,6.2402344-15.359375,6.2402344-6.1328125,0-11.2792969-2.0800781-15.4394531-6.2402344-2.5595703-2.5595703-4.2128906-5.8398438-4.9599609-9.8398438-.4267578-2.3457031-.6396484-6.6396484-.6396484-12.8798828,0-6.2392578.2128906-10.53125.6396484-12.8789062.7470703-4,2.4003906-7.2802734,4.9599609-9.8398438,4.1601562-4.1601562,9.3066406-6.2402344,15.4394531-6.2402344,6.0800781,0,11.2001953,2.0800781,15.359375,6.2402344,2.6132812,2.6132812,4.2666016,5.8935547,4.9599609,9.8398438.4804688,2.3994141.7207031,6.6933594.7207031,12.8789062Zm-11.1201172,0c0-4.3720703-.0537109-7.1455078-.1601562-8.3193359-.3193359-3.5195312-1.1992188-6.0800781-2.6396484-7.6796875-1.8134766-2.0263672-4.1875-3.0400391-7.1201172-3.0400391-2.9873047,0-5.3867188,1.0136719-7.1992188,3.0400391-1.3876953,1.5996094-2.2402344,4.1601562-2.5605469,7.6796875-.1074219.9599609-.1591797,3.7333984-.1591797,8.3193359,0,4.5878906.0517578,7.3603516.1591797,8.3203125.3203125,3.5195312,1.1728516,6.0800781,2.5605469,7.6796875,1.8125,2.0273438,4.2119141,3.0400391,7.1992188,3.0400391,3.3066406,0,5.8925781-1.2802734,7.7597656-3.8398438,1.4404297-1.9726562,2.1601562-7.0400391,2.1601562-15.2001953Z"/>
        <path class="cls-1" d="m637.6264648,402.6308594h-12.9599609l-14.6396484-25.9189453-7.359375,8.7998047v17.1191406h-11.1201172v-56.9580078h11.1201172v24.7988281l20.0791016-24.7988281h13.5195312l-18.8798828,22.6386719,20.2402344,34.3193359Z"/>
        <path class="cls-1" d="m707.6958008,402.6308594h-11.5996094l-3.3603516-10.0800781h-20.2392578l-3.4394531,10.0800781h-11.5996094l20.71875-56.9580078h8.7197266l20.7998047,56.9580078Zm-17.9199219-19.4394531l-6.9599609-20.71875-7.1992188,20.71875h14.1591797Z"/>
      </g>
    </g>
  </g>
</svg>